<svg width="140" height="136" viewBox="0 0 140 136" fill="none" xmlns="http://www.w3.org/2000/svg">
<path opacity="0.5" d="M20 42.3736V93.6253C20.0041 96.7737 20.8323 99.8657 22.4015 102.591C23.9707 105.317 26.2258 107.58 28.9408 109.154L71.0717 133.598C73.7855 135.172 76.8639 136 79.9975 136C83.1312 136 86.2096 135.172 88.9234 133.598L131.059 109.154C133.774 107.58 136.029 105.317 137.599 102.591C139.168 99.8657 139.996 96.7737 140 93.6253V42.3736C139.999 39.2253 139.171 36.133 137.602 33.4077C136.032 30.6825 133.776 28.4205 131.059 26.8494L88.9234 2.40584C86.2104 0.829834 83.1317 0 79.9975 0C76.8634 0 73.7846 0.829834 71.0717 2.40584L28.9408 26.8494C26.2242 28.4205 23.9676 30.6825 22.3981 33.4077C20.8285 36.133 20.0014 39.2253 20 42.3736H20Z" fill="#EDF8FD"/>
<g clip-path="url(#clip0_67_393)">
<path d="M90 96.9391H82.2892V100.023H90V96.9391Z" fill="#16A1E7"/>
<path d="M43.4421 55.3092L42.5187 58.2521L52.3478 61.3361L53.2712 58.3932L43.4421 55.3092Z" fill="#16A1E7"/>
<path d="M20.6032 27.5422H17.5189V35.253H20.6032V27.5422Z" fill="#16A1E7"/>
<path d="M20.6032 41.4215H17.5189V49.1323H20.6032V41.4215Z" fill="#16A1E7"/>
<path d="M29.8561 36.7952H22.1453V39.8795H29.8561V36.7952Z" fill="#16A1E7"/>
<path d="M15.9767 36.7952H8.26593V39.8795H15.9767V36.7952Z" fill="#16A1E7"/>
<path d="M80.7471 87.6862H77.6628V95.3969H80.7471V87.6862Z" fill="#16A1E7"/>
<path d="M80.7471 101.566H77.6628V109.276H80.7471V101.566Z" fill="#16A1E7"/>
<path d="M76.1206 96.9391H68.4099V100.023H76.1206V96.9391Z" fill="#16A1E7"/>
<path d="M59.157 53.7588H50.891L43.1803 46.4027L50.1508 44.768L51.585 37.89L59.157 45.4003V53.7588ZM52.0785 50.6745H56.0727V46.6957L53.4356 44.074L52.757 47.328L49.3489 48.1145L52.0785 50.6745Z" fill="#16A1E7"/>
<path d="M58.7089 51.1184L56.528 53.2993L71.3365 68.1078L73.5174 65.9269L58.7089 51.1184Z" fill="#16A1E7"/>
<path d="M71.4942 75.3489C69.6641 75.3489 67.8752 74.8062 66.3535 73.7895C64.8319 72.7727 63.6459 71.3276 62.9456 69.6369C62.2453 67.9461 62.062 66.0857 62.4191 64.2908C62.7761 62.4959 63.6573 60.8472 64.9514 59.5531C66.2454 58.2591 67.8941 57.3778 69.689 57.0208C71.4839 56.6638 73.3444 56.847 75.0351 57.5474C76.7259 58.2477 78.171 59.4337 79.1877 60.9553C80.2044 62.4769 80.7471 64.2659 80.7471 66.0959C80.7471 68.55 79.7722 70.9035 78.037 72.6387C76.3017 74.374 73.9482 75.3489 71.4942 75.3489ZM71.4942 59.9273C70.2742 59.9273 69.0815 60.2891 68.0671 60.9669C67.0527 61.6447 66.262 62.6081 65.7951 63.7353C65.3282 64.8625 65.2061 66.1028 65.4441 67.2994C65.6821 68.496 66.2696 69.5951 67.1323 70.4578C67.995 71.3205 69.0942 71.908 70.2908 72.146C71.4873 72.384 72.7276 72.2619 73.8548 71.795C74.982 71.3281 75.9454 70.5375 76.6232 69.523C77.301 68.5086 77.6628 67.316 77.6628 66.0959C77.6628 64.4599 77.0129 62.8909 75.856 61.7341C74.6992 60.5772 73.1302 59.9273 71.4942 59.9273Z" fill="#16A1E7"/>
<path d="M71.4942 81.5176C68.4441 81.5176 65.4625 80.6132 62.9264 78.9186C60.3904 77.2241 58.4138 74.8156 57.2465 71.9977C56.0793 69.1797 55.7739 66.079 56.369 63.0875C56.964 60.096 58.4328 57.3482 60.5895 55.1914C62.7462 53.0347 65.4941 51.5659 68.4856 50.9709C71.4771 50.3758 74.5778 50.6812 77.3957 51.8485C80.2136 53.0157 82.6222 54.9923 84.3167 57.5284C86.0112 60.0644 86.9157 63.046 86.9157 66.0961C86.9157 70.1861 85.2909 74.1087 82.3988 77.0008C79.5067 79.8929 75.5842 81.5176 71.4942 81.5176ZM71.4942 53.7589C69.0541 53.7589 66.6688 54.4824 64.64 55.8381C62.6111 57.1937 61.0298 59.1205 60.0961 61.3748C59.1623 63.6292 58.918 66.1098 59.394 68.503C59.87 70.8961 61.045 73.0944 62.7704 74.8198C64.4958 76.5452 66.6941 77.7202 69.0873 78.1963C71.4805 78.6723 73.9611 78.428 76.2154 77.4942C78.4697 76.5604 80.3966 74.9791 81.7522 72.9503C83.1078 70.9214 83.8314 68.5362 83.8314 66.0961C83.8314 62.8241 82.5316 59.686 80.2179 57.3724C77.9042 55.0587 74.7662 53.7589 71.4942 53.7589Z" fill="#16A1E7"/>
<path d="M69.7824 93.8548C69.5616 93.8689 69.3401 93.8689 69.1193 93.8548L33.403 84.864L34.1432 81.8722L69.7361 90.7705H69.8286L72.8204 79.3123L75.7968 80.0988L72.805 91.5415C72.6325 92.2096 72.241 92.8006 71.6931 93.22C71.1451 93.6394 70.4723 93.8629 69.7824 93.8548Z" fill="#16A1E7"/>
<path d="M34.4671 74.0535L31.4753 73.267L42.1007 32.9397C42.3281 32.1573 42.8461 31.4915 43.5486 31.0786C44.251 30.6657 45.0848 30.5371 45.879 30.719L82.8907 39.972C83.6007 40.113 84.2384 40.4992 84.6924 41.0631C85.1463 41.627 85.3874 42.3325 85.3735 43.0563C85.3742 43.3161 85.3431 43.575 85.281 43.8273L82.0887 56.1646L79.097 55.301L82.3046 42.9637H82.135L45.1234 33.7108L34.4671 74.0535Z" fill="#16A1E7"/>
<path d="M13.4476 88.9352L10.6871 87.5473C11.3044 86.35 11.8553 85.1195 12.3372 83.8616L15.4215 71.6631C15.6888 70.5855 16.0985 69.5482 16.6398 68.5788C18.2337 65.7958 20.7979 63.6984 23.8417 62.6878L36.1789 58.4469L37.1967 61.3616L24.8595 65.6025C22.5188 66.3553 20.5441 67.956 19.3232 70.0901C18.9211 70.8115 18.6201 71.5846 18.4287 72.388L15.4215 84.6018C14.8606 86.0885 14.2011 87.5362 13.4476 88.9352Z" fill="#16A1E7"/>
<path d="M22.1453 100.023H19.061V103.108H22.1453V100.023Z" fill="#16A1E7"/>
<path d="M41.8956 61.4804L40.9723 64.4232L50.8014 67.5072L51.7247 64.5644L41.8956 61.4804Z" fill="#16A1E7"/>
<path d="M76.2286 39.8794L73.1443 39.1392C73.5915 37.3811 74.2701 34.5898 74.4705 33.7108L57.5069 29.0844L56.0572 34.8366L53.0809 34.0809L54.5151 28.2824C54.6964 27.6069 55.1019 27.013 55.6652 26.5983C56.2284 26.1836 56.9159 25.9726 57.6148 26.0001C57.9078 26.0001 57.9695 26.0001 75.55 30.7807C76.1847 30.9529 76.741 31.338 77.1256 31.8714C77.5102 32.4048 77.6999 33.0542 77.6628 33.7108C77.3042 35.793 76.8253 37.8526 76.2286 39.8794Z" fill="#16A1E7"/>
<path d="M26.2166 108.043L23.7029 106.192L28.3293 100.023L8.28136 87.6861L2.28239 94.2557L0 92.1892L5.90644 85.7276C6.39397 85.1785 7.05589 84.8143 7.78065 84.6963C8.50541 84.5783 9.24868 84.7138 9.88519 85.0799L29.9332 97.4171C30.4056 97.675 30.7989 98.0567 31.0706 98.5214C31.3423 98.986 31.4822 99.516 31.4753 100.054C31.4643 100.713 31.2427 101.35 30.843 101.874L26.2166 108.043Z" fill="#16A1E7"/>
<path d="M23.8879 96.9391L23.672 93.8548C27.6662 93.5618 30.9047 88.3647 31.3828 85.7739C31.8609 83.1831 32.3081 82.3966 33.5727 81.1474L33.804 80.9007L41.9465 73.0666C42.0824 72.827 42.1516 72.5554 42.147 72.2801C42.1456 72.0023 42.0692 71.7302 41.9259 71.4923C41.7826 71.2544 41.5777 71.0596 41.3329 70.9285C41.0881 70.7974 40.8124 70.7349 40.5349 70.7475C40.2575 70.76 39.9886 70.8473 39.7567 71.0001L25.3221 80.5923L23.6104 78.0169L38.0912 68.4093C38.85 67.9059 39.7405 67.6377 40.6511 67.6382C41.8781 67.6382 43.0549 68.1256 43.9225 68.9932C44.7902 69.8609 45.2776 71.0376 45.2776 72.2646C45.2865 73.2407 44.978 74.1933 44.3986 74.9788L43.9513 75.5186L35.8396 83.2293C34.9914 84.1238 34.9143 84.2009 34.4517 86.4216C33.6189 90.5237 29.3009 96.5998 23.8879 96.9391Z" fill="#16A1E7"/>
</g>
<defs>
<clipPath id="clip0_67_393">
<rect width="90" height="83.2762" fill="white" transform="translate(0 26)"/>
</clipPath>
</defs>
</svg>
