<svg width="140" height="136" viewBox="0 0 140 136" fill="none" xmlns="http://www.w3.org/2000/svg">
<path opacity="0.5" d="M20 42.3736V93.6253C20.0041 96.7737 20.8323 99.8657 22.4015 102.591C23.9707 105.317 26.2258 107.58 28.9408 109.154L71.0717 133.598C73.7855 135.172 76.8639 136 79.9975 136C83.1312 136 86.2096 135.172 88.9234 133.598L131.059 109.154C133.774 107.58 136.029 105.317 137.599 102.591C139.168 99.8657 139.996 96.7737 140 93.6253V42.3736C139.999 39.2253 139.171 36.133 137.602 33.4077C136.032 30.6825 133.776 28.4205 131.059 26.8494L88.9234 2.40584C86.2104 0.829834 83.1317 0 79.9975 0C76.8634 0 73.7846 0.829834 71.0717 2.40584L28.9408 26.8494C26.2242 28.4205 23.9676 30.6825 22.3981 33.4077C20.8285 36.133 20.0014 39.2253 20 42.3736H20Z" fill="#EDF8FD"/>
<g clip-path="url(#clip0_237_119)">
<path d="M14.7273 80.6364H11.4546V25H72V46.2727H68.7273V28.2727H14.7273V80.6364Z" fill="#16A1E7"/>
<path d="M14.7273 83.9092H11.4546V87.1819H14.7273V83.9092Z" fill="#16A1E7"/>
<path d="M70.3637 101.909H11.4546V90.4546H14.7273V98.6364H70.3637V101.909Z" fill="#16A1E7"/>
<path d="M22.9091 39.7273H19.6364V46.2727H22.9091V39.7273Z" fill="#16A1E7"/>
<path d="M31.0909 34.8181H27.8182V46.2727H31.0909V34.8181Z" fill="#16A1E7"/>
<path d="M39.2727 38.0908H36V46.2726H39.2727V38.0908Z" fill="#16A1E7"/>
<path d="M47.4545 33.1819H44.1818V46.2728H47.4545V33.1819Z" fill="#16A1E7"/>
<path d="M55.6364 31.5454H52.3636V46.2727H55.6364V31.5454Z" fill="#16A1E7"/>
<path d="M63.8182 31.5454H60.5455V46.2727H63.8182V31.5454Z" fill="#16A1E7"/>
<path d="M60.5455 110.091H0V33.1819H13.0909V36.4546H3.27273V106.818H57.2727V100.273H60.5455V110.091Z" fill="#16A1E7"/>
<path d="M34.3636 67.5454H19.6364V70.8181H34.3636V67.5454Z" fill="#16A1E7"/>
<path d="M40.9091 67.5454H37.6364V70.8181H40.9091V67.5454Z" fill="#16A1E7"/>
<path d="M34.3636 74.0908H19.6364V77.3635H34.3636V74.0908Z" fill="#16A1E7"/>
<path d="M40.9091 74.0908H37.6364V77.3635H40.9091V74.0908Z" fill="#16A1E7"/>
<path d="M81.8182 33.1819H78.5455V36.4546H81.8182V33.1819Z" fill="#16A1E7"/>
<path d="M81.8182 25H78.5455V28.2727H81.8182V25Z" fill="#16A1E7"/>
<path d="M81.8182 41.3635H78.5455V44.6363H81.8182V41.3635Z" fill="#16A1E7"/>
<path d="M49.6145 87.329L48.4855 85.6927C46.2021 82.5132 44.7716 78.8017 44.3303 74.9122C43.8891 71.0227 44.4518 67.085 45.9648 63.4748C47.4778 59.8646 49.8906 56.7023 52.9731 54.2896C56.0555 51.8769 59.7048 50.2943 63.5727 49.6927L65.4545 49.5454V64.3545L64.3582 64.7472C62.7651 65.3117 61.3859 66.3558 60.4102 67.7359C59.4344 69.1159 58.9101 70.7643 58.9091 72.4545C58.915 73.5858 59.1662 74.7024 59.6455 75.7272L60.12 76.7745L49.6145 87.329ZM62.1818 53.4563C59.2533 54.2142 56.5395 55.6385 54.252 57.6179C51.9646 59.5974 50.1654 62.0786 48.9949 64.868C47.8243 67.6573 47.3141 70.6794 47.5039 73.6985C47.6937 76.7175 48.5784 79.6519 50.0891 82.2727L56.2418 76.12C55.832 74.9417 55.6272 73.7019 55.6364 72.4545C55.6378 70.2882 56.2535 68.1666 57.412 66.3361C58.5706 64.5056 60.2245 63.0411 62.1818 62.1127V53.4563Z" fill="#16A1E7"/>
<path d="M90 70.8181H75.1745L74.7982 69.7381C74.4001 68.5949 73.7533 67.5542 72.9044 66.6911C72.0555 65.8281 71.0256 65.1641 69.8891 64.7472L68.7273 64.3709V49.5454L70.6091 49.84C75.4127 50.5701 79.8569 52.8172 83.2926 56.2528C86.7282 59.6885 88.9753 64.1327 89.7054 68.9363L90 70.8181ZM77.4327 67.5454H86.0891C85.2222 64.1482 83.4565 61.0472 80.9774 58.568C78.4982 56.0889 75.3972 54.3232 72 53.4563V62.1127C74.3823 63.2442 76.3012 65.1631 77.4327 67.5454Z" fill="#16A1E7"/>
<path d="M67.0909 95.3635C62.3083 95.3682 57.6466 93.862 53.7709 91.0599L52.1345 89.9472L62.64 79.4417L63.6709 79.8999C64.7421 80.3962 65.9104 80.6477 67.0909 80.6363C68.781 80.6353 70.4294 80.1109 71.8095 79.1352C73.1896 78.1595 74.2336 76.7803 74.7982 75.1872L75.1745 74.0908H90L89.7054 75.9726C88.8953 81.3829 86.1638 86.3204 82.0108 89.8814C77.8579 93.4423 72.5614 95.3885 67.0909 95.3635ZM57.2727 89.4563C59.8935 90.9669 62.8279 91.8517 65.8469 92.0415C68.866 92.2313 71.888 91.721 74.6774 90.5505C77.4668 89.3799 79.948 87.5808 81.9274 85.2933C83.9069 83.0059 85.3312 80.2921 86.0891 77.3635H77.4327C76.2332 79.8922 74.1494 81.8942 71.5748 82.9915C69.0003 84.0889 66.113 84.2057 63.4582 83.3199L57.2727 89.4563Z" fill="#16A1E7"/>
</g>
<defs>
<clipPath id="clip0_237_119">
<rect width="90" height="85.0909" fill="white" transform="translate(0 25)"/>
</clipPath>
</defs>
</svg>
