<svg width="140" height="136" viewBox="0 0 140 136" fill="none" xmlns="http://www.w3.org/2000/svg">
<path opacity="0.5" d="M20 42.3736V93.6253C20.0041 96.7737 20.8323 99.8657 22.4015 102.591C23.9707 105.317 26.2258 107.58 28.9408 109.154L71.0717 133.598C73.7855 135.172 76.8639 136 79.9975 136C83.1312 136 86.2096 135.172 88.9234 133.598L131.059 109.154C133.774 107.58 136.029 105.317 137.599 102.591C139.168 99.8657 139.996 96.7737 140 93.6253V42.3736C139.999 39.2253 139.171 36.133 137.602 33.4077C136.032 30.6825 133.776 28.4205 131.059 26.8494L88.9234 2.40584C86.2104 0.829834 83.1317 0 79.9975 0C76.8634 0 73.7846 0.829834 71.0717 2.40584L28.9408 26.8494C26.2242 28.4205 23.9676 30.6825 22.3981 33.4077C20.8285 36.133 20.0014 39.2253 20 42.3736H20Z" fill="#EDF8FD"/>
<g clip-path="url(#clip0_67_420)">
<path d="M69.9755 110.957L69.1373 107.998C69.9211 107.774 70.6986 107.515 71.4505 107.227L72.5543 110.106C71.7128 110.42 70.8458 110.708 69.9755 110.957Z" fill="#16A1E7"/>
<path d="M76.416 108.295L74.941 105.595C80.4971 102.572 84.8258 97.7074 87.1821 91.8375L90.0296 93.0053C87.4055 99.5286 82.5921 104.935 76.416 108.295Z" fill="#16A1E7"/>
<path d="M61.5265 105.976C56.6582 105.976 51.8991 104.533 47.851 101.829C43.8028 99.1247 40.6476 95.2807 38.7843 90.7831C36.921 86.2854 36.4333 81.3363 37.3829 76.5615C38.3325 71.7867 40.6767 67.4007 44.1192 63.9583C47.5616 60.5159 51.9475 58.1717 56.7223 57.2221C61.4971 56.2725 66.4463 56.7601 70.9439 58.6235C75.4415 60.4868 79.2855 63.642 81.9898 67.6901C84.6941 71.7382 86.1372 76.4974 86.1366 81.3657C86.1298 87.8906 83.5348 94.1463 78.921 98.7601C74.3072 103.374 68.0514 105.969 61.5265 105.976ZM61.5265 59.8303C57.2672 59.8303 53.1036 61.0934 49.5621 63.4597C46.0206 65.826 43.2604 69.1894 41.6304 73.1245C40.0005 77.0595 39.574 81.3896 40.405 85.5671C41.2359 89.7445 43.2869 93.5817 46.2987 96.5935C49.3105 99.6053 53.1477 101.656 57.3252 102.487C61.5026 103.318 65.8327 102.892 69.7678 101.262C73.7028 99.6318 77.0662 96.8716 79.4325 93.3301C81.7989 89.7886 83.0619 85.625 83.0619 81.3657C83.056 75.656 80.7852 70.1818 76.7478 66.1444C72.7104 62.1071 67.2362 59.8363 61.5265 59.8303Z" fill="#16A1E7"/>
<path d="M59.9876 97.3821L45.507 82.9015L53.8255 74.583L59.978 80.7355L72.3055 68.4209L80.624 76.7394L59.9876 97.3821ZM49.8582 82.9015L59.9876 93.0341L76.2696 76.749L72.3055 72.7721L59.9876 85.0771L53.8351 78.9246L49.8582 82.9015Z" fill="#16A1E7"/>
<path d="M22.2632 105.112L21.3033 102.194C24.3872 101.223 27.007 99.1531 28.6652 96.3776L31.3048 97.9581C29.255 101.357 26.0428 103.899 22.2632 105.112Z" fill="#16A1E7"/>
<path d="M16.9169 99.8234C14.7868 99.8234 12.7046 99.1917 10.9335 98.0082C9.16244 96.8247 7.78211 95.1426 6.96711 93.1746C6.1521 91.2065 5.93902 89.041 6.35481 86.9519C6.77061 84.8628 7.7966 82.9439 9.30303 81.4379C10.8095 79.9319 12.7287 78.9065 14.8179 78.4913C16.9072 78.0762 19.0726 78.2899 21.0404 79.1055C23.0082 79.9211 24.6899 81.3019 25.8728 83.0733C27.0558 84.8447 27.6869 86.9272 27.6862 89.0573C27.6828 91.9121 26.547 94.649 24.528 96.6674C22.509 98.6858 19.7718 99.8208 16.9169 99.8234ZM16.9169 81.3658C15.3982 81.3658 13.9137 81.8162 12.6509 82.6599C11.3882 83.5037 10.404 84.7029 9.8228 86.106C9.24162 87.5091 9.08956 89.053 9.38584 90.5425C9.68212 92.032 10.4134 93.4002 11.4873 94.4741C12.5612 95.548 13.9294 96.2793 15.4189 96.5756C16.9084 96.8719 18.4523 96.7198 19.8554 96.1386C21.2585 95.5574 22.4577 94.5732 23.3015 93.3105C24.1452 92.0478 24.5956 90.5632 24.5956 89.0445C24.5905 87.0095 23.7799 85.0594 22.341 83.6205C20.902 82.1815 18.9519 81.3709 16.9169 81.3658Z" fill="#16A1E7"/>
<path d="M2.13501 69.5887C0.750311 67.1016 0.0161063 64.3054 0.000439216 61.4592C-0.0152279 58.613 0.68815 55.8089 2.04539 53.3068L4.75334 54.7849C3.6428 56.8304 3.06699 59.1231 3.0793 61.4504C3.09161 63.7776 3.69164 66.0641 4.82376 68.0977L2.13501 69.5887Z" fill="#16A1E7"/>
<path d="M16.9169 72.1354C14.7868 72.1354 12.7046 71.5037 10.9335 70.3202C9.16244 69.1367 7.78211 67.4546 6.96711 65.4866C6.1521 63.5186 5.93902 61.3531 6.35481 59.2639C6.77061 57.1748 7.7966 55.2559 9.30303 53.7499C10.8095 52.2439 12.7287 51.2185 14.8179 50.8033C16.9072 50.3882 19.0726 50.6019 21.0404 51.4175C23.0082 52.2331 24.6899 53.6139 25.8728 55.3853C27.0558 57.1567 27.6869 59.2392 27.6862 61.3693C27.6828 64.2242 26.547 66.9611 24.528 68.9795C22.509 70.9979 19.7718 72.1328 16.9169 72.1354ZM16.9169 53.6779C15.3982 53.6779 13.9137 54.1282 12.6509 54.9719C11.3882 55.8157 10.404 57.0149 9.8228 58.418C9.24162 59.8211 9.08956 61.365 9.38584 62.8545C9.68212 64.344 10.4134 65.7122 11.4873 66.7861C12.5612 67.86 13.9294 68.5913 15.4189 68.8876C16.9084 69.1839 18.4523 69.0318 19.8554 68.4506C21.2585 67.8695 22.4577 66.8853 23.3015 65.6225C24.1452 64.3598 24.5956 62.8752 24.5956 61.3565C24.5905 59.3216 23.7799 57.3714 22.341 55.9325C20.902 54.4936 18.9519 53.6829 16.9169 53.6779Z" fill="#16A1E7"/>
<path d="M14.1366 41.4717C13.941 40.4289 13.8425 39.3703 13.8422 38.3094C13.8457 34.1114 15.4118 30.0653 18.235 26.9596L20.5162 29.0241C18.211 31.5656 16.9337 34.8743 16.9329 38.3062C16.9337 39.175 17.0151 40.0418 17.176 40.8955L14.1366 41.4717Z" fill="#16A1E7"/>
<path d="M30.7608 49.0818C28.6308 49.0818 26.5487 48.45 24.7777 47.2662C23.0067 46.0824 21.6264 44.3999 20.8113 42.4313C19.9962 40.4628 19.7829 38.2966 20.1984 36.2069C20.614 34.1171 21.6397 32.1975 23.1458 30.6908C24.6519 29.1841 26.5708 28.1581 28.6598 27.7424C30.7489 27.3267 32.9142 27.5401 34.882 28.3555C36.8499 29.1709 38.5318 30.5517 39.7151 32.3233C40.8985 34.095 41.5301 36.1779 41.5301 38.3086C41.5267 41.1648 40.391 43.903 38.3721 45.9227C36.3532 47.9423 33.616 49.0784 30.7608 49.0818ZM30.7608 30.6144C29.2421 30.6144 27.7575 31.0649 26.4948 31.9089C25.232 32.753 24.2478 33.9526 23.6667 35.3562C23.0855 36.7598 22.9334 38.3043 23.2297 39.7944C23.526 41.2844 24.2573 42.6531 25.3312 43.7274C26.4051 44.8016 27.7733 45.5332 29.2628 45.8296C30.7523 46.126 32.2962 45.9739 33.6993 45.3925C35.1024 44.8111 36.3016 43.8266 37.1453 42.5634C37.9891 41.3002 38.4394 39.815 38.4394 38.2958C38.4335 36.2604 37.6226 34.31 36.1839 32.8707C34.7451 31.4315 32.7955 30.6203 30.7608 30.6144Z" fill="#16A1E7"/>
<path d="M73.3157 44.8929L70.6186 43.4089C71.7414 41.3684 72.3301 39.0773 72.3301 36.7485C72.3301 34.4196 71.7414 32.1286 70.6186 30.088L73.2965 28.6008C74.6741 31.0944 75.3982 33.8958 75.4015 36.7444C75.4049 39.5929 74.6874 42.396 73.3157 44.8929Z" fill="#16A1E7"/>
<path d="M58.4487 47.541C56.3187 47.541 54.2366 46.9092 52.4656 45.7256C50.6946 44.5419 49.3142 42.8595 48.4991 40.8912C47.684 38.9228 47.4708 36.7569 47.8863 34.6673C48.3019 32.5777 49.3275 30.6583 50.8336 29.1518C52.3397 27.6453 54.2587 26.6193 56.3477 26.2037C58.4367 25.788 60.6021 26.0014 62.5699 26.8167C64.5377 27.632 66.2197 29.0127 67.403 30.7842C68.5863 32.5556 69.218 34.6383 69.218 36.7689C69.2146 39.6248 68.0789 42.3627 66.06 44.3822C64.0411 46.4016 61.3038 47.5376 58.4487 47.541ZM58.4487 29.0786C56.93 29.0786 55.4454 29.529 54.1826 30.373C52.9199 31.217 51.9357 32.4165 51.3545 33.82C50.7734 35.2235 50.6213 36.7678 50.9176 38.2577C51.2139 39.7476 51.9452 41.1162 53.0191 42.1903C54.0929 43.2645 55.4611 43.996 56.9506 44.2924C58.4401 44.5887 59.9841 44.4366 61.3872 43.8553C62.7902 43.274 63.9895 42.2895 64.8332 41.0264C65.677 39.7633 66.1273 38.2784 66.1273 36.7593C66.1214 34.724 65.3105 32.7739 63.8718 31.3347C62.433 29.8956 60.4834 29.0845 58.4487 29.0786Z" fill="#16A1E7"/>
<path d="M60.0189 46.0021H56.941V58.5119H60.0189V46.0021Z" fill="#16A1E7"/>
<path d="M37.3668 44.9393L34.8623 46.7214L46.8329 63.5129L49.3374 61.7307L37.3668 44.9393Z" fill="#16A1E7"/>
<path d="M25.8182 64.2683L24.3997 66.9956L39.1793 74.6894L40.5979 71.9621L25.8182 64.2683Z" fill="#16A1E7"/>
<path d="M38.7027 84.4735L25.8419 86.2736L26.2683 89.3184L39.1292 87.5183L38.7027 84.4735Z" fill="#16A1E7"/>
</g>
<defs>
<clipPath id="clip0_67_420">
<rect width="90" height="84.9673" fill="white" transform="translate(0 26)"/>
</clipPath>
</defs>
</svg>
