<svg width="140" height="136" viewBox="0 0 140 136" fill="none" xmlns="http://www.w3.org/2000/svg">
<path opacity="0.5" d="M20 42.3736V93.6253C20.0041 96.7737 20.8323 99.8657 22.4015 102.591C23.9707 105.317 26.2258 107.58 28.9408 109.154L71.0717 133.598C73.7855 135.172 76.8639 136 79.9975 136C83.1312 136 86.2096 135.172 88.9234 133.598L131.059 109.154C133.774 107.58 136.029 105.317 137.599 102.591C139.168 99.8657 139.996 96.7737 140 93.6253V42.3736C139.999 39.2253 139.171 36.133 137.602 33.4077C136.032 30.6825 133.776 28.4205 131.059 26.8494L88.9234 2.40584C86.2104 0.829834 83.1317 0 79.9975 0C76.8634 0 73.7846 0.829834 71.0717 2.40584L28.9408 26.8494C26.2242 28.4205 23.9676 30.6825 22.3981 33.4077C20.8285 36.133 20.0014 39.2253 20 42.3736H20Z" fill="#EDF8FD"/>
<g clip-path="url(#clip0_237_149)">
<path d="M33.3 85.1679L30.3107 84.0268C31.8343 80.0862 34.5118 76.6971 37.9928 74.3028C41.4739 71.9085 45.5964 70.6205 49.8214 70.6072V73.8215C46.2468 73.836 42.7594 74.926 39.8128 76.9496C36.8662 78.9733 34.5968 81.8369 33.3 85.1679Z" fill="#16A1E7"/>
<path d="M32.1429 91.0662H28.9286C28.9608 89.9003 29.0898 88.7392 29.3143 87.5947L32.5286 88.2054C32.3232 89.1471 32.1942 90.1038 32.1429 91.0662Z" fill="#16A1E7"/>
<path d="M49.8214 112.393C44.8003 112.374 39.9524 110.555 36.1574 107.268C32.3624 103.98 29.8718 99.4404 29.1375 94.4732L32.3518 94.0232C32.8356 97.3785 34.2739 100.524 36.4953 103.085C38.7167 105.645 41.6275 107.513 44.8808 108.466C48.1341 109.419 51.5927 109.416 54.8445 108.458C58.0963 107.5 61.0041 105.628 63.2215 103.064C65.4389 100.5 66.8723 97.3519 67.3509 93.9959C67.8295 90.6399 67.3331 87.2171 65.9209 84.1353C64.5087 81.0536 62.2402 78.4428 59.3858 76.6142C56.5314 74.7855 53.2114 73.8161 49.8214 73.8215V70.6072C55.3626 70.6072 60.6767 72.8084 64.5949 76.7266C68.5131 80.6447 70.7143 85.9589 70.7143 91.5C70.7143 97.0412 68.5131 102.355 64.5949 106.274C60.6767 110.192 55.3626 112.393 49.8214 112.393Z" fill="#16A1E7"/>
<path d="M49.8214 94.7142C48.1164 94.7142 46.4813 94.037 45.2757 92.8314C44.0701 91.6258 43.3928 89.9906 43.3928 88.2857V85.0714C43.3928 83.3664 44.0701 81.7313 45.2757 80.5257C46.4813 79.3201 48.1164 78.6428 49.8214 78.6428C51.5264 78.6428 53.1615 79.3201 54.3671 80.5257C55.5727 81.7313 56.25 83.3664 56.25 85.0714V88.2857C56.25 89.9906 55.5727 91.6258 54.3671 92.8314C53.1615 94.037 51.5264 94.7142 49.8214 94.7142ZM49.8214 81.8571C48.9689 81.8571 48.1513 82.1958 47.5486 82.7985C46.9458 83.4013 46.6071 84.2189 46.6071 85.0714V88.2857C46.6071 89.1382 46.9458 89.9557 47.5486 90.5585C48.1513 91.1613 48.9689 91.5 49.8214 91.5C50.6739 91.5 51.4914 91.1613 52.0942 90.5585C52.697 89.9557 53.0357 89.1382 53.0357 88.2857V85.0714C53.0357 84.2189 52.697 83.4013 52.0942 82.7985C51.4914 82.1958 50.6739 81.8571 49.8214 81.8571Z" fill="#16A1E7"/>
<path d="M41.7857 108.198H38.5714C38.5714 102.252 43.2964 97.9285 49.8214 97.9285C56.3464 97.9285 61.0714 102.252 61.0714 108.198H57.8571C57.8571 104.052 54.5464 101.143 49.8214 101.143C45.0964 101.143 41.7857 104.052 41.7857 108.198Z" fill="#16A1E7"/>
<path d="M16.5696 28.1464L15.5732 25.0929C17.8108 24.3688 20.1481 24 22.5 24V27.2143C20.4862 27.2084 18.4844 27.5231 16.5696 28.1464Z" fill="#16A1E7"/>
<path d="M10.6393 31.2964L8.64642 28.8214C9.73271 27.9581 10.8945 27.1943 12.1179 26.5393L13.5964 29.3839C12.5536 29.9284 11.5636 30.5687 10.6393 31.2964Z" fill="#16A1E7"/>
<path d="M22.5 69C18.0907 68.9985 13.779 67.7015 10.1006 65.2702C6.4222 62.8388 3.53928 59.3802 1.81001 55.3242C0.0807447 51.2681 -0.418642 46.7933 0.373898 42.4558C1.16644 38.1183 3.21597 34.1093 6.26785 30.9268L8.58213 33.1446C5.50416 36.3511 3.62822 40.5224 3.27164 44.9528C2.91506 49.3832 4.09972 53.8007 6.62524 57.4582C9.15075 61.1157 12.8621 63.7887 17.1314 65.0248C21.4008 66.261 25.9661 65.9845 30.0551 64.2422C34.1441 62.4999 37.5058 59.3987 39.5715 55.4632C41.6372 51.5277 42.2802 46.9994 41.3916 42.6444C40.503 38.2894 38.1374 34.375 34.695 31.5634C31.2526 28.7517 26.9447 27.2154 22.5 27.2143V24C28.4674 24 34.1903 26.3705 38.4099 30.5901C42.6295 34.8097 45 40.5326 45 46.5C45 52.4674 42.6295 58.1903 38.4099 62.4099C34.1903 66.6295 28.4674 69 22.5 69Z" fill="#16A1E7"/>
<path d="M22.5 48.1071C20.795 48.1071 19.1599 47.4298 17.9543 46.2242C16.7487 45.0186 16.0714 43.3835 16.0714 41.6785V38.4642C16.0714 36.7593 16.7487 35.1241 17.9543 33.9185C19.1599 32.7129 20.795 32.0356 22.5 32.0356C24.2049 32.0356 25.8401 32.7129 27.0457 33.9185C28.2513 35.1241 28.9286 36.7593 28.9286 38.4642V41.6785C28.9286 43.3835 28.2513 45.0186 27.0457 46.2242C25.8401 47.4298 24.2049 48.1071 22.5 48.1071ZM22.5 35.2499C21.6475 35.2499 20.8299 35.5886 20.2271 36.1914C19.6243 36.7942 19.2857 37.6117 19.2857 38.4642V41.6785C19.2857 42.531 19.6243 43.3485 20.2271 43.9513C20.8299 44.5541 21.6475 44.8928 22.5 44.8928C23.3525 44.8928 24.17 44.5541 24.7728 43.9513C25.3756 43.3485 25.7143 42.531 25.7143 41.6785V38.4642C25.7143 37.6117 25.3756 36.7942 24.7728 36.1914C24.17 35.5886 23.3525 35.2499 22.5 35.2499Z" fill="#16A1E7"/>
<path d="M14.4643 65.0464H11.2501V62.5714C11.2016 61.0951 11.4482 59.624 11.9752 58.2442C12.5023 56.8644 13.2994 55.6036 14.3197 54.5357C15.4025 53.485 16.6832 52.6598 18.0875 52.108C19.4918 51.5563 20.9916 51.2889 22.5001 51.3214C24.0006 51.2324 25.503 51.4625 26.9082 51.9964C28.3135 52.5303 29.5896 53.356 30.6525 54.4189C31.7154 55.4818 32.5411 56.758 33.075 58.1632C33.6089 59.5684 33.839 61.0708 33.75 62.5714V65.0464H30.5358V62.5714C30.6068 61.4977 30.4476 60.4213 30.0689 59.4142C29.6902 58.407 29.1007 57.4924 28.3399 56.7316C27.579 55.9707 26.6644 55.3812 25.6573 55.0025C24.6501 54.6238 23.5737 54.4646 22.5001 54.5357C21.4154 54.4979 20.3341 54.676 19.3189 55.0594C18.3036 55.4429 17.3746 56.0242 16.5858 56.7696C15.8586 57.5432 15.2957 58.4561 14.9311 59.4533C14.5665 60.4505 14.4077 61.5111 14.4643 62.5714V65.0464Z" fill="#16A1E7"/>
<path d="M70.7143 68.9999C65.5994 68.9999 60.694 66.968 57.0772 63.3512C53.4605 59.7345 51.4286 54.8291 51.4286 49.7142C51.4286 44.5993 53.4605 39.6939 57.0772 36.0771C60.694 32.4603 65.5994 30.4285 70.7143 30.4285V33.6428C67.6606 33.6418 64.6699 34.5109 62.0923 36.1483C59.5146 37.7856 57.4568 40.1234 56.1598 42.888C54.8628 45.6525 54.3802 48.7293 54.7686 51.7582C55.157 54.7871 56.4002 57.6427 58.3528 59.9905C60.3054 62.3384 62.8865 64.0814 65.7938 65.0154C68.7011 65.9494 71.8144 66.0358 74.769 65.2645C77.7237 64.4931 80.3975 62.896 82.4772 60.66C84.557 58.4241 85.9568 55.6419 86.5125 52.6392L89.7268 53.2178C88.9065 57.6579 86.5543 61.6696 83.08 64.5536C79.6057 67.4375 75.2296 69.0111 70.7143 68.9999Z" fill="#16A1E7"/>
<path d="M90 49.7143H86.7857C86.7806 48.7339 86.6946 47.7555 86.5286 46.7893L89.7428 46.2107C89.9325 47.3686 90.0186 48.5411 90 49.7143Z" fill="#16A1E7"/>
<path d="M85.6929 43.8643C84.5152 40.8508 82.4554 38.263 79.7829 36.4393C77.1104 34.6156 73.9497 33.6409 70.7143 33.6429V30.4286C74.5984 30.414 78.3955 31.5783 81.6037 33.7678C84.8119 35.9573 87.2801 39.0688 88.6822 42.6911L85.6929 43.8643Z" fill="#16A1E7"/>
<path d="M70.7143 52.9286C69.0093 52.9286 67.3742 52.2513 66.1686 51.0457C64.963 49.8401 64.2857 48.205 64.2857 46.5V43.2857C64.2857 41.5808 64.963 39.9457 66.1686 38.7401C67.3742 37.5345 69.0093 36.8572 70.7143 36.8572C72.4192 36.8572 74.0544 37.5345 75.26 38.7401C76.4656 39.9457 77.1429 41.5808 77.1429 43.2857V46.5C77.1429 48.205 76.4656 49.8401 75.26 51.0457C74.0544 52.2513 72.4192 52.9286 70.7143 52.9286ZM70.7143 40.0715C69.8618 40.0715 69.0442 40.4101 68.4414 41.0129C67.8386 41.6157 67.5 42.4333 67.5 43.2857V46.5C67.5 47.3525 67.8386 48.1701 68.4414 48.7729C69.0442 49.3757 69.8618 49.7143 70.7143 49.7143C71.5668 49.7143 72.3843 49.3757 72.9871 48.7729C73.5899 48.1701 73.9286 47.3525 73.9286 46.5V43.2857C73.9286 42.4333 73.5899 41.6157 72.9871 41.0129C72.3843 40.4101 71.5668 40.0715 70.7143 40.0715Z" fill="#16A1E7"/>
<path d="M62.8232 64.966L59.6089 64.3232C60.6053 59.5018 65.041 56.1428 70.65 56.1428C76.2589 56.1428 80.7268 59.4375 81.691 64.3392L78.4767 64.966C77.9464 61.6071 74.7642 59.3571 70.7142 59.3571C66.6642 59.3571 63.4982 61.6071 62.8232 64.966Z" fill="#16A1E7"/>
<path d="M53.0357 44.8928H43.3928V48.1071H53.0357V44.8928Z" fill="#16A1E7"/>
<path d="M35.1233 63.3386L32.3323 64.9331L38.519 75.7619L41.3099 74.1674L35.1233 63.3386Z" fill="#16A1E7"/>
<path d="M11.7365 71.4184L8.94562 73.0129L22.6981 97.0846L25.4891 95.4901L11.7365 71.4184Z" fill="#16A1E7"/>
<path d="M62.6801 65.4067L58.2735 74.218L61.1483 75.6557L65.5549 66.8444L62.6801 65.4067Z" fill="#16A1E7"/>
<path d="M80.5005 69.8861L76.4835 77.9219L79.3586 79.3591L83.3756 71.3233L80.5005 69.8861Z" fill="#16A1E7"/>
<path d="M74.8883 81.1396L73.278 84.3594L76.1528 85.7971L77.7631 82.5773L74.8883 81.1396Z" fill="#16A1E7"/>
<path d="M54.9545 26.9099L54.3231 30.0615L57.5377 30.7056L58.1692 27.554L54.9545 26.9099Z" fill="#16A1E7"/>
<path d="M40.4868 24.0259L39.8564 27.1777L51.1085 29.4282L51.7389 26.2763L40.4868 24.0259Z" fill="#16A1E7"/>
</g>
<defs>
<clipPath id="clip0_237_149">
<rect width="90" height="88.3929" fill="white" transform="translate(0 24)"/>
</clipPath>
</defs>
</svg>
