<svg width="140" height="136" viewBox="0 0 140 136" fill="none" xmlns="http://www.w3.org/2000/svg">
<path opacity="0.5" d="M20 42.3736V93.6253C20.0041 96.7737 20.8323 99.8657 22.4015 102.591C23.9707 105.317 26.2258 107.58 28.9408 109.154L71.0717 133.598C73.7855 135.172 76.8639 136 79.9975 136C83.1312 136 86.2096 135.172 88.9234 133.598L131.059 109.154C133.774 107.58 136.029 105.317 137.599 102.591C139.168 99.8657 139.996 96.7737 140 93.6253V42.3736C139.999 39.2253 139.171 36.133 137.602 33.4077C136.032 30.6825 133.776 28.4205 131.059 26.8494L88.9234 2.40584C86.2104 0.829834 83.1317 0 79.9975 0C76.8634 0 73.7846 0.829834 71.0717 2.40584L28.9408 26.8494C26.2242 28.4205 23.9676 30.6825 22.3981 33.4077C20.8285 36.133 20.0014 39.2253 20 42.3736H20Z" fill="#EDF8FD"/>
<g clip-path="url(#clip0_68_446)">
<path d="M56.842 48.2632C55.5929 48.2632 54.3718 47.8928 53.3332 47.1988C52.2945 46.5048 51.485 45.5184 51.007 44.3643C50.529 43.2103 50.4039 41.9404 50.6476 40.7152C50.8913 39.4901 51.4928 38.3647 52.3761 37.4814C53.2594 36.5982 54.3847 35.9966 55.6099 35.753C56.835 35.5093 58.1049 35.6343 59.259 36.1124C60.4131 36.5904 61.3994 37.3999 62.0934 38.4385C62.7874 39.4771 63.1578 40.6982 63.1578 41.9474C63.1578 43.6224 62.4924 45.2289 61.308 46.4133C60.1235 47.5978 58.5171 48.2632 56.842 48.2632ZM56.842 38.7895C56.2175 38.7895 55.6069 38.9747 55.0876 39.3217C54.5683 39.6687 54.1635 40.1619 53.9245 40.7389C53.6855 41.3159 53.623 41.9509 53.7448 42.5635C53.8667 43.176 54.1674 43.7387 54.6091 44.1804C55.0507 44.622 55.6134 44.9228 56.226 45.0446C56.8385 45.1665 57.4735 45.1039 58.0505 44.8649C58.6275 44.6259 59.1207 44.2211 59.4677 43.7018C59.8147 43.1825 59.9999 42.572 59.9999 41.9474C59.9999 41.1099 59.6672 40.3066 59.075 39.7144C58.4828 39.1222 57.6796 38.7895 56.842 38.7895Z" fill="#16A1E7"/>
<path d="M85.2631 32.4736H82.1052V43.5263H85.2631V32.4736Z" fill="#16A1E7"/>
<path d="M78.9473 95.6316H75.7894V98.7895H78.9473V95.6316Z" fill="#16A1E7"/>
<path d="M78.9473 89.3158H75.7894V92.4737H78.9473V89.3158Z" fill="#16A1E7"/>
<path d="M66.3157 109.842H63.1578V113H66.3157V109.842Z" fill="#16A1E7"/>
<path d="M66.3157 98.7896H63.1578V106.684H66.3157V98.7896Z" fill="#16A1E7"/>
<path d="M11.0527 95.6316H7.89478V106.684H11.0527V95.6316Z" fill="#16A1E7"/>
<path d="M3.15789 56.1578H0V59.3157H3.15789V56.1578Z" fill="#16A1E7"/>
<path d="M3.15789 49.8422H0V53.0001H3.15789V49.8422Z" fill="#16A1E7"/>
<path d="M12.6315 35.6316H9.47363V49.8421H12.6315V35.6316Z" fill="#16A1E7"/>
<path d="M37.8947 38.7896H34.7368V41.9474H37.8947V38.7896Z" fill="#16A1E7"/>
<path d="M37.8947 32.4736H34.7368V35.6315H37.8947V32.4736Z" fill="#16A1E7"/>
<path d="M37.8947 26.1578H34.7368V29.3157H37.8947V26.1578Z" fill="#16A1E7"/>
<path d="M41.9053 98.8369L39.1263 97.3369L42.6158 90.8947H34.6737L38.9211 79.9053L41.8737 81.0421L39.2842 87.7369H47.9211L41.9053 98.8369Z" fill="#16A1E7"/>
<path d="M74.2106 78.2632V61.1948C74.2106 58.9211 72.9158 58.1474 70.6422 56.979C69.926 56.6387 69.2349 56.2482 68.5737 55.8106L70.3579 53.2053C70.9193 53.5619 71.4991 53.8887 72.0948 54.1843C74.3211 55.3211 77.3685 56.8843 77.3685 61.1948V78.2632H74.2106Z" fill="#16A1E7"/>
<path d="M63.158 92.4737V89.3158C66.0893 89.3158 68.9006 88.1513 70.9734 86.0786C73.0461 84.0058 74.2106 81.1945 74.2106 78.2632C74.2106 75.3318 73.0461 72.5206 70.9734 70.4478C68.9006 68.375 66.0893 67.2105 63.158 67.2105C62.1712 67.2753 61.19 67.4072 60.2211 67.6053L58.5001 67.9526L58.3422 66.2158C57.9327 62.0144 56.0722 58.0869 53.0806 55.1087C50.089 52.1305 46.1533 50.2877 41.9501 49.8971C37.7469 49.5065 33.5389 50.5925 30.0498 52.9685C26.5606 55.3444 24.0083 58.8618 22.8316 62.9158L19.8 62.0316C21.1436 57.416 24.0079 53.3901 27.9278 50.6075C31.8477 47.8249 36.5931 46.449 41.3935 46.7032C46.1939 46.9574 50.7675 48.8267 54.3716 52.0078C57.9758 55.1888 60.3988 59.4947 61.2474 64.2263C63.1948 63.9217 65.1842 64.0254 67.0893 64.531C68.9944 65.0366 70.7734 65.933 72.3134 67.1632C73.8534 68.3934 75.1207 69.9305 76.0346 71.6769C76.9485 73.4232 77.4892 75.3406 77.6222 77.3071C77.7552 79.2737 77.4777 81.2464 76.8072 83.0999C76.1367 84.9534 75.088 86.6471 73.7277 88.0735C72.3674 89.4998 70.7252 90.6276 68.9056 91.3852C67.0859 92.1427 65.1286 92.5134 63.158 92.4737Z" fill="#16A1E7"/>
<path d="M6.55262 86.7106C4.74703 85.4816 3.23163 83.8731 2.11231 81.9976C0.993001 80.122 0.296788 78.0246 0.0723347 75.852C-0.152118 73.6794 0.100604 71.484 0.812838 69.4192C1.52507 67.3544 2.67963 65.4701 4.19583 63.8979C5.71203 62.3257 7.55327 61.1036 9.59088 60.3171C11.6285 59.5305 13.8133 59.1983 15.9926 59.3439C18.1719 59.4895 20.2932 60.1092 22.2081 61.1598C24.1229 62.2104 25.7853 63.6665 27.0789 65.4264L24.5368 67.3053C23.5166 65.9134 22.2045 64.7612 20.6923 63.9295C19.1802 63.0978 17.5045 62.6067 15.7826 62.4905C14.0607 62.3743 12.3343 62.6359 10.7241 63.2569C9.11387 63.878 7.65888 64.8434 6.46094 66.0857C5.263 67.328 4.35107 68.8172 3.78899 70.4489C3.22691 72.0806 3.02826 73.8154 3.20696 75.5319C3.38565 77.2485 3.93737 78.9052 4.82349 80.3861C5.7096 81.8671 6.9087 83.1364 8.33683 84.1053L6.55262 86.7106Z" fill="#16A1E7"/>
<path d="M43.0894 113H37.4368C36.8705 113.002 36.3096 112.891 35.7865 112.674C35.2634 112.457 34.7885 112.139 34.3894 111.737C33.6059 110.928 33.1647 109.847 33.1578 108.721V103.526H47.3684V108.721C47.3684 109.856 46.9175 110.944 46.1151 111.747C45.3126 112.549 44.2243 113 43.0894 113ZM36.3157 106.684V108.721C36.3249 109.029 36.4488 109.321 36.6631 109.542C36.8722 109.739 37.1497 109.846 37.4368 109.842H43.0894C43.3855 109.838 43.6682 109.719 43.8776 109.509C44.087 109.3 44.2064 109.017 44.2105 108.721V106.684H36.3157Z" fill="#16A1E7"/>
<path d="M71.0527 67.2105H67.8948C67.8948 65.6316 67.8948 64.4947 67.8948 63.0737C67.8948 60.2632 67.8948 57.3737 67.8948 54.5947C67.4053 37.0684 63.1579 26.1737 56.8421 26.1737C51.3158 26.1579 47.3684 34.6684 46.1526 48.8632L42.9948 48.6105C44.3526 32.1263 49.2632 23 56.8421 23C65.2895 23 70.4527 34.5421 71.0527 54.5789C71.0527 57.4211 71.0527 60.3105 71.0527 63.1526C71.0527 64.5105 71.0527 65.6316 71.0527 67.2105Z" fill="#16A1E7"/>
<path d="M47.2263 105.768L44.3527 104.442C44.5421 104.032 49.0895 94.2263 50.6684 90.8947C51.5771 89.1919 52.0694 87.2981 52.1053 85.3684C52.1053 82.2277 50.8576 79.2156 48.6368 76.9948C46.416 74.7739 43.4039 73.5263 40.2632 73.5263C37.1225 73.5263 34.1104 74.7739 31.8896 76.9948C29.6687 79.2156 28.4211 82.2277 28.4211 85.3684C28.4416 87.2925 28.912 89.185 29.7948 90.8947C31.4527 94.2105 35.9842 104.016 36.1106 104.426L33.2369 105.753C33.2369 105.658 28.5 95.5684 26.9211 92.3C25.8355 90.1503 25.2678 87.7766 25.2632 85.3684C25.2632 81.3902 26.8435 77.5749 29.6566 74.7618C32.4696 71.9488 36.2849 70.3684 40.2632 70.3684C44.2414 70.3684 48.0567 71.9488 50.8698 74.7618C53.6828 77.5749 55.2632 81.3902 55.2632 85.3684C55.2464 87.7858 54.6623 90.1654 53.5579 92.3158C51.9316 95.6316 47.2737 105.674 47.2263 105.768Z" fill="#16A1E7"/>
<path d="M30.3474 63.0894L27.7106 61.3525C28.9102 59.542 30.482 58.0079 32.3211 56.8525L33.9948 59.5367C32.5398 60.4476 31.2962 61.6588 30.3474 63.0894Z" fill="#16A1E7"/>
<path d="M36.7737 58.2579L35.8422 55.2421C37.0525 54.8696 38.3039 54.6469 39.5685 54.579L39.7106 57.7369C38.714 57.7895 37.7276 57.9645 36.7737 58.2579Z" fill="#16A1E7"/>
</g>
<defs>
<clipPath id="clip0_68_446">
<rect width="85.2632" height="90" fill="white" transform="translate(0 23)"/>
</clipPath>
</defs>
</svg>
