<svg width="140" height="136" viewBox="0 0 140 136" fill="none" xmlns="http://www.w3.org/2000/svg">
<path opacity="0.5" d="M20 42.3736V93.6253C20.0041 96.7737 20.8323 99.8657 22.4015 102.591C23.9707 105.317 26.2258 107.58 28.9408 109.154L71.0717 133.598C73.7855 135.172 76.8639 136 79.9975 136C83.1312 136 86.2096 135.172 88.9234 133.598L131.059 109.154C133.774 107.58 136.029 105.317 137.599 102.591C139.168 99.8657 139.996 96.7737 140 93.6253V42.3736C139.999 39.2253 139.171 36.133 137.602 33.4077C136.032 30.6825 133.776 28.4205 131.059 26.8494L88.9234 2.40584C86.2104 0.829834 83.1317 0 79.9975 0C76.8634 0 73.7846 0.829834 71.0717 2.40584L28.9408 26.8494C26.2242 28.4205 23.9676 30.6825 22.3981 33.4077C20.8285 36.133 20.0014 39.2253 20 42.3736H20Z" fill="#EDF8FD"/>
<g clip-path="url(#clip0_237_183)">
<path d="M88.3636 103.182H41.6454V99.909H85.0909V51.489L72.9654 39.3635H50.7272V36.0908H74.3072L88.3636 50.1472V103.182Z" fill="#16A1E7"/>
<path d="M39.2727 54.0908H36V85.1817H39.2727V54.0908Z" fill="#16A1E7"/>
<path d="M86.7273 52.4546H72V37.7273H75.2727V49.1818H86.7273V52.4546Z" fill="#16A1E7"/>
<path d="M47.4545 50.8182H44.1818V26.2727H39.2727V50.8182H36V23H47.4545V50.8182Z" fill="#16A1E7"/>
<path d="M32.7272 50.8182H29.4545V34.4546H24.5454V50.8182H21.2727V31.1819H32.7272V50.8182Z" fill="#16A1E7"/>
<path d="M18 50.8182H14.7272V41H9.81814V50.8182H6.54541V37.7273H18V50.8182Z" fill="#16A1E7"/>
<path d="M63.8182 59H49.0909V62.2727H63.8182V59Z" fill="#16A1E7"/>
<path d="M75.2728 65.5454H49.0909V68.8181H75.2728V65.5454Z" fill="#16A1E7"/>
<path d="M75.2728 72.0908H49.0909V75.3635H75.2728V72.0908Z" fill="#16A1E7"/>
<path d="M76.909 93.3636C75.6071 93.3636 74.3584 92.8464 73.4378 91.9258C72.5172 91.0051 71.9999 89.7565 71.9999 88.4545C71.9999 88.0205 71.8275 87.6043 71.5207 87.2974C71.2138 86.9905 70.7976 86.8181 70.3636 86.8181C69.9296 86.8181 69.5134 86.9905 69.2065 87.2974C68.8996 87.6043 68.7272 88.0205 68.7272 88.4545C68.7272 89.7565 68.21 91.0051 67.2894 91.9258C66.3687 92.8464 65.1201 93.3636 63.8181 93.3636H62.1818V90.0909H63.8181C64.2521 90.0909 64.6683 89.9185 64.9752 89.6116C65.2821 89.3047 65.4545 88.8885 65.4545 88.4545C65.4545 87.1525 65.9717 85.9039 66.8923 84.9833C67.813 84.0626 69.0616 83.5454 70.3636 83.5454C71.6656 83.5454 72.9142 84.0626 73.8348 84.9833C74.7555 85.9039 75.2727 87.1525 75.2727 88.4545C75.2727 88.8885 75.4451 89.3047 75.7519 89.6116C76.0588 89.9185 76.475 90.0909 76.909 90.0909C77.5212 90.0899 78.1087 89.849 78.5454 89.42L80.0345 87.9472L82.3254 90.2872L80.8527 91.7436C79.8024 92.7813 78.3855 93.3633 76.909 93.3636Z" fill="#16A1E7"/>
<path d="M88.3637 106.455H85.0909V109.727H88.3637V106.455Z" fill="#16A1E7"/>
<path d="M80.1818 106.455H76.9091V109.727H80.1818V106.455Z" fill="#16A1E7"/>
<path d="M72 106.455H68.7273V109.727H72V106.455Z" fill="#16A1E7"/>
<path d="M8.18182 113H0V109.727H8.18182C8.61581 109.727 9.03202 109.555 9.3389 109.248C9.64578 108.941 9.81818 108.525 9.81818 108.091V86.8183C9.81818 86.3843 9.64578 85.9681 9.3389 85.6612C9.03202 85.3543 8.61581 85.1819 8.18182 85.1819H0V81.9092H8.18182C9.48379 81.9092 10.7324 82.4264 11.6531 83.347C12.5737 84.2677 13.0909 85.5163 13.0909 86.8183V108.091C13.0909 109.393 12.5737 110.642 11.6531 111.562C10.7324 112.483 9.48379 113 8.18182 113Z" fill="#16A1E7"/>
<path d="M6.54543 88.4546H3.27271V91.7273H6.54543V88.4546Z" fill="#16A1E7"/>
<path d="M35.1818 111.364H21.2727C18.7943 111.364 16.3827 110.56 14.4 109.073L10.4727 106.127L12.4363 103.509L16.3636 106.455C17.7826 107.512 19.5034 108.085 21.2727 108.091H35.1818C36.1057 108.098 37.0043 107.789 37.7279 107.214C38.4514 106.64 38.9562 105.834 39.1582 104.933L42.4309 90.8437C42.4934 90.5971 42.5317 90.345 42.5454 90.091C42.5454 89.223 42.2006 88.3906 41.5869 87.7768C40.9731 87.1631 40.1407 86.8183 39.2727 86.8183H27.8182C26.9502 86.8183 26.1177 86.4735 25.504 85.8597C24.8902 85.2459 24.5454 84.4135 24.5454 83.5455C24.5204 83.3226 24.5204 83.0976 24.5454 82.8746L26.1818 74.0055C26.1905 73.913 26.1905 73.8199 26.1818 73.7273C26.1818 73.2934 26.0094 72.8771 25.7025 72.5703C25.3956 72.2634 24.9794 72.091 24.5454 72.091C24.2527 72.0886 23.9647 72.1647 23.7114 72.3115C23.4581 72.4583 23.2489 72.6703 23.1054 72.9255L12.8782 90.9255L10.0309 89.2892L20.2582 71.2892C20.7895 70.3363 21.6231 69.5876 22.6273 69.1613C23.6316 68.735 24.7492 68.6554 25.8037 68.9349C26.8582 69.2145 27.7896 69.8374 28.4507 70.7053C29.1118 71.5731 29.465 72.6364 29.4545 73.7273C29.4791 74.0104 29.4791 74.2952 29.4545 74.5783L27.8182 83.5455H39.2727C41.0087 83.5455 42.6735 84.2351 43.901 85.4627C45.1285 86.6902 45.8182 88.355 45.8182 90.091C45.8167 90.5927 45.7563 91.0925 45.6382 91.5801L42.3654 105.686C41.9903 107.307 41.0747 108.752 39.7692 109.784C38.4637 110.816 36.8459 111.373 35.1818 111.364Z" fill="#16A1E7"/>
</g>
<defs>
<clipPath id="clip0_237_183">
<rect width="88.3636" height="90" fill="white" transform="translate(0 23)"/>
</clipPath>
</defs>
</svg>
