<svg width="140" height="136" viewBox="0 0 140 136" fill="none" xmlns="http://www.w3.org/2000/svg">
<path opacity="0.5" d="M20 42.3736V93.6253C20.0041 96.7737 20.8323 99.8657 22.4015 102.591C23.9707 105.317 26.2258 107.58 28.9408 109.154L71.0717 133.598C73.7855 135.172 76.8639 136 79.9975 136C83.1312 136 86.2096 135.172 88.9234 133.598L131.059 109.154C133.774 107.58 136.029 105.317 137.599 102.591C139.168 99.8657 139.996 96.7737 140 93.6253V42.3736C139.999 39.2253 139.171 36.133 137.602 33.4077C136.032 30.6825 133.776 28.4205 131.059 26.8494L88.9234 2.40584C86.2104 0.829834 83.1317 0 79.9975 0C76.8634 0 73.7846 0.829834 71.0717 2.40584L28.9408 26.8494C26.2242 28.4205 23.9676 30.6825 22.3981 33.4077C20.8285 36.133 20.0014 39.2253 20 42.3736H20Z" fill="#EDF8FD"/>
<g clip-path="url(#clip0_68_472)">
<path d="M75 95.5H21C19.8065 95.5 18.6619 95.0259 17.818 94.182C16.9741 93.3381 16.5 92.1935 16.5 91V49C16.5 47.8065 16.9741 46.6619 17.818 45.818C18.6619 44.9741 19.8065 44.5 21 44.5H72V47.5H21C20.6022 47.5 20.2206 47.658 19.9393 47.9393C19.658 48.2206 19.5 48.6022 19.5 49V91C19.5 91.3978 19.658 91.7794 19.9393 92.0607C20.2206 92.342 20.6022 92.5 21 92.5H75C75.3978 92.5 75.7794 92.342 76.0607 92.0607C76.342 91.7794 76.5 91.3978 76.5 91V55H79.5V91C79.5 92.1935 79.0259 93.3381 78.182 94.182C77.3381 95.0259 76.1935 95.5 75 95.5Z" fill="#16A1E7"/>
<path d="M13.5 47.5H10.5V37C10.5 36.2044 10.8161 35.4413 11.3787 34.8787C11.9413 34.3161 12.7044 34 13.5 34H24C24.7957 34 25.5587 34.3161 26.1213 34.8787C26.6839 35.4413 27 36.2044 27 37V41.5H24V37H13.5V47.5Z" fill="#16A1E7"/>
<path d="M3 70H0V53.5C0 52.7044 0.316071 51.9413 0.87868 51.3787C1.44129 50.8161 2.20435 50.5 3 50.5H10.5C11.2957 50.5 12.0587 50.8161 12.6213 51.3787C13.1839 51.9413 13.5 52.7044 13.5 53.5V65.5H10.5V53.5H3V70Z" fill="#16A1E7"/>
<path d="M34.5 53.5H31.5V56.5H34.5V53.5Z" fill="#16A1E7"/>
<path d="M63 85H60V88H63V85Z" fill="#16A1E7"/>
<path d="M28.5 53.5H25.5V56.5H28.5V53.5Z" fill="#16A1E7"/>
<path d="M40.5 53.5H37.5V56.5H40.5V53.5Z" fill="#16A1E7"/>
<path d="M69 85H66V88H69V85Z" fill="#16A1E7"/>
<path d="M57 85H54V88H57V85Z" fill="#16A1E7"/>
<path d="M75 101.5H72V104.5H75V101.5Z" fill="#16A1E7"/>
<path d="M46.5 107.5H13.5V110.5H46.5V107.5Z" fill="#16A1E7"/>
<path d="M42.2433 93.1671L36.2443 102.166L38.7404 103.83L44.7395 94.8312L42.2433 93.1671Z" fill="#16A1E7"/>
<path d="M66 101.5H30V104.5H66V101.5Z" fill="#16A1E7"/>
<path d="M90 49H87V40H78V37H90V49Z" fill="#16A1E7"/>
<path d="M3 82H0V85H3V82Z" fill="#16A1E7"/>
<path d="M3 73H0V79H3V73Z" fill="#16A1E7"/>
<path d="M49.5 41.5H46.5V28H33V41.5H30V28C30 27.2044 30.3161 26.4413 30.8787 25.8787C31.4413 25.3161 32.2044 25 33 25H46.5C47.2956 25 48.0587 25.3161 48.6213 25.8787C49.1839 26.4413 49.5 27.2044 49.5 28V41.5Z" fill="#16A1E7"/>
<path d="M55.2416 93.1654L52.7455 94.8295L58.7446 103.828L61.2407 102.164L55.2416 93.1654Z" fill="#16A1E7"/>
<path d="M34.785 79.3301L32.67 77.2151L55.89 53.9951L62.685 62.2001L87.435 37.4351L89.565 39.5651L62.475 66.6551L55.68 58.4501L34.785 79.3301Z" fill="#16A1E7"/>
</g>
<defs>
<clipPath id="clip0_68_472">
<rect width="90" height="85.5" fill="white" transform="translate(0 25)"/>
</clipPath>
</defs>
</svg>
