<svg width="136" height="136" viewBox="0 0 136 136" fill="none" xmlns="http://www.w3.org/2000/svg">
<path opacity="0.5" d="M16 42.3736V93.6253C16.0041 96.7737 16.8323 99.8657 18.4015 102.591C19.9707 105.317 22.2258 107.58 24.9408 109.154L67.0717 133.598C69.7855 135.172 72.8639 136 75.9975 136C79.1312 136 82.2096 135.172 84.9234 133.598L127.059 109.154C129.774 107.58 132.029 105.317 133.599 102.591C135.168 99.8657 135.996 96.7737 136 93.6253V42.3736C135.999 39.2253 135.171 36.133 133.602 33.4077C132.032 30.6825 129.776 28.4205 127.059 26.8494L84.9234 2.40584C82.2104 0.829834 79.1317 0 75.9975 0C72.8634 0 69.7846 0.829834 67.0717 2.40584L24.9408 26.8494C22.2242 28.4205 19.9676 30.6825 18.3981 33.4077C16.8285 36.133 16.0014 39.2253 16 42.3736H16Z" fill="#EDF8FD"/>
<g clip-path="url(#clip0_237_209)">
<path d="M63.1578 81.4212C61.9101 81.4338 60.6725 81.1975 59.5174 80.7258C58.3623 80.2542 57.3129 79.5569 56.4306 78.6746C55.5484 77.7924 54.851 76.743 54.3794 75.5878C53.9078 74.4327 53.6714 73.1951 53.6841 71.9475V68.7896C53.6841 66.277 54.6822 63.8674 56.4589 62.0907C58.2355 60.314 60.6452 59.3159 63.1578 59.3159C65.6703 59.3159 68.08 60.314 69.8567 62.0907C71.6333 63.8674 72.6315 66.277 72.6315 68.7896V71.9475C72.6441 73.1951 72.4077 74.4327 71.9361 75.5878C71.4645 76.743 70.7672 77.7924 69.8849 78.6746C69.0027 79.5569 67.9532 80.2542 66.7981 80.7258C65.643 81.1975 64.4054 81.4338 63.1578 81.4212ZM63.1578 62.4738C61.4827 62.4738 59.8763 63.1392 58.6918 64.3237C57.5074 65.5081 56.842 67.1145 56.842 68.7896V71.9475C56.842 73.6225 57.5074 75.229 58.6918 76.4134C59.8763 77.5979 61.4827 78.2633 63.1578 78.2633C64.8328 78.2633 66.4393 77.5979 67.6237 76.4134C68.8081 75.229 69.4736 73.6225 69.4736 71.9475V68.7896C69.4736 67.1145 68.8081 65.5081 67.6237 64.3237C66.4393 63.1392 64.8328 62.4738 63.1578 62.4738Z" fill="#16A1E7"/>
<path d="M74.2105 98.7896H71.0526V113H74.2105V98.7896Z" fill="#16A1E7"/>
<path d="M82.1051 113H78.9472V97.2104C78.9472 94.6978 77.9491 92.2882 76.1725 90.5115C74.3958 88.7348 71.9861 87.7367 69.4736 87.7367H58.0262C56.0103 87.7391 54.0375 88.32 52.342 89.4104L37.2314 99.1683L27.1104 88.8894C26.3464 88.1443 25.3196 87.7302 24.2525 87.7367C23.3417 87.6708 22.4414 87.9646 21.7447 88.555C21.048 89.1454 20.6106 89.9853 20.5262 90.8946C20.5335 91.2708 20.6154 91.6417 20.7672 91.9859C20.919 92.3301 21.1376 92.6408 21.4104 92.8999L33.8051 105.531C34.4848 106.153 35.3483 106.538 36.2654 106.626C37.1825 106.714 38.1035 106.502 38.8893 106.021L53.6841 95.7736V113H50.5262V101.805L40.6578 108.658C39.2603 109.54 37.6083 109.931 35.9636 109.768C34.319 109.605 32.7758 108.897 31.5788 107.758L19.1683 95.1262C18.033 94.0087 17.386 92.4875 17.3683 90.8946C17.4503 89.1465 18.2199 87.5017 19.5094 86.3187C20.799 85.1356 22.5038 84.5102 24.2525 84.5788C26.1686 84.5734 28.0086 85.3287 29.3683 86.6788L37.6736 95.1262L50.6367 86.7578C52.8397 85.3374 55.405 84.581 58.0262 84.5788H69.4736C72.8237 84.5788 76.0365 85.9097 78.4054 88.2785C80.7743 90.6474 82.1051 93.8603 82.1051 97.2104V113Z" fill="#16A1E7"/>
<path d="M50.5264 75.1052H23.6843V78.2631H50.5264V75.1052Z" fill="#16A1E7"/>
<path d="M14.2105 78.2632H6.31579C4.64074 78.2632 3.03429 77.5977 1.84985 76.4133C0.665412 75.2289 0 73.6224 0 71.9474V29.3158C0 27.6407 0.665412 26.0343 1.84985 24.8499C3.03429 23.6654 4.64074 23 6.31579 23H55.2632C56.9382 23 58.5446 23.6654 59.7291 24.8499C60.9135 26.0343 61.5789 27.6407 61.5789 29.3158V56.1579H58.421V29.3158C58.421 28.4783 58.0883 27.675 57.4961 27.0828C56.9039 26.4906 56.1007 26.1579 55.2632 26.1579H6.31579C5.47826 26.1579 4.67504 26.4906 4.08282 27.0828C3.4906 27.675 3.15789 28.4783 3.15789 29.3158V71.9474C3.15789 72.7849 3.4906 73.5881 4.08282 74.1803C4.67504 74.7726 5.47826 75.1053 6.31579 75.1053H14.2105V78.2632Z" fill="#16A1E7"/>
<path d="M15.7895 40.3683H12.6316V29.3157H23.6842V32.4736H15.7895V40.3683Z" fill="#16A1E7"/>
<path d="M51.9157 58.1947L34.7367 41.0158L28.4209 47.3316L13.0894 32.0158L15.3315 29.7737L28.4209 42.8789L34.7367 36.5632L54.142 55.9684L51.9157 58.1947Z" fill="#16A1E7"/>
<path d="M16.7026 60.9009L13.6573 61.7368L20.5873 86.9819L23.6325 86.1459L16.7026 60.9009Z" fill="#16A1E7"/>
<path d="M67.8948 49.842H64.7369V52.9999H67.8948V49.842Z" fill="#16A1E7"/>
<path d="M67.8948 27.7368H64.7369V46.6842H67.8948V27.7368Z" fill="#16A1E7"/>
<path d="M11.0527 70.3685H7.89478V46.6843H23.6842V65.6317H20.5264V49.8422H11.0527V70.3685Z" fill="#16A1E7"/>
<path d="M45.7894 70.3685H42.6315V59.3159H33.1578V56.158H45.7894V70.3685Z" fill="#16A1E7"/>
<path d="M34.7369 70.3685H31.579V54.579H22.1053V51.4211H34.7369V70.3685Z" fill="#16A1E7"/>
</g>
<defs>
<clipPath id="clip0_237_209">
<rect width="82.1053" height="90" fill="white" transform="translate(0 23)"/>
</clipPath>
</defs>
</svg>
