<svg width="80" height="70" viewBox="0 0 80 70" fill="none" xmlns="http://www.w3.org/2000/svg">
<g clip-path="url(#clip0_71_633)">
<path d="M8.65338 64.2134L7.86671 61.6668C9.7729 61.1527 11.4631 60.039 12.6877 58.4903C13.9122 56.9417 14.6061 55.0401 14.6667 53.0668C14.674 51.2635 14.9252 49.4694 15.4134 47.7334L17.2 41.4801C17.2765 41.238 17.3213 40.987 17.3334 40.7334C17.3423 40.4652 17.2972 40.198 17.2007 39.9476C17.1042 39.6972 16.9583 39.4688 16.7717 39.2759C16.5851 39.0831 16.3616 38.9298 16.1145 38.8251C15.8674 38.7205 15.6017 38.6666 15.3334 38.6668C14.9671 38.6583 14.6059 38.754 14.292 38.9429C13.978 39.1317 13.7242 39.4059 13.56 39.7334L8.65338 50.8534L6.21338 49.7734L11.12 38.6668C11.4862 37.8602 12.08 37.1781 12.8285 36.7043C13.5771 36.2306 14.4477 35.9858 15.3334 36.0001C16.5711 36.0001 17.758 36.4918 18.6332 37.3669C19.5084 38.2421 20 39.4291 20 40.6668C19.9863 41.1686 19.9056 41.6663 19.76 42.1468L17.9867 48.3868C17.5497 49.9082 17.3298 51.4838 17.3334 53.0668C17.2786 55.6114 16.4044 58.0704 14.8406 60.0786C13.2769 62.0867 11.107 63.5368 8.65338 64.2134Z" fill="#16A1E7"/>
<path d="M13.3333 61H10.6666V69.3333H13.3333V61Z" fill="#16A1E7"/>
<path d="M2.66667 69.3334H0V45.6801C0.0111181 42.5704 1.01033 39.5448 2.85333 37.0401L8.26667 29.7334L10.4 31.3201L5 38.6667C3.49793 40.6978 2.68077 43.154 2.66667 45.6801V69.3334Z" fill="#16A1E7"/>
<path d="M24 59.9999H14.1867V57.3333H24C24.3536 57.3333 24.6928 57.1928 24.9428 56.9427C25.1929 56.6927 25.3333 56.3535 25.3333 55.9999V25.3333C25.3333 24.9796 25.1929 24.6405 24.9428 24.3904C24.6928 24.1404 24.3536 23.9999 24 23.9999H12C11.6464 23.9999 11.3072 24.1404 11.0572 24.3904C10.8071 24.6405 10.6667 24.9796 10.6667 25.3333V46.0133H8V25.3333C8 24.2724 8.42143 23.255 9.17157 22.5048C9.92172 21.7547 10.9391 21.3333 12 21.3333H24C25.0609 21.3333 26.0783 21.7547 26.8284 22.5048C27.5786 23.255 28 24.2724 28 25.3333V55.9999C28 57.0608 27.5786 58.0782 26.8284 58.8284C26.0783 59.5785 25.0609 59.9999 24 59.9999Z" fill="#16A1E7"/>
<path d="M16 26.6667H13.3334V30.6667H16V26.6667Z" fill="#16A1E7"/>
<path d="M22.6667 26.6667H20V30.6667H22.6667V26.6667Z" fill="#16A1E7"/>
<path d="M22.6667 33.3333H20V37.3333H22.6667V33.3333Z" fill="#16A1E7"/>
<path d="M38.6666 56C37.0844 56 35.5377 55.5308 34.2221 54.6518C32.9065 53.7727 31.8811 52.5233 31.2756 51.0615C30.6701 49.5997 30.5117 47.9911 30.8203 46.4393C31.129 44.8874 31.891 43.462 33.0098 42.3431C34.1286 41.2243 35.5541 40.4624 37.1059 40.1537C38.6578 39.845 40.2663 40.0035 41.7281 40.609C43.1899 41.2145 44.4393 42.2399 45.3184 43.5554C46.1974 44.871 46.6666 46.4178 46.6666 48C46.6666 50.1217 45.8238 52.1566 44.3235 53.6569C42.8232 55.1572 40.7884 56 38.6666 56ZM38.6666 42.6667C37.6118 42.6667 36.5807 42.9795 35.7036 43.5655C34.8265 44.1515 34.1429 44.9845 33.7393 45.959C33.3356 46.9336 33.23 48.0059 33.4358 49.0405C33.6416 50.0751 34.1495 51.0254 34.8954 51.7712C35.6413 52.5171 36.5916 53.0251 37.6261 53.2309C38.6607 53.4366 39.7331 53.331 40.7076 52.9274C41.6821 52.5237 42.5151 51.8401 43.1011 50.963C43.6872 50.086 44 49.0548 44 48C44 46.5855 43.4381 45.229 42.4379 44.2288C41.4377 43.2286 40.0811 42.6667 38.6666 42.6667Z" fill="#16A1E7"/>
<path d="M68 56.0001C65.8904 56.0001 63.8281 55.3745 62.074 54.2024C60.3198 53.0304 58.9527 51.3645 58.1453 49.4154C57.338 47.4663 57.1268 45.3216 57.5383 43.2525C57.9499 41.1833 58.9658 39.2827 60.4576 37.7909C61.9493 36.2992 63.85 35.2833 65.9191 34.8717C67.9882 34.4601 70.1329 34.6714 72.082 35.4787C74.0311 36.286 75.697 37.6532 76.8691 39.4073C78.0411 41.1615 78.6667 43.2238 78.6667 45.3334C78.6667 48.1624 77.5429 50.8755 75.5425 52.8759C73.5421 54.8763 70.829 56.0001 68 56.0001ZM68 37.3334C66.4178 37.3334 64.8711 37.8026 63.5555 38.6817C62.2399 39.5607 61.2145 40.8101 60.609 42.272C60.0035 43.7338 59.8451 45.3423 60.1538 46.8941C60.4624 48.446 61.2244 49.8715 62.3432 50.9903C63.462 52.1091 64.8875 52.871 66.4393 53.1797C67.9912 53.4884 69.5997 53.33 71.0615 52.7245C72.5233 52.119 73.7728 51.0936 74.6518 49.778C75.5309 48.4624 76.0001 46.9157 76.0001 45.3334C76.0001 43.2117 75.1572 41.1769 73.6569 39.6766C72.1566 38.1763 70.1218 37.3334 68 37.3334Z" fill="#16A1E7"/>
<path d="M58.7599 45.3333H45.2V47.9999H58.7599V45.3333Z" fill="#16A1E7"/>
<path d="M73.04 32.4668L71.2666 26.2934C71.1835 26.0075 71.007 25.7576 70.7654 25.5837C70.5237 25.4097 70.2308 25.3216 69.9333 25.3334H30.6666V22.6668H69.9866C70.8561 22.6647 71.7026 22.946 72.3979 23.4681C73.0932 23.9901 73.5994 24.7246 73.84 25.5601L75.6 31.7201L73.04 32.4668Z" fill="#16A1E7"/>
<path d="M75.7466 40C74.7165 39.9964 73.7171 39.6492 72.9066 39.0133L74.5466 36.9066C74.8859 37.1822 75.3096 37.3328 75.7466 37.3333C76.6133 37.3333 77.3333 36.8133 77.3333 36.1866C77.3277 36.0577 77.2965 35.9312 77.2416 35.8145C77.1866 35.6978 77.109 35.5931 77.0133 35.5066C74.6856 33.3741 71.6767 32.1368 68.5222 32.0147C65.3677 31.8926 62.2722 32.8938 59.7866 34.84L58.1333 32.7333C61.1218 30.3922 64.8453 29.1899 68.6386 29.3414C72.4318 29.4928 76.0476 30.9881 78.84 33.56C79.2081 33.8993 79.5015 34.3118 79.7012 34.7709C79.9009 35.2301 80.0027 35.7259 80 36.2266C79.9711 36.7546 79.8379 37.2716 79.608 37.7477C79.378 38.2239 79.056 38.6497 78.6605 39.0006C78.2649 39.3515 77.8038 39.6205 77.3036 39.792C76.8035 39.9636 76.2743 40.0342 75.7466 40Z" fill="#16A1E7"/>
<path d="M40 28H30.6666V30.6667H40V28Z" fill="#16A1E7"/>
<path d="M40 33.3333H30.6666V35.9999H40V33.3333Z" fill="#16A1E7"/>
<path d="M37.8267 24.48L35.3334 23.52L43.1067 3.41333C43.4943 2.40889 44.1768 1.54527 45.0645 0.936036C45.9521 0.326803 47.0034 0.000487004 48.08 0H65.3334C66.7479 0 68.1044 0.561903 69.1046 1.5621C70.1048 2.56229 70.6667 3.91885 70.6667 5.33333V24H68V5.33333C68 4.62609 67.7191 3.94781 67.219 3.44772C66.7189 2.94762 66.0406 2.66667 65.3334 2.66667H48.08C47.5406 2.66556 47.0135 2.82809 46.5683 3.1328C46.1232 3.4375 45.7809 3.87005 45.5867 4.37333L37.8267 24.48Z" fill="#16A1E7"/>
<path d="M65.3333 19.9999H58.6667V17.3333H62.6667V7.99992H49.9067L46.3067 17.3333H56V19.9999H42.4133L48.08 5.33325H65.3333V19.9999Z" fill="#16A1E7"/>
<path d="M80 53.3333H56V55.9999H80V53.3333Z" fill="#16A1E7"/>
<path d="M53.3333 53.3333H50.6666V55.9999H53.3333V53.3333Z" fill="#16A1E7"/>
<path d="M48 53.3333H38.6666V55.9999H48V53.3333Z" fill="#16A1E7"/>
<path d="M27.48 10.4665C26.4513 8.89009 25.0456 7.5951 23.3904 6.69874C21.7351 5.80238 19.8824 5.33295 18 5.33295C16.1176 5.33295 14.2649 5.80238 12.6096 6.69874C10.9544 7.5951 9.54874 8.89009 8.52 10.4665L6.29333 8.99985C7.56497 7.05485 9.30119 5.45734 11.3451 4.35166C13.389 3.24599 15.6762 2.66699 18 2.66699C20.3238 2.66699 22.611 3.24599 24.6549 4.35166C26.6988 5.45734 28.435 7.05485 29.7067 8.99985L27.48 10.4665Z" fill="#16A1E7"/>
<path d="M15.2134 14.8401L12.9867 13.3335C13.5308 12.4999 14.2741 11.8151 15.1495 11.3411C16.0248 10.8671 17.0046 10.6189 18 10.6189C18.9955 10.6189 19.9752 10.8671 20.8506 11.3411C21.7259 11.8151 22.4693 12.4999 23.0134 13.3335L20.7867 14.7868C20.4834 14.3247 20.0698 13.9452 19.5834 13.6826C19.0969 13.42 18.5528 13.2826 18 13.2826C17.4472 13.2826 16.9031 13.42 16.4167 13.6826C15.9302 13.9452 15.5167 14.3247 15.2134 14.7868V14.8401Z" fill="#16A1E7"/>
<path d="M42.08 64.2268C41.6299 63.36 40.9505 62.6334 40.1158 62.1263C39.2812 61.6192 38.3233 61.3511 37.3466 61.3511C36.37 61.3511 35.4121 61.6192 34.5774 62.1263C33.7427 62.6334 33.0633 63.36 32.6133 64.2268L30.2533 62.9868C30.9296 61.69 31.9484 60.6034 33.199 59.8452C34.4496 59.0869 35.8841 58.686 37.3466 58.686C38.8091 58.686 40.2437 59.0869 41.4943 59.8452C42.7449 60.6034 43.7637 61.69 44.44 62.9868L42.08 64.2268Z" fill="#16A1E7"/>
<path d="M56.5467 66.8933C55.8148 65.2375 54.6172 63.8303 53.0997 62.8431C51.5822 61.8559 49.8104 61.3314 48 61.3333C46.0956 61.3165 44.2326 61.8893 42.6667 62.9733L41.16 60.7733C42.6138 59.7742 44.27 59.1078 46.0106 58.8217C47.7513 58.5356 49.5336 58.6368 51.2307 59.118C52.9278 59.5993 54.4979 60.4488 55.8293 61.606C57.1606 62.7633 58.2205 64.1998 58.9334 65.8133L56.5467 66.8933Z" fill="#16A1E7"/>
<path d="M68.84 65.4666C68.3804 64.342 67.6223 63.3643 66.6475 62.6392C65.6727 61.9142 64.5182 61.4693 63.3089 61.3526C62.0996 61.2359 60.8814 61.4519 59.786 61.9772C58.6905 62.5026 57.7594 63.3173 57.0933 64.3333L54.88 62.8667C55.8139 61.4491 57.1166 60.3131 58.6481 59.5809C60.1796 58.8487 61.8817 58.548 63.5713 58.7112C65.261 58.8744 66.8741 59.4953 68.2371 60.5071C69.6001 61.5189 70.6614 62.8833 71.3067 64.4533L68.84 65.4666Z" fill="#16A1E7"/>
<path d="M69.1867 62.8801L66.9867 61.3334C68.2961 59.4394 70.2593 58.0963 72.499 57.5622C74.7388 57.0281 77.0969 57.3408 79.12 58.4401L77.7867 60.7734C76.3414 59.9933 74.659 59.7742 73.0621 60.158C71.4652 60.5419 70.0662 61.5017 69.1334 62.8534L69.1867 62.8801Z" fill="#16A1E7"/>
<path d="M38.6667 50.6666C38.1393 50.6666 37.6237 50.5102 37.1851 50.2172C36.7466 49.9242 36.4048 49.5077 36.203 49.0204C36.0012 48.5331 35.9483 47.997 36.0512 47.4797C36.1541 46.9624 36.4081 46.4872 36.7811 46.1143C37.154 45.7414 37.6291 45.4874 38.1464 45.3845C38.6637 45.2816 39.1999 45.3344 39.6872 45.5362C40.1744 45.7381 40.5909 46.0799 40.8839 46.5184C41.1769 46.9569 41.3333 47.4725 41.3333 47.9999C41.3333 48.7072 41.0524 49.3854 40.5523 49.8855C40.0522 50.3856 39.3739 50.6666 38.6667 50.6666Z" fill="#16A1E7"/>
<path d="M68 48.0001C67.4726 48.0001 66.957 47.8437 66.5185 47.5507C66.08 47.2577 65.7382 46.8412 65.5364 46.3539C65.3345 45.8666 65.2817 45.3305 65.3846 44.8132C65.4875 44.2959 65.7415 43.8207 66.1144 43.4478C66.4874 43.0749 66.9625 42.8209 67.4798 42.718C67.9971 42.6151 68.5333 42.6679 69.0205 42.8697C69.5078 43.0716 69.9243 43.4134 70.2173 43.8519C70.5103 44.2904 70.6667 44.806 70.6667 45.3334C70.6667 46.0407 70.3858 46.7189 69.8857 47.219C69.3856 47.7191 68.7073 48.0001 68 48.0001Z" fill="#16A1E7"/>
</g>
<defs>
<clipPath id="clip0_71_633">
<rect width="80" height="69.3333" fill="white"/>
</clipPath>
</defs>
</svg>
