<svg width="80" height="80" viewBox="0 0 80 80" fill="none" xmlns="http://www.w3.org/2000/svg">
<g clip-path="url(#clip0_71_683)">
<path d="M28.9604 65.1896L14.7554 50.9973L48.0573 17.7192L62.2651 31.9144L28.9604 65.1896ZM18.6089 50.9973L28.9604 61.3368L58.406 31.9144L48.0573 21.5749L18.6089 50.9973Z" fill="#16A1E7"/>
<path d="M45.1574 28.7935L27.2255 46.7095L29.1537 48.636L47.0856 30.72L45.1574 28.7935Z" fill="#16A1E7"/>
<path d="M20.9385 66.7178L13.2231 59.0093L18.9607 53.2739L20.8903 55.2018L17.0823 59.0093L20.9385 62.865L24.7494 59.0575L26.679 60.9853L20.9385 66.7178Z" fill="#16A1E7"/>
<path d="M59.4367 22.7084L55.2813 26.8601L57.2095 28.7866L61.3649 24.6349L59.4367 22.7084Z" fill="#16A1E7"/>
<path d="M55.3381 18.6223L51.1847 22.772L53.1129 24.6985L57.2663 20.5488L55.3381 18.6223Z" fill="#16A1E7"/>
<path d="M65.7922 26.4625C63.4583 26.4611 61.1731 25.795 59.2045 24.5422C57.236 23.2894 55.6657 21.5019 54.6778 19.3892C53.6899 17.2765 53.3254 14.9262 53.6268 12.6138C53.9283 10.3014 54.8833 8.12285 56.38 6.33349L57.3362 5.19946L74.8129 22.6607L73.6779 23.6161C71.4646 25.4591 68.6735 26.4666 65.7922 26.4625ZM57.603 9.29897C56.5109 11.1224 56.0596 13.2581 56.3207 15.367C56.5818 17.4759 57.5404 19.4373 59.0443 20.9399C60.5482 22.4425 62.5114 23.4003 64.6222 23.6611C66.733 23.922 68.8705 23.4711 70.6956 22.38L57.603 9.29897Z" fill="#16A1E7"/>
<path d="M69.7209 8.34331L64.1469 13.9124L66.0751 15.8389L71.6491 10.2698L69.7209 8.34331Z" fill="#16A1E7"/>
<path d="M23.5009 36.5724L3.83923 16.9197L20.7739 0L40.4384 19.647L23.5009 36.5724ZM7.69551 16.9254L23.5009 32.7167L36.5793 19.647L20.7739 3.8557L7.69551 16.9254Z" fill="#16A1E7"/>
<path d="M14.2353 8.46313L12.3071 10.3896L30.0423 28.1092L31.9705 26.1827L14.2353 8.46313Z" fill="#16A1E7"/>
<path d="M31.407 12.5489L16.4006 27.542L18.3288 29.4685L33.3352 14.4754L31.407 12.5489Z" fill="#16A1E7"/>
<path d="M25.2654 6.41654L10.259 21.4097L12.1872 23.3362L27.1936 8.34305L25.2654 6.41654Z" fill="#16A1E7"/>
<path d="M27.8776 30.2683L25.9493 32.1948L30.7247 36.966L32.653 35.0395L27.8776 30.2683Z" fill="#16A1E7"/>
<path d="M36.0612 22.0891L34.133 24.0156L38.9084 28.7868L40.8366 26.8603L36.0612 22.0891Z" fill="#16A1E7"/>
<path d="M63.0653 76.0933L43.415 56.4491L60.3497 39.5266L80.0142 59.1736L63.0653 76.0933ZM47.26 56.4491L63.0653 72.2405L76.1409 59.1736L60.3356 43.3766L47.26 56.4491Z" fill="#16A1E7"/>
<path d="M53.7968 47.9897L51.8685 49.9163L69.6038 67.6358L71.532 65.7093L53.7968 47.9897Z" fill="#16A1E7"/>
<path d="M65.5103 46.6236L50.5038 61.6167L52.4321 63.5432L67.4385 48.5501L65.5103 46.6236Z" fill="#16A1E7"/>
<path d="M71.6498 52.7605L56.6434 67.7537L58.5716 69.6802L73.578 54.687L71.6498 52.7605Z" fill="#16A1E7"/>
<path d="M44.9278 47.3052L42.9996 49.2317L47.775 54.0029L49.7032 52.0764L44.9278 47.3052Z" fill="#16A1E7"/>
<path d="M52.4333 39.8086L50.5051 41.7351L55.2805 46.5063L57.2087 44.5798L52.4333 39.8086Z" fill="#16A1E7"/>
<path d="M11.0696 35.5934L-0.00012207 46.6533L1.9281 48.5798L12.9978 37.5199L11.0696 35.5934Z" fill="#16A1E7"/>
<path d="M4.28613 76.4453L2.70703 78.0229L4.63525 79.9495L6.21435 78.3718L4.28613 76.4453Z" fill="#16A1E7"/>
<path d="M13.7356 67.0065L6.72296 74.0129L8.65118 75.9395L15.6638 68.933L13.7356 67.0065Z" fill="#16A1E7"/>
<path d="M51.9958 71.0332L44.9471 78.0757L46.8753 80.0022L53.9241 72.9597L51.9958 71.0332Z" fill="#16A1E7"/>
<path d="M69.73 35.5929L68.1208 37.2007L70.049 39.1272L71.6582 37.5194L69.73 35.5929Z" fill="#16A1E7"/>
<path d="M77.9273 27.4047L72.235 33.092L74.1632 35.0186L79.8556 29.3312L77.9273 27.4047Z" fill="#16A1E7"/>
</g>
<defs>
<clipPath id="clip0_71_683">
<rect width="80" height="80" fill="white"/>
</clipPath>
</defs>
</svg>
