<svg width="80" height="53" viewBox="0 0 80 53" fill="none" xmlns="http://www.w3.org/2000/svg">
<g clip-path="url(#clip0_71_762)">
<path d="M20 34.2857H4.28571V31.4286H20V28.0572C16.8497 26.6364 13.4535 25.8407 9.99999 25.7143V22.8572C13.8514 22.9881 17.6407 23.8663 21.1571 25.4429C21.6633 25.6671 22.0934 26.0335 22.3952 26.4977C22.697 26.9618 22.8575 27.5036 22.8571 28.0572V31.4286C22.8571 32.1864 22.5561 32.9131 22.0203 33.4489C21.4845 33.9847 20.7578 34.2857 20 34.2857Z" fill="#16A1E7"/>
<path d="M11.4286 37.1428H8.57144V40H11.4286V37.1428Z" fill="#16A1E7"/>
<path d="M7.25714 22.9286L2.17143 21.6572C1.55199 21.5041 1.00164 21.148 0.608107 20.6457C0.214569 20.1434 0.000493217 19.5239 0 18.8858L0 15.7143C0 14.9566 0.30102 14.2299 0.836838 13.694C1.37266 13.1582 2.09938 12.8572 2.85714 12.8572H6.71429C8.14407 12.8541 9.55752 13.1611 10.8571 13.7572L12.2 14.3715L11.0143 16.9715L9.67143 16.3572C8.74423 15.9303 7.73503 15.7109 6.71429 15.7143H2.85714V18.8858L7.95714 20.1572L7.25714 22.9286Z" fill="#16A1E7"/>
<path d="M72.7428 22.9429L72.0429 20.1715L77.1429 18.8858V15.7143H73.2857C72.265 15.7109 71.2558 15.9303 70.3286 16.3572L69.0714 16.9858L67.7857 14.4429L69.1 13.7858C70.4097 13.1715 71.8391 12.8544 73.2857 12.8572H77.1429C77.9006 12.8572 78.6273 13.1582 79.1632 13.694C79.699 14.2299 80 14.9566 80 15.7143V18.8858C79.9995 19.5239 79.7854 20.1434 79.3919 20.6457C78.9984 21.148 78.448 21.5041 77.8286 21.6572L72.7428 22.9429Z" fill="#16A1E7"/>
<path d="M15.7143 52.8571H7.14286C6.00622 52.8571 4.91613 52.4056 4.1124 51.6019C3.30868 50.7981 2.85715 49.7081 2.85715 48.5714V32.6857C2.85715 25.2286 6.91429 19.6714 10.1714 15.2C10.7 14.4857 11.2143 13.7714 11.6857 13.1C13.6714 10.2429 16.6143 4.37142 16.6571 4.31428C17.4099 3.01045 18.4928 1.92789 19.7969 1.17555C21.101 0.423197 22.5802 0.027601 24.0857 0.0285662H41.4286V2.85714H24.0857C23.0861 2.86067 22.1048 3.12637 21.24 3.62773C20.3752 4.12909 19.657 4.84855 19.1571 5.71428C17.6208 8.82816 15.9085 11.8521 14.0286 14.7714C13.5429 15.4714 13.0286 16.2 12.4857 16.9286C9.31429 21.2429 5.71429 26.1714 5.71429 32.6857V48.5714C5.71429 48.9503 5.8648 49.3137 6.13271 49.5816C6.40062 49.8495 6.76398 50 7.14286 50H15.7143C16.0932 50 16.4565 49.8495 16.7244 49.5816C16.9924 49.3137 17.1429 48.9503 17.1429 48.5714V44.2857H20V48.5714C20 49.7081 19.5485 50.7981 18.7447 51.6019C17.941 52.4056 16.8509 52.8571 15.7143 52.8571Z" fill="#16A1E7"/>
<path d="M75.7143 34.2857H60C59.2422 34.2857 58.5155 33.9847 57.9797 33.4489C57.4439 32.9131 57.1429 32.1864 57.1429 31.4286V28.0572C57.1413 27.5051 57.2996 26.9645 57.5988 26.5005C57.8979 26.0366 58.3251 25.6692 58.8286 25.4429C62.3508 23.8687 66.1443 22.9906 70 22.8572V25.7143C66.547 25.8451 63.1517 26.6405 60 28.0572V31.4286H75.7143V34.2857Z" fill="#16A1E7"/>
<path d="M75.7143 42.8572H4.28571V45.7143H75.7143V42.8572Z" fill="#16A1E7"/>
<path d="M71.4286 37.1428H68.5714V40H71.4286V37.1428Z" fill="#16A1E7"/>
<path d="M55.7143 37.1428H24.2857V40H55.7143V37.1428Z" fill="#16A1E7"/>
<path d="M62.8571 14.2856H60V17.1428H62.8571V14.2856Z" fill="#16A1E7"/>
<path d="M57.1429 14.2856H17.1429V17.1428H57.1429V14.2856Z" fill="#16A1E7"/>
<path d="M42.8571 50H0V52.8571H42.8571V50Z" fill="#16A1E7"/>
<path d="M48.5714 50H45.7143V52.8571H48.5714V50Z" fill="#16A1E7"/>
<path d="M48.5714 34.2858H44.2857V31.4286H48.5714L50 28.5715H30L31.4286 31.4286H35.7143V34.2858H31.4286C30.8985 34.2868 30.3786 34.1404 29.9271 33.8629C29.4755 33.5854 29.11 33.1877 28.8714 32.7144L27.4429 29.8572C27.2232 29.4212 27.1188 28.9361 27.1399 28.4483C27.1609 27.9605 27.3066 27.4863 27.5631 27.0708C27.8195 26.6553 28.1782 26.3125 28.6048 26.075C29.0314 25.8376 29.5118 25.7134 30 25.7144H50C50.4863 25.7146 50.9645 25.839 51.3893 26.0757C51.8141 26.3124 52.1714 26.6536 52.4275 27.0671C52.6835 27.4805 52.8298 27.9524 52.8525 28.4382C52.8752 28.9239 52.7736 29.4074 52.5572 29.8429L51.1286 32.7001C50.892 33.1761 50.5274 33.5767 50.0757 33.8568C49.6239 34.1369 49.103 34.2855 48.5714 34.2858Z" fill="#16A1E7"/>
<path d="M41.4286 31.4285H38.5714V34.2856H41.4286V31.4285Z" fill="#16A1E7"/>
<path d="M80 50H51.4286V52.8571H80V50Z" fill="#16A1E7"/>
<path d="M64.2857 52.8572H72.8572C73.9938 52.8572 75.0839 52.4056 75.8876 51.6019C76.6913 50.7982 77.1429 49.7081 77.1429 48.5715V32.6857C77.1429 25.2286 73.0857 19.6715 69.8286 15.2C69.3 14.4857 68.7857 13.7715 68.3143 13.1C66.5125 10.2485 64.8579 7.30656 63.3572 4.28574C62.6032 2.97981 61.518 1.8959 60.2112 1.14342C58.9044 0.390949 57.4223 -0.00345514 55.9143 2.28042e-05H38.5714V2.85717H55.9143C56.9139 2.86069 57.8952 3.1264 58.76 3.62776C59.6249 4.12912 60.3431 4.84858 60.8429 5.71431C62.391 8.82192 64.103 11.8452 65.9714 14.7715C66.4572 15.4715 66.9714 16.2 67.5286 16.9286C70.7 21.2143 74.2857 26.2143 74.2857 32.7286V48.5715C74.2857 48.9503 74.1352 49.3137 73.8673 49.5816C73.5994 49.8495 73.236 50 72.8572 50H64.2857C63.9068 50 63.5435 49.8495 63.2756 49.5816C63.0077 49.3137 62.8572 48.9503 62.8572 48.5715V44.2857H60V48.5715C60 49.7081 60.4515 50.7982 61.2553 51.6019C62.059 52.4056 63.1491 52.8572 64.2857 52.8572Z" fill="#16A1E7"/>
</g>
<defs>
<clipPath id="clip0_71_762">
<rect width="80" height="52.8571" fill="white"/>
</clipPath>
</defs>
</svg>
