<svg width="140" height="136" viewBox="0 0 140 136" fill="none" xmlns="http://www.w3.org/2000/svg">
<path opacity="0.5" d="M20 42.3736V93.6253C20.0041 96.7737 20.8323 99.8657 22.4015 102.591C23.9707 105.317 26.2258 107.58 28.9408 109.154L71.0717 133.598C73.7855 135.172 76.8639 136 79.9975 136C83.1312 136 86.2096 135.172 88.9234 133.598L131.059 109.154C133.774 107.58 136.029 105.317 137.599 102.591C139.168 99.8657 139.996 96.7737 140 93.6253V42.3736C139.999 39.2253 139.171 36.133 137.602 33.4077C136.032 30.6825 133.776 28.4205 131.059 26.8494L88.9234 2.40584C86.2104 0.829834 83.1317 0 79.9975 0C76.8634 0 73.7846 0.829834 71.0717 2.40584L28.9408 26.8494C26.2242 28.4205 23.9676 30.6825 22.3981 33.4077C20.8285 36.133 20.0014 39.2253 20 42.3736H20Z" fill="#EDF8FD"/>
<g clip-path="url(#clip0_176_349)">
<path d="M67.8947 46.6842C65.8009 46.6842 63.7929 45.8524 62.3123 44.3719C60.8318 42.8913 60 40.8833 60 38.7894V35.6316C60 33.5377 60.8318 31.5297 62.3123 30.0491C63.7929 28.5686 65.8009 27.7368 67.8947 27.7368C69.9886 27.7368 71.9966 28.5686 73.4772 30.0491C74.9577 31.5297 75.7895 33.5377 75.7895 35.6316V38.7894C75.7895 39.8262 75.5853 40.8528 75.1885 41.8106C74.7918 42.7685 74.2103 43.6388 73.4772 44.3719C72.7441 45.105 71.8738 45.6865 70.9159 46.0832C69.9581 46.48 68.9315 46.6842 67.8947 46.6842ZM67.8947 30.8947C66.6385 30.8947 65.4336 31.3938 64.5453 32.2821C63.657 33.1704 63.1579 34.3753 63.1579 35.6316V38.7894C63.1579 40.0457 63.657 41.2506 64.5453 42.1389C65.4336 43.0272 66.6385 43.5263 67.8947 43.5263C69.151 43.5263 70.3559 43.0272 71.2442 42.1389C72.1325 41.2506 72.6316 40.0457 72.6316 38.7894V35.6316C72.6316 34.3753 72.1325 33.1704 71.2442 32.2821C70.3559 31.3938 69.151 30.8947 67.8947 30.8947Z" fill="#16A1E7"/>
<path d="M74.2107 75.1053H71.0528V62.4737H55.2634V75.1053H52.1055V62.4737C52.1055 61.6362 52.4382 60.8329 53.0304 60.2407C53.6226 59.6485 54.4258 59.3158 55.2634 59.3158H71.0528C71.8904 59.3158 72.6936 59.6485 73.2858 60.2407C73.878 60.8329 74.2107 61.6362 74.2107 62.4737V75.1053Z" fill="#16A1E7"/>
<path d="M85.2632 83H77.3684V79.8421H85.2632V76.6842H3.15789V79.8421H41.0526V83H3.15789C2.32037 83 1.51715 82.6673 0.924926 82.0751C0.332706 81.4828 0 80.6796 0 79.8421V76.6842C0 75.8467 0.332706 75.0434 0.924926 74.4512C1.51715 73.859 2.32037 73.5263 3.15789 73.5263H85.2632C86.1007 73.5263 86.9039 73.859 87.4961 74.4512C88.0883 75.0434 88.4211 75.8467 88.4211 76.6842V79.8421C88.4211 80.6796 88.0883 81.4828 87.4961 82.0751C86.9039 82.6673 86.1007 83 85.2632 83Z" fill="#16A1E7"/>
<path d="M47.3683 79.8421H44.2104V83H47.3683V79.8421Z" fill="#16A1E7"/>
<path d="M53.6843 79.8421H50.5264V83H53.6843V79.8421Z" fill="#16A1E7"/>
<path d="M28.4209 113H6.31561C5.47808 113 4.67486 112.667 4.08264 112.075C3.49042 111.483 3.15771 110.68 3.15771 109.842V95.6316C3.15771 94.7941 3.49042 93.9908 4.08264 93.3986C4.67486 92.8064 5.47808 92.4737 6.31561 92.4737H28.4209C29.2584 92.4737 30.0616 92.8064 30.6538 93.3986C31.2461 93.9908 31.5788 94.7941 31.5788 95.6316V109.842C31.5788 110.68 31.2461 111.483 30.6538 112.075C30.0616 112.667 29.2584 113 28.4209 113ZM6.31561 95.6316V109.842H28.4209V95.6316H6.31561Z" fill="#16A1E7"/>
<path d="M23.6843 94.0526H20.5264V89.3158H14.2106V94.0526H11.0527V89.3158C11.0527 88.4783 11.3854 87.675 11.9777 87.0828C12.5699 86.4906 13.3731 86.1579 14.2106 86.1579H20.5264C21.3639 86.1579 22.1672 86.4906 22.7594 87.0828C23.3516 87.675 23.6843 88.4783 23.6843 89.3158V94.0526Z" fill="#16A1E7"/>
<path d="M21.4578 103.526H13.2788C12.4427 103.523 11.642 103.188 11.0525 102.595L4.08936 95.6316L6.31567 93.4053L13.2788 100.368H21.4578L28.4209 93.4053L30.6473 95.6316L23.6841 102.595C23.0946 103.188 22.294 103.523 21.4578 103.526Z" fill="#16A1E7"/>
<path d="M77.3687 113V109.842C77.759 109.844 78.1364 109.702 78.428 109.443C78.7195 109.183 78.9047 108.825 78.9476 108.437L81.9476 81.2474L85.1055 81.5947L82.1055 108.784C81.9767 109.948 81.4213 111.023 80.5466 111.802C79.6718 112.58 78.5397 113.007 77.3687 113Z" fill="#16A1E7"/>
<path d="M77.3683 109.842H28.4209V113H77.3683V109.842Z" fill="#16A1E7"/>
<path d="M6.48245 81.2539L3.34375 81.6016L4.18326 89.1815L7.32197 88.8339L6.48245 81.2539Z" fill="#16A1E7"/>
<path d="M17.3684 46.6842C15.2746 46.6842 13.2665 45.8524 11.7859 44.3719C10.3054 42.8913 9.47363 40.8833 9.47363 38.7894V35.6316C9.47363 33.5377 10.3054 31.5297 11.7859 30.0491C13.2665 28.5686 15.2746 27.7368 17.3684 27.7368C19.4622 27.7368 21.4702 28.5686 22.9508 30.0491C24.4313 31.5297 25.2631 33.5377 25.2631 35.6316V38.7894C25.2631 40.8833 24.4313 42.8913 22.9508 44.3719C21.4702 45.8524 19.4622 46.6842 17.3684 46.6842ZM17.3684 30.8947C16.1121 30.8947 14.9072 31.3938 14.0189 32.2821C13.1306 33.1704 12.6315 34.3753 12.6315 35.6316V38.7894C12.6315 40.0457 13.1306 41.2506 14.0189 42.1389C14.9072 43.0272 16.1121 43.5263 17.3684 43.5263C18.6247 43.5263 19.8295 43.0272 20.7178 42.1389C21.6062 41.2506 22.1052 40.0457 22.1052 38.7894V35.6316C22.1052 34.3753 21.6062 33.1704 20.7178 32.2821C19.8295 31.3938 18.6247 30.8947 17.3684 30.8947Z" fill="#16A1E7"/>
<path d="M7.89456 76.6842C6.63827 76.6842 5.43343 76.1852 4.5451 75.2968C3.65677 74.4085 3.15771 73.2037 3.15771 71.9474V59.3158C3.15771 56.8032 4.15583 54.3935 5.93249 52.6169C7.70915 50.8402 10.1188 49.8421 12.6314 49.8421H23.5735C25.5259 49.8457 27.4104 49.1256 28.863 47.8211L41.0367 36.7684C41.6489 36.2169 42.3944 35.8347 43.1995 35.6595C44.0047 35.4842 44.8416 35.522 45.6277 35.7692C46.4137 36.0163 47.1217 36.4642 47.6817 37.0687C48.2417 37.6731 48.6344 38.4132 48.8209 39.2158C49.0272 40.0533 49.0009 40.9312 48.7449 41.7548C48.4889 42.5784 48.0129 43.3165 47.3682 43.8895L33.2682 56.5211L31.1525 54.1684L45.2524 41.5368C45.4692 41.3428 45.6281 41.0927 45.7117 40.8141C45.7953 40.5355 45.8003 40.2392 45.7261 39.9579C45.66 39.6935 45.5266 39.4507 45.3389 39.2531C45.1512 39.0556 44.9155 38.91 44.6548 38.8305C44.3941 38.751 44.1173 38.7404 43.8512 38.7996C43.5852 38.8588 43.339 38.9859 43.1367 39.1684L30.963 50.1579C28.9353 51.9852 26.3031 52.9976 23.5735 53H12.6314C10.9563 53 9.3499 53.6654 8.16546 54.8499C6.98102 56.0343 6.31561 57.6407 6.31561 59.3158V71.9474C6.31561 72.3661 6.48196 72.7678 6.77807 73.0639C7.07418 73.36 7.47579 73.5263 7.89456 73.5263V76.6842Z" fill="#16A1E7"/>
<path d="M25.2631 75.1052H22.1052V73.5263C22.1052 72.6888 21.7725 71.8856 21.1803 71.2933C20.5881 70.7011 19.7848 70.3684 18.9473 70.3684H9.47363V67.2105H18.9473C20.6224 67.2105 22.2288 67.8759 23.4133 69.0604C24.5977 70.2448 25.2631 71.8512 25.2631 73.5263V75.1052Z" fill="#16A1E7"/>
<path d="M31.5787 75.1052H28.4208V60.8947H15.7892V68.7894H12.6313V60.8947C12.6313 60.0572 12.9641 59.254 13.5563 58.6617C14.1485 58.0695 14.9517 57.7368 15.7892 57.7368H28.4208C29.2583 57.7368 30.0616 58.0695 30.6538 58.6617C31.246 59.254 31.5787 60.0572 31.5787 60.8947V75.1052Z" fill="#16A1E7"/>
<path d="M45.2616 43.4418L43.1489 45.7889L55.1076 56.5528L57.2202 54.2057L45.2616 43.4418Z" fill="#16A1E7"/>
<path d="M80.5264 76.6842V73.5263C80.9452 73.5263 81.3468 73.36 81.6429 73.0638C81.939 72.7677 82.1054 72.3661 82.1054 71.9474V59.3158C82.1054 57.6407 81.44 56.0343 80.2555 54.8498C79.0711 53.6654 77.4647 53 75.7896 53H64.8475C62.1179 52.9976 59.4857 51.9852 57.458 50.1579L45.2686 39.2L47.3686 36.8474L59.5422 47.9C61.0106 49.1796 62.9001 49.8713 64.8475 49.8421H75.7896C78.3022 49.8421 80.7119 50.8402 82.4885 52.6169C84.2652 54.3935 85.2633 56.8032 85.2633 59.3158V71.9474C85.2633 73.2036 84.7642 74.4085 83.8759 75.2968C82.9876 76.1851 81.7827 76.6842 80.5264 76.6842Z" fill="#16A1E7"/>
<path d="M78.9471 67.2105H72.6313V70.3684H78.9471V67.2105Z" fill="#16A1E7"/>
<path d="M45.7892 23H42.6313V29.3158H45.7892V23Z" fill="#16A1E7"/>
<path d="M33.3155 24.0938L31.0825 26.3267L36.1514 31.3956L38.3843 29.1626L33.3155 24.0938Z" fill="#16A1E7"/>
<path d="M55.1181 24.0743L50.0381 29.1543L52.2711 31.3873L57.3511 26.3073L55.1181 24.0743Z" fill="#16A1E7"/>
</g>
<defs>
<clipPath id="clip0_176_349">
<rect width="88.4211" height="90" fill="white" transform="translate(0 23)"/>
</clipPath>
</defs>
</svg>
