<svg width="140" height="136" viewBox="0 0 140 136" fill="none" xmlns="http://www.w3.org/2000/svg">
<path opacity="0.5" d="M20 42.3736V93.6253C20.0041 96.7737 20.8323 99.8657 22.4015 102.591C23.9707 105.317 26.2258 107.58 28.9408 109.154L71.0717 133.598C73.7855 135.172 76.8639 136 79.9975 136C83.1312 136 86.2096 135.172 88.9234 133.598L131.059 109.154C133.774 107.58 136.029 105.317 137.599 102.591C139.168 99.8657 139.996 96.7737 140 93.6253V42.3736C139.999 39.2253 139.171 36.133 137.602 33.4077C136.032 30.6825 133.776 28.4205 131.059 26.8494L88.9234 2.40584C86.2104 0.829834 83.1317 0 79.9975 0C76.8634 0 73.7846 0.829834 71.0717 2.40584L28.9408 26.8494C26.2242 28.4205 23.9676 30.6825 22.3981 33.4077C20.8285 36.133 20.0014 39.2253 20 42.3736H20Z" fill="#EDF8FD"/>
<g clip-path="url(#clip0_176_289)">
<path d="M3.03695 91.8129H0V94.8498H3.03695V91.8129Z" fill="#16A1E7"/>
<path d="M3.03695 85.739H0V88.776H3.03695V85.739Z" fill="#16A1E7"/>
<path d="M3.03695 79.6651H0V82.702H3.03695V79.6651Z" fill="#16A1E7"/>
<path d="M3.03695 73.5912H0V76.6281H3.03695V73.5912Z" fill="#16A1E7"/>
<path d="M3.03695 67.5173H0V70.5542H3.03695V67.5173Z" fill="#16A1E7"/>
<path d="M3.03695 61.4434H0V64.4804H3.03695V61.4434Z" fill="#16A1E7"/>
<path d="M3.03695 55.3695H0V58.4065H3.03695V55.3695Z" fill="#16A1E7"/>
<path d="M3.03695 49.2956H0V52.3325H3.03695V49.2956Z" fill="#16A1E7"/>
<path d="M3.03695 43.2217H0V46.2586H3.03695V43.2217Z" fill="#16A1E7"/>
<path d="M3.03695 37.1478H0V40.1848H3.03695V37.1478Z" fill="#16A1E7"/>
<path d="M3.03695 31.0739H0V34.1109H3.03695V31.0739Z" fill="#16A1E7"/>
<path d="M3.03695 25H0V28.0369H3.03695V25Z" fill="#16A1E7"/>
<path d="M9.11068 25H6.07373V28.0369H9.11068V25Z" fill="#16A1E7"/>
<path d="M15.1849 25H12.1479V28.0369H15.1849V25Z" fill="#16A1E7"/>
<path d="M21.2586 25H18.2217V28.0369H21.2586V25Z" fill="#16A1E7"/>
<path d="M27.3324 25H24.2954V28.0369H27.3324V25Z" fill="#16A1E7"/>
<path d="M33.4066 25H30.3696V28.0369H33.4066V25Z" fill="#16A1E7"/>
<path d="M39.4803 25H36.4434V28.0369H39.4803V25Z" fill="#16A1E7"/>
<path d="M45.554 25H42.5171V28.0369H45.554V25Z" fill="#16A1E7"/>
<path d="M51.6283 25H48.5913V28.0369H51.6283V25Z" fill="#16A1E7"/>
<path d="M24.2955 55.3695C22.3326 55.4185 20.4305 54.6864 19.007 53.334C17.5834 51.9817 16.7548 50.1196 16.7031 48.1568V44.3606C16.7548 42.3977 17.5834 40.5357 19.007 39.1833C20.4305 37.8309 22.3326 37.0989 24.2955 37.1478C26.2584 37.0989 28.1605 37.8309 29.584 39.1833C31.0076 40.5357 31.8362 42.3977 31.8879 44.3606V48.1568C31.8362 50.1196 31.0076 51.9817 29.584 53.334C28.1605 54.6864 26.2584 55.4185 24.2955 55.3695ZM24.2955 40.1848C23.139 40.1394 22.0113 40.5528 21.1581 41.3349C20.3049 42.117 19.7953 43.2045 19.7401 44.3606V48.1568C19.7953 49.3129 20.3049 50.4004 21.1581 51.1825C22.0113 51.9646 23.139 52.3779 24.2955 52.3326C25.452 52.3779 26.5797 51.9646 27.4329 51.1825C28.2861 50.4004 28.7957 49.3129 28.8509 48.1568V44.3606C28.7957 43.2045 28.2861 42.117 27.4329 41.3349C26.5797 40.5528 25.452 40.1394 24.2955 40.1848Z" fill="#16A1E7"/>
<path d="M34.9252 69.0358H31.8882C31.8882 67.0221 31.0883 65.091 29.6644 63.6671C28.2406 62.2433 26.3095 61.4434 24.2958 61.4434C22.2822 61.4434 20.3511 62.2433 18.9272 63.6671C17.5034 65.091 16.7035 67.0221 16.7035 69.0358H13.6665C13.6665 66.2167 14.7864 63.5131 16.7798 61.5197C18.7731 59.5263 21.4768 58.4064 24.2958 58.4064C27.1149 58.4064 29.8185 59.5263 31.8119 61.5197C33.8053 63.5131 34.9252 66.2167 34.9252 69.0358Z" fill="#16A1E7"/>
<path d="M39.4802 100.924H9.11068C8.30523 100.924 7.53277 100.604 6.96323 100.034C6.39369 99.4647 6.07373 98.6922 6.07373 97.8868V34.1109C6.07373 33.3054 6.39369 32.533 6.96323 31.9634C7.53277 31.3939 8.30523 31.0739 9.11068 31.0739H63.7758C64.5812 31.0739 65.3537 31.3939 65.9232 31.9634C66.4928 32.533 66.8127 33.3054 66.8127 34.1109V59.9249H63.7758V34.1109H9.11068V97.8868H39.4802V100.924Z" fill="#16A1E7"/>
<path d="M51.6281 41.7032H36.4434V44.7402H51.6281V41.7032Z" fill="#16A1E7"/>
<path d="M54.6651 47.7771H36.4434V50.814H54.6651V47.7771Z" fill="#16A1E7"/>
<path d="M60.7391 47.7771H57.7021V50.814H60.7391V47.7771Z" fill="#16A1E7"/>
<path d="M36.4433 75.1097H16.7031V78.1466H36.4433V75.1097Z" fill="#16A1E7"/>
<path d="M27.3324 81.1835H16.7031V84.2205H27.3324V81.1835Z" fill="#16A1E7"/>
<path d="M33.4066 81.1835H30.3696V84.2205H33.4066V81.1835Z" fill="#16A1E7"/>
<path d="M60.7391 105.479C56.5346 105.479 52.4244 104.232 48.9284 101.896C45.4325 99.5605 42.7077 96.2403 41.0987 92.3558C39.4897 88.4713 39.0687 84.1969 39.889 80.0731C40.7092 75.9494 42.7339 72.1615 45.707 69.1884C48.6801 66.2153 52.468 64.1906 56.5918 63.3703C60.7155 62.5501 64.9899 62.9711 68.8745 64.5801C72.759 66.1891 76.0791 68.9139 78.415 72.4098C80.751 75.9058 81.9978 80.0159 81.9978 84.2205C82.0435 86.3122 81.7355 88.3965 81.0867 90.3855L78.2016 89.4592C78.7385 87.7661 78.995 85.9965 78.9608 84.2205C78.9598 80.0362 77.5187 75.9798 74.8797 72.7326C72.2407 69.4855 68.5645 67.2455 64.4688 66.3891C60.3731 65.5326 56.1074 66.1118 52.3884 68.0294C48.6694 69.947 45.7237 73.0861 44.0461 76.9194C42.3685 80.7527 42.0612 85.0465 43.176 89.0796C44.2908 93.1126 46.7596 96.6392 50.1677 99.0667C53.5759 101.494 57.7156 102.675 61.8916 102.41C66.0675 102.146 70.0251 100.452 73.0995 97.6135L75.1646 99.8456C71.2355 103.47 66.0849 105.482 60.7391 105.479Z" fill="#16A1E7"/>
<path d="M77.8525 96.839L75.4077 95.0472C75.8803 94.3968 76.3114 93.7172 76.6984 93.0125L79.3558 94.5309C78.9079 95.3337 78.4057 96.1049 77.8525 96.839Z" fill="#16A1E7"/>
<path d="M69.0148 111.857L68.1797 108.926C68.9834 108.705 69.7699 108.426 70.5333 108.091L71.7177 110.885C70.839 111.268 69.9361 111.592 69.0148 111.857Z" fill="#16A1E7"/>
<path d="M75.5444 108.987L74.0259 106.39C77.8422 104.082 80.9996 100.83 83.1938 96.9465C85.388 93.0634 86.545 88.6806 86.5533 84.2205H89.5903C89.5761 89.208 88.276 94.1075 85.8156 98.4459C83.3551 102.784 79.8175 106.415 75.5444 108.987Z" fill="#16A1E7"/>
<path d="M66.5208 76.2938L64.9316 77.8829L67.0791 80.0304L68.6682 78.4413L66.5208 76.2938Z" fill="#16A1E7"/>
<path d="M59.2206 96.9909L47.9688 85.739L54.6652 79.0425L59.2206 83.598L62.0906 80.7281L64.2316 82.8691L59.2206 87.8801L54.6652 83.3246L52.2508 85.739L59.2206 92.7088L71.2318 80.6977L73.3728 82.8387L59.2206 96.9909Z" fill="#16A1E7"/>
<path d="M87.8448 51.926L81.6172 58.1536L83.7646 60.3011L89.9922 54.0735L87.8448 51.926Z" fill="#16A1E7"/>
<path d="M70.8759 44.6874L68.2344 53.1528L71.1335 54.0574L73.775 45.5921L70.8759 44.6874Z" fill="#16A1E7"/>
</g>
<defs>
<clipPath id="clip0_176_289">
<rect width="90" height="86.8568" fill="white" transform="translate(0 25)"/>
</clipPath>
</defs>
</svg>
