<svg width="140" height="136" viewBox="0 0 140 136" fill="none" xmlns="http://www.w3.org/2000/svg">
<path opacity="0.5" d="M20 42.3736V93.6253C20.0041 96.7737 20.8323 99.8657 22.4015 102.591C23.9707 105.317 26.2258 107.58 28.9408 109.154L71.0717 133.598C73.7855 135.172 76.8639 136 79.9975 136C83.1312 136 86.2096 135.172 88.9234 133.598L131.059 109.154C133.774 107.58 136.029 105.317 137.599 102.591C139.168 99.8657 139.996 96.7737 140 93.6253V42.3736C139.999 39.2253 139.171 36.133 137.602 33.4077C136.032 30.6825 133.776 28.4205 131.059 26.8494L88.9234 2.40584C86.2104 0.829834 83.1317 0 79.9975 0C76.8634 0 73.7846 0.829834 71.0717 2.40584L28.9408 26.8494C26.2242 28.4205 23.9676 30.6825 22.3981 33.4077C20.8285 36.133 20.0014 39.2253 20 42.3736H20Z" fill="#EDF8FD"/>
<g clip-path="url(#clip0_176_323)">
<path d="M37.3509 91.1936C36.3806 91.1966 35.4336 90.897 34.6416 90.3365C33.8497 89.776 33.2521 88.9826 32.9322 88.0666C32.6124 87.1506 32.586 86.1577 32.8569 85.226C33.1278 84.2943 33.6824 83.4703 34.4435 82.8686C39.2272 79.0871 47.9781 72.7089 52.8611 72.7089C54.6007 72.7439 56.3261 73.0297 57.9842 73.5574C59.2649 73.9128 60.4753 74.249 61.9289 74.249C65.7713 74.249 69.5143 72.3567 71.3939 71.2264L72.9788 73.868C70.3468 75.4465 66.2932 77.3261 61.9289 77.3261C60.0558 77.3261 58.5861 76.9162 57.1645 76.5224C55.7972 76.1446 54.5101 75.7859 52.8547 75.7859C50.0562 75.7859 43.7323 79.4233 36.3487 85.2797C36.163 85.4276 36.0133 85.6156 35.9107 85.8297C35.8081 86.0437 35.7554 86.2782 35.7563 86.5156C35.7563 86.9402 35.925 87.3474 36.2252 87.6477C36.5255 87.9479 36.9327 88.1166 37.3573 88.1166C39.0784 88.1185 40.771 87.6774 42.2723 86.8358L51.3626 81.6743L52.8771 84.3511L43.7804 89.4966C41.8192 90.6067 39.6045 91.1913 37.3509 91.1936Z" fill="#16A1E7"/>
<path d="M59.1907 99.4802L58.5151 96.4768C63.0523 95.4586 65.6651 93.1948 68.6877 90.5725C70.8554 88.6929 73.3081 86.5636 76.7213 84.7578L78.159 87.4794C75.0595 89.1188 72.847 91.0399 70.7081 92.8971C67.5062 95.6731 64.4867 98.2923 59.1907 99.4802Z" fill="#16A1E7"/>
<path d="M25.9996 98.9968C23.8831 96.986 22.2918 95.0904 21.2768 93.3646C20.9269 92.7422 20.3743 92.2585 19.711 91.9942L12.0264 89.0196L13.1406 86.1378L20.8253 89.1124C22.1377 89.6267 23.2356 90.5732 23.9376 91.7956C24.8053 93.2749 26.2141 94.9399 28.1225 96.7522L25.9996 98.9968Z" fill="#16A1E7"/>
<path d="M46.1077 111.206C45.0535 111.197 44.0054 111.045 42.9922 110.754L43.8311 107.793C45.1079 108.174 46.4595 108.232 47.7644 107.962C49.0693 107.692 50.2868 107.102 51.3076 106.246L54.5864 103.512C55.3721 102.856 56.0165 102.048 56.4805 101.137C56.9444 100.225 57.2183 99.2284 57.2853 98.2076C57.3524 97.1868 57.2113 96.163 56.8707 95.1984C56.53 94.2338 55.9969 93.3484 55.3036 92.5961C53.0821 90.1989 50.7225 87.9334 48.237 85.8112L50.2286 83.461C52.8077 85.6633 55.255 88.0154 57.5578 90.5053C58.5357 91.5634 59.2881 92.8094 59.7692 94.1675C60.2503 95.5255 60.4501 96.9673 60.3563 98.4051C60.2626 99.8428 59.8773 101.246 59.2239 102.531C58.5705 103.815 57.6626 104.952 56.5556 105.875L53.2768 108.609C51.263 110.284 48.7271 111.203 46.1077 111.206Z" fill="#16A1E7"/>
<path d="M41.1098 80.6433C37.3891 78.4531 34.0367 77.3389 31.1454 77.3389C26.3425 77.3389 21.1553 75.8948 17.646 74.6845L18.6482 71.7771C21.9366 72.9106 26.7747 74.2618 31.1357 74.2618C34.5842 74.2618 38.465 75.517 42.6627 77.9921L41.1098 80.6433Z" fill="#16A1E7"/>
<path d="M41.9228 111.206C35.3877 111.206 24.9878 105.02 24.9878 99.8773C24.9895 98.3917 25.5804 96.9675 26.6309 95.917C27.6813 94.8665 29.1056 94.2756 30.5912 94.2739C32.2821 94.2769 33.9271 94.8248 35.282 95.8365L44.6925 102.881C45.4736 103.46 46.0517 104.272 46.3444 105.199C46.637 106.127 46.6293 107.123 46.3222 108.046C46.0152 108.969 45.4245 109.771 44.6345 110.339C43.8445 110.906 42.8955 111.21 41.9228 111.206ZM30.5912 97.3638C29.922 97.3655 29.2807 97.6323 28.8078 98.1058C28.3349 98.5793 28.0689 99.2209 28.0681 99.8901C28.0681 102.477 35.9736 108.142 41.9228 108.142C42.2461 108.141 42.5611 108.039 42.8232 107.85C43.0853 107.661 43.2812 107.394 43.3832 107.087C43.4852 106.781 43.4881 106.45 43.3915 106.141C43.2949 105.833 43.1037 105.562 42.845 105.369L33.4345 98.3244C32.6153 97.7056 31.6178 97.3686 30.5912 97.3638Z" fill="#16A1E7"/>
<path d="M80.9161 91.1969C79.9847 91.1942 79.0758 90.9108 78.3081 90.3836C77.5404 89.8563 76.9495 89.1098 76.6127 88.2415L69.943 71.0151C69.7238 70.4496 69.6181 69.8464 69.6321 69.24C69.646 68.6336 69.7793 68.0359 70.0243 67.4811C70.2694 66.9262 70.6213 66.4251 71.06 66.0063C71.4988 65.5875 72.0158 65.2592 72.5814 65.0403L85.6805 59.9716L86.7916 62.8534L73.6925 67.906C73.504 67.979 73.3317 68.0884 73.1855 68.228C73.0393 68.3677 72.9221 68.5348 72.8406 68.7198C72.7591 68.9048 72.7149 69.1041 72.7106 69.3062C72.7062 69.5083 72.7417 69.7093 72.8152 69.8976L79.4816 87.1176C79.6297 87.4979 79.9224 87.804 80.2956 87.969C80.6689 88.134 81.0923 88.1445 81.4732 87.9982L88.8889 85.1164L89.9999 87.9982L82.5875 90.8799C82.0548 91.0884 81.488 91.1959 80.9161 91.1969Z" fill="#16A1E7"/>
<path d="M9.08389 92.7337C8.51286 92.7305 7.94733 92.622 7.41568 92.4136L0 89.551L1.11107 86.6693L8.52675 89.551C8.71498 89.6254 8.91616 89.6614 9.11849 89.657C9.32082 89.6526 9.52024 89.6079 9.70507 89.5254C9.88996 89.4439 10.057 89.3267 10.1965 89.1805C10.3361 89.0344 10.4454 88.8622 10.5184 88.6737L17.1848 71.4281C17.2582 71.2399 17.2937 71.0392 17.2892 70.8373C17.2848 70.6354 17.2406 70.4364 17.1591 70.2517C17.0776 70.0669 16.9604 69.9001 16.8142 69.7607C16.6681 69.6214 16.4959 69.5123 16.3075 69.4397L3.20194 64.3838L4.31301 61.5021L17.4185 66.5803C17.9844 66.7989 18.5017 67.127 18.9407 67.5457C19.3797 67.9644 19.7318 68.4656 19.9768 69.0206C20.2219 69.5755 20.3551 70.1734 20.3689 70.7799C20.3826 71.3864 20.2766 71.9897 20.0569 72.5552L13.3873 89.7816C13.0514 90.6503 12.4607 91.3971 11.6927 91.924C10.9247 92.4508 10.0153 92.7331 9.08389 92.7337Z" fill="#16A1E7"/>
<path d="M38.843 38.8549H35.7627V41.9319H38.843V38.8549Z" fill="#16A1E7"/>
<path d="M31.1449 38.8549H28.0679V41.9319H31.1449V38.8549Z" fill="#16A1E7"/>
<path d="M23.4477 38.8549H20.3706V41.9319H23.4477V38.8549Z" fill="#16A1E7"/>
<path d="M29.605 55.7867C26.5878 55.7732 23.6403 54.8779 21.1253 53.2111C18.6102 51.5442 16.6373 49.1785 15.4493 46.405L9.60576 43.0654C9.13459 42.7963 8.74296 42.4074 8.47056 41.9381C8.19816 41.4689 8.05469 40.9359 8.05469 40.3933C8.05469 39.8508 8.19816 39.3178 8.47056 38.8486C8.74296 38.3793 9.13459 37.9904 9.60576 37.7213L15.4493 34.3817C16.5366 31.8219 18.2974 29.6047 20.5443 27.9657C22.7912 26.3268 25.4402 25.3273 28.2098 25.0738C30.9793 24.8202 33.7659 25.3219 36.273 26.5256C38.7802 27.7292 40.9143 29.5899 42.4484 31.9096C43.9826 34.2294 44.8593 36.9215 44.9856 39.6998C45.1118 42.4781 44.4827 45.2386 43.1652 47.6879C41.8478 50.1372 39.8912 52.1837 37.5034 53.6097C35.1157 55.0358 32.3862 55.7881 29.605 55.7867ZM29.605 28.0803C27.1145 28.0911 24.6851 28.8533 22.6348 30.2672C20.5845 31.6811 19.0086 33.681 18.1133 36.0051L17.9308 36.527L11.1331 40.3949L17.9308 44.2725L18.1261 44.7848C18.9272 46.882 20.2864 48.7202 22.0568 50.1006C23.8271 51.481 25.9412 52.3511 28.1704 52.6167C30.3996 52.8823 32.6589 52.5334 34.7041 51.6076C36.7492 50.6818 38.5023 49.2145 39.7738 47.3643C41.0452 45.5141 41.7865 43.3515 41.9175 41.1104C42.0486 38.8692 41.5643 36.635 40.5172 34.6492C39.4701 32.6634 37.8999 31.0018 35.9766 29.844C34.0533 28.6862 31.85 28.0763 29.605 28.0803Z" fill="#16A1E7"/>
<path d="M29.6053 63.4842C26.287 63.4848 23.0086 62.7602 19.9995 61.3613L21.2803 58.566C25.1716 60.3581 29.5356 60.8531 33.7294 59.978L34.3698 62.9911C32.8031 63.3204 31.2063 63.4857 29.6053 63.4842Z" fill="#16A1E7"/>
<path d="M55.7743 48.0892H52.6973V51.1695H55.7743V48.0892Z" fill="#16A1E7"/>
<path d="M63.4721 48.0892H60.395V51.1695H63.4721V48.0892Z" fill="#16A1E7"/>
<path d="M71.1693 48.0892H68.0923V51.1695H71.1693V48.0892Z" fill="#16A1E7"/>
<path d="M61.9349 65.0242C59.1518 65.0274 56.4199 64.2761 54.0298 62.8501C51.6397 61.4242 49.6809 59.377 48.3617 56.9264C47.0425 54.4758 46.4123 51.7134 46.5382 48.9331C46.6641 46.1528 47.5413 43.4587 49.0765 41.1373C50.6117 38.8159 52.7475 36.9541 55.2567 35.7499C57.7658 34.5458 60.5545 34.0444 63.3259 34.299C66.0974 34.5537 68.7479 35.5548 70.9957 37.196C73.2434 38.8372 75.0042 41.057 76.0907 43.6193L81.9342 46.9589C82.4054 47.228 82.797 47.6169 83.0694 48.0861C83.3418 48.5554 83.4853 49.0883 83.4853 49.6309C83.4853 50.1735 83.3418 50.7065 83.0694 51.1757C82.797 51.645 82.4054 52.0339 81.9342 52.3029L76.0907 55.6394C74.9035 58.4137 72.9309 60.7804 70.4157 62.4479C67.9005 64.1153 64.9526 65.0109 61.9349 65.0242ZM61.9349 37.3147C59.6895 37.3122 57.4862 37.9236 55.5632 39.0828C53.6403 40.2421 52.0708 41.905 51.0247 43.8918C49.9785 45.8785 49.4955 48.1135 49.6278 50.355C49.7601 52.5964 50.5027 54.7591 51.7754 56.609C53.048 58.4589 54.8022 59.9256 56.8482 60.8506C58.8942 61.7755 61.1541 62.1235 63.3836 61.8568C65.6131 61.5901 67.7272 60.719 69.4974 59.3376C71.2675 57.9561 72.6263 56.117 73.4267 54.0192L73.622 53.5069L80.4069 49.6293L73.622 45.7518L73.4267 45.2395C72.5299 42.9164 70.9536 40.9175 68.9036 39.5038C66.8536 38.0901 64.4251 37.3272 61.9349 37.3147Z" fill="#16A1E7"/>
<path d="M70.257 31.4583C66.3665 29.6633 62.0016 29.1682 57.8079 30.0463L57.1675 27.0332C62.0082 26.0174 67.0475 26.5889 71.5378 28.663L70.257 31.4583Z" fill="#16A1E7"/>
</g>
<defs>
<clipPath id="clip0_176_323">
<rect width="90" height="86.2057" fill="white" transform="translate(0 25)"/>
</clipPath>
</defs>
</svg>
