<svg width="146" height="136" viewBox="0 0 146 136" fill="none" xmlns="http://www.w3.org/2000/svg">
<path opacity="0.5" d="M26 42.3736V93.6253C26.0041 96.7737 26.8323 99.8657 28.4015 102.591C29.9707 105.317 32.2258 107.58 34.9408 109.154L77.0717 133.598C79.7855 135.172 82.8639 136 85.9975 136C89.1312 136 92.2096 135.172 94.9234 133.598L137.059 109.154C139.774 107.58 142.029 105.317 143.599 102.591C145.168 99.8657 145.996 96.7737 146 93.6253V42.3736C145.999 39.2253 145.171 36.133 143.602 33.4077C142.032 30.6825 139.776 28.4205 137.059 26.8494L94.9234 2.40584C92.2104 0.829834 89.1317 0 85.9975 0C82.8634 0 79.7846 0.829834 77.0717 2.40584L34.9408 26.8494C32.2242 28.4205 29.9676 30.6825 28.3981 33.4077C26.8285 36.133 26.0014 39.2253 26 42.3736H26Z" fill="#EDF8FD"/>
<g clip-path="url(#clip0_176_259)">
<path d="M76.2712 113H6.10169C4.48342 113 2.93143 112.357 1.78715 111.213C0.642855 110.069 0 108.517 0 106.898V105.373C0 104.564 0.321428 103.788 0.893573 103.216C1.46572 102.643 2.24171 102.322 3.05085 102.322H79.322C80.1312 102.322 80.9072 102.643 81.4793 103.216C82.0515 103.788 82.3729 104.564 82.3729 105.373V106.898C82.3729 108.517 81.73 110.069 80.5857 111.213C79.4414 112.357 77.8895 113 76.2712 113ZM3.05085 105.373V106.898C3.05085 107.707 3.37227 108.483 3.94442 109.056C4.51656 109.628 5.29256 109.949 6.10169 109.949H76.2712C77.0803 109.949 77.8563 109.628 78.4285 109.056C79.0006 108.483 79.322 107.707 79.322 106.898V105.373H3.05085Z" fill="#16A1E7"/>
<path d="M71.6947 90.1187H10.6777V93.1695H71.6947V90.1187Z" fill="#16A1E7"/>
<path d="M19.8307 96.2203H13.729V99.2712H19.8307V96.2203Z" fill="#16A1E7"/>
<path d="M32.0338 96.2203H25.9321V99.2712H32.0338V96.2203Z" fill="#16A1E7"/>
<path d="M44.2374 96.2203H38.1357V99.2712H44.2374V96.2203Z" fill="#16A1E7"/>
<path d="M56.4406 96.2203H50.3389V99.2712H56.4406V96.2203Z" fill="#16A1E7"/>
<path d="M68.6442 96.2203H62.5425V99.2712H68.6442V96.2203Z" fill="#16A1E7"/>
<path d="M79.3372 105.403L70.1694 92.1169V70.0288H73.2203V91.1712L81.8542 103.664L79.3372 105.403Z" fill="#16A1E7"/>
<path d="M73.2203 58.9085H70.1695V48.9322C70.1695 48.1231 69.8481 47.3471 69.2759 46.7749C68.7038 46.2028 67.9278 45.8814 67.1187 45.8814V42.8305C68.7369 42.8305 70.2889 43.4734 71.4332 44.6176C72.5775 45.7619 73.2203 47.3139 73.2203 48.9322V58.9085Z" fill="#16A1E7"/>
<path d="M3.05076 105.373L0.518555 103.664L9.15245 91.1712V48.9322C9.15245 47.3139 9.79531 45.7619 10.9396 44.6177C12.0839 43.4734 13.6359 42.8305 15.2541 42.8305H22.8813V45.8814H15.2541C14.445 45.8814 13.669 46.2028 13.0969 46.7749C12.5247 47.3471 12.2033 48.1231 12.2033 48.9322V92.1169L3.05076 105.373Z" fill="#16A1E7"/>
<path d="M30.5086 87.0678H15.2544V71.8135H30.5086V87.0678ZM18.3052 84.0169H27.4578V74.8644H18.3052V84.0169Z" fill="#16A1E7"/>
<path d="M48.8133 87.0678H33.5591V71.8135H48.8133V87.0678ZM36.6099 84.0169H45.7625V74.8644H36.6099V84.0169Z" fill="#16A1E7"/>
<path d="M67.1185 87.0678H51.8643V71.8135H67.1185V87.0678ZM54.9151 84.0169H64.0677V74.8644H54.9151V84.0169Z" fill="#16A1E7"/>
<path d="M73.2206 71.8136C71.6591 71.8116 70.1577 71.2111 69.0257 70.1356L55.9223 57.6881C53.4683 59.4061 50.6441 60.5217 47.6786 60.9446C44.7131 61.3675 41.6896 61.0858 38.8533 60.1222C36.0169 59.1586 33.4475 57.5404 31.3533 55.3986C29.259 53.2568 27.6988 50.6517 26.7992 47.7944C25.8995 44.9371 25.6857 41.9081 26.1751 38.9528C26.6645 35.9975 27.8432 33.1991 29.6158 30.7843C31.3885 28.3696 33.7051 26.4064 36.3779 25.054C39.0508 23.7016 42.0047 22.9979 45.0002 23C46.8496 22.9949 48.6897 23.2622 50.4613 23.7932L49.5918 26.722C47.3889 26.0634 45.0701 25.8868 42.793 26.2042C40.5158 26.5215 38.3336 27.3254 36.3948 28.5612C34.456 29.7969 32.8059 31.4356 31.5568 33.3659C30.3077 35.2962 29.4887 37.4727 29.1557 39.7476C28.8226 42.0226 28.9833 44.3425 29.6267 46.5499C30.27 48.7572 31.3811 50.8001 32.8843 52.5398C34.3875 54.2795 36.2477 55.6752 38.3383 56.632C40.4289 57.5888 42.7011 58.0843 45.0002 58.0848C48.6683 58.097 52.2269 56.8353 55.068 54.5153L56.1206 53.6763L71.1307 67.9237C71.5639 68.331 72.1065 68.6028 72.692 68.7058C73.2775 68.8088 73.8803 68.7385 74.4264 68.5035C74.9725 68.2686 75.438 67.8792 75.7658 67.3832C76.0936 66.8873 76.2693 66.3064 76.2714 65.7119C76.2679 65.2357 76.1529 64.7669 75.9357 64.3431C75.7185 63.9192 75.4051 63.5522 75.0206 63.2712L58.3629 50.9763L59.0189 49.817C60.4031 47.3103 61.0906 44.4787 61.0102 41.6164C60.9297 38.7541 60.0841 35.9656 58.5612 33.5407L61.1392 31.9237C63.0578 34.9589 64.0736 38.4771 64.068 42.0678C64.0654 44.8389 63.4617 47.5764 62.2985 50.0915L76.8358 60.7695C77.8829 61.5275 78.6621 62.5984 79.0613 63.8279C79.4604 65.0573 79.4588 66.3818 79.0567 67.6102C78.6545 68.8387 77.8727 69.9077 76.8238 70.6632C75.7749 71.4186 74.5132 71.8214 73.2206 71.8136Z" fill="#16A1E7"/>
<path d="M55.0983 29.6814C54.4402 29.0808 53.707 28.568 52.917 28.1559L54.4424 25.4865C55.4254 25.9909 56.3382 26.6216 57.1577 27.3627L55.0983 29.6814Z" fill="#16A1E7"/>
</g>
<defs>
<clipPath id="clip0_176_259">
<rect width="82.3729" height="90" fill="white" transform="translate(0 23)"/>
</clipPath>
</defs>
</svg>
