<svg width="80" height="78" viewBox="0 0 80 78" fill="none" xmlns="http://www.w3.org/2000/svg">
<g clip-path="url(#clip0_71_730)">
<path d="M57.4933 49.3334H32.08C31.6718 49.3319 31.2689 49.2404 30.9001 49.0652C30.5313 48.89 30.2058 48.6356 29.9467 48.3201C29.6802 48.0156 29.4865 47.6545 29.3802 47.2641C29.274 46.8737 29.2579 46.4643 29.3333 46.0667L34.4267 20.8667C34.5519 20.2501 34.8851 19.6951 35.3705 19.2946C35.8559 18.8941 36.4641 18.6725 37.0933 18.6667H62.5867C62.9949 18.6682 63.3978 18.7598 63.7666 18.935C64.1354 19.1101 64.4609 19.3646 64.72 19.6801C64.9865 19.9845 65.1802 20.3456 65.2865 20.736C65.3927 21.1264 65.4088 21.5359 65.3334 21.9334L60.24 47.1334C60.1122 47.7636 59.7672 48.329 59.2653 48.7311C58.7634 49.1331 58.1363 49.3463 57.4933 49.3334ZM37.1733 21.3334L32 46.5867L57.4933 46.6667C57.5058 46.6727 57.5195 46.6758 57.5334 46.6758C57.5472 46.6758 57.5608 46.6727 57.5733 46.6667L62.6667 21.4134L37.1733 21.3334Z" fill="#16A1E7"/>
<path d="M62.4133 28H34.1067V30.6667H62.4133V28Z" fill="#16A1E7"/>
<path d="M60.5334 37.3333H32.24V39.9999H60.5334V37.3333Z" fill="#16A1E7"/>
<path d="M46.5733 62.6667C46.3088 60.7886 45.4783 59.0357 44.1926 57.6415C42.9068 56.2472 41.2268 55.2777 39.3763 54.8621C37.5258 54.4466 35.5926 54.6046 33.8342 55.3153C32.0757 56.0259 30.5755 57.2554 29.5333 58.84L27.3067 57.3733C28.6469 55.3367 30.5756 53.7566 32.8362 52.8433C35.0967 51.9301 37.5818 51.7271 39.9606 52.2614C42.3394 52.7956 44.499 54.0418 46.1519 55.8339C47.8049 57.6261 48.8727 59.8792 49.2133 62.2933L46.5733 62.6667Z" fill="#16A1E7"/>
<path d="M28 63.9999H25.3333C25.337 63.1024 25.4398 62.2081 25.64 61.3333L28.24 61.9333C28.0818 62.6108 28.0013 63.3042 28 63.9999Z" fill="#16A1E7"/>
<path d="M62.6667 61.3332H60C59.9988 60.2655 59.6772 59.2228 59.0769 58.34C58.4765 57.4572 57.625 56.7748 56.6326 56.3813C55.6401 55.9878 54.5524 55.9011 53.5102 56.1327C52.4679 56.3642 51.5192 56.9031 50.7867 57.6798L48.84 55.8532C49.9383 54.6858 51.362 53.8752 52.9265 53.5265C54.491 53.1779 56.1242 53.3072 57.6143 53.8978C59.1044 54.4884 60.3827 55.513 61.2836 56.8387C62.1845 58.1645 62.6663 59.7303 62.6667 61.3332Z" fill="#16A1E7"/>
<path d="M80 61.3334H77.3333C77.334 60.6131 77.2398 59.8958 77.0533 59.2001L79.6133 58.4934C79.8694 59.4184 79.9995 60.3737 80 61.3334Z" fill="#16A1E7"/>
<path d="M75.7067 56.5067C75.2638 55.9193 74.7435 55.3946 74.16 54.9467L75.7733 52.8267C76.5524 53.4191 77.2476 54.1143 77.84 54.8933L75.7067 56.5067Z" fill="#16A1E7"/>
<path d="M61.8 58.6667L59.2933 57.7601C60.0306 55.6864 61.3913 53.8916 63.1887 52.6217C64.9862 51.3517 67.1325 50.6689 69.3333 50.6667C70.2876 50.6701 71.2376 50.7956 72.16 51.0401L71.4533 53.6134C69.5035 53.0803 67.4242 53.3051 65.6334 54.2426C63.8425 55.1801 62.473 56.7607 61.8 58.6667Z" fill="#16A1E7"/>
<path d="M17.3333 63.9999H14.6667C14.6663 62.8105 14.2683 61.6554 13.5361 60.7181C12.8038 59.7808 11.7792 59.1152 10.6252 58.8271C9.47125 58.539 8.25406 58.6449 7.16717 59.128C6.08028 59.6111 5.18606 60.4436 4.62667 61.4933L2.28 60.2399C3.1208 58.6689 4.46201 57.4236 6.09094 56.7014C7.71987 55.9792 9.54328 55.8216 11.272 56.2534C13.0007 56.6852 14.5358 57.6817 15.6339 59.0851C16.7319 60.4884 17.33 62.2181 17.3333 63.9999Z" fill="#16A1E7"/>
<path d="M14.2 59.04L11.8267 57.84C12.7178 56.0839 14.0776 54.6088 15.7556 53.578C17.4335 52.5472 19.3641 52.0011 21.3333 52C22.8567 51.9955 24.3628 52.3231 25.7467 52.96L24.6533 55.3867C22.7761 54.53 20.6404 54.4317 18.6924 55.1125C16.7445 55.7933 15.1349 57.2005 14.2 59.04Z" fill="#16A1E7"/>
<path d="M36.3334 54.3467L34.2267 52.7201L38.28 47.4267L43.9333 19.7334L46.5333 20.2667L40.7733 48.5734L36.3334 54.3467Z" fill="#16A1E7"/>
<path d="M51.12 55.6534L47.6667 48.1601L53.4533 19.7334L56.0667 20.2667L50.4533 47.8401L53.5467 54.5334L51.12 55.6534Z" fill="#16A1E7"/>
<path d="M33.3333 74.6668H30.6667C30.6635 72.5114 31.4065 70.4213 32.7694 68.7515C34.1323 67.0817 36.0311 65.9351 38.1434 65.5064C40.2557 65.0776 42.4513 65.3932 44.3574 66.3995C46.2635 67.4057 47.7625 69.0407 48.6 71.0268L46.1467 72.0668C45.5499 70.6458 44.4793 69.4754 43.117 68.7548C41.7546 68.0343 40.1846 67.808 38.6742 68.1144C37.1638 68.4209 35.8063 69.2413 34.8325 70.4359C33.8588 71.6305 33.329 73.1256 33.3333 74.6668Z" fill="#16A1E7"/>
<path d="M22.56 77.3334L19.8933 76.9334C19.9471 76.6246 19.9828 76.313 20 76C19.9982 75.6878 19.9759 75.376 19.9333 75.0667L22.6 74.6934C22.6558 75.1266 22.6781 75.5634 22.6667 76C22.6618 76.4464 22.6262 76.8919 22.56 77.3334Z" fill="#16A1E7"/>
<path d="M7.18667 73.4266L4.72 72.3999C5.35832 70.8716 6.39185 69.5406 7.71449 68.5437C9.03713 67.5467 10.6012 66.9197 12.2463 66.727C13.8913 66.5343 15.558 66.7827 17.0752 67.447C18.5925 68.1112 19.9057 69.1672 20.88 70.5066L18.6667 72.0799C17.9717 71.125 17.0355 70.3718 15.9539 69.8975C14.8723 69.4232 13.6841 69.2447 12.5108 69.3804C11.3376 69.516 10.2215 69.9609 9.27662 70.6695C8.33177 71.378 7.59211 72.3249 7.13333 73.4132L7.18667 73.4266Z" fill="#16A1E7"/>
<path d="M32.2 71.5466C31.0608 70.4816 29.6399 69.766 28.1059 69.4847C26.572 69.2035 24.9896 69.3684 23.5467 69.9599L22.52 67.5066C23.8308 66.9476 25.2417 66.6617 26.6667 66.6666C29.4139 66.6669 32.0551 67.7272 34.04 69.6266L32.2 71.5466Z" fill="#16A1E7"/>
<path d="M57.3333 77.3333H54.6667C54.666 75.1115 55.2821 72.9331 56.4465 71.0409C57.6108 69.1486 59.2777 67.6167 61.2613 66.616C63.2449 65.6152 65.4675 65.1847 67.6813 65.3726C69.8951 65.5604 72.0134 66.3592 73.8 67.68L72.2133 69.8266C70.611 68.6333 68.6645 67.9923 66.6667 68C64.1913 68 61.8173 68.9833 60.067 70.7336C58.3167 72.484 57.3333 74.8579 57.3333 77.3333Z" fill="#16A1E7"/>
<path d="M75.24 73.6534C74.9628 72.9964 74.6092 72.3744 74.1867 71.8L76.3333 70.2134C76.8665 70.956 77.3138 71.7567 77.6667 72.6L75.24 73.6534Z" fill="#16A1E7"/>
<path d="M47.1333 70.0933L44.8667 68.6667C45.7329 67.2967 46.9188 66.1574 48.3224 65.3468C49.7261 64.5362 51.3055 64.0784 52.9251 64.0128C54.5447 63.9473 56.1559 64.2758 57.6205 64.9703C59.0851 65.6648 60.3592 66.7045 61.3333 68L59.2 69.6C58.4846 68.6637 57.5542 67.9136 56.4874 67.4132C55.4206 66.9127 54.249 66.6767 53.0717 66.7251C51.8944 66.7735 50.746 67.1049 49.724 67.6912C48.7019 68.2775 47.8361 69.1015 47.2 70.0933H47.1333Z" fill="#16A1E7"/>
<path d="M26.6667 21.3333H24C24 17.7971 25.4048 14.4057 27.9052 11.9052C30.4057 9.40476 33.7971 8 37.3333 8V10.6667C34.5044 10.6667 31.7912 11.7905 29.7909 13.7909C27.7905 15.7912 26.6667 18.5044 26.6667 21.3333Z" fill="#16A1E7"/>
<path d="M18.6667 21.3333H16C16 15.6754 18.2476 10.2492 22.2484 6.24839C26.2492 2.24761 31.6754 0 37.3333 0V2.66667C32.3826 2.66667 27.6347 4.63333 24.134 8.13401C20.6333 11.6347 18.6667 16.3826 18.6667 21.3333Z" fill="#16A1E7"/>
<path d="M72.6667 28.0001H68V25.3335H72.6667C73.2474 25.3342 73.8182 25.1832 74.3226 24.8955C74.827 24.6077 75.2474 24.1932 75.5423 23.693C75.8372 23.1927 75.9963 22.6242 76.0039 22.0435C76.0115 21.4629 75.8672 20.8903 75.5854 20.3826C75.3036 19.8749 74.8941 19.4496 74.3974 19.1488C73.9007 18.848 73.334 18.6822 72.7535 18.6678C72.173 18.6534 71.5988 18.7909 71.0878 19.0667C70.5767 19.3425 70.1466 19.747 69.84 20.2401L67.5734 18.8268C68.1076 17.9574 68.8571 17.2405 69.7493 16.7454C70.6415 16.2502 71.6463 15.9935 72.6667 16.0001C74.258 16.0001 75.7841 16.6323 76.9093 17.7575C78.0346 18.8827 78.6667 20.4088 78.6667 22.0001C78.6667 23.5914 78.0346 25.1175 76.9093 26.2428C75.7841 27.368 74.258 28.0001 72.6667 28.0001Z" fill="#16A1E7"/>
<path d="M71.0667 17.4666C70.8 14.7999 69.0267 11.9999 66.1467 11.9999C65.0028 11.9968 63.8941 12.3956 63.0143 13.1267C62.1346 13.8578 61.5396 14.8748 61.3333 15.9999L58.6667 15.5733C58.9828 13.8206 59.9054 12.2351 61.2729 11.0942C62.6405 9.9534 64.3657 9.33002 66.1467 9.33326C70.1467 9.33326 73.28 12.6533 73.72 17.2133L71.0667 17.4666Z" fill="#16A1E7"/>
<path d="M12 30.6667H0V33.3334H12V30.6667Z" fill="#16A1E7"/>
<path d="M17.3333 30.6667H14.6667V33.3334H17.3333V30.6667Z" fill="#16A1E7"/>
<path d="M22.6667 30.6667H20V33.3334H22.6667V30.6667Z" fill="#16A1E7"/>
<path d="M26.6667 36H13.3333V38.6667H26.6667V36Z" fill="#16A1E7"/>
<path d="M17.3333 41.3333H6.66666V43.9999H17.3333V41.3333Z" fill="#16A1E7"/>
</g>
<defs>
<clipPath id="clip0_71_730">
<rect width="80" height="77.3867" fill="white"/>
</clipPath>
</defs>
</svg>
