<svg width="287" height="162" viewBox="0 0 287 162" fill="none" xmlns="http://www.w3.org/2000/svg">
<path opacity="0.5" d="M0 -61.0511V61.0485C0.00977451 68.5491 1.9905 75.9154 5.74357 82.4087C9.49664 88.902 14.8902 94.2941 21.3833 98.0444L122.146 156.278C128.637 160.026 135.999 162 143.494 162C150.989 162 158.351 160.026 164.842 156.278L265.617 98.0444C272.11 94.2941 277.503 88.902 281.256 82.4087C285.01 75.9154 286.99 68.5491 287 61.0485V-61.0511C286.997 -68.5515 285.018 -75.9186 281.265 -82.411C277.511 -88.9035 272.114 -94.2924 265.617 -98.0352L164.842 -156.268C158.353 -160.023 150.99 -162 143.494 -162C135.998 -162 128.635 -160.023 122.146 -156.268L21.3833 -98.0352C14.8862 -94.2924 9.48922 -88.9035 5.73541 -82.411C1.9816 -75.9186 0.00343796 -68.5515 0 -61.0511H0Z" fill="#EDF8FD"/>
</svg>
