<svg width="106" height="120" viewBox="0 0 106 120" fill="none" xmlns="http://www.w3.org/2000/svg">
<path opacity="0.5" d="M0 37.3885V82.6105C0.0036101 85.3886 0.735166 88.1168 2.12132 90.5217C3.50747 92.9267 5.4995 94.9237 7.89768 96.3127L45.1133 117.881C47.5105 119.269 50.2298 120 52.9978 120C55.7659 120 58.4851 119.269 60.8823 117.881L98.1023 96.3127C100.501 94.9237 102.493 92.9267 103.879 90.5217C105.265 88.1168 105.996 85.3886 106 82.6105V37.3885C105.999 34.6106 105.268 31.882 103.882 29.4774C102.495 27.0728 100.502 25.0769 98.1023 23.6907L60.8823 2.1228C58.4859 0.732206 55.7663 0 52.9978 0C50.2293 0 47.5098 0.732206 45.1133 2.1228L7.89768 23.6907C5.49805 25.0769 3.50473 27.0728 2.1183 29.4774C0.731879 31.882 0.00126977 34.6106 0 37.3885H0Z" fill="#EDF8FD"/>
</svg>
