<svg width="1175" height="897" viewBox="0 0 1175 897" fill="none" xmlns="http://www.w3.org/2000/svg">
<path d="M0 -92.9616V448.95C0.0434233 482.24 8.8428 514.933 25.5159 543.752C42.1889 572.571 66.1497 596.503 94.9957 613.148L542.636 871.603C571.47 888.241 604.179 897 637.474 897C670.768 897 703.477 888.241 732.311 871.603L1180 613.148C1208.85 596.503 1232.81 572.571 1249.48 543.752C1266.16 514.933 1274.96 482.24 1275 448.95V-92.9616C1274.98 -126.25 1266.2 -158.947 1249.52 -187.763C1232.84 -216.578 1208.87 -240.495 1180 -257.107L732.311 -515.562C703.485 -532.226 670.774 -541 637.474 -541C604.173 -541 571.462 -532.226 542.636 -515.562L94.9957 -257.107C66.1322 -240.495 42.1559 -216.578 25.4796 -187.763C8.80327 -158.947 0.0152732 -126.25 0 -92.9616H0Z" fill="#EDF8FD"/>
</svg>
