<svg width="511" height="390" viewBox="0 0 511 390" fill="none" xmlns="http://www.w3.org/2000/svg">
<g opacity="0.39">
<path opacity="0.39" fill-rule="evenodd" clip-rule="evenodd" d="M170.593 155.676L193.894 178.988V150.932L160.847 117.888L127.797 150.932V178.988L151.099 155.677V369L170.593 380V155.676Z" fill="#B6DBED"/>
<path opacity="0.39" fill-rule="evenodd" clip-rule="evenodd" d="M213.828 272.597L227.735 283.356V270.226L207.737 254.762L187.739 270.226V283.356L201.644 272.599V390L213.828 389V272.597Z" fill="#B6DBED"/>
<path opacity="0.39" fill-rule="evenodd" clip-rule="evenodd" d="M261.67 288.846L270.783 297.965V286.088L256.795 272.102L242.805 286.088V297.965L251.922 288.844V370.5L261.67 365V288.846Z" fill="#B6DBED"/>
</g>
<path d="M245.749 9.9705L235.346 21.7151C231.694 19.8379 227.788 18.5031 223.751 17.753L222.822 2.03561C222.803 1.74828 222.725 1.46787 222.594 1.2114C222.463 0.95493 222.282 0.727737 222.06 0.543601C221.619 0.174642 221.057 -0.0184461 220.483 0.00138968L202.032 1.14962C201.743 1.16585 201.459 1.23932 201.198 1.36578C200.937 1.49223 200.704 1.66916 200.512 1.88634C200.32 2.10352 200.172 2.35664 200.079 2.63105C199.985 2.90547 199.947 3.19575 199.966 3.48509L200.937 19.1316C197.02 20.3896 193.294 22.1782 189.863 24.4475L178.187 14.1063C177.746 13.7195 177.169 13.5229 176.584 13.5595C175.998 13.596 175.45 13.8626 175.061 14.3012L162.785 28.158C162.406 28.5972 162.215 29.1687 162.256 29.7477C162.296 30.3267 162.564 30.8662 163.001 31.2483L174.681 41.586C172.843 45.2661 171.518 49.1808 170.743 53.2208L155.054 54.1812C154.767 54.196 154.485 54.2679 154.226 54.3928C153.967 54.5177 153.735 54.693 153.544 54.9085C153.353 55.1239 153.207 55.3752 153.115 55.6477C153.022 55.9201 152.985 56.2083 153.005 56.4953L154.09 74.9522C154.129 75.5304 154.394 76.0702 154.826 76.4558C155.259 76.8414 155.826 77.0421 156.405 77.0148L172.083 76.0863C173.363 79.9801 175.163 83.6837 177.432 87.0973L167.053 98.7923C166.668 99.2309 166.473 99.8042 166.511 100.386C166.549 100.968 166.817 101.512 167.255 101.897L181.115 114.169C181.329 114.363 181.58 114.512 181.852 114.608C182.125 114.704 182.414 114.745 182.702 114.728C182.99 114.711 183.272 114.637 183.532 114.51C183.791 114.383 184.023 114.206 184.213 113.989L194.592 102.272C198.248 104.126 202.141 105.469 206.162 106.263L207.154 121.955C207.194 122.531 207.458 123.067 207.89 123.449C208.321 123.831 208.886 124.028 209.462 123.997L227.962 122.87C228.533 122.814 229.062 122.545 229.442 122.116C229.822 121.686 230.025 121.129 230.011 120.556L229.057 104.863C232.962 103.584 236.678 101.789 240.106 99.5259L251.843 109.917C252.275 110.299 252.84 110.495 253.416 110.462C253.992 110.428 254.531 110.169 254.916 109.74L267.191 95.8827C267.582 95.449 267.784 94.8783 267.754 94.2957C267.724 93.7132 267.464 93.1662 267.032 92.7747L255.292 82.3803C257.123 78.7033 258.457 74.799 259.258 70.7704L274.93 69.8596C275.504 69.7994 276.035 69.5263 276.419 69.094C276.802 68.6617 277.009 68.1016 277 67.5241L275.89 49.0176C275.85 48.4435 275.586 47.908 275.155 47.5263C274.725 47.1445 274.161 46.9471 273.586 46.9763L257.844 47.9332C256.625 44.016 254.834 40.3007 252.527 36.908L262.931 25.1634C263.123 24.9485 263.271 24.6974 263.365 24.4248C263.459 24.1522 263.497 23.8636 263.479 23.5758C263.46 23.288 263.384 23.0069 263.255 22.7489C263.126 22.4909 262.947 22.2611 262.729 22.073L248.851 9.80037C248.636 9.60765 248.386 9.45917 248.114 9.3634C247.841 9.26762 247.553 9.22646 247.265 9.24226C246.977 9.25807 246.695 9.33052 246.435 9.45548C246.175 9.58044 245.942 9.75545 245.749 9.9705ZM228.203 73.6764C225.896 76.2903 222.866 78.1616 219.496 79.0538C216.126 79.946 212.566 79.8189 209.268 78.6886C205.97 77.5584 203.081 75.4757 200.967 72.7039C198.853 69.9322 197.608 66.5959 197.391 63.117C197.173 59.638 197.992 56.1727 199.744 53.1592C201.497 50.1457 204.103 47.7194 207.235 46.1871C210.367 44.6547 213.882 44.0852 217.338 44.5506C220.793 45.016 224.033 46.4953 226.647 48.8015C230.138 51.903 232.26 56.2586 232.551 60.9184C232.843 65.5781 231.28 70.1642 228.203 73.6764Z" fill="#CEECFA"/>
<g style="mix-blend-mode:multiply" opacity="0.1">
<path d="M468.684 256.596L186.87 253.621C182.904 253.578 179.984 249.688 180.683 245.719L211.086 75.1658C211.79 71.169 215.596 67.8931 219.592 67.8507L502.382 63.9233C506.644 63.8775 510.662 68.1136 509.91 72.2462L477.697 249.247C476.95 253.351 472.912 256.642 468.684 256.596Z" fill="#7C97A3"/>
</g>
<path d="M461.897 244.59L185.181 241.671C181.279 241.628 178.688 238.447 179.373 234.564L208.958 67.099C209.651 63.1887 213.389 59.984 217.311 59.9433L496.134 57C500.32 56.9558 503.116 60.1995 502.378 64.2439L470.747 237.401C470.014 241.415 466.05 244.629 461.897 244.59Z" fill="#16A1E7"/>
<path d="M452.24 237.704L196.592 235.204C192.69 235.165 190.082 231.98 190.769 228.092L218.087 73.6134C218.779 69.6997 222.526 66.4883 226.457 66.456L483.917 63.9368C488.091 63.8961 490.874 67.1363 490.143 71.1756L461.074 230.516C460.332 234.527 456.384 237.745 452.24 237.704Z" fill="#EDF8FD"/>
<path d="M252.725 125.442C248.822 125.442 245.395 123.927 243.079 121.176C240.732 118.383 239.822 114.682 240.52 110.749C241.913 102.908 249.482 96.4988 257.394 96.4412H257.488C261.39 96.4412 264.809 97.9493 267.125 100.698C269.48 103.49 270.391 107.2 269.689 111.139C268.291 119.001 260.696 125.417 252.772 125.442H252.725ZM257.486 99.3642H257.413C250.843 99.4049 244.556 104.742 243.399 111.262C242.856 114.315 243.537 117.177 245.317 119.293C247.066 121.374 249.696 122.516 252.726 122.516H252.764C259.345 122.496 265.647 117.162 266.811 110.625C267.358 107.555 266.675 104.698 264.889 102.579C263.139 100.506 260.511 99.3642 257.486 99.3642Z" fill="#A0D9F6"/>
<path d="M262.98 110.909C262.21 115.233 258.051 118.75 253.695 118.767C249.34 118.784 246.438 115.297 247.205 110.982C247.972 106.666 252.126 103.144 256.476 103.12C260.827 103.096 263.749 106.583 262.98 110.909Z" fill="#1281B8"/>
<path d="M318.177 101.332C303.091 106.422 290.642 119.729 287.875 135.224C284.461 154.345 297.019 170.087 316.338 171.088L322.345 135.754L318.177 101.332Z" fill="#FFD145"/>
<path d="M360.749 102.515C355.214 94.8924 345.909 90.1898 334.636 90.3882C330.33 90.4794 326.063 91.2388 321.99 92.6395L326.173 127.064L360.749 102.515Z" fill="#FF7F50"/>
<path d="M361.759 135.087C363.4 125.968 361.419 117.656 356.838 111.321L322.34 135.75L316.333 171.084C316.842 171.11 317.351 171.128 317.877 171.135C338.367 171.361 358.131 155.226 361.759 135.087Z" fill="#FFD145"/>
<path d="M409.194 88.7765L370.984 89.0463C370.929 89.0492 370.873 89.0392 370.822 89.0172C370.771 88.9952 370.726 88.9616 370.69 88.9192C370.655 88.8768 370.629 88.8267 370.616 88.7729C370.603 88.719 370.602 88.6627 370.614 88.6086L371.032 86.2844C371.058 86.1624 371.125 86.0526 371.221 85.9725C371.316 85.8923 371.436 85.8463 371.561 85.8416L409.769 85.5583C409.825 85.5548 409.881 85.5644 409.932 85.5863C409.984 85.6081 410.029 85.6418 410.066 85.6844C410.102 85.7271 410.128 85.7776 410.141 85.832C410.154 85.8864 410.155 85.9432 410.142 85.9977L409.72 88.3304C409.693 88.4522 409.627 88.562 409.532 88.6427C409.437 88.7233 409.318 88.7704 409.194 88.7765Z" fill="#A0D9F6"/>
<path d="M454.394 89.9115L416.434 90.1728C416.338 90.1785 416.243 90.162 416.155 90.1246C416.067 90.0872 415.989 90.0298 415.927 89.9571C415.866 89.8844 415.821 89.7983 415.799 89.7056C415.776 89.6129 415.775 89.5161 415.796 89.4229L416.629 84.8137C416.675 84.6033 416.789 84.4143 416.955 84.2763C417.12 84.1384 417.326 84.0594 417.542 84.0519L455.51 83.7652C455.606 83.7587 455.702 83.7746 455.791 83.8118C455.88 83.8489 455.958 83.9063 456.021 83.9793C456.084 84.0523 456.128 84.1389 456.152 84.2322C456.175 84.3255 456.176 84.4229 456.155 84.5168L455.306 89.1481C455.26 89.3584 455.145 89.5473 454.98 89.6854C454.815 89.8236 454.609 89.9031 454.394 89.9115Z" fill="#A0D9F6"/>
<path d="M452.697 99.2506L414.752 99.4728C414.657 99.4785 414.561 99.462 414.474 99.4246C414.386 99.3872 414.308 99.3298 414.246 99.2571C414.184 99.1844 414.14 99.0983 414.117 99.0056C414.094 98.9129 414.093 98.8161 414.114 98.723L414.947 94.1136C414.993 93.9036 415.107 93.7148 415.272 93.5772C415.437 93.4395 415.644 93.3608 415.858 93.3536L453.815 93.1059C453.911 93.0999 454.007 93.1163 454.095 93.1538C454.184 93.1913 454.262 93.2489 454.325 93.3219C454.387 93.395 454.432 93.4816 454.455 93.5748C454.478 93.6681 454.479 93.7654 454.458 93.8592L453.61 98.4888C453.564 98.699 453.449 98.8879 453.284 99.0258C453.118 99.1637 452.912 99.2428 452.697 99.2506Z" fill="#A0D9F6"/>
<path d="M432.115 133.896L394.345 133.969C394.25 133.974 394.155 133.957 394.068 133.919C393.98 133.881 393.903 133.823 393.841 133.75C393.78 133.678 393.736 133.592 393.713 133.499C393.691 133.407 393.69 133.31 393.711 133.217L394.54 128.623C394.585 128.414 394.699 128.226 394.864 128.089C395.028 127.952 395.234 127.875 395.448 127.868L433.226 127.768C433.322 127.763 433.418 127.78 433.506 127.818C433.594 127.856 433.672 127.914 433.734 127.987C433.796 128.06 433.841 128.146 433.864 128.239C433.887 128.332 433.888 128.429 433.868 128.523L433.03 133.138C432.984 133.348 432.869 133.537 432.703 133.674C432.537 133.811 432.33 133.889 432.115 133.896Z" fill="#80C2E0"/>
<path d="M429.979 145.659L392.228 145.683C392.132 145.688 392.037 145.671 391.95 145.633C391.863 145.595 391.785 145.537 391.724 145.464C391.662 145.392 391.619 145.306 391.596 145.213C391.573 145.121 391.572 145.024 391.593 144.931L392.423 140.339C392.468 140.13 392.582 139.942 392.746 139.806C392.911 139.669 393.117 139.592 393.33 139.586L431.09 139.537C431.186 139.531 431.282 139.549 431.37 139.586C431.458 139.624 431.536 139.682 431.598 139.755C431.66 139.828 431.704 139.915 431.728 140.008C431.751 140.101 431.752 140.198 431.732 140.291L430.894 144.904C430.848 145.114 430.733 145.303 430.567 145.44C430.401 145.577 430.194 145.654 429.979 145.659Z" fill="#80C2E0"/>
<path d="M439.374 164.047L376.997 163.956C375.732 163.956 374.887 162.95 375.109 161.711L383.896 113.002C384.031 112.378 384.37 111.817 384.86 111.408C385.35 111 385.963 110.766 386.601 110.746L449.113 110.461C450.401 110.461 451.261 111.463 451.034 112.712L442.111 161.793C441.885 163.029 440.658 164.047 439.374 164.047Z" fill="#CEECFA"/>
<path d="M437.572 122.114L393.173 122.26C393.078 122.265 392.983 122.247 392.896 122.21C392.808 122.172 392.731 122.115 392.67 122.042C392.608 121.969 392.564 121.884 392.542 121.791C392.519 121.699 392.518 121.603 392.538 121.51L393.368 116.914C393.412 116.705 393.526 116.517 393.69 116.38C393.854 116.242 394.06 116.164 394.274 116.158L438.685 115.988C438.781 115.982 438.877 115.999 438.965 116.036C439.053 116.074 439.131 116.132 439.194 116.205C439.256 116.278 439.3 116.364 439.323 116.457C439.346 116.55 439.347 116.648 439.326 116.741L438.488 121.361C438.441 121.57 438.325 121.758 438.159 121.894C437.993 122.031 437.787 122.108 437.572 122.114Z" fill="white"/>
<path d="M435.434 133.889L391.057 133.974C390.962 133.979 390.867 133.962 390.779 133.924C390.692 133.887 390.615 133.829 390.553 133.757C390.492 133.684 390.448 133.598 390.425 133.506C390.402 133.413 390.401 133.317 390.422 133.224L391.252 128.632C391.297 128.423 391.41 128.235 391.575 128.098C391.739 127.961 391.944 127.883 392.158 127.877L436.547 127.76C436.643 127.755 436.738 127.772 436.827 127.81C436.915 127.848 436.993 127.905 437.055 127.978C437.117 128.051 437.161 128.138 437.184 128.231C437.208 128.324 437.209 128.421 437.188 128.515L436.35 133.131C436.304 133.341 436.188 133.53 436.022 133.667C435.856 133.805 435.649 133.883 435.434 133.889Z" fill="white"/>
<path d="M433.298 145.657L388.941 145.685C388.846 145.69 388.751 145.672 388.663 145.634C388.576 145.597 388.499 145.539 388.437 145.466C388.376 145.393 388.332 145.307 388.309 145.215C388.287 145.123 388.286 145.026 388.306 144.933L389.136 140.342C389.181 140.134 389.295 139.946 389.459 139.809C389.623 139.673 389.829 139.595 390.042 139.589L434.409 139.532C434.505 139.526 434.601 139.543 434.689 139.581C434.777 139.619 434.855 139.676 434.918 139.749C434.98 139.823 435.024 139.909 435.047 140.002C435.07 140.096 435.071 140.193 435.05 140.286L434.212 144.901C434.167 145.111 434.052 145.3 433.886 145.437C433.72 145.575 433.513 145.652 433.298 145.657Z" fill="white"/>
<path d="M431.162 157.421L386.827 157.389C386.732 157.393 386.637 157.376 386.549 157.338C386.462 157.301 386.384 157.243 386.323 157.17C386.262 157.097 386.218 157.011 386.195 156.919C386.172 156.826 386.171 156.73 386.192 156.637L387.022 152.048C387.066 151.839 387.18 151.652 387.344 151.516C387.508 151.379 387.713 151.302 387.926 151.297H432.273C432.369 151.291 432.464 151.309 432.552 151.346C432.64 151.384 432.719 151.442 432.781 151.515C432.843 151.588 432.887 151.675 432.91 151.768C432.933 151.861 432.935 151.958 432.914 152.051L432.076 156.664C432.031 156.875 431.916 157.064 431.75 157.201C431.584 157.338 431.377 157.416 431.162 157.421Z" fill="white"/>
<path d="M239.8 209.976L225.588 209.879L233.414 165.715L247.651 165.74L239.8 209.976Z" fill="#1281B8"/>
<path d="M258.814 210.106L244.539 210.008L251.099 173.071L265.394 173.108L258.814 210.106Z" fill="#A0D9F6"/>
<path d="M277.976 210.237L263.638 210.138L268.88 180.693L283.234 180.742L277.976 210.237Z" fill="#FFD145"/>
<path d="M381.224 221.016L290.508 220.292C290.359 220.297 290.211 220.267 290.075 220.206C289.94 220.145 289.819 220.054 289.724 219.939C289.629 219.825 289.561 219.69 289.526 219.545C289.491 219.401 289.489 219.25 289.521 219.104L295.789 183.999C295.855 183.671 296.032 183.375 296.288 183.159C296.545 182.944 296.867 182.821 297.202 182.812L388.057 183.151C388.209 183.143 388.362 183.171 388.502 183.231C388.642 183.292 388.766 183.384 388.865 183.501C388.963 183.618 389.033 183.755 389.07 183.904C389.106 184.052 389.108 184.207 389.075 184.356L382.671 219.837C382.599 220.168 382.416 220.465 382.154 220.679C381.891 220.893 381.563 221.012 381.224 221.016Z" fill="#A0D9F6"/>
<path d="M276.332 220.891L223.464 220.463C223.395 220.465 223.326 220.451 223.263 220.423C223.2 220.394 223.145 220.351 223.101 220.298C223.057 220.245 223.026 220.182 223.01 220.115C222.994 220.047 222.994 219.978 223.009 219.91L223.518 217.009C223.549 216.858 223.63 216.722 223.748 216.623C223.866 216.524 224.014 216.468 224.168 216.465L277.048 216.867C277.117 216.864 277.187 216.878 277.25 216.907C277.314 216.936 277.37 216.978 277.414 217.032C277.459 217.086 277.49 217.149 277.506 217.217C277.522 217.285 277.523 217.355 277.508 217.423L276.987 220.343C276.957 220.495 276.875 220.633 276.756 220.733C276.637 220.832 276.487 220.888 276.332 220.891Z" fill="#A0D9F6"/>
<path opacity="0.27" d="M242.52 132.391C241.134 133.317 240.087 134.522 239.161 135.937C238.845 136.42 238.414 137.083 238.265 137.625C238.116 138.166 238.311 138.442 238.531 138.882C238.599 138.8 238.971 138.564 238.952 138.39C241.044 138.263 244.327 136.34 244.872 134.688C245.417 133.036 245.42 133.4 245.846 132.126C245.705 132.126 245.608 131.987 245.473 131.938C244.38 131.544 243.494 131.74 242.52 132.391Z" fill="#EA4D15"/>
<path d="M255.507 108.513C252.686 108.238 249.443 109.787 247.49 111.356C245.537 112.926 244.811 113.279 242.33 114.994C239.85 116.709 231.067 122.74 228.13 124.764C222.7 131.889 219.236 138.432 214.461 145.091C209.686 151.749 208.033 156.038 203.827 162.251C208.086 164.286 212.311 166.527 216.609 168.536C219.154 163.258 222.259 158.271 224.891 153.044C229.392 149.753 235.173 146.409 238.821 142.214C241.579 141.433 244.875 140.632 246.016 137.65C247.156 134.668 250.227 132.125 251.24 129.017C251.708 127.32 250.627 123.393 248.842 123.138C247.057 122.884 244.97 123.712 243.165 123.52C244.75 121.893 245.015 121.493 246.648 119.903C248.282 118.314 250.166 116.958 251.873 115.44C252.277 115.048 258.283 109.214 255.507 108.513Z" fill="#FFAD97"/>
<path opacity="0.27" d="M238.867 133.631C233.412 138.624 228.008 143.874 223.142 149.254C228.666 148.877 236.056 144.127 239.544 141.498C243.033 138.868 243.14 139.336 246.094 137.462C246.961 135.256 249.877 132.245 250.789 129.948C250.388 130.082 248.014 130.929 247.589 130.976C244.875 131.928 241.799 133.377 238.867 133.631Z" fill="#EA4D15"/>
<path d="M246.698 131.826C243.123 133.246 238.916 134.649 235.25 132.715C230.629 138.505 226.14 144.478 222.04 150.528C227.906 149.926 234.574 145.528 238.638 142.434C242.702 139.34 245.143 138.171 249.362 136.369C251.038 135.691 254.06 134.544 253.827 132.248C252.321 129.482 249.17 130.929 246.698 131.826Z" fill="#FFAD97"/>
<path d="M210.229 147.695C214.778 150.352 222.532 154.895 227.081 157.534C228.32 155.716 229.761 153.644 231.086 151.889C226.768 148.893 218.509 143.164 213.976 140.424C212.409 142.444 211.712 145.605 210.229 147.695Z" fill="#C6D6DE"/>
<path d="M159.508 237.643C155.726 237.672 143.706 236.719 141.013 236.21C133.389 234.776 126.438 233.743 120.966 233.326C116.676 232.995 104.589 239.218 106.959 235.928C115.273 224.392 111.841 229.619 105.659 233.411C105.559 224.633 110.273 211.017 105.549 204.489C97.4045 193.24 95.1037 188.296 88.1351 178.382C88.9427 177.704 86.3093 177.025 86.9914 175.997C87.3512 174.392 86.4298 173.335 86.759 171.734C88.6102 172.355 90.2153 172.17 92.2005 172.784C93.6869 173.244 97.2908 173.581 98.56 174.007C101.954 175.142 110.98 174.575 113.863 175.668C121.074 178.404 122.576 183.075 128.44 187.073C134.304 191.072 136.216 195.847 141.408 200.236C143.355 201.882 146.768 203.767 148.95 205.195C151.048 206.579 153.287 207.734 155.631 208.64C157.791 209.455 160.551 210.099 162.358 209.441C167.169 207.684 168.058 206.42 171.429 202.282C174.801 198.144 177.085 195.128 181.231 189.576C185.378 184.023 191.885 174.204 196.134 167.379C198.257 163.969 200.985 160.607 203.137 157.076C203.539 156.418 204.296 155.003 204.791 154.287C205.286 153.571 205.857 152.889 206.318 152.224C206.927 151.342 207.723 150.397 208.269 149.605C208.816 148.813 208.975 148.248 209.457 147.5C215.464 150.511 221.214 153.946 226.992 157.382C226.482 158.193 225.86 159.195 225.376 159.97C224.747 160.976 224.289 161.667 223.652 162.661C223.177 163.402 222.653 164.337 222.183 165.14C221.713 165.942 221.165 166.853 220.698 167.615C218.207 171.661 216.522 175.451 214.25 179.677C209.71 188.123 206.252 195.552 200.125 203.68C193.998 211.808 187.085 220.814 180.373 229.521C177.855 232.785 171.071 237.711 167.065 237.653C163.059 237.596 163.29 237.613 159.508 237.643Z" fill="#0D608A"/>
<path d="M125.391 233.324L137.667 349.257L117.705 309.06L114.667 227.152L125.391 233.324Z" fill="#0C557A"/>
<g style="mix-blend-mode:multiply" opacity="0.26">
<path d="M76.5241 377.834C76.5241 377.834 76.5462 377.987 76.5852 378.287C76.6159 378.213 76.6265 378.132 76.6157 378.053C76.605 377.973 76.5734 377.898 76.5241 377.834Z" fill="#3E1762"/>
</g>
<path d="M62.7294 163.976L87.9671 173.066L84.3767 141.807L62.7294 136.495V163.976Z" fill="#FFAD97"/>
<path opacity="0.3" d="M86.9134 163.886L84.3683 141.806L82.8955 141.445L68.7326 141.806C68.1181 143.387 67.8926 145.092 68.0751 146.778C68.2576 148.464 68.8427 150.081 69.7812 151.493C72.949 156.252 78.3125 162.086 86.9134 163.886Z" fill="#E87D6E"/>
<path d="M53.8061 171.115L38.2604 179.427V200.582L60.1588 246.185L69.0804 258.622L91.9104 309.06L102.994 302.15L111.885 292.424L84.4785 255.804L73.3563 228.91C73.3563 228.91 66.5811 210.125 67.4566 205.293C68.3321 200.462 65.2729 183.672 63.515 182.108C61.7572 180.544 53.8061 171.115 53.8061 171.115Z" fill="white"/>
<path d="M116.517 344.551C115.159 344.356 115.849 347.714 114.5 347.5C113.579 347.349 111.421 345.656 110.5 345.5C97.5 338 87.5 332 77.5 326.5C74.5804 325.556 68.8868 322.056 66 321C59.0717 315.871 59.3477 317.167 54.5 314C52.6437 312.785 51.2474 310.008 52.1059 307.831C56.4615 296.726 57.2183 283.911 54.0691 272.314C51.8803 264.259 47.9523 256.93 44.932 249.211C38.24 232.143 36.0223 212.988 38.6048 194.624C40.6715 179.957 50.4533 171.722 62.7396 165.615L87.4529 172.597C99.0571 182.121 104.125 196.935 106.896 212.58C109.667 228.224 112.755 245.349 112.73 261.284C112.706 280.822 118.964 300.338 120.625 319.79C120.889 322.903 119.474 332.167 116.517 344.551Z" fill="white"/>
<path d="M120.5 351.5L137.636 349.235L117.586 215.45C117.143 211.577 115.787 203.77 119.939 203.653L128.17 212.498C126.412 209.105 118.251 181.689 113.5 175.5C108 174.5 107.478 174.095 101.903 173.249C99.0707 172.799 96.2303 172.362 93.4035 171.892L89.1531 171.172C88.2471 171.003 87.3206 171.479 86.3908 171.763L87.453 172.039C99.0622 180.861 101.343 195.488 104.11 209.935C104.925 214.164 106.094 217.555 106.869 221.956C108.057 228.655 108.696 235.528 109.306 242.254L110.402 320.826L111 346L120.5 351.5Z" fill="#0D608A"/>
<path d="M86.9796 183.375C86.9916 183.375 86.9796 183.355 86.9796 183.324C86.9677 183.355 86.9694 183.377 86.9796 183.375Z" fill="#021F42"/>
<path d="M149.146 298.146L119.905 290.721C119.808 290.696 119.724 290.633 119.672 290.547C119.621 290.46 119.606 290.357 119.63 290.259L132.439 239.844C132.464 239.746 132.527 239.662 132.613 239.611C132.7 239.559 132.803 239.544 132.901 239.569L162.143 247.004C162.191 247.017 162.236 247.038 162.276 247.068C162.316 247.097 162.35 247.135 162.375 247.177C162.401 247.22 162.417 247.268 162.424 247.317C162.431 247.366 162.429 247.416 162.416 247.464L149.607 297.882C149.581 297.978 149.517 298.059 149.431 298.109C149.344 298.158 149.242 298.172 149.146 298.146Z" fill="#FFD145"/>
<path d="M140.322 265.935L128.727 264.802L128.352 264.926C128.255 265.655 128.182 266.388 128.136 267.131C128.001 269.444 131.7 270.524 131.7 270.524L140.704 270.312C140.704 270.312 147.201 269.939 147.3 269.949C155.873 268.97 154.28 266.695 154.18 266.685C153.635 265.017 146.081 265.895 146.081 265.895L140.322 265.935Z" fill="#FFAD97"/>
<path d="M139.338 274.743L127.741 273.61L127.368 273.734C127.271 274.463 127.198 275.196 127.152 275.939C127.016 278.252 130.715 279.332 130.715 279.332L139.722 279.12C139.722 279.12 146.217 278.747 146.317 278.756C154.891 277.778 153.296 275.503 153.196 275.493C152.653 273.826 145.099 274.701 145.099 274.701L139.338 274.743Z" fill="#FFAD97"/>
<path d="M135.482 278.337L123.774 275.868L123.379 275.951C123.197 276.686 123.039 277.426 122.909 278.172C122.508 280.518 124.232 282.084 124.232 282.084L135.376 282.849C135.376 282.849 142.051 283.202 142.153 283.222C151.017 283.194 149.646 280.691 149.546 280.678C149.18 278.913 141.368 278.954 141.368 278.954L135.482 278.337Z" fill="#FFAD97"/>
<path d="M128.499 264.556C127.402 264.344 126.173 263.878 125.785 262.805C125.754 262.678 125.696 262.559 125.615 262.456C125.445 262.286 125.179 262.329 124.977 262.43C124.364 262.741 124.093 263.46 123.83 264.105C122.12 268.287 118.558 271.135 115.465 274.228L118.46 278.535L124.843 282.281L129.394 282.306C131.06 282.315 130.569 276.16 133.389 271.714C135.684 268.098 141.919 265.993 139.131 266.154C137.838 266.227 129.679 264.783 128.499 264.556Z" fill="#FFAD97"/>
<g opacity="0.45">
<path opacity="0.45" d="M136.125 276.075H136.135C136.127 276.072 136.121 276.072 136.125 276.075Z" fill="#EA4D15"/>
</g>
<path opacity="0.27" d="M139.338 274.743L130.656 273.895C135.251 277.458 148.872 274.633 152.534 274.913C150.573 274.065 145.095 274.706 145.095 274.706L139.338 274.743Z" fill="#EA4D15"/>
<path d="M140.48 270.808L128.883 269.674L128.51 269.798C128.413 270.528 128.34 271.261 128.294 272.004C128.158 274.316 131.857 275.396 131.857 275.396L140.862 275.186C140.862 275.186 147.357 274.811 147.457 274.821C156.031 273.843 154.436 271.568 154.338 271.557C153.793 269.89 146.239 270.767 146.239 270.767L140.48 270.808Z" fill="#FFAD97"/>
<path d="M124.247 272.1C123.508 277.079 124.833 282.279 124.833 282.279C124.833 282.279 123.937 282.211 121.85 281.534C120.925 281.236 119.764 280.817 118.341 280.228C116.279 279.38 112.078 277.889 109.983 276.389C109.93 276.403 105.724 277.04 102.483 277.534C100.666 277.889 98.5396 278.298 96.171 278.722C97.0935 276.321 97.8731 273.867 98.5057 271.374C99.2421 268.321 99.3439 265.191 99.836 262.112L103.834 262.817L110.685 262.413L119.238 258.476C120.935 257.526 123.76 256.746 127.337 257.438L127.943 257.541L125.052 268.972C124.669 269.982 124.399 271.031 124.247 272.1Z" fill="#FFAD97"/>
<g opacity="0.31">
<path opacity="0.31" d="M149.543 280.669C149.482 280.45 149.342 280.261 149.151 280.138C148.363 280.756 146.48 281.361 142.15 281.375C142.048 281.353 135.373 281 135.373 281L127.308 280.447L124.831 280.433C124.831 280.433 122.965 280.289 118.339 278.379C116.278 277.531 112.08 276.043 109.984 274.541C109.932 274.553 105.724 275.191 102.485 275.683C100.851 276.005 98.9672 276.362 96.8853 276.748C96.6545 277.41 96.4153 278.07 96.1726 278.728C98.5379 278.297 100.664 277.89 102.483 277.531C105.722 277.04 109.93 276.401 109.983 276.391C112.078 277.89 116.276 279.375 118.337 280.226C122.959 282.138 124.828 282.281 124.829 282.281L127.307 282.294L135.371 282.849C135.371 282.849 142.046 283.202 142.148 283.222C151.012 283.193 149.643 280.691 149.543 280.669Z" fill="#E87D6E"/>
</g>
<path d="M110.66 259.753L102.789 259.8L102.91 280.311L110.782 280.264L110.66 259.753Z" fill="#C6D6DE"/>
<path d="M84.6686 269.727C84.4293 277.917 82.0813 295.099 79 316.5C77.9276 323.964 78.216 321.658 77.5 326.5C69.5 322 66 320 59 316C58.6201 315.783 47.4133 309.144 47 309C37 303 43 306.5 34 301.5C34.164 299.888 34.3247 300.256 34.5 298.5C35.7624 285.894 36.8571 290.113 36.9165 273.744C37.0523 237.906 27.9542 193.993 33.2855 182.786C41.469 165.57 61.1616 166.356 61.1616 166.356C61.1616 166.356 71.1386 175.944 76.1831 190.006C85.6595 216.42 84.6686 269.727 84.6686 269.727Z" fill="#0D608A"/>
<g style="mix-blend-mode:multiply" opacity="0.1">
<path d="M84.0459 278.728C77.4913 275.827 64.6722 275.452 57.5322 274.691L37.244 272.518C37.132 272.504 37.02 272.494 36.9047 272.484C36.9047 272.901 36.9047 273.318 36.9047 273.734C36.8792 280.572 35.3776 286.977 35.0654 293.338C35.3216 293.459 36.9064 293.837 37.2135 293.925C41.3213 295.113 46.4099 294.753 50.6841 295.452C52.7762 295.791 78.2531 298.104 81.365 299.753C81.9419 291.282 83.6505 285.345 84.0459 278.728Z" fill="#0C557A"/>
</g>
<g style="mix-blend-mode:multiply" opacity="0.1">
<path d="M35.683 246.453C36.2361 253.397 36.6705 260.405 36.8351 267.221C37.2508 269.427 37.7242 270.986 38.2604 270.523C38.8407 270.014 41.4113 269.135 41.6539 268.407C45.4089 256.796 46.9037 244.064 46.7714 231.862C46.6577 221.61 44.5486 198.102 35.6881 191.878C34.2662 194.774 38.1077 201.039 38.9272 204.301C40.2388 209.518 40.8378 214.897 40.9107 220.271C41.0567 231.046 38.8984 236.195 35.6898 246.451L35.683 246.453Z" fill="#0C557A"/>
</g>
<path d="M2.68769 284.469L4.66103 286.817L4.68479 286.841C5.83827 288.201 7.29333 289.274 8.93429 289.974C10.5753 290.674 12.3569 290.981 14.1375 290.872L105.97 285.129L105.725 281.867H105.717L103.99 259.219L32.2267 261.362L35.8577 249.656C39.6995 237.276 41.8283 224.429 42.185 211.472L43.2913 171.369L23.4663 182.693C21.6365 183.762 20.0511 185.202 18.812 186.921C17.5729 188.64 16.7076 190.6 16.272 192.673L6.75823 237.908L2.49596 258.167L0.108611 275.541C-0.111138 277.127 0.00490016 278.741 0.449201 280.279C0.893502 281.817 1.65615 283.245 2.68769 284.469Z" fill="#0D608A"/>
<g style="mix-blend-mode:multiply" opacity="0.1">
<path d="M2.68769 284.469L4.66103 286.817L4.68479 286.841C5.83827 288.202 7.29333 289.274 8.93429 289.974C10.5753 290.674 12.3569 290.981 14.1375 290.872L105.97 285.129L105.725 281.867H105.717C102.478 281.482 99.1827 281.56 95.9114 281.636C79.0879 282.028 62.2492 282.427 45.458 283.594C41.4418 283.87 37.4256 284.193 33.411 284.507C28.2076 284.93 23.0042 285.347 17.8008 285.759C15.6052 285.928 12.7325 285.966 10.9594 284.415C9.89894 283.494 10.1297 281.651 9.06244 280.745C8.47196 280.237 7.64225 280.162 6.87361 280.008C5.49244 279.733 4.0485 278.979 3.59546 277.644C3.50384 277.383 3.58698 276.66 3.54965 276.323C3.4716 275.724 3.32568 275.149 3.28835 274.541C3.2505 273.476 3.28565 272.409 3.39355 271.349C4.09261 262.995 3.8924 253.936 5.55862 245.732C5.881 244.158 8.42276 240.327 7.63207 238.846C7.44243 238.455 7.1406 238.129 6.76502 237.91L2.49596 258.167L0.108611 275.541C-0.111138 277.127 0.00490016 278.741 0.449201 280.279C0.893502 281.817 1.65615 283.245 2.68769 284.469Z" fill="#0C557A"/>
</g>
<path d="M108.819 102.755C108.194 104.64 107.273 106.488 105.812 107.828C103.691 109.782 100.661 110.464 97.7795 110.435C94.8559 110.405 92.0342 109.908 89.2464 109.207C87.7193 108.827 86.2143 108.388 84.7093 107.94C83.0593 108.014 81.4289 108.329 79.8701 108.875C77.4471 109.738 74.8647 111.575 75.2261 114.436C75.4925 116.502 76.6378 118.436 77.5303 120.278C79.4357 124.224 81.1512 128.878 76.5122 131.626C73.6362 133.331 73.6515 129.214 71.7799 127.363L66.1077 125.062L64.9963 126.564C65.1269 128.63 65.2644 130.695 65.395 132.761C65.4731 133.931 65.5409 135.144 65.093 136.225C64.7638 136.952 64.2918 137.605 63.705 138.145H63.6287C61.6876 138.052 54.8412 142.424 54.1268 142.882L53.0901 143.549C53.0889 143.513 53.0855 143.477 53.0799 143.442C53.0799 143.369 53.0646 143.272 53.046 143.135C53.0485 143.124 53.0485 143.112 53.046 143.101C53.046 143.043 53.0307 142.979 53.0222 142.911C53.0247 142.9 53.0247 142.888 53.0222 142.877C53.012 142.794 53.0019 142.707 52.9883 142.614C52.986 142.604 52.986 142.595 52.9883 142.585C52.973 142.502 52.9577 142.415 52.9442 142.326L52.9289 142.239C52.9153 142.156 52.9001 142.069 52.8848 141.979C52.8848 141.951 52.8763 141.927 52.8712 141.898C52.8508 141.786 52.8271 141.664 52.8033 141.542C52.7967 141.504 52.7882 141.467 52.7779 141.43C52.7643 141.336 52.7439 141.245 52.7253 141.152C52.71 141.099 52.6998 141.05 52.6897 140.995C52.6659 140.899 52.6472 140.8 52.6218 140.699C52.6131 140.651 52.6018 140.604 52.5878 140.558C52.559 140.425 52.5251 140.285 52.486 140.139C52.4708 140.074 52.4521 140.006 52.4368 139.939C52.4216 139.871 52.3876 139.759 52.3639 139.665C52.3401 139.572 52.3198 139.509 52.3011 139.431C52.2824 139.353 52.2468 139.241 52.218 139.145C52.184 139.017 52.145 138.887 52.106 138.754C52.0771 138.658 52.0466 138.559 52.0126 138.458C51.9787 138.356 51.955 138.268 51.921 138.169C51.8871 138.071 51.8667 138 51.843 137.922C51.8192 137.843 51.7938 137.784 51.77 137.716C50.8045 135.933 49.5422 134.306 48.2221 132.781C47.0343 131.407 45.7601 130.077 44.5655 128.71C43.2055 127.142 42.3245 125.216 42.0272 123.162L39.4142 105.09C39.3371 104.559 39.3826 104.018 39.5473 103.508C39.7121 102.997 39.9916 102.532 40.3644 102.146C45.6583 96.6396 47.5688 95.6845 50.3515 93.6233C52.3312 92.1689 54.4918 90.9781 56.7789 90.0811C57.3535 89.847 57.9349 89.6327 58.5231 89.4381C58.8167 89.3397 59.1085 89.243 59.4054 89.1497C63.1485 87.9809 67.1104 87.3617 71.0249 87.0207C71.0308 87.0332 71.0388 87.0447 71.0486 87.0546C71.0486 87.0546 87.2137 85.1885 92.0885 83.8093C96.3728 82.5912 103.747 83.3665 106.511 84.4878C106.811 84.6231 107.1 84.7825 107.375 84.9645L107.57 85.1104C107.652 85.1739 107.73 85.2424 107.804 85.3157C107.877 85.3814 107.947 85.4511 108.013 85.5244C108.155 85.6818 108.287 85.8478 108.408 86.0214C108.466 86.1097 108.525 86.1911 108.578 86.2895C108.63 86.3879 108.685 86.471 108.734 86.5677C108.783 86.6644 108.827 86.7526 108.875 86.851C108.919 86.9528 108.963 87.0495 109.002 87.153C109.681 88.8613 109.804 90.987 109.923 92.5817C110.164 96.0187 109.901 99.4948 108.819 102.755Z" fill="#041F2D"/>
<path d="M56.0017 127.179C58.8218 147.149 75.1395 158.819 88.0706 156.992C95.8927 155.889 100.143 152.301 101.243 138.402C101.663 133.078 101.521 123.194 100.734 117.662C97.9135 97.6932 85.9428 90.2355 73.0067 92.0609C60.0706 93.8863 53.1834 107.215 56.0017 127.179Z" fill="#FFAD97"/>
<path d="M67.7009 109.082C67.7009 109.082 70.7025 124.859 56.4157 129.656C56.1324 129.444 50.1377 125.471 50.1377 125.471C50.1377 125.471 55.4418 112.379 55.7489 110.771C56.056 109.163 61.6978 103.804 61.6978 103.804L67.7009 109.082Z" fill="#041F2D"/>
<path d="M48.8668 126.996C48.0531 127.423 47.3315 128.007 46.7433 128.713C46.1551 129.419 45.7119 130.234 45.439 131.112C45.1661 131.99 45.0688 132.912 45.1527 133.827C45.2366 134.743 45.5001 135.632 45.9281 136.446C47.7283 139.855 53.93 147.464 61.7487 143.337C65.9719 141.106 62.3646 134.495 60.5609 131.083C58.7573 127.671 52.2943 125.188 48.8668 126.996Z" fill="#FFB47F"/>
<path d="M48.8669 126.996C48.0531 127.423 47.3315 128.007 46.7433 128.713C46.1551 129.419 45.7119 130.234 45.439 131.112C45.1661 131.99 45.0688 132.912 45.1527 133.827C45.2366 134.743 45.5001 135.632 45.9281 136.446C47.7283 139.855 53.93 147.464 61.747 143.337C65.9719 141.106 62.3646 134.495 60.5593 131.083C58.7539 127.671 52.2943 125.188 48.8669 126.996Z" fill="#FFAD97"/>
<path opacity="0.2" d="M57.3846 133.404C56.6652 132.121 53.3276 130.645 51.395 131.068C51.2946 131.088 51.1971 131.12 51.1049 131.165C50.7648 131.354 50.4655 131.609 50.2241 131.914C49.9827 132.219 49.804 132.57 49.6983 132.944C49.5918 133.314 49.5599 133.7 49.6045 134.082C49.6491 134.464 49.7692 134.833 49.9579 135.168C50.9352 136.909 54.6341 141.679 58.6962 140.789C59.2406 140.662 59.7656 140.464 60.2572 140.198C60.3081 139.18 59.3834 136.965 57.5017 133.613L57.3846 133.404Z" fill="#E87D6E"/>
<path d="M102.315 100.046L85.6069 93.245C78.6614 90.4187 71.091 89.4822 63.666 90.5306C60.8209 90.933 58.0708 91.8407 55.5453 93.211L48.2492 97.1689C44.6909 101.497 42.9723 107.048 43.4626 112.629L43.824 116.716C43.824 116.716 53.8231 118.346 53.9945 117.957C54.1658 117.569 71.1318 107.728 72.3517 107.366C73.5717 107.005 93.5138 108.573 93.5138 108.573C93.5138 108.573 104.214 108.774 105.221 107.68C106.229 106.586 102.315 100.046 102.315 100.046Z" fill="#041F2D"/>
<g style="mix-blend-mode:multiply" opacity="0.13">
<path d="M108.999 87.1683C108.308 87.7077 107.585 88.2056 106.835 88.6595C101.697 91.8452 95.9941 94.0136 90.0372 95.0467C84.2682 96.0204 78.3566 95.827 72.742 94.1849C69.2772 93.167 65.9329 91.6266 62.4579 90.7342C61.2518 90.4132 60.0206 90.1947 58.7777 90.0811C58.1123 90.0319 57.4442 90.0319 56.7789 90.0811C57.3535 89.8549 57.9349 89.6406 58.5231 89.4381C58.8167 89.3397 59.1085 89.243 59.4055 89.1497C63.1485 87.9809 67.1105 87.3617 71.0249 87.0207C71.0308 87.0332 71.0389 87.0447 71.0487 87.0546C71.0487 87.0546 87.2137 85.1885 92.0885 83.8093C96.3729 82.5912 103.747 83.3665 106.511 84.4878C106.811 84.6231 107.1 84.7825 107.375 84.9645L107.57 85.1104C107.652 85.1739 107.73 85.2424 107.804 85.3157C107.877 85.3814 107.947 85.4511 108.013 85.5244C108.155 85.6818 108.287 85.8478 108.408 86.0214C108.466 86.1097 108.525 86.1911 108.578 86.2895C108.63 86.3879 108.685 86.471 108.734 86.5677C108.783 86.6644 108.827 86.7526 108.875 86.851C108.915 86.9681 108.959 87.0648 108.999 87.1683Z" fill="#041F2D"/>
</g>
<path d="M62.6836 162.264C62.6836 162.264 63.1927 165.318 61.1565 166.349C59.1204 167.381 86.7319 183.134 91.6864 182.805C96.641 182.476 87.7465 172.918 87.7465 171.211C87.7465 169.505 62.6836 162.264 62.6836 162.264Z" fill="#FFAD97"/>
</svg>
