<svg width="675" height="610" viewBox="0 0 675 610" fill="none" xmlns="http://www.w3.org/2000/svg">
<path d="M218.514 184.303C246.126 162.548 254.029 122.153 236.167 94.0506C218.306 65.948 177.246 68.9181 149.629 90.669C122.011 112.42 118.277 144.722 136.149 172.801C154.02 200.88 190.892 206.05 218.514 184.303Z" fill="white"/>
<path d="M542.741 516.124C645.062 516.124 695.787 377.858 622.62 298.265C621.703 297.266 620.775 296.268 619.836 295.271C597.333 271.302 607.136 229.13 612.94 197.537C612.857 197.435 612.761 197.343 612.657 197.262C615.627 169.37 612.531 141.164 603.582 114.581C572.599 23.1225 480.899 -23.0468 398.742 11.417C314.009 46.9496 301.399 129.612 301.181 129.654C291.307 177.829 260.641 219.812 215.923 238.546C170.548 257.582 140.426 247.452 103.034 263.139C89.4157 268.863 76.5564 276.25 64.7491 285.131C-27.7071 354.518 18.8731 516.129 130.392 516.129L542.741 516.124Z" fill="white"/>
<path d="M563.193 208.509C562.219 208.092 561.43 207.333 560.976 206.375C560.523 205.416 560.435 204.325 560.731 203.307L564.63 189.998C562.005 188.285 559.558 186.312 557.328 184.11L545.133 190.764C544.129 191.302 542.954 191.424 541.86 191.106C540.767 190.788 539.841 190.054 539.282 189.061L530.528 172.981C530.252 172.467 530.081 171.904 530.024 171.323C529.967 170.743 530.026 170.157 530.197 169.599C530.362 169.065 530.632 168.57 530.991 168.141C531.35 167.712 531.79 167.359 532.286 167.102L544.438 160.443C543.765 157.369 543.407 154.235 543.37 151.088L530.136 147.205C529.024 146.874 528.086 146.118 527.527 145.101C527.257 144.608 527.088 144.067 527.029 143.508C526.97 142.95 527.022 142.385 527.182 141.847L532.329 124.282C532.488 123.734 532.753 123.223 533.11 122.778C533.466 122.333 533.907 121.963 534.406 121.689C534.906 121.414 535.454 121.241 536.021 121.179C536.587 121.116 537.16 121.166 537.708 121.326L550.942 125.208C552.671 122.58 554.662 120.133 556.883 117.906L550.214 105.747C549.935 105.238 549.76 104.678 549.701 104.1C549.641 103.523 549.699 102.939 549.869 102.384C550.033 101.842 550.302 101.339 550.663 100.903C551.023 100.467 551.467 100.107 551.968 99.8442L567.958 91.0663C568.964 90.5355 570.135 90.407 571.233 90.7069C571.785 90.8641 572.3 91.1294 572.749 91.4874C573.198 91.8455 573.571 92.2891 573.847 92.7926L580.507 104.995C583.57 104.314 586.699 103.967 589.837 103.959L593.741 90.6501C593.895 90.109 594.155 89.6039 594.505 89.1639C594.856 88.7239 595.29 88.3578 595.783 88.0867C596.283 87.8116 596.833 87.6378 597.401 87.5753C597.969 87.5129 598.543 87.5629 599.091 87.7226L616.651 92.873C617.195 93.0307 617.703 93.2942 618.146 93.6484C618.588 94.0026 618.957 94.4405 619.23 94.9372C619.504 95.4339 619.677 95.9797 619.739 96.5433C619.802 97.1069 619.753 97.6773 619.595 98.222L615.696 111.55C618.337 113.25 620.784 115.234 622.994 117.466L635.25 110.765C636.255 110.227 637.432 110.106 638.526 110.427C639.62 110.748 640.545 111.485 641.101 112.481L649.883 128.562C650.406 129.569 650.521 130.739 650.207 131.83C649.892 132.92 649.17 133.848 648.191 134.422L635.959 141.085C636.61 144.156 636.96 147.283 637.003 150.421L650.318 154.328C650.86 154.48 651.366 154.741 651.805 155.094C652.244 155.448 652.606 155.887 652.87 156.385C653.145 156.886 653.318 157.437 653.378 158.005C653.438 158.574 653.384 159.148 653.22 159.696L648.078 177.266C647.921 177.809 647.658 178.315 647.305 178.755C646.951 179.195 646.513 179.56 646.017 179.829C645.516 180.105 644.966 180.279 644.398 180.34C643.83 180.401 643.256 180.348 642.708 180.184L629.398 176.282C627.669 178.904 625.687 181.35 623.48 183.585L630.159 195.806C630.686 196.816 630.801 197.992 630.479 199.086C630.158 200.18 629.424 201.106 628.434 201.67L612.364 210.462C611.362 210.999 610.19 211.121 609.1 210.803C608.009 210.485 607.087 209.751 606.531 208.76L599.819 196.553C596.754 197.203 593.632 197.543 590.499 197.57L586.594 210.86C586.443 211.406 586.183 211.915 585.83 212.358C585.476 212.801 585.037 213.168 584.538 213.437C584.038 213.713 583.488 213.886 582.92 213.948C582.352 214.01 581.778 213.958 581.23 213.797L563.671 208.646C563.509 208.61 563.35 208.564 563.193 208.509ZM558.58 179.475C558.851 179.593 559.096 179.765 559.299 179.981C561.954 182.787 564.975 185.224 568.279 187.226C568.684 187.472 568.997 187.845 569.168 188.288C569.339 188.73 569.359 189.217 569.224 189.671L564.871 204.527L582.459 209.696L586.84 194.836C586.974 194.38 587.255 193.982 587.639 193.702C588.023 193.422 588.488 193.277 588.962 193.289C592.816 193.395 596.666 192.974 600.405 192.036C600.868 191.92 601.356 191.96 601.793 192.151C602.23 192.342 602.591 192.672 602.821 193.091L610.317 206.716L626.387 197.92L618.934 184.261C618.705 183.845 618.622 183.365 618.695 182.896C618.769 182.427 618.996 181.995 619.34 181.669C622.153 179.012 624.598 175.99 626.609 172.683C626.856 172.277 627.23 171.964 627.673 171.793C628.116 171.622 628.603 171.602 629.058 171.737L643.937 176.098L649.089 158.532L634.224 154.139C633.764 154.01 633.361 153.73 633.079 153.344C632.798 152.958 632.655 152.488 632.674 152.01C632.759 148.138 632.328 144.272 631.393 140.513C631.281 140.051 631.325 139.565 631.519 139.13C631.712 138.696 632.043 138.337 632.461 138.111L646.088 130.695L637.31 114.558L623.627 122.021C623.204 122.251 622.716 122.334 622.241 122.255C621.765 122.176 621.33 121.941 621.004 121.586C618.407 118.752 615.402 116.321 612.09 114.373C611.681 114.126 611.366 113.749 611.195 113.303C611.024 112.857 611.006 112.367 611.144 111.909L615.512 97.016L597.91 91.8561C597.91 91.8561 597.877 91.8561 597.872 91.8561L593.509 106.745C593.378 107.205 593.096 107.608 592.709 107.889C592.321 108.17 591.851 108.313 591.373 108.296C587.525 108.16 583.678 108.587 579.954 109.563C579.488 109.686 578.994 109.649 578.552 109.458C578.11 109.267 577.744 108.932 577.515 108.509L570.061 94.831L554.024 103.651L561.454 117.291C561.685 117.711 561.769 118.195 561.694 118.668C561.618 119.141 561.388 119.575 561.038 119.902C558.208 122.551 555.753 125.574 553.74 128.888C553.493 129.292 553.119 129.603 552.678 129.774C552.236 129.945 551.751 129.966 551.296 129.834L536.498 125.497L531.298 143.1L546.13 147.437C546.593 147.56 547 147.839 547.283 148.226C547.565 148.614 547.705 149.086 547.681 149.565C547.592 153.436 548.03 157.301 548.985 161.053C549.1 161.516 549.06 162.003 548.87 162.44C548.68 162.877 548.352 163.239 547.936 163.47L534.309 170.938L543.044 187.018L556.699 179.593C556.982 179.43 557.3 179.335 557.626 179.314C557.952 179.294 558.278 179.349 558.58 179.475ZM582.445 168.8C579.58 167.567 577.052 165.667 575.069 163.258C573.087 160.85 571.708 158.002 571.047 154.953C570.387 151.904 570.463 148.74 571.271 145.727C572.079 142.713 573.594 139.936 575.691 137.626C577.787 135.317 580.405 133.542 583.326 132.449C586.247 131.356 589.386 130.977 592.483 131.343C595.579 131.709 598.544 132.81 601.13 134.554C603.715 136.298 605.848 138.634 607.349 141.369C608.598 143.618 609.387 146.093 609.669 148.65C609.95 151.208 609.719 153.795 608.989 156.262C608.206 158.924 606.869 161.389 605.066 163.496C603.263 165.603 601.034 167.305 598.527 168.488C596.019 169.671 593.29 170.31 590.518 170.362C587.746 170.415 584.995 169.879 582.445 168.791V168.8ZM596.204 136.753C595.634 136.509 595.05 136.298 594.455 136.124C591.554 135.278 588.467 135.313 585.586 136.223C582.704 137.133 580.157 138.879 578.268 141.238C576.378 143.597 575.23 146.464 574.969 149.476C574.708 152.488 575.346 155.51 576.802 158.159C578.258 160.809 580.467 162.966 583.149 164.359C585.831 165.751 588.866 166.317 591.869 165.983C594.872 165.649 597.709 164.431 600.02 162.484C602.331 160.536 604.013 157.946 604.853 155.042C605.881 151.459 605.568 147.624 603.975 144.254C602.381 140.884 599.615 138.211 596.194 136.734L596.204 136.753Z" fill="#71C7F2"/>
<path d="M284.388 387.146L270.515 402.82C265.646 400.315 260.438 398.534 255.055 397.532L253.816 376.557C253.79 376.174 253.687 375.799 253.512 375.457C253.338 375.115 253.095 374.812 252.8 374.566C252.212 374.074 251.463 373.816 250.697 373.842L226.095 375.375C225.709 375.396 225.331 375.494 224.983 375.663C224.635 375.832 224.324 376.068 224.067 376.358C223.811 376.648 223.615 376.986 223.49 377.352C223.365 377.718 223.314 378.105 223.339 378.492L224.634 399.372C219.412 401.051 214.444 403.438 209.869 406.466L194.299 392.666C193.711 392.15 192.942 391.887 192.161 391.936C191.38 391.985 190.65 392.341 190.131 392.926L173.763 411.418C173.256 412.004 173.003 412.767 173.057 413.54C173.111 414.312 173.468 415.032 174.051 415.542L189.625 429.338C187.174 434.249 185.407 439.474 184.374 444.865L163.454 446.147C163.071 446.167 162.695 446.263 162.349 446.429C162.004 446.596 161.695 446.83 161.44 447.117C161.186 447.405 160.991 447.74 160.868 448.104C160.745 448.468 160.695 448.852 160.722 449.235L162.168 473.866C162.221 474.638 162.573 475.358 163.15 475.873C163.727 476.388 164.483 476.655 165.255 476.619L186.16 475.38C187.868 480.576 190.267 485.519 193.293 490.074L179.453 505.682C178.94 506.267 178.68 507.032 178.731 507.809C178.782 508.586 179.138 509.311 179.723 509.825L198.204 526.203C198.489 526.461 198.823 526.661 199.187 526.789C199.55 526.917 199.935 526.971 200.32 526.948C200.704 526.926 201.08 526.827 201.426 526.658C201.772 526.488 202.081 526.252 202.335 525.962L216.174 510.326C221.048 512.8 226.239 514.592 231.601 515.651L232.925 536.594C232.977 537.361 233.329 538.077 233.905 538.587C234.481 539.097 235.234 539.359 236.002 539.318L260.67 537.814C261.431 537.74 262.136 537.38 262.643 536.807C263.15 536.234 263.421 535.49 263.402 534.725L262.13 513.783C267.336 512.076 272.291 509.681 276.863 506.661L292.513 520.528C293.088 521.038 293.843 521.299 294.61 521.255C295.378 521.21 296.097 520.864 296.611 520.291L312.979 501.799C313.499 501.22 313.769 500.458 313.729 499.681C313.689 498.903 313.343 498.173 312.766 497.651L297.112 483.779C299.553 478.872 301.332 473.662 302.401 468.286L323.297 467.07C324.063 466.99 324.771 466.625 325.282 466.048C325.793 465.472 326.069 464.724 326.057 463.953L324.578 439.256C324.524 438.49 324.172 437.775 323.598 437.266C323.023 436.756 322.272 436.493 321.505 436.532L300.515 437.809C298.89 432.581 296.5 427.623 293.425 423.095L307.297 407.422C307.554 407.135 307.75 406.8 307.876 406.436C308.001 406.072 308.053 405.687 308.028 405.303C308.003 404.919 307.901 404.544 307.73 404.2C307.558 403.855 307.319 403.549 307.028 403.298L288.523 386.919C288.237 386.662 287.903 386.464 287.54 386.336C287.177 386.208 286.793 386.154 286.408 386.175C286.024 386.196 285.648 386.292 285.301 386.459C284.955 386.626 284.644 386.86 284.388 387.146ZM260.991 472.164C257.916 475.652 253.875 478.149 249.381 479.34C244.887 480.531 240.141 480.361 235.743 478.853C231.346 477.344 227.494 474.565 224.675 470.866C221.855 467.167 220.196 462.715 219.906 458.072C219.616 453.429 220.708 448.805 223.044 444.783C225.381 440.761 228.857 437.523 233.032 435.478C237.208 433.434 241.896 432.674 246.503 433.295C251.11 433.916 255.43 435.89 258.916 438.967C263.571 443.107 266.401 448.919 266.789 455.138C267.178 461.356 265.094 467.477 260.991 472.164Z" fill="#CEECFA"/>
<g style="mix-blend-mode:multiply" opacity="0.05">
<path d="M149.567 566.12C149.567 569.431 121.482 572.15 86.8647 572.15C52.2474 572.15 24.1385 569.464 24.1385 566.12C24.1385 562.776 52.219 560.128 86.8647 560.128C121.51 560.128 149.567 562.809 149.567 566.12Z" fill="#041F2D"/>
</g>
<g style="mix-blend-mode:multiply" opacity="0.05">
<path d="M474.121 603.956C474.121 607.266 446.036 609.986 411.419 609.986C376.801 609.986 348.697 607.285 348.697 603.956C348.697 600.626 376.778 597.964 411.419 597.964C446.06 597.964 474.121 600.645 474.121 603.956Z" fill="#041F2D"/>
</g>
<g style="mix-blend-mode:multiply" opacity="0.05">
<path d="M675 562.194C675 565.505 646.915 568.224 612.297 568.224C577.68 568.224 549.576 565.524 549.576 562.194C549.576 558.865 577.656 556.197 612.297 556.197C646.938 556.197 675 558.879 675 562.194Z" fill="#041F2D"/>
</g>
<path d="M543.72 133.386H134.816C119.821 133.386 107.666 145.548 107.666 160.552V409.971C107.666 424.974 119.821 437.137 134.816 437.137H543.72C558.714 437.137 570.869 424.974 570.869 409.971V160.552C570.869 145.548 558.714 133.386 543.72 133.386Z" fill="#16A1E7"/>
<path d="M540.539 146.529H137.997C129.077 146.529 121.846 153.764 121.846 162.69V407.833C121.846 416.759 129.077 423.994 137.997 423.994H540.539C549.459 423.994 556.69 416.759 556.69 407.833V162.69C556.69 153.764 549.459 146.529 540.539 146.529Z" fill="#A0D9F6"/>
<path d="M157.971 332.109C157.986 331.522 158.118 330.943 158.357 330.407C158.596 329.87 158.939 329.387 159.366 328.983C159.793 328.58 160.296 328.265 160.845 328.056C161.394 327.847 161.978 327.75 162.565 327.768H171.735C172.322 327.752 172.906 327.852 173.455 328.063C174.003 328.274 174.504 328.591 174.93 328.996C175.355 329.402 175.697 329.887 175.934 330.424C176.172 330.962 176.301 331.541 176.315 332.128L176.277 351.567C176.261 352.154 176.13 352.733 175.89 353.27C175.65 353.807 175.306 354.291 174.879 354.695C174.452 355.099 173.949 355.414 173.4 355.623C172.851 355.832 172.266 355.931 171.678 355.913H162.513C161.926 355.929 161.341 355.828 160.793 355.617C160.244 355.407 159.743 355.09 159.317 354.685C158.891 354.28 158.549 353.794 158.311 353.257C158.073 352.719 157.943 352.14 157.929 351.552L157.971 332.109ZM161.601 334.682L161.573 348.998C161.573 350.772 162.806 352.205 164.338 352.205H169.868C171.404 352.205 172.642 350.786 172.642 349.003L172.675 334.687C172.675 332.913 171.447 331.48 169.91 331.476H164.38C162.844 331.476 161.606 332.904 161.601 334.682Z" fill="#E9A936"/>
<path d="M203.469 328.151L199.688 324.367C199.215 323.894 198.568 323.724 198.27 324.022L195.093 327.2C194.796 327.498 194.952 328.146 195.439 328.619L199.22 332.403C199.692 332.876 200.34 333.046 200.638 332.743L203.814 329.565C204.112 329.272 203.956 328.638 203.469 328.151Z" fill="#FFD145"/>
<path d="M201.824 331.594L196.275 326.041C196.01 325.783 195.655 325.638 195.285 325.638C194.915 325.638 194.56 325.783 194.295 326.041L194.106 326.231C193.847 326.496 193.703 326.851 193.703 327.221C193.703 327.592 193.847 327.947 194.106 328.212L199.655 333.765C199.92 334.023 200.275 334.168 200.645 334.168C201.015 334.168 201.37 334.023 201.635 333.765L201.824 333.576C202.083 333.311 202.227 332.955 202.227 332.585C202.227 332.215 202.083 331.859 201.824 331.594Z" fill="#E9A936"/>
<path d="M183.764 324.944H168.814C168.468 324.944 168.125 325.011 167.806 325.143C167.486 325.276 167.195 325.47 166.951 325.714C166.706 325.959 166.512 326.25 166.38 326.57C166.248 326.89 166.181 327.232 166.181 327.579V372.211C166.18 372.557 166.247 372.9 166.379 373.22C166.511 373.54 166.705 373.831 166.949 374.076C167.194 374.321 167.485 374.515 167.805 374.647C168.125 374.779 168.468 374.846 168.814 374.845H200.879C201.225 374.846 201.567 374.778 201.887 374.646C202.207 374.514 202.497 374.32 202.742 374.075C202.986 373.83 203.18 373.539 203.312 373.22C203.444 372.9 203.512 372.557 203.512 372.211V349.452C203.512 338.556 203.365 324.944 183.764 324.944Z" fill="#FFD145"/>
<path opacity="0.5" d="M194.975 338.4C193.264 335.623 190.088 333.67 184.142 333.67H174.41C174.185 333.67 173.962 333.713 173.754 333.799C173.547 333.885 173.358 334.011 173.199 334.17C173.04 334.329 172.914 334.518 172.828 334.726C172.742 334.934 172.698 335.157 172.699 335.382V336.409L184.832 348.563L194.975 338.4ZM195.864 340.178L186.17 349.883L196.975 360.694V349.609C196.975 346.506 196.956 343.068 195.864 340.178ZM172.704 339.1V360.666L183.485 349.883L172.704 339.1ZM172.704 363.343V364.398C172.703 364.622 172.747 364.845 172.832 365.052C172.918 365.26 173.043 365.449 173.202 365.608C173.36 365.767 173.549 365.893 173.756 365.979C173.963 366.065 174.186 366.11 174.41 366.11H195.245C195.47 366.11 195.692 366.066 195.9 365.981C196.108 365.895 196.297 365.769 196.456 365.61C196.615 365.451 196.741 365.262 196.827 365.054C196.912 364.846 196.956 364.623 196.956 364.398V363.367L184.813 351.217L172.704 363.343Z" fill="#E9A936"/>
<path d="M501.838 288.026H472.131V295.059H501.838V288.026Z" fill="#CEECFA"/>
<path d="M522.975 297.915H472.131V304.948H522.975V297.915Z" fill="white"/>
<path d="M537.32 311.758H472.131V318.791H537.32V311.758Z" fill="#CEECFA"/>
<path d="M517.251 321.643H472.131V328.676H517.251V321.643Z" fill="white"/>
<path d="M514.254 335.491H472.131V342.524H514.254V335.491Z" fill="#CEECFA"/>
<path d="M528.023 345.376H472.131V352.408H528.023V345.376Z" fill="white"/>
<path d="M19.3269 193.498C19.3302 202.27 22.7006 210.705 28.7419 217.062C34.7831 223.418 43.0336 227.21 51.7889 227.654V220.81C44.8285 220.4 38.2878 217.345 33.5046 212.268C28.7215 207.192 26.0574 200.479 26.0574 193.502C26.0574 186.526 28.7215 179.812 33.5046 174.736C38.2878 169.66 44.8285 166.604 51.7889 166.194V159.355C43.036 159.799 34.7876 163.589 28.7468 169.942C22.7059 176.296 19.3339 184.728 19.3269 193.498Z" fill="#16A1E7"/>
<path d="M75.9038 167.623C70.0154 162.53 62.5639 159.604 54.7855 159.332V166.138C60.7562 166.409 66.4715 168.64 71.0496 172.484L75.9038 167.623Z" fill="#43B4ED"/>
<path d="M78.0875 169.685L73.2995 174.476C76.9714 178.268 79.4688 183.042 80.4904 188.222C81.5121 193.402 81.0145 198.767 79.0576 203.671C77.1006 208.575 73.7679 212.807 69.4613 215.858C65.1546 218.909 60.0579 220.649 54.7855 220.867V227.678C61.3958 227.446 67.7968 225.3 73.2117 221.499C78.6265 217.698 82.8222 212.406 85.2896 206.266C87.7569 200.125 88.3898 193.4 87.1113 186.906C85.8329 180.413 82.6981 174.43 78.0875 169.685Z" fill="#71C7F2"/>
<path d="M507.859 370.111H473.639C472.806 370.111 472.131 370.786 472.131 371.62C472.131 372.453 472.806 373.128 473.639 373.128H507.859C508.692 373.128 509.367 372.453 509.367 371.62C509.367 370.786 508.692 370.111 507.859 370.111Z" fill="#CEECFA"/>
<path d="M528.633 370.111H514.642C513.809 370.111 513.134 370.786 513.134 371.62C513.134 372.453 513.809 373.128 514.642 373.128H528.633C529.465 373.128 530.14 372.453 530.14 371.62C530.14 370.786 529.465 370.111 528.633 370.111Z" fill="#CEECFA"/>
<path d="M489.137 381.741H473.639C473.24 381.738 472.858 381.578 472.576 381.296C472.293 381.014 472.134 380.631 472.131 380.232C472.134 379.833 472.293 379.45 472.576 379.168C472.858 378.885 473.24 378.726 473.639 378.723H489.137C489.536 378.726 489.918 378.886 490.199 379.168C490.481 379.451 490.639 379.833 490.641 380.232C490.639 380.631 490.481 381.013 490.199 381.296C489.918 381.578 489.536 381.738 489.137 381.741Z" fill="#CEECFA"/>
<path d="M533.907 381.741H495.915C495.518 381.741 495.136 381.585 494.853 381.306C494.569 381.028 494.406 380.649 494.398 380.251C494.401 379.852 494.56 379.469 494.843 379.187C495.125 378.904 495.507 378.745 495.906 378.742H533.898C534.297 378.745 534.678 378.905 534.96 379.187C535.241 379.47 535.4 379.852 535.401 380.251C535.395 380.645 535.236 381.021 534.957 381.299C534.678 381.577 534.301 381.736 533.907 381.741Z" fill="#CEECFA"/>
<path d="M499.597 390.353H473.663C473.263 390.352 472.881 390.192 472.598 389.91C472.316 389.627 472.156 389.244 472.155 388.844C472.158 388.445 472.317 388.064 472.6 387.782C472.882 387.5 473.264 387.342 473.663 387.34H499.597C499.996 387.34 500.379 387.499 500.662 387.781C500.945 388.062 501.104 388.445 501.105 388.844C501.105 389.244 500.946 389.628 500.664 389.911C500.381 390.194 499.997 390.353 499.597 390.353Z" fill="#CEECFA"/>
<path d="M529.814 390.353H506.356C505.957 390.353 505.573 390.194 505.29 389.911C505.007 389.628 504.849 389.244 504.849 388.844C504.85 388.445 505.009 388.062 505.292 387.781C505.575 387.499 505.957 387.34 506.356 387.34H529.814C530.213 387.34 530.596 387.499 530.879 387.781C531.161 388.062 531.321 388.445 531.322 388.844C531.322 389.244 531.163 389.628 530.88 389.911C530.598 390.194 530.214 390.353 529.814 390.353Z" fill="#CEECFA"/>
<path d="M512.491 398.97H473.639C473.24 398.968 472.858 398.808 472.576 398.526C472.293 398.243 472.134 397.861 472.131 397.461C472.134 397.062 472.293 396.68 472.576 396.397C472.858 396.115 473.24 395.955 473.639 395.953H512.491C512.89 395.955 513.272 396.115 513.553 396.398C513.835 396.68 513.993 397.063 513.994 397.461C513.993 397.86 513.835 398.243 513.553 398.525C513.272 398.808 512.89 398.968 512.491 398.97Z" fill="#CEECFA"/>
<path d="M531.861 398.97H519.269C518.87 398.968 518.488 398.808 518.206 398.526C517.924 398.243 517.764 397.861 517.762 397.461C517.764 397.062 517.924 396.68 518.206 396.397C518.488 396.115 518.87 395.955 519.269 395.953H531.861C532.26 395.955 532.642 396.115 532.924 396.397C533.206 396.68 533.366 397.062 533.369 397.461C533.366 397.861 533.206 398.243 532.924 398.526C532.642 398.808 532.26 398.968 531.861 398.97Z" fill="#CEECFA"/>
<g style="mix-blend-mode:multiply" opacity="0.5">
<g style="mix-blend-mode:multiply" opacity="0.5">
<path d="M287.276 99.2341C286.985 99.2341 286.697 99.2916 286.429 99.4032C286.16 99.5147 285.917 99.6783 285.711 99.8844C285.506 100.09 285.344 100.335 285.234 100.604C285.123 100.873 285.067 101.161 285.068 101.452C285.067 101.742 285.123 102.03 285.234 102.298C285.345 102.566 285.507 102.809 285.713 103.014C285.918 103.218 286.162 103.38 286.43 103.489C286.698 103.599 286.986 103.654 287.276 103.651H309.325C309.614 103.653 309.901 103.598 310.169 103.488C310.437 103.378 310.68 103.216 310.885 103.012C311.09 102.807 311.252 102.564 311.362 102.296C311.473 102.029 311.529 101.742 311.528 101.452C311.529 100.866 311.298 100.303 310.885 99.8874C310.472 99.4716 309.911 99.2366 309.325 99.2341H287.276Z" fill="#71C7F2"/>
</g>
<g style="mix-blend-mode:multiply" opacity="0.5">
<path d="M318.773 99.2341C318.187 99.2366 317.626 99.4714 317.212 99.8871C316.798 100.303 316.566 100.866 316.566 101.452C316.566 101.742 316.623 102.029 316.734 102.296C316.845 102.563 317.008 102.806 317.213 103.011C317.418 103.215 317.662 103.377 317.929 103.487C318.197 103.597 318.484 103.653 318.773 103.651H322.824C323.113 103.653 323.4 103.598 323.668 103.488C323.936 103.378 324.179 103.216 324.384 103.012C324.589 102.807 324.751 102.564 324.861 102.296C324.972 102.029 325.028 101.742 325.027 101.452C325.028 100.866 324.797 100.303 324.384 99.8874C323.971 99.4716 323.41 99.2366 322.824 99.2341H318.773Z" fill="#71C7F2"/>
</g>
</g>
<g style="mix-blend-mode:multiply" opacity="0.5">
<g style="mix-blend-mode:multiply" opacity="0.5">
<path d="M536.602 470.499C536.892 470.5 537.18 470.557 537.448 470.669C537.716 470.781 537.959 470.945 538.164 471.151C538.369 471.357 538.532 471.601 538.642 471.87C538.753 472.139 538.81 472.426 538.809 472.717C538.81 473.007 538.754 473.294 538.643 473.562C538.533 473.83 538.37 474.074 538.165 474.278C537.959 474.483 537.715 474.645 537.447 474.754C537.179 474.864 536.891 474.919 536.602 474.916H514.547C514.258 474.918 513.972 474.862 513.704 474.752C513.437 474.642 513.194 474.48 512.989 474.275C512.784 474.071 512.622 473.828 512.511 473.561C512.401 473.293 512.344 473.007 512.345 472.717C512.344 472.131 512.575 471.568 512.988 471.152C513.401 470.736 513.962 470.502 514.547 470.499H536.602Z" fill="#CEECFA"/>
</g>
<g style="mix-blend-mode:multiply" opacity="0.5">
<path d="M505.099 470.499C505.685 470.502 506.247 470.736 506.66 471.152C507.074 471.568 507.306 472.131 507.306 472.717C507.306 473.007 507.249 473.294 507.138 473.561C507.027 473.828 506.864 474.071 506.659 474.276C506.454 474.48 506.211 474.642 505.943 474.752C505.675 474.862 505.389 474.918 505.099 474.916H501.058C500.769 474.918 500.482 474.863 500.214 474.753C499.946 474.643 499.703 474.481 499.498 474.277C499.293 474.072 499.131 473.829 499.021 473.561C498.91 473.294 498.854 473.007 498.855 472.717C498.854 472.131 499.085 471.568 499.498 471.152C499.911 470.736 500.472 470.502 501.058 470.499H505.099Z" fill="#CEECFA"/>
</g>
</g>
<path opacity="0.5" d="M19.1709 282.653H13.1257V276.59C13.1257 275.963 12.8767 275.361 12.4335 274.918C11.9903 274.474 11.3892 274.225 10.7624 274.225C10.1356 274.225 9.53449 274.474 9.09128 274.918C8.64808 275.361 8.3991 275.963 8.3991 276.59V282.653H2.36328C1.7365 282.653 1.13539 282.902 0.692189 283.346C0.248988 283.789 0 284.391 0 285.018C0 285.645 0.248988 286.247 0.692189 286.69C1.13539 287.133 1.7365 287.383 2.36328 287.383H8.41328V293.422C8.41328 294.049 8.66226 294.651 9.10546 295.094C9.54867 295.538 10.1498 295.787 10.7766 295.787C11.4033 295.787 12.0044 295.538 12.4476 295.094C12.8908 294.651 13.1398 294.049 13.1398 293.422V287.373H19.1709C19.7977 287.373 20.3988 287.124 20.842 286.681C21.2852 286.237 21.5342 285.636 21.5342 285.008C21.5342 284.381 21.2852 283.78 20.842 283.336C20.3988 282.893 19.7977 282.644 19.1709 282.644V282.653Z" fill="#71C7F2"/>
<path opacity="0.5" d="M457.172 81.106H451.126V75.0428C451.126 74.4156 450.877 73.8142 450.434 73.3707C449.991 72.9272 449.39 72.6781 448.763 72.6781C448.136 72.6781 447.535 72.9272 447.092 73.3707C446.649 73.8142 446.4 74.4156 446.4 75.0428V81.106H440.35C439.723 81.106 439.122 81.3552 438.679 81.7986C438.236 82.2421 437.987 82.8436 437.987 83.4708C437.987 84.0979 438.236 84.6994 438.679 85.1429C439.122 85.5864 439.723 85.8355 440.35 85.8355H446.4V91.8798C446.4 92.507 446.649 93.1084 447.092 93.5519C447.535 93.9954 448.136 94.2445 448.763 94.2445C449.39 94.2445 449.991 93.9954 450.434 93.5519C450.877 93.1084 451.126 92.507 451.126 91.8798V85.8213H457.172C457.799 85.8213 458.4 85.5722 458.843 85.1287C459.286 84.6852 459.535 84.0837 459.535 83.4566C459.535 82.8294 459.286 82.2279 458.843 81.7844C458.4 81.341 457.799 81.0918 457.172 81.0918V81.106Z" fill="#71C7F2"/>
<path opacity="0.5" d="M250.777 454.745H244.737V448.682C244.737 448.055 244.488 447.453 244.044 447.01C243.601 446.566 243 446.317 242.373 446.317C241.746 446.317 241.145 446.566 240.702 447.01C240.259 447.453 240.01 448.055 240.01 448.682V454.745H233.965C233.338 454.745 232.737 454.994 232.294 455.438C231.85 455.881 231.601 456.483 231.601 457.11C231.601 457.737 231.85 458.338 232.294 458.782C232.737 459.225 233.338 459.475 233.965 459.475H240.015V465.514C240.015 466.141 240.264 466.743 240.707 467.186C241.15 467.63 241.751 467.879 242.378 467.879C243.005 467.879 243.606 467.63 244.049 467.186C244.492 466.743 244.741 466.141 244.741 465.514V459.465H250.782C251.409 459.465 252.01 459.216 252.453 458.772C252.896 458.329 253.145 457.728 253.145 457.1C253.145 456.473 252.896 455.872 252.453 455.428C252.01 454.985 251.409 454.736 250.782 454.736L250.777 454.745Z" fill="#CEECFA"/>
<path opacity="0.5" d="M637.66 255.307C637.665 257.832 638.417 260.298 639.822 262.395C641.227 264.492 643.222 266.125 645.555 267.088C647.887 268.051 650.452 268.3 652.926 267.805C655.4 267.31 657.672 266.092 659.454 264.305C661.236 262.518 662.45 260.243 662.94 257.766C663.431 255.29 663.176 252.723 662.21 250.391C661.243 248.059 659.608 246.067 657.509 244.664C655.411 243.262 652.945 242.514 650.422 242.514C647.036 242.523 643.791 243.874 641.399 246.272C639.007 248.67 637.663 251.919 637.66 255.307ZM642.562 255.307C642.562 253.749 643.023 252.225 643.889 250.93C644.754 249.634 645.984 248.624 647.423 248.028C648.861 247.431 650.445 247.275 651.972 247.579C653.5 247.883 654.903 248.634 656.004 249.736C657.105 250.838 657.855 252.242 658.159 253.77C658.463 255.299 658.307 256.883 657.711 258.323C657.115 259.762 656.106 260.993 654.811 261.859C653.516 262.724 651.993 263.187 650.436 263.187C648.349 263.183 646.348 262.351 644.872 260.875C643.396 259.398 642.565 257.396 642.562 255.307Z" fill="#CEECFA"/>
<g opacity="0.5">
<path opacity="0.5" d="M148.286 85.8355C148.291 88.3601 149.043 90.8266 150.449 92.9235C151.854 95.0203 153.848 96.6533 156.181 97.6162C158.513 98.5791 161.078 98.8286 163.552 98.3332C166.026 97.8378 168.298 96.6198 170.08 94.833C171.863 93.0462 173.076 90.7708 173.566 88.2944C174.057 85.818 173.803 83.2517 172.836 80.9197C171.869 78.5877 170.234 76.5948 168.136 75.1927C166.038 73.7906 163.571 73.0422 161.048 73.0422C157.662 73.0497 154.416 74.4008 152.024 76.799C149.632 79.1973 148.288 82.447 148.286 85.8355ZM153.188 85.8355C153.187 84.2769 153.648 82.7531 154.513 81.4567C155.377 80.1603 156.607 79.1497 158.046 78.5526C159.484 77.9555 161.068 77.7988 162.596 78.1023C164.123 78.4058 165.527 79.1558 166.629 80.2576C167.73 81.3593 168.481 82.7633 168.785 84.2918C169.089 85.8204 168.934 87.4049 168.338 88.845C167.742 90.285 166.733 91.5159 165.438 92.3819C164.143 93.2479 162.62 93.7101 161.062 93.7101C158.976 93.7063 156.976 92.8757 155.5 91.3998C154.024 89.924 153.193 87.9233 153.188 85.8355Z" fill="#71C7F2"/>
</g>
<path d="M367.764 375.994H310.771C311.324 378.775 311.84 381.67 312.468 384.247H366.063C366.691 381.67 367.206 378.79 367.764 375.994Z" fill="#0F6B99"/>
<path d="M309.022 367.51C309.59 370.39 310.199 373.142 310.771 376.023H367.764C368.331 373.157 368.941 370.404 369.508 367.51H309.022Z" fill="#16A1E7"/>
<path d="M384.151 398.261C384.444 396.762 384.789 395.399 385.059 393.853C385.829 389.402 386.477 384.782 387.039 380.137C387.601 375.493 387.984 370.816 388.296 366.261C388.608 361.707 388.736 357.275 388.736 353.113C388.741 349.617 388.492 346.125 387.989 342.666C387.544 339.595 386.886 336.559 386.018 333.58C384.569 328.62 382.52 323.855 379.916 319.392C378.794 317.466 377.568 315.603 376.244 313.811C375.062 312.212 373.951 310.879 372.992 309.81C372.699 309.479 372.765 309.592 372.519 309.337L369.683 333.694C371.589 336.058 373.314 338.562 374.845 341.185C379.349 348.909 383.664 360.056 383.664 374.902C383.664 381.523 383.263 388.821 382.558 396.185L384.151 398.261Z" fill="#1281B8"/>
<path d="M373.474 300.885L372.5 309.309C372.765 309.588 372.699 309.474 372.973 309.781C373.918 310.85 375.043 312.184 376.225 313.783C377.55 315.575 378.776 317.438 379.897 319.363C382.501 323.826 384.551 328.591 385.999 333.552C386.867 336.531 387.526 339.567 387.97 342.637C388.473 346.097 388.722 349.589 388.717 353.085C388.717 357.251 388.566 361.683 388.277 366.233C387.989 370.782 387.564 375.46 387.02 380.109C386.477 384.758 385.81 389.379 385.04 393.824C384.77 395.371 384.425 396.733 384.132 398.232L386.122 400.824C389.984 384.961 392.408 364.043 392.408 347.381C392.408 332.535 388.098 321.369 383.589 313.669C378.659 305.208 373.474 300.885 373.474 300.885Z" fill="#16A1E7"/>
<path d="M294.38 398.261C294.086 396.762 293.741 395.399 293.472 393.853C292.702 389.402 292.054 384.782 291.492 380.137C290.929 375.493 290.523 370.816 290.234 366.261C289.946 361.707 289.795 357.275 289.795 353.113C289.789 349.617 290.039 346.125 290.542 342.666C290.986 339.595 291.645 336.559 292.513 333.58C293.293 330.94 294.24 328.353 295.348 325.833C296.32 323.628 297.415 321.479 298.629 319.397C299.752 317.472 300.978 315.609 302.301 313.816C303.483 312.217 304.594 310.883 305.553 309.815C305.846 309.484 305.78 309.597 306.026 309.342L308.862 333.699C306.956 336.062 305.232 338.566 303.705 341.19C299.196 348.913 294.885 360.061 294.885 374.907C294.885 381.528 295.282 388.825 295.987 396.189L294.38 398.261Z" fill="#1281B8"/>
<path d="M305.057 300.885L306.031 309.309C305.766 309.588 305.832 309.474 305.558 309.781C304.613 310.85 303.488 312.184 302.306 313.783C300.983 315.576 299.757 317.439 298.634 319.363C297.42 321.446 296.325 323.595 295.353 325.8C294.245 328.32 293.298 330.907 292.517 333.547C291.65 336.526 290.991 339.562 290.546 342.633C290.044 346.092 289.794 349.584 289.8 353.08C289.8 357.247 289.951 361.678 290.239 366.228C290.527 370.778 290.953 375.455 291.496 380.104C292.04 384.753 292.706 389.374 293.477 393.82C293.746 395.366 294.091 396.728 294.384 398.228L292.399 400.819C288.538 384.957 286.108 364.038 286.108 347.376C286.108 332.53 290.423 321.364 294.928 313.664C299.872 305.208 305.057 300.885 305.057 300.885Z" fill="#16A1E7"/>
<path d="M312.648 209.54C305.241 225.119 299.158 245.546 299.158 271.165C299.158 300.937 302.968 336.768 309.023 367.51H369.523C375.582 336.768 379.392 300.937 379.392 271.165C379.392 245.569 373.318 225.152 365.921 209.578C363.69 210.089 361.423 210.535 359.119 210.916C356.737 211.31 354.325 211.626 351.883 211.862C349.449 212.113 346.991 212.288 344.524 212.392C342.78 212.468 341.031 212.501 339.277 212.505C336.804 212.505 334.336 212.431 331.875 212.283C329.418 212.137 326.969 211.919 324.545 211.626C322.12 211.332 319.728 210.973 317.365 210.538C315.767 210.245 314.195 209.912 312.648 209.54Z" fill="white"/>
<path d="M314.609 205.78C313.957 207.043 313.286 208.202 312.648 209.54C314.198 209.909 315.766 210.248 317.351 210.557C319.714 210.992 322.107 211.355 324.53 211.645C326.955 211.938 329.403 212.155 331.861 212.302C334.319 212.449 336.791 212.52 339.263 212.524C341.017 212.524 342.765 212.486 344.509 212.411C346.977 212.307 349.435 212.132 351.869 211.881C354.303 211.63 356.718 211.309 359.105 210.935C361.408 210.557 363.676 210.111 365.907 209.597C365.269 208.258 364.597 207.095 363.945 205.813L363.472 205.903C360.561 206.379 357.616 206.77 354.638 207.076C351.661 207.382 348.667 207.598 345.658 207.724C343.528 207.815 341.393 207.861 339.254 207.861C336.233 207.861 333.213 207.771 330.212 207.591C327.21 207.412 324.242 207.152 321.269 206.787C319.029 206.501 316.809 206.165 314.609 205.78Z" fill="#0F6B99"/>
<path d="M314.609 205.78C316.815 206.165 319.035 206.501 321.269 206.787C324.228 207.144 327.212 207.41 330.221 207.587C333.222 207.766 336.243 207.856 339.263 207.856C341.399 207.856 343.534 207.811 345.667 207.719C348.683 207.593 351.677 207.377 354.648 207.071C357.619 206.765 360.561 206.374 363.472 205.898L363.945 205.808C352.634 183.873 339.268 172.73 339.268 172.73C339.268 172.73 325.915 183.864 314.609 205.78Z" fill="#16A1E7"/>
<path d="M359.275 249.613C359.275 253.616 358.089 257.53 355.866 260.859C353.643 264.188 350.484 266.782 346.787 268.314C343.091 269.846 339.023 270.247 335.099 269.466C331.175 268.685 327.57 266.757 324.741 263.926C321.912 261.095 319.985 257.489 319.205 253.562C318.424 249.635 318.825 245.565 320.356 241.867C321.887 238.168 324.48 235.006 327.807 232.782C331.133 230.558 335.045 229.371 339.046 229.371C344.411 229.371 349.556 231.503 353.35 235.3C357.144 239.096 359.275 244.244 359.275 249.613Z" fill="#838CB5"/>
<path d="M353.953 249.613C353.953 252.563 353.079 255.447 351.441 257.9C349.803 260.353 347.475 262.265 344.751 263.394C342.027 264.523 339.029 264.819 336.137 264.243C333.246 263.668 330.589 262.247 328.504 260.161C326.42 258.075 325 255.417 324.425 252.523C323.849 249.63 324.145 246.63 325.273 243.905C326.401 241.179 328.312 238.849 330.763 237.21C333.215 235.571 336.097 234.696 339.046 234.696C342.999 234.696 346.791 236.268 349.587 239.065C352.383 241.863 353.953 245.657 353.953 249.613Z" fill="#A0D9F6"/>
<path d="M348.286 242.774C348.287 243.302 348.131 243.818 347.839 244.258C347.546 244.697 347.13 245.04 346.643 245.242C346.155 245.445 345.619 245.498 345.101 245.395C344.584 245.292 344.108 245.038 343.735 244.665C343.362 244.292 343.108 243.816 343.005 243.298C342.903 242.78 342.956 242.243 343.158 241.756C343.361 241.268 343.703 240.852 344.142 240.559C344.581 240.266 345.097 240.11 345.625 240.111C346.33 240.113 347.006 240.394 347.505 240.893C348.004 241.392 348.285 242.068 348.286 242.774Z" fill="#ECECEC"/>
<g style="mix-blend-mode:multiply" opacity="0.25">
<g style="mix-blend-mode:multiply" opacity="0.25">
<path d="M355.626 384.262H366.063C366.691 381.684 367.206 378.79 367.764 376.009C368.331 373.143 368.941 370.39 369.508 367.495C375.568 336.754 379.377 300.923 379.377 271.151C379.377 245.555 373.304 225.138 365.907 209.564C363.676 210.074 361.408 210.521 359.105 210.902C358.798 210.954 358.481 210.978 358.16 211.03C364.923 229.811 370.562 254.366 369.144 282.185C367.495 314.818 361.26 354.002 355.626 384.262Z" fill="#A6A6A6"/>
</g>
<g style="mix-blend-mode:multiply" opacity="0.25">
<path d="M359.105 210.935C361.409 210.557 363.676 210.111 365.907 209.597C365.269 208.258 364.597 207.095 363.945 205.813C352.634 183.878 339.268 172.735 339.268 172.735C339.268 172.735 349.614 187.236 358.174 211.044C358.481 210.992 358.798 210.968 359.105 210.935Z" fill="#A6A6A6"/>
</g>
</g>
<path d="M210.975 201.857C212.233 186.683 200.959 173.363 185.795 172.105C170.631 170.847 157.319 182.127 156.061 197.301C154.804 212.474 166.078 225.794 181.242 227.053C196.406 228.311 209.718 217.03 210.975 201.857Z" fill="#FF7F50"/>
<path d="M183.513 222.688C196.27 222.688 206.612 212.34 206.612 199.575C206.612 186.81 196.27 176.462 183.513 176.462C170.756 176.462 160.415 186.81 160.415 199.575C160.415 212.34 170.756 222.688 183.513 222.688Z" fill="white"/>
<path d="M196.152 212.22C203.133 205.235 203.133 193.909 196.152 186.924C189.171 179.939 177.852 179.939 170.871 186.924C163.891 193.909 163.891 205.235 170.871 212.22C177.852 219.205 189.171 219.205 196.152 212.22Z" fill="#FF7F50"/>
<path d="M196.209 199.584C196.209 202.098 195.464 204.555 194.068 206.645C192.672 208.735 190.689 210.364 188.368 211.326C186.047 212.287 183.493 212.539 181.029 212.048C178.565 211.557 176.302 210.347 174.526 208.569C172.751 206.791 171.541 204.526 171.052 202.061C170.562 199.595 170.814 197.04 171.776 194.718C172.738 192.396 174.367 190.412 176.456 189.016C178.545 187.62 181.001 186.875 183.513 186.876C185.181 186.876 186.832 187.205 188.373 187.844C189.913 188.482 191.313 189.419 192.492 190.599C193.671 191.779 194.606 193.18 195.244 194.722C195.882 196.263 196.209 197.916 196.209 199.584Z" fill="white"/>
<path d="M188.435 204.498C191.154 201.777 191.154 197.366 188.435 194.646C185.716 191.925 181.307 191.925 178.589 194.646C175.87 197.366 175.87 201.777 178.589 204.498C181.307 207.219 185.716 207.219 188.435 204.498Z" fill="#FF7F50"/>
<path d="M186.17 199.584C186.17 200.11 186.014 200.624 185.722 201.061C185.43 201.498 185.015 201.839 184.53 202.04C184.045 202.241 183.51 202.294 182.995 202.191C182.48 202.089 182.007 201.836 181.635 201.464C181.264 201.092 181.011 200.619 180.908 200.103C180.806 199.587 180.858 199.053 181.059 198.567C181.26 198.082 181.601 197.666 182.038 197.374C182.474 197.082 182.988 196.926 183.513 196.926C184.218 196.926 184.894 197.206 185.392 197.705C185.89 198.203 186.17 198.879 186.17 199.584Z" fill="#FF6348"/>
<path d="M209.24 180.212L202.769 181.66L210.535 173.889L217.006 172.442L209.24 180.212Z" fill="#16A1E7"/>
<path d="M203.011 173.979L201.564 180.454L209.335 172.683L210.781 166.208L203.011 173.979Z" fill="#16A1E7"/>
<path d="M183.149 200.105C182.991 199.945 182.902 199.729 182.902 199.504C182.902 199.279 182.991 199.063 183.149 198.903L209.354 172.688L210.568 173.908L184.336 200.105C184.177 200.259 183.964 200.346 183.743 200.346C183.521 200.346 183.308 200.259 183.149 200.105Z" fill="#0F6B99"/>
<path d="M189.686 239.493C190.086 237.023 188.41 234.696 185.942 234.295C183.473 233.894 181.147 235.571 180.747 238.041C180.346 240.511 182.022 242.839 184.491 243.239C186.959 243.64 189.285 241.963 189.686 239.493Z" fill="#CEECFA"/>
<path d="M480.574 242.849C482.342 241.08 482.342 238.211 480.574 236.441C478.806 234.672 475.939 234.672 474.17 236.441C472.402 238.211 472.402 241.08 474.17 242.849C475.939 244.618 478.806 244.618 480.574 242.849Z" fill="#CEECFA"/>
<path d="M217.87 349.838C218.444 347.403 216.937 344.963 214.503 344.388C212.069 343.813 209.63 345.321 209.056 347.757C208.481 350.192 209.989 352.632 212.423 353.207C214.857 353.782 217.295 352.274 217.87 349.838Z" fill="#CEECFA"/>
<path d="M337.344 250.441H206.924C206.8 250.44 206.677 250.412 206.565 250.36L187.068 241.081C186.885 240.977 186.748 240.808 186.684 240.607C186.621 240.406 186.636 240.189 186.726 239.999C186.817 239.808 186.976 239.66 187.172 239.582C187.368 239.505 187.586 239.505 187.781 239.582L207.108 248.771H337.344C337.563 248.771 337.774 248.858 337.929 249.014C338.084 249.169 338.171 249.379 338.171 249.599C338.171 249.818 338.084 250.029 337.929 250.184C337.774 250.339 337.563 250.426 337.344 250.426V250.441Z" fill="#CEECFA"/>
<path d="M423.358 293.399H338.894C338.675 293.399 338.465 293.311 338.309 293.156C338.154 293.001 338.067 292.79 338.067 292.571C338.067 292.351 338.154 292.141 338.309 291.986C338.465 291.83 338.675 291.743 338.894 291.743H423.027L474.287 242.443C474.447 242.306 474.654 242.236 474.864 242.246C475.075 242.257 475.274 242.348 475.42 242.5C475.566 242.652 475.648 242.854 475.65 243.065C475.652 243.276 475.574 243.48 475.43 243.635L423.911 293.167C423.763 293.312 423.565 293.395 423.358 293.399Z" fill="#CEECFA"/>
<path d="M216.571 347.769C216.397 347.766 216.228 347.709 216.088 347.605C215.949 347.502 215.845 347.356 215.793 347.19C215.74 347.024 215.742 346.846 215.797 346.68C215.852 346.515 215.957 346.371 216.098 346.269L244.065 326.188C244.204 326.09 244.368 326.036 244.538 326.032H337.344C337.563 326.032 337.774 326.119 337.929 326.274C338.084 326.43 338.171 326.64 338.171 326.86C338.171 327.079 338.084 327.29 337.929 327.445C337.774 327.6 337.563 327.687 337.344 327.687H244.803L217.053 347.617C216.911 347.715 216.743 347.768 216.571 347.769Z" fill="#CEECFA"/>
<path d="M478.508 180.567L478.375 186.815C476.783 187.186 475.255 187.788 473.838 188.603L469.499 184.067C469.419 183.985 469.323 183.92 469.218 183.876C469.112 183.832 468.999 183.81 468.884 183.812C468.655 183.814 468.435 183.9 468.265 184.053L462.962 189.18C462.878 189.259 462.81 189.354 462.763 189.46C462.716 189.566 462.691 189.68 462.688 189.796C462.686 189.911 462.706 190.026 462.748 190.134C462.79 190.242 462.853 190.34 462.934 190.423L467.263 194.926C466.4 196.318 465.73 197.822 465.273 199.395L459.062 199.268C458.829 199.264 458.603 199.353 458.435 199.515C458.267 199.677 458.169 199.899 458.164 200.133L458.004 207.492C458.002 207.607 458.024 207.721 458.067 207.828C458.109 207.934 458.173 208.031 458.253 208.114C458.333 208.196 458.429 208.261 458.535 208.306C458.64 208.351 458.754 208.375 458.869 208.377L465.079 208.504C465.47 210.096 466.075 211.627 466.88 213.054L462.366 217.396C462.285 217.476 462.22 217.571 462.175 217.677C462.131 217.783 462.108 217.896 462.108 218.011C462.108 218.125 462.131 218.238 462.175 218.344C462.22 218.45 462.285 218.545 462.366 218.625L467.457 223.951C467.617 224.117 467.836 224.214 468.067 224.22C468.298 224.226 468.522 224.142 468.69 223.984L473.214 219.656C474.606 220.51 476.107 221.172 477.676 221.624L477.543 227.857C477.541 227.973 477.562 228.087 477.605 228.194C477.647 228.301 477.711 228.399 477.791 228.482C477.871 228.564 477.967 228.63 478.073 228.676C478.179 228.721 478.293 228.745 478.408 228.746L485.777 228.903C485.892 228.906 486.007 228.887 486.114 228.846C486.222 228.805 486.32 228.742 486.404 228.663C486.487 228.583 486.553 228.487 486.599 228.381C486.645 228.276 486.669 228.162 486.67 228.046L486.803 221.813C488.389 221.429 489.915 220.831 491.34 220.035L495.689 224.547C495.848 224.711 496.067 224.806 496.296 224.811C496.525 224.815 496.747 224.729 496.913 224.57L502.216 219.448C502.37 219.28 502.456 219.06 502.456 218.831C502.456 218.603 502.37 218.382 502.216 218.214L497.882 213.692C498.737 212.298 499.402 210.795 499.857 209.223L506.101 209.351C506.331 209.355 506.552 209.268 506.719 209.11C506.885 208.951 506.982 208.734 506.99 208.504L507.141 201.131C507.147 200.898 507.061 200.673 506.902 200.504C506.743 200.334 506.523 200.235 506.29 200.228L500.046 200.1C499.657 198.51 499.056 196.98 498.26 195.55L502.778 191.232C502.933 191.063 503.02 190.844 503.026 190.616C503.031 190.387 502.953 190.164 502.807 189.988L497.707 184.658C497.546 184.494 497.327 184.4 497.097 184.396C496.867 184.391 496.645 184.477 496.478 184.635L491.95 188.986C490.568 188.11 489.065 187.444 487.488 187.009L487.616 180.761C487.619 180.646 487.6 180.531 487.559 180.424C487.518 180.317 487.455 180.219 487.376 180.136C487.296 180.053 487.2 179.987 487.094 179.941C486.989 179.896 486.875 179.872 486.76 179.872L479.391 179.721C479.277 179.717 479.163 179.736 479.055 179.776C478.948 179.817 478.85 179.878 478.766 179.957C478.683 180.036 478.616 180.13 478.569 180.235C478.522 180.339 478.496 180.452 478.493 180.567H478.508ZM489.591 204.451C489.565 205.84 489.128 207.189 488.335 208.33C487.542 209.47 486.429 210.349 485.136 210.856C483.844 211.363 482.431 211.475 481.074 211.179C479.718 210.882 478.481 210.19 477.518 209.189C476.555 208.189 475.91 206.925 475.665 205.558C475.42 204.191 475.585 202.781 476.141 201.508C476.696 200.235 477.616 199.156 478.784 198.406C479.952 197.656 481.317 197.269 482.705 197.295C484.564 197.336 486.332 198.112 487.622 199.452C488.913 200.793 489.62 202.59 489.591 204.451Z" fill="#1281B8"/>
<path d="M510.492 208.57L511.159 212.207C510.279 212.612 509.464 213.142 508.739 213.782L505.69 211.668C505.634 211.63 505.57 211.604 505.504 211.591C505.437 211.578 505.369 211.579 505.302 211.593C505.17 211.621 505.053 211.699 504.976 211.81L502.509 215.395C502.431 215.509 502.401 215.649 502.425 215.784C502.45 215.92 502.528 216.04 502.641 216.119L505.685 218.214C505.346 219.126 505.136 220.081 505.061 221.052L501.45 221.718C501.383 221.73 501.318 221.756 501.261 221.793C501.203 221.829 501.153 221.877 501.114 221.934C501.075 221.99 501.047 222.053 501.033 222.12C501.018 222.187 501.017 222.256 501.03 222.324L501.819 226.613C501.844 226.748 501.921 226.866 502.034 226.943C502.147 227.02 502.285 227.05 502.419 227.025L506.035 226.358C506.447 227.235 506.98 228.05 507.618 228.78L505.52 231.83C505.481 231.885 505.453 231.948 505.438 232.014C505.424 232.08 505.423 232.149 505.435 232.215C505.447 232.282 505.473 232.345 505.51 232.402C505.547 232.458 505.596 232.507 505.652 232.544L509.23 235.027C509.343 235.104 509.482 235.133 509.616 235.109C509.751 235.084 509.87 235.007 509.949 234.895L512.052 231.854C512.966 232.182 513.92 232.387 514.888 232.464L515.554 236.087C515.579 236.222 515.657 236.342 515.771 236.42C515.884 236.498 516.024 236.528 516.159 236.503L520.446 235.713C520.513 235.702 520.577 235.677 520.635 235.64C520.692 235.604 520.742 235.556 520.781 235.5C520.819 235.444 520.847 235.381 520.861 235.315C520.875 235.248 520.875 235.179 520.862 235.112L520.196 231.49C521.07 231.078 521.884 230.55 522.616 229.919L525.669 232.015C525.782 232.09 525.919 232.118 526.053 232.094C526.186 232.069 526.305 231.993 526.383 231.882L528.86 228.288C528.932 228.173 528.958 228.036 528.934 227.902C528.909 227.769 528.835 227.65 528.727 227.569L525.679 225.469C526.011 224.555 526.218 223.601 526.293 222.631L529.923 221.964C530.057 221.94 530.176 221.864 530.254 221.752C530.332 221.641 530.362 221.503 530.339 221.368L529.55 217.084C529.538 217.016 529.514 216.952 529.477 216.894C529.441 216.836 529.393 216.786 529.338 216.746C529.282 216.707 529.219 216.679 529.152 216.663C529.086 216.648 529.017 216.646 528.949 216.658L525.319 217.325C524.903 216.452 524.374 215.638 523.745 214.903L525.849 211.867C525.921 211.752 525.948 211.613 525.923 211.479C525.899 211.345 525.825 211.225 525.716 211.143L522.124 208.66C522.012 208.584 521.874 208.555 521.74 208.579C521.606 208.604 521.488 208.681 521.41 208.793L519.302 211.848C518.393 211.503 517.437 211.297 516.466 211.238L515.8 207.601C515.788 207.534 515.763 207.47 515.726 207.412C515.689 207.355 515.641 207.306 515.584 207.267C515.528 207.229 515.464 207.202 515.398 207.189C515.331 207.176 515.262 207.176 515.195 207.189L510.908 207.975C510.841 207.987 510.777 208.012 510.72 208.048C510.663 208.085 510.614 208.133 510.575 208.188C510.537 208.244 510.509 208.307 510.495 208.373C510.481 208.44 510.48 208.508 510.492 208.575V208.57ZM519.756 221.085C519.909 221.892 519.818 222.727 519.497 223.483C519.175 224.238 518.636 224.882 517.949 225.332C517.262 225.781 516.457 226.017 515.636 226.008C514.814 226 514.014 225.748 513.336 225.284C512.659 224.82 512.133 224.166 511.827 223.403C511.521 222.641 511.448 221.805 511.617 221.001C511.787 220.197 512.19 219.461 512.777 218.886C513.365 218.312 514.109 217.925 514.916 217.774C515.996 217.577 517.11 217.814 518.016 218.434C518.922 219.054 519.547 220.006 519.756 221.085Z" fill="#CEECFA"/>
<path d="M414.434 345.092C411.126 335.051 414.552 324.528 414.552 324.528C416.419 324.85 420.773 324.467 423.925 324.528C427.078 324.59 430.689 327.621 434.177 329.797C437.665 331.972 436.512 333.107 436.29 337.052C436.068 340.996 441.371 340.017 441.371 340.017C439.617 349.514 440.35 356.462 438.861 358.703C435.5 363.75 430.505 359.408 425.726 357.247C426.775 352.668 427.276 348.502 427.276 348.502C420.007 352.877 416.315 350.535 414.434 345.092Z" fill="#FFB38B"/>
<path d="M416.145 312.43C424.563 307.663 442.104 306.447 443.786 315.963C443.786 315.963 448.811 318.068 448.484 326.723C447.279 358.807 435.118 352.929 431.861 339.965C431.417 338.182 427.045 324.575 423.925 324.509C420.806 324.443 415.54 329.045 410.521 328.401C405.501 327.758 402.849 319.964 416.145 312.43Z" fill="#041F2D"/>
<path d="M430.793 595.518C430.793 595.518 421.132 601.459 418.556 602.357C415.98 603.256 417.781 605.446 417.781 605.446H440.213L440.851 594.88L430.793 595.518Z" fill="#041F2D"/>
<path d="M456.07 411.172L445.242 431.561L449.619 439.024L464.304 415.306L456.07 411.172Z" fill="#FFB38B"/>
<path d="M448.078 426.387C448.078 426.387 452.554 444.709 451.027 475.905C449.501 507.101 440.846 595.518 440.846 595.518H430.793C430.793 595.518 421.775 494.496 425.901 470.764C425.39 463.012 421.869 478.18 417.317 494.146C412.676 510.383 411.645 510.657 412.676 522.348C414.292 540.765 415.762 594.237 415.762 594.237H405.624C405.624 594.237 388.873 520.315 390.499 498.006C392.12 475.394 395.925 446.677 404.905 426.117C418.466 421.151 448.078 426.387 448.078 426.387Z" fill="#0D608A"/>
<path d="M405.752 594.109C405.752 594.109 396.076 601.459 393.491 602.357C390.905 603.256 392.73 605.446 392.73 605.446H415.157L415.762 594.237L405.752 594.109Z" fill="#041F2D"/>
<path d="M413.011 355.714C413.011 355.714 415.597 350.814 411.721 348.237C407.845 345.659 403.993 349.003 402.958 355.955C398.837 363.192 378.21 388.991 377.959 394.917C377.709 400.843 385.432 399.817 385.432 399.817L407.6 375.829L413.011 355.714Z" fill="#FFB38B"/>
<path d="M429.337 353.983C429.337 353.983 414.212 353.298 410.946 355.875C407.68 358.453 406.144 367.037 405.104 386.305C404.064 405.573 394.838 450.9 393.122 456.727C429.427 459.772 453.565 458.349 453.565 458.349C453.565 458.349 447.563 412.473 449.359 400.588C451.155 388.702 457.607 368.351 453.48 362.667C449.354 356.982 429.337 353.983 429.337 353.983Z" fill="#CEECFA"/>
<path d="M450.654 386.144C450.654 386.144 453.74 411.683 457.096 414.776C460.452 417.869 467.66 421.487 466.899 404.721C466.332 392.425 462.858 379.182 461.043 372.986C460.356 370.657 459.108 368.533 457.408 366.8L452.578 361.848L450.654 386.144Z" fill="#CEECFA"/>
<path d="M410.946 355.889C410.946 355.889 397.901 369.808 388.088 381.514C378.276 393.219 373.256 403.662 378.295 406.608C380.351 407.824 385.508 409.025 406.305 384.091C413.196 373.265 410.946 355.889 410.946 355.889Z" fill="#CEECFA"/>
<path d="M585.427 323.303C589.454 327.659 589.842 329.451 588.438 330.728C587.034 332.005 586.131 332.857 580.351 327.843C578.394 326.146 578.37 323.346 579.774 322.083C581.178 320.82 583.673 321.402 585.427 323.303Z" fill="#FFB38B"/>
<path d="M611.352 337.113L589.832 327.82C589.832 327.82 586.292 330.785 586.292 333.155C586.292 335.524 605.439 353.704 605.439 353.704L611.352 337.113Z" fill="#AFDFF7"/>
<path d="M614.996 550.711V558.212H608.289V550.314L614.996 550.711Z" fill="#FFC9B0"/>
<path d="M614.996 555.715C615.584 556.141 616.057 556.707 616.371 557.362C616.686 558.017 616.832 558.74 616.797 559.465V564.895H589.856C589.856 564.895 589.383 561.684 593.065 561.684C596.747 561.684 603.251 559.115 604.456 557.9C606.011 556.33 607.122 555.734 608.303 555.734L614.996 555.715Z" fill="#041F2D"/>
<path d="M656.462 544.378V551.884H649.76V543.991L656.462 544.378Z" fill="#FFC9B0"/>
<path d="M656.462 549.363C656.462 549.363 658.244 550.451 658.244 553.119V558.553H631.303C631.303 558.553 630.807 555.332 634.508 555.332C638.208 555.332 644.703 552.75 645.899 551.548C647.463 549.969 648.574 549.368 649.755 549.368L656.462 549.363Z" fill="#041F2D"/>
<path d="M643.105 408.354C643.105 408.354 638.785 448.696 645.889 475.167C652.993 501.638 657.791 547.722 657.791 547.722C657.791 547.722 655.73 549.273 649.373 547.944C649.373 547.944 621.722 480.194 621.722 454.717V409.101C621.722 409.101 638.322 403.577 643.105 408.354Z" fill="#0C557A"/>
<path d="M640.449 408.514C640.449 408.514 624.204 452.645 622.242 483.453C620.281 514.261 617.1 555.185 617.1 555.185H606.829C606.829 555.185 596.18 471.61 601.71 407.625C602.892 393.493 632.612 400.706 640.449 408.514Z" fill="#0D608A"/>
<path d="M623.835 321C623.835 321 633.638 324.859 637.778 340.665C641.919 356.471 644.495 422.343 644.495 422.343C644.495 422.343 622.497 427.621 600.443 418.943C600.443 418.943 600.505 354.102 606.791 340.481C611.371 330.549 614.415 322.759 618.253 321.35C622.091 319.94 623.835 321 623.835 321Z" fill="#CEECFA"/>
<path d="M605.127 288.972C605.127 288.972 604.815 297.4 599.11 299.509C593.405 301.618 597.607 304.612 601.218 307.019C604.83 309.427 601.048 321.009 606.167 319.789C611.286 318.569 617.284 318.891 617.596 321.889L625.092 321.416C625.092 321.416 630.348 293.763 622.403 290.154C614.458 286.545 605.127 288.972 605.127 288.972Z" fill="#FFB38B"/>
<path d="M605.127 288.972C605.127 288.972 597.295 286.205 597.9 282.081C598.486 278.042 610.993 273.596 622.006 276.505C629.299 278.425 633.042 282.18 631.932 286.266C631.932 286.266 638.549 291.266 637.566 298.639C636.88 304.101 629.148 312.43 627.886 318.914C627.295 321.95 624.917 314.847 624.156 310.472C623.395 306.097 626.576 307.327 625.976 303.406C625.376 299.485 621.845 295.366 620.361 307.823C618.9 315.892 617.241 319.95 613.351 320.551C609.461 321.151 602.679 322.211 601.918 318.455C601.157 314.7 603.095 314.643 607.746 316.289C612.397 317.935 617.534 316.932 618.144 310.183C618.754 303.434 619.865 295.522 618.144 293.801C616.424 292.079 608.365 292.211 605.127 288.972Z" fill="#041F2D"/>
<path d="M543.975 347.305C548.229 351.529 548.848 353.822 547.435 355.076C546.021 356.329 543.89 356.627 538.894 351.836C537.032 350.053 536.928 347.343 538.317 346.085C539.707 344.827 542.136 345.489 543.975 347.305Z" fill="#FFB38B"/>
<g style="mix-blend-mode:multiply" opacity="0.7">
<path d="M626.898 355.657L610.01 346.752C607.812 347.494 605.661 350.535 603.175 353.95C601.634 363.608 601.209 376.065 601.19 386.555C617.232 384.138 626.898 355.657 626.898 355.657Z" fill="#CAD4DD"/>
</g>
<path d="M610.766 344.018C605.439 345.806 600.495 360.808 590.229 362.984C582.411 364.644 555.697 352.224 550.365 352.224C545.034 352.224 545.639 357.554 545.639 357.554C545.639 357.554 579.67 381.84 598.033 383.912C616.395 385.983 627.64 353.704 627.64 353.704L610.766 344.018Z" fill="#CEECFA"/>
<path d="M87.0632 314.199C87.0632 314.199 99.7682 317.457 106.125 330.989C112.483 344.52 111.173 342.722 111.173 342.722L92.7398 340.935L87.0632 314.199Z" fill="#CEECFA"/>
<path d="M92.8816 550.002V558.184H100.203V549.562L92.8816 550.002Z" fill="#FFAD97"/>
<path d="M92.8816 555.445C92.8816 555.445 90.939 556.632 90.939 559.532V565.472H120.329C120.329 565.472 120.868 561.963 116.826 561.963C112.785 561.963 105.719 559.158 104.41 557.81C102.713 556.089 101.493 555.445 100.203 555.445H92.8816Z" fill="#041F2D"/>
<path d="M44.6093 550.002V558.184H51.9354V549.562L44.6093 550.002Z" fill="#FFAD97"/>
<path d="M44.6093 555.445C44.6093 555.445 42.6714 556.632 42.6714 559.532V565.472H72.0611C72.0611 565.472 72.5905 561.963 68.5493 561.963C64.5081 561.963 57.4561 559.158 56.1185 557.81C54.4358 556.089 53.2163 555.445 51.9354 555.445H44.6093Z" fill="#041F2D"/>
<path d="M105.847 406.67L102.628 551.974C102.628 551.974 94.9944 553.445 89.9276 551.974C85.6737 529.826 85.1159 481.145 79.0565 449.055C72.997 416.966 68.5352 410.312 68.5352 395.924C68.5352 381.537 105.847 406.67 105.847 406.67Z" fill="#0C557A"/>
<path d="M54.6627 550.621C50.7009 551.471 46.5837 551.239 42.7423 549.95L60.3866 409.233H90.8493L54.6627 550.621Z" fill="#0D608A"/>
<path d="M65.7275 311.843C65.7275 311.843 52.8382 317.046 49.3075 324.712C45.7767 332.379 59.3751 349.065 61.2846 393.153C61.8281 405.667 56.9503 419.264 56.9503 419.264C56.9503 419.264 83.5089 425.214 107.023 419.856C107.023 419.856 107.43 359.049 101.413 337.974C96.8661 322.078 93.4157 314.629 78.6074 311.2C74.3157 310.524 69.9307 310.743 65.7275 311.843Z" fill="#CEECFA"/>
<path d="M90.75 300.048C93.17 288.324 88.9869 276.945 88.9869 276.945C87.1672 277.564 82.8424 277.701 79.7701 278.184C76.6979 278.666 77.0098 283.065 76.9862 285.169C76.9626 287.274 75.6911 291.989 74.6229 292.429C73.9139 290.088 73.3373 282.549 70.0901 285.458C66.843 288.366 68.0672 289.501 68.5966 293.919C69.1259 298.336 63.87 297.901 63.87 297.901C66.3656 308.358 64.9287 311.252 66.5689 313.551C70.2745 318.782 81.2212 322.868 80.8384 314.194C79.4204 309.176 78.39 305.605 78.39 305.605C85.8958 309.559 89.332 306.433 90.75 300.048Z" fill="#FFAD97"/>
<path d="M88.9633 276.945C88.9633 276.945 94.7676 275.398 95.2449 272.002C95.7223 268.607 87.2098 265.618 80.3374 263.385C73.465 261.153 63.6054 262.004 59.5122 271.179C59.5122 271.179 54.4216 274.49 55.5513 280.312C56.6809 286.134 61.313 290.22 63.8559 297.901C63.8559 297.901 69.1023 298.317 68.5824 293.919C68.0625 289.52 66.8525 288.381 70.076 285.458C73.2995 282.535 73.8998 290.088 74.6088 292.429C75.6723 291.989 76.9106 287.269 76.9721 285.169C77.0335 283.069 76.6837 278.661 79.756 278.184C82.8283 277.706 87.1436 277.564 88.9633 276.945Z" fill="#041F2D"/>
<path d="M87.9849 328.108C87.9849 328.108 126.487 335.879 142.269 333.429C152.857 331.636 150.253 328.056 150.253 328.056C150.253 328.056 152.37 326.425 150.574 336.205C149.028 344.666 138.342 384.205 135.482 394.747C135.033 396.393 132.963 397.769 129.574 398.261C119.955 399.642 97.6271 401.392 67.9868 394.392L87.9849 328.108Z" fill="#FDFEFF"/>
<path d="M142.269 333.429C139.084 333.838 135.871 333.996 132.66 333.902C132.602 333.104 132.786 332.308 133.19 331.618C135.232 328.099 139.334 327.096 143.494 327.096C145.86 327.075 148.22 327.321 150.531 327.829C150.531 327.829 150.763 328.378 150.782 328.401C151.08 328.841 152.096 331.774 142.269 333.429Z" fill="#CEECFA"/>
<path d="M142.506 376.798C142.194 374.741 141.527 370.603 140.44 370.276C139.353 369.95 137.184 370.276 135.241 374.727C133.298 379.177 137.732 383.316 138.933 383.855C140.133 384.394 143.045 380.383 142.506 376.798Z" fill="#FFAD97"/>
<g style="mix-blend-mode:multiply" opacity="0.7">
<path d="M51.8031 340.585C53.136 344.699 54.7477 349.75 56.3642 355.913C60.2353 343.744 62.8396 332.762 62.8396 332.762L55.0361 333.339L51.8031 340.585Z" fill="#CAD4DD"/>
</g>
<path d="M59.0442 319.089C56.2413 316.578 49.591 320.716 45.3608 328.383C41.1305 336.049 39.5187 341.341 33.223 356.991C26.9272 372.641 26.7429 383.202 31.0535 386.158C34.7969 388.717 45.6302 385.378 63.4446 375.162C73.0017 369.959 73.0017 369.293 73.0017 369.293L73.4365 359.294C73.4365 359.294 56.2744 364.294 46.9347 367.987C48.6741 361.905 56.9267 348.209 59.5357 341.687C62.1448 335.165 66.8099 326.041 59.0442 319.089Z" fill="#CEECFA"/>
<path d="M74.207 359.947C74.207 359.157 77.3501 357.994 79.3069 357.885C82.1448 357.742 84.9374 357.115 87.5642 356.031C90.4994 354.731 96.3651 362.652 89.625 367.661C82.8849 372.67 82.2374 369.189 78.3285 368.645C74.4197 368.101 73.9754 368.862 74.207 359.947Z" fill="#FFAD97"/>
</svg>
