<svg width="489" height="461" viewBox="0 0 489 461" fill="none" xmlns="http://www.w3.org/2000/svg">
<path d="M99 157.403V323.594C99.0133 333.803 101.705 343.829 106.805 352.667C111.905 361.505 119.234 368.845 128.057 373.949L264.983 453.211C273.803 458.314 283.808 461 293.992 461C304.176 461 314.181 458.314 323.001 453.211L459.943 373.949C468.766 368.845 476.095 361.505 481.195 352.667C486.295 343.829 488.987 333.803 489 323.594V157.403C488.995 147.194 486.307 137.166 481.206 128.329C476.105 119.492 468.771 112.158 459.943 107.063L323.001 27.8013C314.184 22.6909 304.178 20 293.992 20C283.806 20 273.8 22.6909 264.983 27.8013L128.057 107.063C119.229 112.158 111.895 119.492 106.794 128.329C101.693 137.166 99.0047 147.194 99 157.403H99Z" fill="#EDF8FD"/>
<path opacity="0.5" d="M29 109.673V242.324C29.0107 250.473 31.1708 258.476 35.2639 265.53C39.357 272.585 45.2391 278.443 52.3205 282.517L162.212 345.783C169.29 349.856 177.32 352 185.494 352C193.667 352 201.697 349.856 208.775 345.783L318.68 282.517C325.761 278.443 331.643 272.585 335.736 265.53C339.829 258.476 341.989 250.473 342 242.324V109.673C341.996 101.524 339.839 93.5206 335.745 86.467C331.651 79.4135 325.765 73.5589 318.68 69.4926L208.775 6.22689C201.699 2.14781 193.668 0 185.494 0C177.319 0 169.288 2.14781 162.212 6.22689L52.3205 69.4926C45.2348 73.5589 39.3489 79.4135 35.255 86.467C31.1611 93.5206 29.0037 101.524 29 109.673H29Z" fill="#EDF8FD"/>
<path d="M283.702 195.636C283.056 195.359 282.534 194.857 282.232 194.222C281.931 193.588 281.872 192.865 282.066 192.19L284.654 183.379C282.915 182.244 281.293 180.938 279.814 179.48L271.728 183.887C271.064 184.244 270.286 184.327 269.562 184.117C268.837 183.907 268.224 183.422 267.853 182.765L262.051 172.116C261.867 171.776 261.753 171.403 261.715 171.019C261.677 170.634 261.715 170.246 261.829 169.876C262.053 169.163 262.551 168.569 263.213 168.223L271.268 163.806C270.823 161.769 270.586 159.692 270.56 157.608L261.788 155.036C261.049 154.819 260.426 154.318 260.055 153.642C259.877 153.316 259.765 152.957 259.726 152.588C259.686 152.218 259.721 151.844 259.827 151.487L263.241 139.857C263.454 139.125 263.948 138.507 264.616 138.14C265.284 137.772 266.071 137.685 266.803 137.897L275.575 140.468C276.722 138.729 278.041 137.11 279.513 135.635L275.096 127.582C274.911 127.245 274.795 126.875 274.755 126.492C274.716 126.11 274.753 125.723 274.864 125.355C274.974 124.997 275.154 124.663 275.393 124.374C275.633 124.085 275.927 123.846 276.258 123.67L286.853 117.857C287.523 117.508 288.298 117.423 289.027 117.619C289.393 117.723 289.734 117.899 290.031 118.136C290.328 118.373 290.574 118.667 290.757 119L295.165 127.075C297.204 126.626 299.285 126.396 301.374 126.389L303.961 117.578C304.064 117.219 304.236 116.884 304.469 116.592C304.702 116.3 304.99 116.057 305.318 115.877C305.988 115.511 306.777 115.424 307.511 115.636L319.149 119.047C319.878 119.259 320.493 119.751 320.859 120.416C321.225 121.081 321.312 121.864 321.101 122.593L318.513 131.416C320.264 132.543 321.887 133.857 323.353 135.334L331.448 130.899C332.116 130.544 332.895 130.465 333.62 130.678C334.345 130.891 334.958 131.38 335.327 132.039L341.16 142.705C341.506 143.371 341.583 144.146 341.374 144.867C341.165 145.589 340.687 146.203 340.039 146.582L331.918 150.996C332.352 153.03 332.584 155.102 332.611 157.182L341.436 159.766C341.795 159.866 342.131 160.039 342.421 160.273C342.712 160.508 342.952 160.798 343.127 161.128C343.312 161.462 343.428 161.829 343.468 162.209C343.508 162.588 343.472 162.971 343.362 163.336L339.951 174.973C339.848 175.332 339.674 175.667 339.44 175.958C339.205 176.25 338.914 176.491 338.585 176.667C338.256 176.849 337.895 176.964 337.522 177.004C337.148 177.044 336.771 177.01 336.411 176.902L327.589 174.318C326.441 176.054 325.127 177.674 323.663 179.154L328.093 187.235C328.443 187.905 328.519 188.684 328.305 189.409C328.091 190.134 327.604 190.747 326.947 191.119L316.295 196.942C315.631 197.298 314.854 197.379 314.131 197.169C313.408 196.959 312.796 196.474 312.426 195.817L307.984 187.746C305.951 188.173 303.88 188.398 301.803 188.419L299.218 197.221C299.113 197.582 298.937 197.918 298.702 198.211C298.466 198.504 298.175 198.748 297.845 198.928C297.515 199.109 297.153 199.222 296.779 199.262C296.405 199.303 296.027 199.269 295.666 199.163L284.027 195.755C283.912 195.717 283.805 195.692 283.702 195.636ZM280.641 176.404C280.821 176.483 280.984 176.597 281.12 176.739C282.88 178.599 284.882 180.214 287.073 181.541C287.342 181.703 287.55 181.95 287.663 182.243C287.777 182.536 287.789 182.859 287.699 183.16L284.811 192.998L296.471 196.422L299.375 186.581C299.463 186.279 299.649 186.014 299.902 185.829C300.156 185.643 300.464 185.546 300.778 185.553C303.331 185.625 305.882 185.347 308.36 184.729C308.666 184.652 308.989 184.678 309.279 184.804C309.568 184.93 309.808 185.148 309.961 185.425L314.926 194.439L325.578 188.613L320.634 179.564C320.483 179.289 320.427 178.971 320.476 178.66C320.525 178.35 320.675 178.064 320.903 177.848C322.77 176.089 324.391 174.087 325.725 171.897C325.889 171.629 326.137 171.422 326.43 171.309C326.723 171.196 327.046 171.182 327.348 171.27L337.206 174.161L340.621 162.528L330.772 159.615C330.467 159.531 330.199 159.347 330.013 159.091C329.826 158.836 329.731 158.525 329.744 158.209C329.798 155.643 329.512 153.082 328.892 150.591C328.819 150.285 328.849 149.963 328.978 149.675C329.106 149.388 329.326 149.15 329.603 149L338.654 144.092L332.839 133.405L323.757 138.373C323.477 138.525 323.153 138.579 322.838 138.526C322.523 138.474 322.235 138.317 322.019 138.081C320.293 136.2 318.298 134.585 316.098 133.289C315.827 133.126 315.619 132.877 315.505 132.582C315.392 132.287 315.38 131.963 315.471 131.66L318.363 121.794L306.699 118.38H306.674L303.783 128.243C303.694 128.547 303.507 128.813 303.25 128.999C302.994 129.185 302.683 129.28 302.367 129.271C299.816 129.177 297.265 129.456 294.795 130.101C294.486 130.182 294.16 130.157 293.867 130.031C293.574 129.905 293.332 129.685 293.178 129.405L288.238 120.344L277.605 126.185L282.533 135.212C282.688 135.49 282.745 135.811 282.696 136.125C282.646 136.439 282.493 136.728 282.261 136.944C280.384 138.698 278.756 140.7 277.424 142.896C277.259 143.164 277.012 143.37 276.718 143.484C276.425 143.597 276.103 143.61 275.801 143.522L265.992 140.65L262.546 152.308L272.377 155.18C272.683 155.261 272.952 155.445 273.139 155.701C273.325 155.957 273.418 156.27 273.401 156.587C273.343 159.15 273.634 161.709 274.266 164.195C274.344 164.501 274.318 164.824 274.192 165.114C274.066 165.404 273.847 165.643 273.57 165.795L264.542 170.741L270.331 181.39L279.378 176.476C279.569 176.367 279.782 176.304 280.001 176.291C280.22 176.279 280.439 176.317 280.641 176.404ZM296.461 169.335C294.562 168.518 292.886 167.26 291.571 165.665C290.257 164.07 289.342 162.185 288.904 160.165C288.465 158.145 288.516 156.05 289.051 154.054C289.586 152.058 290.59 150.218 291.98 148.688C293.37 147.158 295.105 145.982 297.041 145.258C298.977 144.534 301.058 144.283 303.111 144.526C305.164 144.768 307.129 145.498 308.843 146.653C310.557 147.808 311.97 149.356 312.965 151.168C313.793 152.658 314.316 154.297 314.503 155.992C314.689 157.686 314.536 159.4 314.052 161.034C313.536 162.798 312.652 164.433 311.458 165.83C310.263 167.227 308.786 168.355 307.124 169.139C305.461 169.923 303.651 170.345 301.813 170.378C299.975 170.41 298.151 170.053 296.461 169.328V169.335ZM305.578 148.111C305.2 147.95 304.813 147.812 304.419 147.697C302.496 147.137 300.45 147.16 298.54 147.763C296.631 148.366 294.942 149.521 293.69 151.084C292.437 152.646 291.676 154.545 291.503 156.54C291.33 158.535 291.753 160.536 292.719 162.291C293.684 164.045 295.148 165.474 296.925 166.396C298.703 167.319 300.714 167.693 302.705 167.472C304.695 167.251 306.576 166.444 308.108 165.155C309.639 163.865 310.754 162.15 311.311 160.226C311.684 158.954 311.8 157.62 311.654 156.302C311.508 154.984 311.102 153.709 310.459 152.549C309.374 150.566 307.655 149.003 305.578 148.111Z" fill="#CEECFA"/>
<path d="M372.895 200.243L363.716 210.623C360.488 208.965 357.036 207.785 353.469 207.122L352.645 193.23C352.628 192.976 352.559 192.728 352.443 192.502C352.328 192.275 352.167 192.074 351.971 191.912C351.581 191.586 351.085 191.415 350.577 191.432L334.287 192.447C334.031 192.462 333.78 192.526 333.549 192.638C333.318 192.75 333.112 192.906 332.942 193.098C332.772 193.29 332.641 193.514 332.558 193.756C332.475 193.999 332.441 194.255 332.457 194.511L333.319 208.34C329.857 209.451 326.564 211.032 323.532 213.038L313.194 203.899C312.804 203.557 312.294 203.383 311.777 203.415C311.259 203.448 310.775 203.683 310.43 204.071L299.585 216.318C299.249 216.706 299.081 217.211 299.117 217.723C299.153 218.234 299.39 218.711 299.776 219.049L310.098 228.186C308.473 231.438 307.3 234.898 306.615 238.469L292.752 239.317C292.498 239.331 292.249 239.394 292.02 239.505C291.791 239.615 291.586 239.77 291.418 239.96C291.249 240.151 291.12 240.373 291.038 240.614C290.957 240.854 290.924 241.109 290.941 241.363L291.9 257.675C291.934 258.187 292.167 258.664 292.55 259.005C292.933 259.346 293.434 259.523 293.946 259.498L307.802 258.678C308.934 262.119 310.524 265.392 312.529 268.409L303.357 278.761C303.017 279.149 302.844 279.656 302.878 280.17C302.911 280.685 303.148 281.165 303.535 281.505L315.784 292.352C315.974 292.523 316.195 292.655 316.436 292.74C316.677 292.825 316.932 292.861 317.187 292.846C317.442 292.831 317.691 292.765 317.92 292.653C318.15 292.541 318.354 292.384 318.522 292.192L327.689 281.828C330.923 283.46 334.366 284.642 337.921 285.339L338.801 299.208C338.835 299.716 339.068 300.191 339.449 300.528C339.83 300.866 340.329 301.04 340.837 301.012L357.19 300.016C357.695 299.968 358.162 299.729 358.498 299.35C358.834 298.97 359.014 298.478 359.001 297.971L358.158 284.102C361.608 282.972 364.891 281.386 367.92 279.385L378.296 288.568C378.678 288.906 379.177 289.079 379.686 289.05C380.195 289.021 380.672 288.791 381.012 288.412L391.845 276.19C392.189 275.806 392.368 275.302 392.341 274.787C392.315 274.273 392.086 273.789 391.704 273.443L381.328 264.256C382.944 261.005 384.123 257.555 384.834 253.995L398.678 253.187C399.186 253.134 399.655 252.893 399.993 252.511C400.332 252.128 400.514 251.633 400.504 251.123L399.527 234.766C399.491 234.259 399.257 233.785 398.875 233.448C398.494 233.111 397.996 232.936 397.487 232.962L383.578 233.808C382.501 230.346 380.917 227.062 378.879 224.064L388.073 213.684C388.243 213.494 388.374 213.272 388.457 213.031C388.54 212.79 388.574 212.535 388.558 212.28C388.541 212.026 388.474 211.778 388.36 211.55C388.246 211.322 388.088 211.118 387.895 210.952L375.649 200.105C375.459 199.935 375.238 199.804 374.997 199.719C374.756 199.635 374.502 199.598 374.247 199.612C373.992 199.626 373.743 199.69 373.513 199.801C373.283 199.911 373.078 200.066 372.908 200.256L372.895 200.243ZM357.4 256.56C355.362 258.871 352.684 260.525 349.706 261.314C346.727 262.103 343.582 261.991 340.667 260.992C337.752 259.994 335.198 258.154 333.329 255.704C331.461 253.255 330.36 250.306 330.167 247.231C329.975 244.157 330.698 241.094 332.246 238.43C333.795 235.767 336.098 233.622 338.866 232.267C341.633 230.913 344.74 230.409 347.794 230.82C350.848 231.23 353.711 232.537 356.022 234.575C359.107 237.317 360.982 241.166 361.241 245.284C361.499 249.402 360.118 253.455 357.4 256.56Z" fill="#CEECFA"/>
<path d="M26.4814 419.585V388.567H44.755V353.515H63.5485V318.738H81.8252V288.694H194.868V419.585H26.4814Z" fill="#D4EFFB"/>
<path d="M194.868 288.694H101.277V419.585H194.868V288.694Z" fill="#A0D9F6"/>
<path d="M307.84 379.916H220.598C221.447 384.172 222.24 388.601 223.198 392.542H305.24C306.201 388.601 306.991 384.172 307.84 379.916Z" fill="#0F6B99"/>
<path d="M217.926 366.917C218.794 371.321 219.724 375.534 220.598 379.916H307.84C308.714 375.531 309.647 371.321 310.515 366.917H217.926Z" fill="#16A1E7"/>
<path d="M332.93 413.95C333.378 411.661 333.908 409.565 334.315 407.21C335.496 400.401 336.508 393.331 337.35 386.224C338.193 379.117 338.832 371.966 339.274 365.003C339.716 358.041 339.948 351.259 339.948 344.888C339.955 339.543 339.573 334.204 338.804 328.914C338.125 324.219 337.116 319.577 335.784 315.023C333.566 307.434 330.426 300.146 326.436 293.32C324.717 290.376 322.842 287.527 320.819 284.785C319.008 282.341 317.304 280.299 315.838 278.661C315.39 278.16 315.487 278.348 315.086 277.906L310.772 315.164C313.691 318.777 316.332 322.606 318.673 326.618C325.565 338.427 332.172 355.475 332.172 378.184C332.172 388.313 331.545 399.483 330.48 410.759L332.93 413.95Z" fill="#1281B8"/>
<path d="M316.587 265.014L315.095 277.906C315.496 278.332 315.409 278.16 315.847 278.661C317.313 280.299 319.018 282.342 320.828 284.785C322.849 287.528 324.721 290.377 326.436 293.32C330.427 300.148 333.566 307.438 335.784 315.029C337.115 319.583 338.125 324.225 338.807 328.921C339.574 334.211 339.955 339.549 339.948 344.895C339.948 351.266 339.716 358.05 339.274 365.01C338.832 371.97 338.184 379.105 337.351 386.23C336.517 393.356 335.496 400.407 334.315 407.216C333.908 409.578 333.375 411.667 332.93 413.957L335.972 417.922C341.881 393.663 345.599 361.665 345.599 336.172C345.599 313.463 338.995 296.414 332.097 284.603C324.522 271.626 316.587 265.014 316.587 265.014Z" fill="#16A1E7"/>
<path d="M195.511 413.951C195.063 411.661 194.533 409.566 194.123 407.21C192.945 400.401 191.93 393.331 191.09 386.224C190.251 379.117 189.605 371.967 189.167 365.004C188.728 358.041 188.493 351.26 188.493 344.889C188.486 339.543 188.867 334.205 189.634 328.914C190.319 324.221 191.332 319.581 192.666 315.029C193.848 310.99 195.29 307.031 196.983 303.177C199.845 296.675 203.417 290.51 207.635 284.794C209.445 282.351 211.15 280.309 212.613 278.671C213.064 278.169 212.967 278.357 213.368 277.916L217.685 315.173C214.761 318.783 212.115 322.609 209.768 326.618C202.876 338.427 196.269 355.475 196.269 378.184C196.269 388.314 196.895 399.483 197.957 410.759L195.511 413.951Z" fill="#1281B8"/>
<path d="M211.854 265.014L213.342 277.906C212.941 278.332 213.029 278.16 212.587 278.661C211.124 280.299 209.42 282.342 207.609 284.785C203.392 290.501 199.82 296.666 196.958 303.168C195.273 307.025 193.839 310.987 192.666 315.029C191.335 319.583 190.325 324.225 189.643 328.921C188.877 334.211 188.496 339.549 188.503 344.895C188.503 351.266 188.734 358.05 189.176 365.01C189.618 371.97 190.266 379.105 191.1 386.23C191.933 393.356 192.954 400.407 194.132 407.216C194.543 409.578 195.072 411.667 195.52 413.957L192.478 417.922C186.57 393.663 182.851 361.665 182.851 336.172C182.851 313.463 189.455 296.414 196.35 284.603C203.919 271.626 211.854 265.014 211.854 265.014Z" fill="#16A1E7"/>
<path d="M223.477 125.299C212.14 149.129 202.823 180.369 202.823 219.559C202.823 265.092 208.653 319.896 217.926 366.917H310.515C319.785 319.896 325.618 265.092 325.618 219.559C325.618 180.407 316.323 149.182 304.998 125.361C301.586 126.14 298.115 126.823 294.585 127.41C290.938 128.009 287.248 128.5 283.514 128.882C279.779 129.264 276.02 129.535 272.236 129.693C269.564 129.806 266.888 129.862 264.206 129.862C260.422 129.862 256.645 129.751 252.875 129.527C249.105 129.304 245.365 128.969 241.653 128.522C237.944 128.077 234.28 127.523 230.661 126.859C228.242 126.391 225.848 125.871 223.477 125.299Z" fill="white"/>
<path d="M226.475 119.548C225.476 121.481 224.448 123.254 223.477 125.299C225.845 125.867 228.247 126.389 230.682 126.865C234.298 127.529 237.962 128.084 241.675 128.528C245.389 128.973 249.129 129.307 252.897 129.531C256.656 129.756 260.433 129.869 264.228 129.869C266.908 129.869 269.584 129.813 272.258 129.7C276.034 129.541 279.793 129.271 283.536 128.889C287.278 128.506 290.969 128.016 294.607 127.416C298.132 126.834 301.603 126.151 305.02 125.368C304.046 123.32 303.018 121.54 302.019 119.602L301.327 119.739C296.872 120.468 292.364 121.066 287.802 121.534C283.241 122.002 278.655 122.332 274.043 122.524C270.779 122.662 267.509 122.732 264.235 122.734C259.615 122.734 255.001 122.597 250.394 122.323C245.787 122.05 241.219 121.641 236.691 121.096C233.239 120.657 229.833 120.141 226.475 119.548Z" fill="#0F6B99"/>
<path d="M226.475 119.548C229.84 120.139 233.238 120.653 236.669 121.089C241.199 121.634 245.767 122.044 250.372 122.317C254.977 122.591 259.591 122.727 264.213 122.727C267.487 122.727 270.757 122.657 274.021 122.518C278.633 122.323 283.219 121.993 287.781 121.528C292.342 121.062 296.85 120.464 301.305 119.733L301.997 119.598C284.682 86.043 264.222 68.9976 264.222 68.9976C264.222 68.9976 243.784 86.0305 226.475 119.548Z" fill="#16A1E7"/>
<path d="M294.851 186.609C294.851 192.732 293.035 198.718 289.632 203.81C286.23 208.902 281.393 212.87 275.734 215.214C270.076 217.557 263.849 218.17 257.842 216.976C251.835 215.781 246.317 212.832 241.986 208.502C237.655 204.172 234.706 198.655 233.511 192.649C232.316 186.643 232.93 180.418 235.273 174.76C237.617 169.102 241.586 164.267 246.679 160.865C251.772 157.463 257.759 155.647 263.884 155.647C272.097 155.647 279.974 158.909 285.781 164.715C291.589 170.522 294.851 178.397 294.851 186.609Z" fill="#0F6996"/>
<path d="M286.703 186.609C286.703 191.121 285.366 195.533 282.859 199.285C280.352 203.037 276.788 205.962 272.618 207.689C268.449 209.417 263.86 209.869 259.434 208.989C255.007 208.109 250.941 205.936 247.749 202.746C244.558 199.555 242.384 195.49 241.503 191.064C240.622 186.638 241.074 182.051 242.801 177.882C244.528 173.713 247.453 170.149 251.206 167.642C254.958 165.135 259.37 163.797 263.884 163.797C269.935 163.797 275.739 166.2 280.018 170.478C284.297 174.756 286.702 180.558 286.703 186.609Z" fill="#A0D9F6"/>
<path d="M278.025 176.135C278.025 176.94 277.786 177.727 277.339 178.397C276.891 179.066 276.255 179.588 275.511 179.897C274.767 180.205 273.948 180.285 273.158 180.128C272.368 179.971 271.642 179.583 271.073 179.014C270.503 178.444 270.115 177.719 269.958 176.929C269.801 176.139 269.882 175.32 270.19 174.576C270.498 173.832 271.02 173.196 271.69 172.749C272.359 172.302 273.147 172.063 273.952 172.063C275.033 172.063 276.068 172.492 276.832 173.255C277.596 174.019 278.025 175.055 278.025 176.135Z" fill="#ECECEC"/>
<g style="mix-blend-mode:multiply" opacity="0.25">
<g style="mix-blend-mode:multiply" opacity="0.25">
<path d="M289.265 392.542H305.243C306.204 388.602 306.994 384.173 307.843 379.916C308.717 375.531 309.65 371.321 310.518 366.917C319.788 319.897 325.621 265.092 325.621 219.56C325.621 180.407 316.326 149.182 305.001 125.362C301.587 126.14 298.116 126.823 294.588 127.41C294.121 127.488 293.648 127.526 293.169 127.598C303.507 156.308 312.135 193.863 309.97 236.414C307.429 286.326 297.89 346.257 289.265 392.542Z" fill="#A6A6A6"/>
</g>
<g style="mix-blend-mode:multiply" opacity="0.25">
<path d="M294.585 127.41C298.11 126.827 301.581 126.144 304.998 125.358C304.024 123.313 302.996 121.534 301.997 119.598C284.682 86.043 264.222 68.9976 264.222 68.9976C264.222 68.9976 280.071 91.1767 293.166 127.598C293.636 127.526 294.118 127.485 294.585 127.41Z" fill="#A6A6A6"/>
</g>
</g>
<path d="M357.027 425.775H171.41V423.817C171.411 421.844 172.195 419.953 173.59 418.558C174.985 417.163 176.877 416.379 178.851 416.378H349.587C351.56 416.378 353.453 417.162 354.848 418.557C356.244 419.952 357.027 421.844 357.027 423.817V425.775Z" fill="#0C557A"/>
<path d="M331.48 312.661C329.672 311.919 328.629 310.274 329.158 308.99C329.688 307.706 331.58 307.252 333.394 307.991C335.208 308.73 336.242 310.381 335.709 311.671C335.176 312.962 333.284 313.407 331.48 312.661Z" fill="#FFB38B"/>
<path d="M374.452 305.974C376.069 301.276 378.437 298.193 381.169 296.515V296.493C381.169 296.493 374.508 296.925 368.252 306.697C361.996 316.47 355.283 313.93 350.107 312.94C344.932 311.95 337.714 310.083 337.714 310.083L336.461 313.72C336.461 313.72 354.23 322.982 362.798 321.121C365.931 320.442 369.377 319.467 371.147 318.509C372.735 313.901 373.327 309.209 374.452 305.974Z" fill="#CEECFA"/>
<path d="M377.027 421.327V425.916H372.926V421.089L377.027 421.327Z" fill="#FFAD97"/>
<path d="M377.027 424.371C377.383 424.636 377.668 424.984 377.858 425.385C378.047 425.786 378.135 426.227 378.114 426.67V429.981H361.645C361.645 429.981 361.332 428.023 363.606 428.023C365.881 428.023 369.831 426.457 370.571 425.706C371.51 424.732 372.206 424.368 372.926 424.368L377.027 424.371Z" fill="url(#paint0_linear_250_3)"/>
<path d="M374.054 339.11C374.054 339.11 364.916 352.791 364.527 375.296C364.011 405.556 372.046 423.219 372.046 423.219H377.823C378.763 397.222 374.831 398.048 377.024 378.958C378.738 363.995 393.315 351.137 393.315 344.438C393.315 337.738 374.054 339.11 374.054 339.11Z" fill="#0C557A"/>
<path d="M406.413 419.372L406.651 423.952L402.553 424.165L402.302 419.354L406.413 419.372Z" fill="#FFAD97"/>
<path d="M406.572 422.417C406.943 422.66 407.247 422.992 407.458 423.381C407.669 423.771 407.78 424.207 407.782 424.65C407.869 426.269 407.957 427.961 407.957 427.961L391.51 428.841C391.51 428.841 391.112 426.893 393.368 426.777C395.623 426.661 399.502 424.869 400.207 424.083C401.093 423.071 401.754 422.674 402.475 422.636L406.572 422.417Z" fill="url(#paint1_linear_250_3)"/>
<path d="M396.519 347.429C396.519 347.429 395.893 359.839 393.769 369.718C390.837 383.327 393.6 384.771 398.155 391.9C403.982 401.058 407.168 421.364 407.168 421.364H402.384C402.384 421.364 381.266 387.042 376.867 371.638C371.094 351.444 373.979 342.026 373.979 342.026L386.369 341.186L396.519 347.429Z" fill="#0D608A"/>
<path d="M386.82 295.494C386.82 295.494 396.895 297.821 397.976 305.611C399.452 316.216 397.619 354.138 397.619 354.138C397.619 354.138 381.99 353.865 369.202 349.092C369.202 349.092 371.181 320.091 371.181 310.967C371.181 301.843 375.285 296.925 381.065 296.129C385.686 295.491 386.82 295.494 386.82 295.494Z" fill="#CEECFA"/>
<path d="M373.547 287.572C372.24 281.076 374.606 274.783 374.606 274.783C375.611 275.147 378.011 275.238 379.709 275.51C381.407 275.783 381.216 278.229 381.222 279.394C381.228 280.559 381.921 283.175 382.516 283.416C382.914 282.128 383.249 277.95 385.022 279.582C386.795 281.214 386.134 281.818 385.827 284.265C385.52 286.711 388.44 286.489 388.44 286.489C387.011 292.267 387.105 296.308 387.105 296.308C387.105 296.308 380.038 301.125 380.279 296.308C380.401 293.893 380.357 290.67 380.357 290.67C376.188 292.863 374.286 291.115 373.547 287.572Z" fill="#FFB38B"/>
<path d="M374.606 274.783C374.606 274.783 369.972 273.634 370.461 271.141C370.649 270.173 370.035 267.46 382.481 266.467C386.097 266.179 390.57 267.094 390.94 271.701C390.94 271.701 393.759 273.556 393.108 276.779C392.456 280.002 389.887 282.244 388.456 286.488C388.456 286.488 385.536 286.692 385.843 284.265C386.15 281.837 386.83 281.208 385.038 279.582C383.246 277.956 382.917 282.128 382.532 283.416C381.936 283.175 381.26 280.556 381.238 279.394C381.216 278.232 381.426 275.786 379.725 275.51C378.023 275.234 375.621 275.147 374.606 274.783Z" fill="#041F2D"/>
<g style="mix-blend-mode:multiply" opacity="0.7">
<path d="M398.365 310.356L394.918 316.185L372.328 330.465L370.342 330.734C370.285 331.674 370.232 332.613 370.179 333.553C372.685 333.625 381.977 333.656 386.911 330.421C392.359 326.847 396.698 320.432 398.502 315.386C398.49 313.563 398.437 311.872 398.365 310.356Z" fill="#B0D0E3"/>
</g>
<g style="mix-blend-mode:multiply" opacity="0.7">
<path d="M386.861 321.262L385.332 316.78C385.332 316.78 381.479 323.236 376.996 324.297C374.909 324.799 372.786 325.135 370.646 325.3C370.589 326.352 370.533 327.417 370.473 328.485C373.713 328.401 382.541 328.065 383.271 326.897C384.17 325.475 386.861 321.262 386.861 321.262Z" fill="#B0D0E3"/>
</g>
<path d="M336.953 318.161L338.453 318.923C338.597 318.994 338.725 319.093 338.83 319.215C338.935 319.336 339.015 319.477 339.065 319.629C339.115 319.781 339.134 319.942 339.122 320.102C339.109 320.262 339.065 320.418 338.992 320.561L338.823 320.896C338.751 321.039 338.651 321.167 338.53 321.272C338.408 321.377 338.267 321.456 338.114 321.506C337.962 321.556 337.801 321.576 337.641 321.564C337.481 321.551 337.324 321.507 337.181 321.435L335.681 320.677C335.756 321.616 336.561 322.556 337.394 322.985C337.944 323.269 338.581 323.336 339.177 323.17L339.684 323.223L354.383 336.378L354.813 337.368C354.874 337.706 355.015 338.024 355.223 338.296C355.432 338.568 355.703 338.787 356.013 338.933C356.324 339.08 356.665 339.15 357.008 339.138C357.35 339.126 357.686 339.033 357.985 338.865C358.285 338.698 358.54 338.462 358.73 338.176C358.919 337.89 359.038 337.563 359.076 337.222C359.114 336.881 359.069 336.536 358.947 336.215C358.824 335.895 358.627 335.608 358.371 335.379C358.015 335.062 357.563 334.873 357.087 334.84L356.05 334.527L341.351 321.372L341.188 320.639C341.239 320.139 341.136 319.636 340.893 319.197C340.65 318.758 340.279 318.403 339.829 318.18C338.992 317.767 337.752 317.685 336.953 318.161ZM355.596 336.068C355.674 335.984 355.74 336.018 355.843 335.915C355.947 335.811 355.9 335.724 356.038 335.633C356.175 335.542 356.219 335.633 356.376 335.567C356.533 335.501 356.501 335.417 356.667 335.389C356.833 335.36 356.833 335.457 356.999 335.467C357.165 335.476 357.178 335.379 357.341 335.423C357.504 335.467 357.466 335.555 357.613 335.63C357.761 335.705 357.811 335.63 357.927 335.727C358.043 335.824 357.986 335.896 358.093 336.04C358.199 336.184 358.278 336.112 358.353 336.262C358.428 336.413 358.353 336.441 358.381 336.604C358.409 336.767 358.519 336.745 358.528 336.917C358.538 337.089 358.444 337.077 358.418 337.23C358.393 337.384 358.484 337.415 358.418 337.572C358.353 337.728 358.278 337.681 358.187 337.822C358.096 337.963 358.171 338.02 358.052 338.135C357.933 338.251 357.88 338.179 357.739 338.27C357.598 338.361 357.645 338.442 357.488 338.505C357.331 338.568 357.313 338.471 357.147 338.505C356.981 338.54 356.993 338.627 356.833 338.618C356.674 338.608 356.683 338.518 356.52 338.474C356.357 338.43 356.329 338.521 356.179 338.446C356.028 338.37 356.085 338.292 355.953 338.186C355.821 338.079 355.759 338.154 355.64 338.023C355.521 337.891 355.618 337.844 355.539 337.709C355.461 337.575 355.377 337.6 355.333 337.437C355.289 337.274 355.383 337.268 355.373 337.099C355.364 336.93 355.267 336.933 355.295 336.767C355.323 336.601 355.411 336.629 355.471 336.472C355.53 336.316 355.445 336.278 355.536 336.134C355.553 336.113 355.573 336.095 355.596 336.081V336.068Z" fill="#B3B3B3"/>
<path d="M342.726 324.3V324.285C342.821 324.181 342.952 324.118 343.092 324.11C343.233 324.103 343.37 324.151 343.475 324.244L352.247 332.09C352.299 332.136 352.342 332.192 352.372 332.255C352.402 332.317 352.42 332.385 352.424 332.455C352.428 332.524 352.417 332.593 352.394 332.659C352.371 332.724 352.335 332.784 352.288 332.836C352.242 332.888 352.186 332.93 352.123 332.961C352.061 332.991 351.993 333.009 351.923 333.013C351.854 333.016 351.785 333.006 351.719 332.983C351.654 332.96 351.593 332.923 351.542 332.876L342.77 325.046C342.666 324.953 342.603 324.822 342.594 324.682C342.586 324.543 342.634 324.405 342.726 324.3Z" fill="#CCCCCC"/>
<path d="M352.776 332.322C350.822 332.212 349.302 330.997 349.377 329.606C349.452 328.216 351.1 327.169 353.049 327.279C354.998 327.389 356.533 328.604 356.451 329.995C356.37 331.386 354.731 332.429 352.776 332.322Z" fill="#FFB38B"/>
<path d="M398.051 310.726C398.051 305.767 396.751 300.49 394.436 300.784C394.436 300.784 388.286 303.368 385.567 314.657C382.848 325.945 375.686 325.723 370.48 326.481C365.273 327.239 357.83 327.843 357.83 327.843V331.699C357.83 331.699 377.644 334.624 385.138 330.067C387.375 328.74 389.412 327.104 391.191 325.206C396.028 318.512 398.051 314.152 398.051 310.726Z" fill="#CEECFA"/>
<path d="M175.508 144.387L189.098 138.526C189.098 138.526 191.344 140.406 191.344 141.893C191.344 143.381 179.248 154.861 179.248 154.861L175.508 144.387Z" fill="#EADCDC"/>
<path d="M191.889 135.673C190.805 136.885 190.636 138.511 191.532 139.303C192.428 140.096 194.016 139.751 195.097 138.539C196.178 137.327 196.35 135.698 195.454 134.909C194.558 134.119 192.979 134.461 191.889 135.673Z" fill="#FFB38B"/>
<path d="M173.368 281.327V285.699H176.808V281.098L173.368 281.327Z" fill="#FFAD97"/>
<path d="M173.368 284.23C173.368 284.23 172.453 284.857 172.453 286.423V289.586H186.275C186.275 289.586 186.529 287.707 184.631 287.707C182.732 287.707 179.402 286.207 178.782 285.493C177.986 284.572 177.416 284.224 176.808 284.224L173.368 284.23Z" fill="url(#paint2_linear_250_3)"/>
<path d="M143.102 279.911V284.28H146.542V279.679L143.102 279.911Z" fill="#FFAD97"/>
<path d="M143.102 282.814C143.102 282.814 142.188 283.441 142.188 285.007V288.174H156.013C156.013 288.174 156.266 286.294 154.368 286.294C152.469 286.294 149.139 284.794 148.519 284.077C147.723 283.156 147.156 282.824 146.545 282.824L143.102 282.814Z" fill="url(#paint3_linear_250_3)"/>
<path d="M148.823 197.612C148.823 197.612 152.172 224.173 148.525 239.584C144.879 254.994 142.009 281.214 142.009 281.214C142.009 281.214 144.202 281.33 147.473 281.298C147.473 281.298 164.747 234.798 164.747 219.957C164.747 205.117 160.931 201.101 160.931 201.101C160.931 201.101 151.273 194.825 148.823 197.612Z" fill="#0A3475"/>
<path d="M154.255 197.612C154.255 197.612 165.796 224.581 166.811 242.531C167.826 260.482 172.303 282.846 172.303 282.846H177.566C177.566 282.846 183.036 235.236 180.201 197.963C179.577 189.741 158.262 193.055 154.255 197.612Z" fill="#0A3475"/>
<path d="M177.97 118.233C177.97 118.233 178.08 122.696 178.08 123.301C178.08 123.905 179.236 125.944 179.787 126.433C180.339 126.921 179.675 127.924 178.96 127.977C178.246 128.03 178.352 128.967 178.352 129.856C178.352 131.736 178.465 137.624 172.4 133.928C172.4 133.928 171.288 137.872 171.617 139.14L162.096 139.322C162.096 139.322 163.146 134.479 162.977 132.274C162.808 130.069 170.448 115.727 177.97 118.233Z" fill="#FFB38B"/>
<path d="M179.195 113.826C174.897 114.27 164.872 109.419 162.394 115.921C162.394 115.921 160.383 115.974 160.878 119.367C161.373 122.759 160.464 132.835 165.091 132.835C169.719 132.835 171.579 130.975 171.579 130.975C171.579 130.975 168.23 126.47 170.423 124.735C171.106 124.196 171.814 124.651 171.855 125.847C171.896 127.044 171.745 132.563 172.457 134.11C173.534 136.456 175.589 136.118 176.42 135.886C178.982 135.175 178.907 129.468 178.331 131.172C177.754 132.876 175.658 132.832 174.609 131.798C173.559 130.765 172.66 124.641 172.657 124.638C172.698 121.713 173.528 117.638 177.983 118.245C178.842 118.508 179.728 118.675 180.624 118.743C182.099 118.84 183.475 113.387 179.195 113.826Z" fill="#041F2D"/>
<path d="M147.883 197.18C147.883 197.18 149.384 155.243 153.13 146.939C156.877 138.636 161.382 136.722 164.192 136.722C167.002 136.722 176.864 137.574 184.609 149.921C192.353 162.268 195.849 164.398 203.596 165.391C211.344 166.384 215.338 166.669 215.338 166.669C215.941 168.416 215.941 170.313 215.338 172.06C215.338 172.06 201.657 172.808 195.1 170.998C188.543 169.187 182.174 164.718 182.174 164.718L181.986 198.458C181.986 198.458 177.021 203.037 163.816 203.037C150.612 203.037 147.883 197.18 147.883 197.18Z" fill="#CEECFA"/>
<path d="M217.334 169.012C217.334 170.305 218.931 171.355 220.896 171.355C222.86 171.355 224.454 170.305 224.454 169.012C224.454 167.718 222.863 166.672 220.896 166.672C218.928 166.672 217.334 167.721 217.334 169.012Z" fill="#FFB38B"/>
<path d="M153.13 146.939C153.13 146.939 143.419 169.786 141.226 251.746C141.226 251.746 157.582 258.01 185.768 251.051C185.768 228.088 182.174 164.718 182.174 164.718L153.13 146.939Z" fill="#CEECFA"/>
<path d="M66.4807 156.562H37.869V163.33H66.4807V156.562Z" fill="#CEECFA"/>
<path d="M86.8375 166.083H37.869V172.852H86.8375V166.083Z" fill="#A8E8FF"/>
<path d="M100.656 179.402H37.869V186.17H100.656V179.402Z" fill="#CEECFA"/>
<path d="M81.327 188.914H37.869V195.683H81.327V188.914Z" fill="#A8E8FF"/>
<path d="M78.4417 202.245H37.869V209.013H78.4417V202.245Z" fill="#CEECFA"/>
<path d="M91.6996 211.757H37.869V218.526H91.6996V211.757Z" fill="#A8E8FF"/>
<path d="M361.266 144.562C361.269 152.175 364.196 159.497 369.443 165.015C374.69 170.532 381.856 173.825 389.461 174.212V168.26C377.002 167.455 367.121 157.207 367.121 144.55C367.121 131.892 377.002 121.647 389.461 120.845V114.894C381.853 115.281 374.684 118.576 369.437 124.098C364.19 129.619 361.264 136.945 361.266 144.562Z" fill="#1281B8"/>
<path d="M410.42 122.085C405.306 117.661 398.832 115.119 392.074 114.881V120.792C397.261 121.027 402.226 122.963 406.203 126.301L410.42 122.085Z" fill="#0C557A"/>
<path d="M412.318 123.886L408.158 128.037C411.35 131.328 413.521 135.473 414.41 139.971C415.298 144.469 414.867 149.128 413.166 153.386C411.466 157.644 408.57 161.319 404.828 163.968C401.085 166.618 396.656 168.128 392.074 168.317V174.224C397.817 174.023 403.379 172.159 408.083 168.86C412.787 165.56 416.433 160.965 418.576 155.634C420.72 150.303 421.269 144.465 420.159 138.828C419.048 133.19 416.324 127.997 412.318 123.877V123.886Z" fill="#CEECFA"/>
<path d="M61.7159 237.692H39.0345C38.77 237.692 38.5163 237.587 38.329 237.4C38.1416 237.214 38.036 236.96 38.0352 236.696C38.0352 236.431 38.1404 236.177 38.3279 235.989C38.5153 235.802 38.7695 235.697 39.0345 235.697H61.7159C61.9806 235.698 62.2344 235.803 62.4216 235.99C62.6088 236.178 62.7144 236.431 62.7152 236.696C62.7136 236.96 62.6076 237.213 62.4205 237.4C62.2334 237.586 61.9801 237.691 61.7159 237.692Z" fill="#A8E8FF"/>
<path d="M75.4687 237.692H66.1956C65.9311 237.692 65.6774 237.587 65.4901 237.4C65.3028 237.214 65.1971 236.96 65.1963 236.696C65.1963 236.431 65.3016 236.177 65.489 235.989C65.6764 235.802 65.9306 235.697 66.1956 235.697H75.4687C75.7332 235.698 75.9866 235.803 76.1733 235.991C76.3601 236.178 76.4649 236.431 76.4649 236.696C76.4641 236.96 76.3589 237.213 76.1722 237.399C75.9856 237.586 75.7326 237.691 75.4687 237.692Z" fill="#A8E8FF"/>
<path d="M49.288 243.399H39.0188C38.7537 243.399 38.4995 243.293 38.3121 243.106C38.1247 242.919 38.0194 242.665 38.0194 242.4C38.0202 242.135 38.1258 241.881 38.313 241.694C38.5003 241.507 38.754 241.401 39.0188 241.4H49.288C49.5528 241.401 49.8065 241.507 49.9938 241.694C50.181 241.881 50.2866 242.135 50.2874 242.4C50.2874 242.665 50.1821 242.919 49.9947 243.106C49.8073 243.293 49.5531 243.399 49.288 243.399Z" fill="#A8E8FF"/>
<path d="M78.9618 243.399H53.7837C53.5186 243.399 53.2644 243.293 53.077 243.106C52.8896 242.919 52.7843 242.665 52.7843 242.4C52.7851 242.135 52.8907 241.881 53.0779 241.694C53.2652 241.507 53.5189 241.401 53.7837 241.4H78.9618C79.2266 241.401 79.4803 241.507 79.6676 241.694C79.8548 241.881 79.9604 242.135 79.9612 242.4C79.9612 242.665 79.8559 242.919 79.6685 243.106C79.4811 243.293 79.2269 243.399 78.9618 243.399Z" fill="#A8E8FF"/>
<path d="M56.2083 249.106H39.0188C38.754 249.105 38.5003 248.999 38.313 248.812C38.1258 248.625 38.0202 248.371 38.0194 248.107C38.0194 247.975 38.0453 247.845 38.0955 247.724C38.1457 247.603 38.2193 247.493 38.3121 247.4C38.4049 247.307 38.5151 247.234 38.6363 247.183C38.7576 247.133 38.8875 247.107 39.0188 247.107H56.2083C56.4731 247.108 56.7269 247.214 56.9141 247.401C57.1013 247.588 57.2069 247.842 57.2077 248.107C57.2061 248.371 57.1002 248.624 56.9132 248.811C56.7261 248.998 56.4729 249.104 56.2083 249.106Z" fill="#A8E8FF"/>
<path d="M76.2519 249.106H60.7008C60.4366 249.104 60.1837 248.998 59.9971 248.811C59.8105 248.624 59.7054 248.371 59.7046 248.107C59.7046 247.842 59.8094 247.588 59.9962 247.401C60.1829 247.214 60.4363 247.108 60.7008 247.107H76.2519C76.5167 247.108 76.7704 247.214 76.9577 247.401C77.1449 247.588 77.2505 247.842 77.2513 248.107C77.2497 248.371 77.1438 248.624 76.9568 248.811C76.7697 248.998 76.5165 249.104 76.2519 249.106Z" fill="#A8E8FF"/>
<path d="M64.7671 254.809H39.0188C38.7537 254.809 38.4995 254.704 38.3121 254.517C38.1247 254.329 38.0194 254.075 38.0194 253.81C38.0202 253.546 38.1259 253.292 38.3132 253.106C38.5005 252.919 38.7543 252.814 39.0188 252.814H64.7671C65.0316 252.814 65.2853 252.919 65.4727 253.106C65.66 253.292 65.7656 253.546 65.7665 253.81C65.7665 254.075 65.6612 254.329 65.4738 254.517C65.2863 254.704 65.0322 254.809 64.7671 254.809Z" fill="#A8E8FF"/>
<path d="M77.6084 254.809H69.2627C68.9976 254.809 68.7434 254.704 68.556 254.517C68.3686 254.329 68.2633 254.075 68.2633 253.81C68.2641 253.546 68.3698 253.292 68.5571 253.106C68.7444 252.919 68.9982 252.814 69.2627 252.814H77.6084C77.8724 252.815 78.1253 252.92 78.3119 253.107C78.4986 253.293 78.6038 253.546 78.6046 253.81C78.6046 254.075 78.4998 254.328 78.313 254.516C78.1263 254.703 77.8729 254.809 77.6084 254.809Z" fill="#A8E8FF"/>
<g opacity="0.5">
<g style="mix-blend-mode:multiply" opacity="0.5">
<path d="M1.46301 335.971C1.075 335.971 0.702873 336.125 0.428505 336.4C0.154138 336.674 0 337.046 0 337.434C0 337.822 0.154138 338.194 0.428505 338.468C0.702873 338.743 1.075 338.897 1.46301 338.897H16.0774C16.4655 338.897 16.8376 338.743 17.1119 338.468C17.3863 338.194 17.5404 337.822 17.5404 337.434C17.5404 337.046 17.3863 336.674 17.1119 336.4C16.8376 336.125 16.4655 335.971 16.0774 335.971H1.46301Z" fill="#CEECFA"/>
</g>
<g style="mix-blend-mode:multiply" opacity="0.5">
<path d="M22.3398 335.971C21.9518 335.971 21.5797 336.125 21.3053 336.4C21.031 336.674 20.8768 337.046 20.8768 337.434C20.8768 337.822 21.031 338.194 21.3053 338.468C21.5797 338.743 21.9518 338.897 22.3398 338.897H25.0215C25.4095 338.897 25.7816 338.743 26.056 338.468C26.3304 338.194 26.4845 337.822 26.4845 337.434C26.4845 337.046 26.3304 336.674 26.056 336.4C25.7816 336.125 25.4095 335.971 25.0215 335.971H22.3398Z" fill="#CEECFA"/>
</g>
</g>
<g style="mix-blend-mode:multiply" opacity="0.5">
<g style="mix-blend-mode:multiply" opacity="0.5">
<path d="M365.452 82.0432C365.644 82.0436 365.835 82.0819 366.012 82.156C366.19 82.23 366.352 82.3384 366.487 82.4748C366.623 82.6112 366.731 82.773 366.804 82.951C366.878 83.129 366.915 83.3197 366.915 83.5122C366.915 83.7042 366.878 83.8945 366.805 84.072C366.732 84.2495 366.624 84.4107 366.488 84.5462C366.352 84.6817 366.19 84.7888 366.012 84.8613C365.834 84.9339 365.644 84.9703 365.452 84.9687H350.834C350.642 84.9695 350.452 84.9324 350.275 84.8596C350.098 84.7867 349.937 84.6795 349.801 84.5441C349.665 84.4088 349.558 84.2479 349.485 84.0708C349.411 83.8937 349.374 83.7039 349.374 83.5122C349.373 83.124 349.527 82.7513 349.8 82.4759C350.074 82.2005 350.446 82.0449 350.834 82.0432H365.452Z" fill="#CEECFA"/>
</g>
<g style="mix-blend-mode:multiply" opacity="0.5">
<path d="M344.572 82.0432C344.96 82.0449 345.332 82.2004 345.607 82.4757C345.881 82.751 346.035 83.1237 346.035 83.5122C346.035 83.704 345.997 83.8939 345.923 84.071C345.85 84.2481 345.742 84.409 345.606 84.5443C345.47 84.6796 345.309 84.7868 345.131 84.8596C344.954 84.9324 344.763 84.9695 344.572 84.9687H341.893C341.701 84.9699 341.511 84.9331 341.334 84.8604C341.156 84.7877 340.995 84.6805 340.859 84.5451C340.723 84.4096 340.616 84.2486 340.543 84.0713C340.47 83.894 340.432 83.704 340.433 83.5122C340.432 83.124 340.586 82.7513 340.859 82.4759C341.133 82.2005 341.505 82.0449 341.893 82.0432H344.572Z" fill="#CEECFA"/>
</g>
</g>
<path opacity="0.5" d="M432.434 220.361H428.43V216.365C428.43 215.949 428.265 215.551 427.971 215.257C427.677 214.964 427.279 214.799 426.864 214.799C426.448 214.799 426.05 214.964 425.756 215.257C425.462 215.551 425.297 215.949 425.297 216.365V220.377H421.287C420.872 220.377 420.473 220.542 420.18 220.836C419.886 221.129 419.721 221.528 419.721 221.943C419.721 222.359 419.886 222.757 420.18 223.051C420.473 223.344 420.872 223.509 421.287 223.509H425.297V227.512C425.297 227.928 425.462 228.326 425.756 228.62C426.05 228.913 426.448 229.078 426.864 229.078C427.279 229.078 427.677 228.913 427.971 228.62C428.265 228.326 428.43 227.928 428.43 227.512V223.487H432.434C432.849 223.487 433.247 223.322 433.541 223.029C433.835 222.735 434 222.337 434 221.921C434 221.506 433.835 221.108 433.541 220.814C433.247 220.52 432.849 220.355 432.434 220.355V220.361Z" fill="#CEECFA"/>
<path opacity="0.5" d="M300.337 56.9575H296.33V52.9451C296.33 52.5298 296.165 52.1314 295.871 51.8377C295.577 51.544 295.179 51.379 294.763 51.379C294.348 51.379 293.95 51.544 293.656 51.8377C293.362 52.1314 293.197 52.5298 293.197 52.9451V56.9575H289.193C288.778 56.9575 288.379 57.1225 288.086 57.4162C287.792 57.7099 287.627 58.1082 287.627 58.5236C287.627 58.9389 287.792 59.3373 288.086 59.631C288.379 59.9247 288.778 60.0897 289.193 60.0897H293.2V64.0864C293.2 64.5017 293.365 64.9001 293.659 65.1938C293.953 65.4875 294.351 65.6525 294.767 65.6525C295.182 65.6525 295.58 65.4875 295.874 65.1938C296.168 64.9001 296.333 64.5017 296.333 64.0864V60.0834H300.34C300.755 60.0834 301.154 59.9184 301.447 59.6247C301.741 59.331 301.906 58.9327 301.906 58.5173C301.906 58.102 301.741 57.7036 301.447 57.4099C301.154 57.1162 300.755 56.9512 300.34 56.9512L300.337 56.9575Z" fill="#CEECFA"/>
<path opacity="0.5" d="M46.2305 285.095H42.2236V281.079C42.2236 280.664 42.0586 280.266 41.7648 279.972C41.4711 279.678 41.0727 279.513 40.6572 279.513C40.2418 279.513 39.8434 279.678 39.5496 279.972C39.2559 280.266 39.0908 280.664 39.0908 281.079V285.095H35.0871C34.6717 285.095 34.2733 285.26 33.9795 285.553C33.6858 285.847 33.5208 286.245 33.5208 286.661C33.5208 287.076 33.6858 287.475 33.9795 287.768C34.2733 288.062 34.6717 288.227 35.0871 288.227H39.094V292.227C39.094 292.642 39.259 293.04 39.5528 293.334C39.8465 293.628 40.2449 293.793 40.6604 293.793C41.0758 293.793 41.4742 293.628 41.768 293.334C42.0617 293.04 42.2268 292.642 42.2268 292.227V288.221H46.2336C46.649 288.221 47.0474 288.056 47.3412 287.762C47.6349 287.468 47.8 287.07 47.8 286.655C47.8 286.239 47.6349 285.841 47.3412 285.547C47.0474 285.253 46.649 285.088 46.2336 285.088L46.2305 285.095Z" fill="#CEECFA"/>
<g opacity="0.5">
<path opacity="0.5" d="M212.155 59.4568C212.155 61.1295 212.651 62.7645 213.581 64.1553C214.51 65.546 215.831 66.63 217.377 67.27C218.922 67.9101 220.623 68.0776 222.264 67.7513C223.905 67.425 225.412 66.6195 226.595 65.4368C227.778 64.2541 228.583 62.7472 228.91 61.1067C229.236 59.4662 229.068 57.7658 228.428 56.2205C227.788 54.6752 226.704 53.3544 225.313 52.4251C223.922 51.4959 222.287 50.9999 220.614 50.9999C218.37 50.9999 216.219 51.8909 214.633 53.4769C213.046 55.0628 212.155 57.2139 212.155 59.4568ZM215.404 59.4568C215.403 58.4245 215.709 57.4152 216.282 56.5565C216.855 55.6979 217.67 55.0286 218.624 54.6333C219.578 54.2379 220.628 54.1343 221.64 54.3356C222.653 54.5368 223.583 55.0339 224.314 55.7638C225.044 56.4938 225.541 57.4239 225.742 58.4364C225.943 59.449 225.84 60.4984 225.444 61.4521C225.049 62.4057 224.379 63.2207 223.521 63.7938C222.662 64.367 221.652 64.6726 220.62 64.672C219.237 64.6695 217.912 64.1192 216.934 63.1417C215.957 62.1643 215.406 60.8392 215.404 59.4568Z" fill="#CEECFA"/>
</g>
<g opacity="0.5">
<path opacity="0.5" d="M408.365 302.836C408.365 304.508 408.861 306.143 409.79 307.534C410.719 308.925 412.04 310.009 413.586 310.649C415.132 311.289 416.832 311.456 418.473 311.13C420.114 310.804 421.621 309.998 422.804 308.816C423.987 307.633 424.793 306.126 425.119 304.485C425.445 302.845 425.278 301.145 424.638 299.599C423.997 298.054 422.913 296.733 421.522 295.804C420.131 294.875 418.496 294.379 416.823 294.379C414.581 294.383 412.432 295.275 410.847 296.86C409.261 298.445 408.369 300.594 408.365 302.836ZM411.613 302.836C411.613 301.803 411.919 300.794 412.493 299.936C413.067 299.078 413.882 298.409 414.836 298.014C415.79 297.619 416.839 297.516 417.852 297.718C418.864 297.919 419.794 298.417 420.524 299.147C421.254 299.877 421.751 300.807 421.952 301.819C422.153 302.832 422.049 303.881 421.653 304.835C421.258 305.788 420.589 306.603 419.73 307.176C418.871 307.749 417.862 308.054 416.829 308.054C415.446 308.052 414.12 307.502 413.142 306.523C412.164 305.545 411.614 304.219 411.613 302.836Z" fill="#CEECFA"/>
</g>
<path d="M149.061 231.399C148.368 231.776 147.807 232.355 147.452 233.059C147.097 233.763 146.966 234.559 147.075 235.34L146.865 236.502L124.572 258.054L122.962 258.621C122.333 258.691 121.736 258.937 121.239 259.329C120.742 259.721 120.365 260.245 120.152 260.841C119.938 261.437 119.896 262.08 120.029 262.699C120.163 263.318 120.468 263.886 120.909 264.34C121.351 264.794 121.91 265.116 122.525 265.267C123.139 265.419 123.784 265.396 124.386 265.199C124.988 265.003 125.523 264.641 125.929 264.156C126.336 263.671 126.598 263.082 126.687 262.455L127.298 260.889L149.59 239.324L150.386 239.211C151.332 239.436 152.327 239.293 153.171 238.81C154.459 238.093 155.677 236.552 155.728 235.08L153.412 236.364C153.192 236.487 152.95 236.565 152.699 236.594C152.449 236.623 152.195 236.603 151.953 236.533C151.71 236.464 151.484 236.348 151.286 236.191C151.089 236.034 150.925 235.839 150.803 235.618L150.518 235.102C150.395 234.881 150.317 234.639 150.288 234.389C150.259 234.138 150.28 233.885 150.349 233.642C150.419 233.4 150.535 233.174 150.692 232.976C150.849 232.779 151.043 232.615 151.263 232.492L153.575 231.208C152.294 230.488 150.349 230.695 149.061 231.399ZM125.43 260.529C125.581 260.748 125.446 260.811 125.549 261.055C125.653 261.299 125.794 261.246 125.844 261.506C125.894 261.766 125.747 261.769 125.741 262.032C125.734 262.295 125.888 262.308 125.825 262.565C125.762 262.822 125.628 262.765 125.512 263.003C125.396 263.241 125.531 263.316 125.374 263.526C125.217 263.736 125.111 263.63 124.91 263.802C124.71 263.974 124.804 264.09 124.575 264.222C124.346 264.353 124.29 264.222 124.039 264.284C123.789 264.347 123.826 264.51 123.56 264.532C123.294 264.554 123.309 264.406 123.046 264.375C122.783 264.344 122.758 264.488 122.511 264.403C122.263 264.319 122.329 264.184 122.103 264.049C121.878 263.915 121.79 264.049 121.602 263.858C121.414 263.667 121.527 263.586 121.373 263.37C121.22 263.154 121.095 263.235 120.991 262.991C120.888 262.746 121.035 262.712 120.991 262.452C120.947 262.192 120.791 262.214 120.797 261.951C120.803 261.688 120.947 261.713 121.007 261.456C121.066 261.199 120.922 261.143 121.032 260.917C121.142 260.692 121.27 260.764 121.427 260.551C121.583 260.338 121.471 260.238 121.671 260.071C121.872 259.905 121.947 260.025 122.179 259.896C122.41 259.768 122.345 259.636 122.598 259.558C122.852 259.48 122.871 259.63 123.134 259.605C123.397 259.58 123.391 259.433 123.651 259.464C123.911 259.495 123.873 259.639 124.124 259.727C124.375 259.815 124.437 259.674 124.657 259.808C124.876 259.943 124.782 260.059 124.97 260.238C125.158 260.416 125.246 260.338 125.368 260.463L125.43 260.529Z" fill="#B3B3B3"/>
<path d="M144.872 241.181L144.85 241.159C144.775 241.081 144.684 241.018 144.584 240.974C144.484 240.93 144.377 240.907 144.268 240.905C144.159 240.903 144.05 240.922 143.948 240.962C143.847 241.002 143.754 241.062 143.676 241.137L130.383 253.979C130.304 254.055 130.241 254.145 130.198 254.246C130.154 254.346 130.131 254.454 130.129 254.563C130.127 254.672 130.147 254.78 130.188 254.882C130.228 254.983 130.288 255.076 130.364 255.154L130.386 255.179C130.462 255.26 130.553 255.325 130.655 255.371C130.756 255.416 130.865 255.441 130.976 255.443C131.087 255.445 131.198 255.425 131.301 255.384C131.404 255.343 131.498 255.282 131.577 255.204L144.872 242.362C144.951 242.285 145.013 242.193 145.056 242.092C145.098 241.99 145.12 241.881 145.12 241.772C145.12 241.662 145.098 241.553 145.056 241.451C145.013 241.35 144.951 241.258 144.872 241.181Z" fill="#CCCCCC"/>
<path d="M178.456 417.192V421.982H182.416V416.939L178.456 417.192Z" fill="#FFAD97"/>
<path d="M178.456 420.375C178.456 420.375 177.403 421.064 177.403 422.768V426.222H193.311C193.311 426.222 193.603 424.174 191.432 424.174C189.261 424.174 185.417 422.533 184.703 421.75C183.788 420.738 183.136 420.362 182.431 420.362L178.456 420.375Z" fill="url(#paint4_linear_250_3)"/>
<path d="M146.877 417.192V421.982H150.837V416.939L146.877 417.192Z" fill="#FFAD97"/>
<path d="M146.877 420.375C146.877 420.375 145.825 421.064 145.825 422.768V426.222H161.733C161.733 426.222 162.024 424.174 159.838 424.174C157.651 424.174 153.823 422.533 153.108 421.75C152.194 420.738 151.542 420.362 150.837 420.362L146.877 420.375Z" fill="url(#paint5_linear_250_3)"/>
<path d="M190.815 335.294C190.815 335.294 190.815 377.805 184.01 418.176C184.01 418.176 180.523 419.623 176.858 418.066C176.858 418.066 179.051 357.646 174.59 335.623C174.59 335.623 182.701 328.285 190.815 335.294Z" fill="#0C557A"/>
<path d="M162.027 331.288C162.027 331.288 154.872 378.475 144.753 418.511C144.753 418.511 148.766 420.287 152.955 418.953C152.955 418.953 185.32 348.97 187.416 334.289C189.511 319.608 162.027 331.288 162.027 331.288Z" fill="#0D608A"/>
<path d="M138.998 257.876C138.998 257.876 152.081 274.476 165.345 282.971C179.731 292.189 181.263 286.651 189.11 274.671C195.862 264.369 198.665 247.542 198.665 247.542C199.567 247.406 200.488 247.461 201.367 247.705C202.246 247.949 203.063 248.376 203.766 248.958C203.766 248.958 202.854 269.004 190.295 290.332C189.073 295.616 193.427 306.184 190.946 338.214C190.946 338.214 170.928 342.226 161.16 332.037C161.16 332.037 167.266 309.955 162.206 298.259C157.147 286.564 142.156 275.801 135.073 261.647C135.871 259.948 137.269 258.605 138.998 257.876Z" fill="#CEECFA"/>
<path d="M131.661 256.184C132.683 258.064 134.459 258.972 135.631 258.23C136.802 257.487 136.928 255.354 135.909 253.481C134.891 251.608 133.109 250.691 131.937 251.439C130.765 252.188 130.637 254.308 131.661 256.184Z" fill="#FFB38B"/>
<path d="M199.558 242.005C199.417 244.175 200.407 246.017 201.751 246.121C203.095 246.224 204.323 244.554 204.464 242.362C204.605 240.169 203.615 238.35 202.271 238.246C200.927 238.143 199.684 239.834 199.558 242.005Z" fill="#FFB38B"/>
<path d="M174.427 289.527L182.077 288.33C182.077 288.33 188.531 305.42 188.343 323.345C187.447 336.61 185.354 339.119 185.354 339.119C185.354 339.119 178.362 339.304 176.626 338.702C174.891 338.101 176.062 296.104 176.062 296.104L174.427 289.527Z" fill="#16A1E7"/>
<path d="M181.983 276.19C180.492 269.593 175.664 264.717 175.664 264.717C174.881 265.471 172.682 266.549 171.216 267.517C169.75 268.485 170.943 270.674 171.416 271.767C171.889 272.86 172.356 275.579 171.896 276.049C170.99 275.018 168.932 271.263 167.942 273.543C166.952 275.823 167.845 276.09 169.151 278.241C170.458 280.393 167.651 281.411 167.651 281.411C171.097 286.219 171.097 286.332 172.062 287.914C173.581 290.438 185.053 292.646 180.736 285.868C179.411 283.789 176.933 281.956 176.933 281.956C181.73 282.222 182.773 279.804 181.983 276.19Z" fill="#FFB38B"/>
<path d="M175.665 264.723C175.665 264.723 178.299 262.571 177.757 260.711C177.215 258.85 173.136 261.105 169.079 261.566C165.022 262.026 159.117 262.988 159.161 268.666C159.161 268.666 157.319 271.557 159.258 274.285C161.197 277.014 164.54 278.044 167.651 281.399C167.651 281.399 170.47 280.368 169.151 278.229C167.833 276.09 166.959 275.795 167.942 273.531C168.926 271.266 170.99 275.018 171.896 276.036C172.35 275.567 171.896 272.845 171.416 271.755C170.937 270.665 169.747 268.469 171.216 267.504C172.685 266.54 174.881 265.478 175.665 264.723Z" fill="#041F2D"/>
<path d="M171.861 274.577C171.861 274.577 174.718 279.685 177.093 278.908C179.468 278.132 181.526 275.344 182.569 277.029C183.612 278.714 182.187 281.784 179.819 282.272C177.45 282.761 175.69 282.326 174.75 281.02C173.81 279.713 170.896 274.498 170.896 274.498L171.861 274.577Z" fill="#041F2D"/>
<path d="M170.602 286.06L176.814 287.735L177.416 289.643L176.576 290.598C177.889 295.267 178.573 300.091 178.609 304.94C178.97 341.027 173.243 372.349 172.037 379.753C172.037 379.753 152.673 380.693 143.112 367.801C143.112 367.801 159.844 347.009 163.071 317.25C164.387 300.878 161.695 297.414 161.695 297.414L170.602 286.06Z" fill="#CEECFA"/>
<path d="M190.862 289.586C190.862 289.586 198.38 328.184 198.036 353.461C197.675 369.774 197.854 377.122 197.854 377.122C197.854 377.122 189.787 381.069 181.36 378.021C182.256 368.339 189.483 312.827 181.955 290.482C181.36 289.286 180.821 289.229 180.821 289.229L180.044 287.378C180.414 286.608 180.876 285.886 181.419 285.226C182.137 284.446 190.62 289.405 190.862 289.586Z" fill="#CEECFA"/>
<defs>
<linearGradient id="paint0_linear_250_3" x1="361.633" y1="427.178" x2="378.114" y2="427.178" gradientUnits="userSpaceOnUse">
<stop stop-color="#3D342B"/>
<stop offset="1" stop-color="#291C17"/>
</linearGradient>
<linearGradient id="paint1_linear_250_3" x1="17945" y1="7817.38" x2="18810.5" y2="7771.11" gradientUnits="userSpaceOnUse">
<stop stop-color="#3D342B"/>
<stop offset="1" stop-color="#291C17"/>
</linearGradient>
<linearGradient id="paint2_linear_250_3" x1="51602.9" y1="4323.21" x2="50992.2" y2="4323.21" gradientUnits="userSpaceOnUse">
<stop stop-color="#3D342B"/>
<stop offset="1" stop-color="#291C17"/>
</linearGradient>
<linearGradient id="paint3_linear_250_3" x1="50308.4" y1="4295.2" x2="49697.5" y2="4295.2" gradientUnits="userSpaceOnUse">
<stop stop-color="#3D342B"/>
<stop offset="1" stop-color="#291C17"/>
</linearGradient>
<linearGradient id="paint4_linear_250_3" x1="62378.1" y1="7386.48" x2="61569" y2="7386.48" gradientUnits="userSpaceOnUse">
<stop stop-color="#3D342B"/>
<stop offset="1" stop-color="#291C17"/>
</linearGradient>
<linearGradient id="paint5_linear_250_3" x1="60804.2" y1="7386.48" x2="59995.1" y2="7386.48" gradientUnits="userSpaceOnUse">
<stop stop-color="#3D342B"/>
<stop offset="1" stop-color="#291C17"/>
</linearGradient>
</defs>
</svg>
