<svg width="495" height="461" viewBox="0 0 495 461" fill="none" xmlns="http://www.w3.org/2000/svg">
<path d="M105 157.403V323.594C105.013 333.803 107.705 343.829 112.805 352.667C117.905 361.505 125.234 368.845 134.057 373.949L270.983 453.211C279.803 458.314 289.808 461 299.992 461C310.176 461 320.181 458.314 329.001 453.211L465.943 373.949C474.766 368.845 482.095 361.505 487.195 352.667C492.295 343.829 494.987 333.803 495 323.594V157.403C494.995 147.194 492.307 137.166 487.206 128.329C482.105 119.492 474.771 112.158 465.943 107.063L329.001 27.8013C320.184 22.6909 310.178 20 299.992 20C289.806 20 279.8 22.6909 270.983 27.8013L134.057 107.063C125.229 112.158 117.895 119.492 112.794 128.329C107.693 137.166 105.005 147.194 105 157.403H105Z" fill="#EDF8FD"/>
<path opacity="0.5" d="M35 109.673V242.324C35.0107 250.473 37.1708 258.476 41.2639 265.53C45.357 272.585 51.2391 278.443 58.3205 282.517L168.212 345.783C175.29 349.856 183.32 352 191.494 352C199.667 352 207.697 349.856 214.775 345.783L324.68 282.517C331.761 278.443 337.643 272.585 341.736 265.53C345.829 258.476 347.989 250.473 348 242.324V109.673C347.996 101.524 345.839 93.5206 341.745 86.467C337.651 79.4135 331.765 73.5589 324.68 69.4926L214.775 6.22689C207.699 2.14781 199.668 0 191.494 0C183.319 0 175.288 2.14781 168.212 6.22689L58.3205 69.4926C51.2348 73.5589 45.3489 79.4135 41.255 86.467C37.1611 93.5206 35.0037 101.524 35 109.673H35Z" fill="#EDF8FD"/>
<path d="M0.0225269 160.328C-0.107051 162.233 0.330626 164.133 1.28022 165.789C2.22981 167.445 3.64868 168.782 5.35742 169.63C7.06615 170.479 8.98803 170.802 10.8801 170.558C12.7721 170.314 14.5493 169.514 15.9869 168.259C17.4246 167.004 18.4582 165.351 18.957 163.508C19.4558 161.665 19.3974 159.716 18.7892 157.906C18.1811 156.097 17.0504 154.508 15.5403 153.342C14.0301 152.175 12.2082 151.483 10.305 151.353C7.753 151.182 5.23748 152.031 3.30996 153.713C1.38244 155.396 0.200232 157.775 0.0225269 160.328ZM3.71608 160.58C3.79703 159.406 4.22418 158.282 4.94353 157.35C5.66288 156.418 6.64212 155.721 7.75744 155.346C8.87275 154.972 10.0741 154.936 11.2095 155.245C12.3448 155.553 13.3633 156.192 14.1362 157.079C14.909 157.967 15.4014 159.064 15.5512 160.232C15.701 161.4 15.5015 162.586 14.9777 163.64C14.454 164.695 13.6297 165.57 12.609 166.155C11.5882 166.741 10.417 167.01 9.24323 166.929C7.66928 166.82 6.20302 166.09 5.16664 164.9C4.13025 163.709 3.60852 162.156 3.71608 160.58Z" fill="#CEECFA"/>
<path d="M102.384 71.5206C102.254 73.4262 102.691 75.3276 103.64 76.9845C104.59 78.6414 106.009 79.9793 107.718 80.8291C109.428 81.6788 111.35 82.0022 113.243 81.7583C115.136 81.5145 116.915 80.7144 118.353 79.4591C119.792 78.2039 120.826 76.5499 121.325 74.7064C121.825 72.8629 121.766 70.9126 121.158 69.1021C120.55 67.2917 119.419 65.7024 117.908 64.5353C116.397 63.3682 114.574 62.6757 112.67 62.5453C110.118 62.3755 107.603 63.2246 105.675 64.9068C103.747 66.589 102.564 68.9672 102.384 71.5206ZM106.081 71.7768C106.162 70.602 106.588 69.4773 107.307 68.5451C108.026 67.6129 109.005 66.915 110.12 66.5397C111.236 66.1644 112.437 66.1286 113.573 66.4367C114.708 66.7448 115.727 67.383 116.501 68.2706C117.274 69.1583 117.767 70.2555 117.917 71.4234C118.067 72.5914 117.867 73.7776 117.344 74.8322C116.82 75.8867 115.996 76.7621 114.975 77.3477C113.954 77.9333 112.782 78.2028 111.608 78.1221C110.828 78.069 110.065 77.8622 109.364 77.5136C108.664 77.1649 108.039 76.6813 107.525 76.0904C107.012 75.4995 106.62 74.8129 106.372 74.0701C106.124 73.3273 106.025 72.5428 106.081 71.7617V71.7768Z" fill="#CEECFA"/>
<path d="M291.011 61.1774H286.275V56.4486C286.253 55.9719 286.049 55.5218 285.704 55.1921C285.359 54.8624 284.901 54.6783 284.424 54.6783C283.947 54.6783 283.489 54.8624 283.144 55.1921C282.799 55.5218 282.595 55.9719 282.574 56.4486V61.1774H277.833C277.343 61.1774 276.873 61.3724 276.526 61.7193C276.179 62.0663 275.985 62.5368 275.985 63.0275C275.985 63.5182 276.179 63.9888 276.526 64.3357C276.873 64.6827 277.343 64.8776 277.833 64.8776H282.574V69.6365C282.562 69.8868 282.602 70.1367 282.69 70.3712C282.778 70.6058 282.912 70.82 283.085 71.0011C283.258 71.1822 283.466 71.3263 283.696 71.4247C283.926 71.5232 284.174 71.5739 284.424 71.5739C284.674 71.5739 284.922 71.5232 285.152 71.4247C285.382 71.3263 285.59 71.1822 285.763 71.0011C285.936 70.82 286.071 70.6058 286.158 70.3712C286.246 70.1367 286.286 69.8868 286.275 69.6365V64.8776H291.011C291.501 64.8776 291.972 64.6827 292.318 64.3357C292.665 63.9888 292.86 63.5182 292.86 63.0275C292.86 62.5368 292.665 62.0663 292.318 61.7193C291.972 61.3724 291.501 61.1774 291.011 61.1774Z" fill="#CEECFA"/>
<path d="M391.336 303.767C391.086 303.756 390.836 303.795 390.601 303.883C390.367 303.971 390.153 304.106 389.972 304.279C389.791 304.452 389.647 304.66 389.549 304.89C389.45 305.121 389.4 305.369 389.4 305.619C389.4 305.87 389.45 306.117 389.549 306.348C389.647 306.578 389.791 306.786 389.972 306.959C390.153 307.132 390.367 307.267 390.601 307.355C390.836 307.443 391.086 307.482 391.336 307.471H409.833C410.083 307.482 410.333 307.443 410.568 307.355C410.802 307.267 411.016 307.132 411.197 306.959C411.378 306.786 411.522 306.578 411.62 306.348C411.719 306.117 411.769 305.87 411.769 305.619C411.769 305.369 411.719 305.121 411.62 304.89C411.522 304.66 411.378 304.452 411.197 304.279C411.016 304.106 410.802 303.971 410.568 303.883C410.333 303.795 410.083 303.756 409.833 303.767H391.336Z" fill="#CEECFA"/>
<path d="M417.763 303.767C417.513 303.756 417.263 303.795 417.029 303.883C416.794 303.971 416.58 304.106 416.399 304.279C416.218 304.452 416.074 304.66 415.976 304.89C415.877 305.121 415.827 305.369 415.827 305.619C415.827 305.87 415.877 306.117 415.976 306.348C416.074 306.578 416.218 306.786 416.399 306.959C416.58 307.132 416.794 307.267 417.029 307.355C417.263 307.443 417.513 307.482 417.763 307.471H421.151C421.628 307.45 422.077 307.245 422.407 306.9C422.736 306.555 422.92 306.096 422.92 305.619C422.92 305.142 422.736 304.683 422.407 304.338C422.077 303.993 421.628 303.789 421.151 303.767H417.763Z" fill="#CEECFA"/>
<path d="M205.148 40.9999C204.898 40.9886 204.649 41.0282 204.414 41.1162C204.18 41.2041 203.966 41.3387 203.785 41.5118C203.604 41.6849 203.46 41.8929 203.361 42.1232C203.263 42.3535 203.212 42.6014 203.212 42.8519C203.212 43.1024 203.263 43.3503 203.361 43.5806C203.46 43.8109 203.604 44.0189 203.785 44.192C203.966 44.3651 204.18 44.4996 204.414 44.5876C204.649 44.6756 204.898 44.7151 205.148 44.7038H223.646C223.896 44.7151 224.146 44.6756 224.38 44.5876C224.615 44.4996 224.829 44.3651 225.01 44.192C225.191 44.0189 225.335 43.8109 225.433 43.5806C225.531 43.3503 225.582 43.1024 225.582 42.8519C225.582 42.6014 225.531 42.3535 225.433 42.1232C225.335 41.8929 225.191 41.6849 225.01 41.5118C224.829 41.3387 224.615 41.2041 224.38 41.1162C224.146 41.0282 223.896 40.9886 223.646 40.9999H205.148Z" fill="#CEECFA"/>
<path d="M231.579 40.9999C231.329 40.9886 231.079 41.0282 230.845 41.1162C230.611 41.2041 230.397 41.3387 230.216 41.5118C230.035 41.6849 229.891 41.8929 229.792 42.1232C229.694 42.3535 229.643 42.6014 229.643 42.8519C229.643 43.1024 229.694 43.3503 229.792 43.5806C229.891 43.8109 230.035 44.0189 230.216 44.192C230.397 44.3651 230.611 44.4996 230.845 44.5876C231.079 44.6756 231.329 44.7151 231.579 44.7038H234.968C235.218 44.7151 235.468 44.6756 235.702 44.5876C235.936 44.4996 236.15 44.3651 236.331 44.192C236.512 44.0189 236.656 43.8109 236.755 43.5806C236.853 43.3503 236.904 43.1024 236.904 42.8519C236.904 42.6014 236.853 42.3535 236.755 42.1232C236.656 41.8929 236.512 41.6849 236.331 41.5118C236.15 41.3387 235.936 41.2041 235.702 41.1162C235.468 41.0282 235.218 40.9886 234.968 40.9999H231.579Z" fill="#CEECFA"/>
<path d="M344.652 400.506C343.372 398.524 345.782 396.859 342.883 393.724C341.045 391.708 337.382 391.972 335.831 389.345C332.962 384.417 328.677 384.982 328.677 384.982C328.677 384.982 324.404 384.417 321.523 389.345C319.972 391.983 317.807 391.568 315.951 393.584C313.071 396.742 315.631 398.788 314.34 400.781C313.048 402.774 310.288 402.111 310.288 405.736H347.066C347.07 402.119 345.932 402.537 344.652 400.506Z" fill="#78C7C7"/>
<path d="M319.596 394.217C316.772 389.824 322.073 386.192 315.714 379.277C311.651 374.85 303.617 375.487 300.198 369.624C293.842 358.795 284.43 360.019 284.43 360.019C284.43 360.019 275.017 358.795 268.662 369.624C265.232 375.487 260.503 374.545 256.44 378.972C250.096 385.898 255.721 390.416 252.901 394.847C250.081 399.278 243.978 397.771 243.978 405.74H324.893C324.893 397.771 322.423 398.656 319.596 394.217Z" fill="#78C7C7"/>
<path d="M281.779 397.548C279.757 394.394 283.519 391.825 279.016 386.873C276.105 383.735 270.393 384.179 267.931 380.001C263.413 372.303 256.719 373.188 256.719 373.188C256.719 373.188 250.002 372.303 245.484 380.001C243.029 384.179 239.659 383.512 236.779 386.674C232.261 391.599 236.278 394.809 234.256 397.978C232.234 401.147 227.893 400.069 227.893 405.747H285.537C285.537 400.065 283.778 400.698 281.779 397.548Z" fill="#9CC426"/>
<path d="M328.161 401.878C327.197 400.404 329.001 399.165 326.84 396.859C325.48 395.351 322.785 395.57 321.625 393.622C319.494 389.96 316.316 390.366 316.316 390.366C316.316 390.366 313.165 389.96 311.023 393.622C309.893 395.57 308.293 395.254 306.904 396.749C304.769 399.074 306.674 400.608 305.721 402.074C304.769 403.539 302.709 403.068 302.709 405.744H329.931C329.942 403.068 329.11 403.381 328.161 401.878Z" fill="#52C7A3"/>
<path d="M161.454 400.506C160.171 398.524 162.584 396.859 159.685 393.724C157.851 391.708 154.184 391.972 152.637 389.345C149.756 384.417 145.483 384.982 145.483 384.982C145.483 384.982 141.21 384.417 138.329 389.345C136.778 391.983 134.613 391.568 132.761 393.584C129.884 396.742 132.437 398.788 131.153 400.781C129.869 402.774 127.094 402.111 127.094 405.736H163.879C163.875 402.119 162.735 402.537 161.454 400.506Z" fill="#7EB907"/>
<path d="M136.394 394.217C133.574 389.824 138.879 386.192 132.512 379.277C128.446 374.85 120.415 375.487 116.996 369.624C110.641 358.795 101.236 360.019 101.236 360.019C101.236 360.019 91.8228 358.795 85.4636 369.624C82.0336 375.487 77.3009 374.545 73.2421 378.972C66.898 385.898 72.5268 390.416 69.703 394.847C66.8792 399.278 60.7646 397.771 60.7646 405.744H141.714C141.695 397.771 139.225 398.656 136.394 394.217Z" fill="#78C7C7"/>
<path d="M98.5813 397.548C96.5594 394.394 100.317 391.825 95.8139 386.873C92.9073 383.735 87.1919 384.179 84.7333 380.001C80.2152 372.303 73.5208 373.188 73.5208 373.188C73.5208 373.188 66.8077 372.303 62.2896 380.001C59.8385 384.179 56.4763 383.509 53.5885 386.674C49.0515 391.599 53.0802 394.809 51.0621 397.978C49.044 401.147 44.6991 400.069 44.6991 405.747H102.339C102.339 400.065 100.581 400.698 98.5813 397.548Z" fill="#52C7A3"/>
<path d="M144.956 401.878C143.992 400.404 145.803 399.165 143.634 396.859C142.279 395.351 139.572 395.57 138.42 393.622C136.285 389.96 133.107 390.366 133.107 390.366C133.107 390.366 129.963 389.96 127.817 393.622C126.688 395.57 125.084 395.254 123.698 396.749C121.563 399.074 123.468 400.608 122.52 402.074C121.571 403.539 119.508 403.068 119.508 405.744H146.733C146.744 403.068 145.912 403.381 144.956 401.878Z" fill="#52C7A3"/>
<path d="M131.017 406.098L301.647 406.004L301.523 115.406L130.897 115.489L131.017 406.098Z" fill="white"/>
<path style="mix-blend-mode:screen" opacity="0.6" d="M231.444 77.4438C231.444 77.6876 231.396 77.929 231.302 78.1542C231.209 78.3793 231.072 78.5838 230.9 78.756C230.727 78.9282 230.523 79.0647 230.298 79.1577C230.072 79.2506 229.831 79.2982 229.588 79.2977H196.428C195.937 79.2977 195.466 79.1024 195.119 78.7547C194.771 78.407 194.576 77.9355 194.576 77.4438V76.9804C194.575 76.7367 194.622 76.4951 194.715 76.2698C194.808 76.0444 194.944 75.8396 195.116 75.6673C195.289 75.495 195.493 75.3584 195.718 75.2656C195.944 75.1728 196.185 75.1255 196.428 75.1265H229.588C229.831 75.1255 230.073 75.1728 230.298 75.2656C230.524 75.3583 230.728 75.4948 230.901 75.6671C231.073 75.8394 231.21 76.0441 231.303 76.2695C231.396 76.4949 231.444 76.7365 231.444 76.9804V77.4438Z" fill="url(#paint0_linear_245_2044)"/>
<path opacity="0.4" d="M277.796 376.549C277.796 377.525 277.122 378.313 276.29 378.313H153.872C153.043 378.313 152.365 377.525 152.365 376.549C152.365 375.573 153.043 374.786 153.872 374.786H276.29C277.122 374.786 277.796 375.573 277.796 376.549Z" fill="#CEECFA"/>
<path d="M288.232 322.618C288.232 323.594 287.555 324.382 286.726 324.382H246.199C245.367 324.382 244.693 323.594 244.693 322.618C244.693 321.646 245.371 320.859 246.199 320.859H286.723C287.555 320.859 288.229 321.646 288.229 322.618H288.232Z" fill="#CEECFA"/>
<path d="M288.232 331.888C288.232 332.863 287.555 333.651 286.726 333.651H246.199C245.367 333.651 244.693 332.863 244.693 331.888C244.693 330.915 245.371 330.128 246.199 330.128H286.723C287.555 330.128 288.229 330.915 288.229 331.888H288.232Z" fill="#CEECFA"/>
<path d="M288.232 342.167C288.232 343.142 287.555 343.93 286.726 343.93H246.199C245.367 343.93 244.693 343.142 244.693 342.167C244.693 341.191 245.371 340.403 246.199 340.403H286.723C287.555 340.403 288.229 341.191 288.229 342.167H288.232Z" fill="#CEECFA"/>
<g style="mix-blend-mode:screen" opacity="0.4">
<path d="M288.232 351.432C288.232 352.408 287.555 353.196 286.726 353.196H246.199C245.367 353.196 244.693 352.408 244.693 351.432C244.693 350.456 245.371 349.669 246.199 349.669H286.723C287.555 349.669 288.229 350.456 288.229 351.432H288.232Z" fill="white"/>
</g>
<g style="mix-blend-mode:multiply" opacity="0.2">
<path d="M189.836 153.191C189.836 154.163 189.158 154.951 188.33 154.951H147.802C146.97 154.951 146.296 154.163 146.296 153.191C146.296 152.215 146.97 151.428 147.802 151.428H188.33C189.158 151.428 189.836 152.215 189.836 153.191Z" fill="#16A1E7"/>
</g>
<g style="mix-blend-mode:multiply" opacity="0.2">
<path d="M189.836 171.119C189.836 172.095 189.158 172.883 188.33 172.883H147.802C146.97 172.883 146.296 172.095 146.296 171.119C146.296 170.147 146.97 169.36 147.802 169.36H188.33C189.158 169.36 189.836 170.147 189.836 171.119Z" fill="#16A1E7"/>
</g>
<g style="mix-blend-mode:multiply" opacity="0.2">
<path d="M189.836 188.938C189.836 189.914 189.158 190.702 188.33 190.702H147.802C146.97 190.702 146.296 189.914 146.296 188.938C146.296 187.962 146.97 187.175 147.802 187.175H188.33C189.158 187.175 189.836 187.962 189.836 188.938Z" fill="#16A1E7"/>
</g>
<g style="mix-blend-mode:multiply" opacity="0.2">
<path d="M189.836 208.754C189.836 209.726 189.158 210.514 188.33 210.514H147.802C146.97 210.514 146.296 209.726 146.296 208.754C146.296 207.778 146.97 206.99 147.802 206.99H188.33C189.158 206.99 189.836 207.778 189.836 208.754Z" fill="#16A1E7"/>
</g>
<g style="mix-blend-mode:multiply">
<path d="M153.103 319.936H144.109V357.981H153.103V319.936Z" fill="#A8E8FF"/>
</g>
<g style="mix-blend-mode:multiply">
<path d="M165.75 292.87H156.756V357.977H165.75V292.87Z" fill="#D4EFFB"/>
</g>
<g style="mix-blend-mode:multiply">
<path d="M183.45 274.501H174.455V357.977H183.45V274.501Z" fill="#A8E8FF"/>
</g>
<g style="mix-blend-mode:multiply">
<path d="M196.089 300.199H187.095V357.977H196.089V300.199Z" fill="#D4EFFB"/>
</g>
<g style="mix-blend-mode:multiply">
<path d="M213.8 304.035H204.806V357.977H213.8V304.035Z" fill="#A8E8FF"/>
</g>
<g style="mix-blend-mode:multiply">
<path d="M226.44 286.404H217.445V357.977H226.44V286.404Z" fill="#D4EFFB"/>
</g>
<path d="M45.068 147.091C45.0643 153.993 47.1061 160.742 50.9352 166.483C54.7644 172.224 60.2088 176.699 66.5798 179.343C72.9509 181.987 79.9624 182.681 86.7274 181.337C93.4925 179.993 99.7072 176.671 104.586 171.791C109.464 166.912 112.787 160.694 114.134 153.925C115.48 147.155 114.791 140.138 112.153 133.76C109.514 127.383 105.045 121.932 99.3103 118.097C93.5758 114.262 86.8336 112.215 79.9365 112.215C70.6951 112.225 61.8348 115.902 55.2984 122.44C48.762 128.977 45.0829 137.843 45.068 147.091ZM50.5387 147.091C50.5394 141.272 52.2642 135.585 55.4949 130.747C58.7256 125.909 63.3172 122.139 68.689 119.913C74.0608 117.687 79.9716 117.105 85.674 118.24C91.3764 119.376 96.6142 122.178 100.725 126.293C104.836 130.407 107.636 135.65 108.77 141.357C109.904 147.063 109.321 152.979 107.096 158.354C104.871 163.73 101.103 168.325 96.2686 171.557C91.4343 174.79 85.7506 176.515 79.9365 176.515C72.1415 176.507 64.6681 173.404 59.1566 167.888C53.645 162.372 50.5456 154.892 50.5387 147.091Z" fill="#E6E6E6"/>
<path d="M79.9366 125.026C75.5777 125.025 71.3166 126.318 67.692 128.741C64.0675 131.164 61.2424 134.608 59.574 138.638C57.9056 142.668 57.4688 147.103 58.319 151.381C59.1692 155.66 61.2681 159.59 64.3503 162.674C67.4324 165.759 71.3594 167.859 75.6345 168.71C79.9096 169.561 84.3409 169.124 88.3678 167.454C92.3946 165.785 95.8363 162.957 98.2575 159.33C100.679 155.703 101.971 151.438 101.97 147.076C101.964 141.23 99.6406 135.625 95.5098 131.491C91.3791 127.357 85.7783 125.032 79.9366 125.026Z" fill="#0C557A"/>
<path d="M79.9365 119.035C85.8814 119.043 91.6695 120.944 96.4621 124.465C101.255 127.985 104.803 132.941 106.593 138.614C108.383 144.287 108.322 150.384 106.418 156.02C104.515 161.656 100.868 166.54 96.0053 169.963C91.143 173.386 85.3179 175.171 79.374 175.059C73.4301 174.948 67.6761 172.946 62.9454 169.342C58.2147 165.739 54.7531 160.722 53.062 155.019C51.3709 149.315 51.5381 143.221 53.5395 137.618C53.7301 137.109 53.8177 136.567 53.7972 136.024C53.7767 135.48 53.6484 134.946 53.42 134.453C53.1915 133.96 52.8673 133.517 52.4662 133.15C52.0651 132.783 51.5952 132.5 51.0838 132.316C50.5723 132.133 50.0295 132.053 49.4869 132.081C48.9442 132.109 48.4127 132.245 47.923 132.481C47.4333 132.716 46.9953 133.047 46.6345 133.454C46.2736 133.86 45.9971 134.334 45.8211 134.849C43.2203 142.103 42.9958 149.997 45.1801 157.387C47.3644 164.777 51.8439 171.278 57.9691 175.949C64.0943 180.619 71.5468 183.216 79.2461 183.363C86.9453 183.509 94.4909 181.197 100.789 176.763C107.087 172.328 111.81 166.002 114.273 158.7C116.736 151.398 116.811 143.501 114.488 136.154C112.164 128.807 107.562 122.391 101.35 117.837C95.1374 113.284 87.6371 110.828 79.9365 110.828C78.8491 110.828 77.8062 111.26 77.0372 112.03C76.2683 112.799 75.8363 113.843 75.8363 114.931C75.8363 116.02 76.2683 117.063 77.0372 117.833C77.8062 118.602 78.8491 119.035 79.9365 119.035Z" fill="#16A1E7"/>
<path d="M76.0133 144.638C76.0187 144.987 75.9218 145.331 75.7347 145.625C75.547 145.915 75.2876 146.151 74.9817 146.311C75.3383 146.479 75.6437 146.739 75.8665 147.065C76.086 147.389 76.1992 147.773 76.1903 148.165C76.1979 148.494 76.1323 148.821 75.9982 149.122C75.8733 149.389 75.6892 149.623 75.4598 149.808C75.2189 150.002 74.9409 150.144 74.6428 150.226C73.9714 150.412 73.2622 150.412 72.5908 150.226C72.2914 150.144 72.012 150.002 71.7701 149.808C71.5395 149.623 71.3541 149.389 71.2279 149.122C71.0895 148.822 71.0212 148.495 71.0283 148.165C71.0219 147.772 71.1363 147.387 71.3559 147.061C71.5777 146.742 71.8806 146.489 72.2332 146.326C71.9269 146.167 71.6674 145.931 71.4801 145.64C71.2957 145.345 71.2003 145.002 71.2053 144.653C71.1988 144.338 71.2605 144.026 71.386 143.738C71.5006 143.479 71.6717 143.25 71.8868 143.067C72.1086 142.882 72.3644 142.743 72.6398 142.656C72.9557 142.56 73.2847 142.513 73.6149 142.517C73.944 142.512 74.2717 142.56 74.5863 142.656C74.8612 142.744 75.1168 142.883 75.3393 143.067C75.5531 143.251 75.724 143.48 75.8401 143.738C75.9587 144.023 76.0176 144.329 76.0133 144.638ZM74.6541 148.029C74.6555 147.874 74.63 147.72 74.5788 147.573C74.53 147.445 74.4571 147.328 74.3642 147.227C74.2696 147.131 74.1552 147.058 74.0291 147.012C73.8899 146.958 73.7416 146.931 73.5924 146.933C73.443 146.93 73.2945 146.957 73.1556 147.012C73.0306 147.058 72.9175 147.131 72.8243 147.227C72.7289 147.326 72.6546 147.444 72.6059 147.573C72.556 147.72 72.5318 147.874 72.5344 148.029C72.5315 148.184 72.5557 148.339 72.6059 148.485C72.6547 148.613 72.729 148.73 72.8243 148.828C72.9173 148.925 73.0321 148.999 73.1594 149.043C73.3008 149.093 73.4499 149.117 73.5999 149.114C73.7419 149.123 73.8841 149.102 74.0176 149.052C74.1511 149.003 74.2729 148.927 74.3755 148.828C74.5689 148.613 74.6691 148.33 74.6541 148.041V148.029ZM74.496 144.698C74.5099 144.439 74.4267 144.184 74.2625 143.982C74.1783 143.891 74.0748 143.82 73.9595 143.773C73.8442 143.727 73.7201 143.707 73.5961 143.715C73.4735 143.708 73.3508 143.728 73.2365 143.773C73.1221 143.818 73.0188 143.887 72.9335 143.975C72.7672 144.178 72.6838 144.436 72.7 144.698C72.6857 144.964 72.7687 145.225 72.9335 145.433C73.0206 145.521 73.1244 145.591 73.2388 145.639C73.3532 145.687 73.4759 145.711 73.5999 145.711C73.7238 145.711 73.8466 145.687 73.9609 145.639C74.0753 145.591 74.1791 145.521 74.2663 145.433C74.4256 145.227 74.5069 144.97 74.496 144.71V144.698Z" fill="white"/>
<path d="M82.173 144.638C82.1797 144.987 82.0842 145.33 81.8982 145.625C81.7096 145.914 81.4504 146.15 81.1451 146.311C81.5014 146.478 81.8058 146.739 82.0262 147.065C82.2457 147.389 82.3589 147.773 82.35 148.165C82.3594 148.494 82.2937 148.822 82.1579 149.122C82.0331 149.388 81.8504 149.622 81.6233 149.808C81.3818 150.001 81.1039 150.143 80.8063 150.226C80.1349 150.412 79.4257 150.412 78.7543 150.226C78.454 150.144 78.1735 150.002 77.9297 149.808C77.7014 149.622 77.5175 149.388 77.3913 149.122C77.2529 148.822 77.1847 148.495 77.1918 148.165C77.1831 147.772 77.2977 147.386 77.5193 147.061C77.7407 146.743 78.0421 146.49 78.3929 146.326C78.0881 146.165 77.829 145.929 77.6398 145.64C77.4583 145.343 77.3643 145.001 77.3687 144.653C77.3623 144.339 77.4239 144.026 77.5495 143.738C77.664 143.479 77.8352 143.25 78.0502 143.067C78.2715 142.881 78.5275 142.742 78.8032 142.656C79.4388 142.47 80.1142 142.47 80.7498 142.656C81.0247 142.744 81.2803 142.883 81.5028 143.067C81.7154 143.251 81.8851 143.48 81.9998 143.738C82.1206 144.022 82.1797 144.329 82.173 144.638ZM80.8176 148.029C80.8196 147.874 80.7928 147.719 80.7385 147.573C80.6924 147.445 80.6207 147.327 80.5277 147.227C80.4324 147.132 80.3182 147.059 80.1926 147.012C80.0534 146.958 79.9051 146.931 79.7558 146.933C79.6064 146.93 79.458 146.957 79.3191 147.012C79.1936 147.057 79.0803 147.131 78.9877 147.227C78.8911 147.325 78.8166 147.444 78.7694 147.573C78.7164 147.719 78.6908 147.874 78.6941 148.029C78.6905 148.185 78.716 148.339 78.7694 148.485C78.8167 148.614 78.8911 148.731 78.9877 148.828C79.0793 148.925 79.1929 148.999 79.3191 149.043C79.4618 149.093 79.6122 149.117 79.7633 149.114C79.9054 149.123 80.0476 149.102 80.1811 149.052C80.3145 149.003 80.4364 148.927 80.539 148.828C80.7324 148.613 80.8326 148.33 80.8176 148.041V148.029ZM80.6594 144.698C80.6719 144.439 80.5874 144.183 80.4222 143.983C80.3387 143.891 80.2359 143.82 80.1212 143.774C80.0065 143.727 79.883 143.707 79.7596 143.715C79.6369 143.708 79.5141 143.727 79.3996 143.772C79.2852 143.817 79.1819 143.886 79.0969 143.975C78.9293 144.177 78.8446 144.436 78.8597 144.698C78.8465 144.964 78.9308 145.225 79.0969 145.433C79.1835 145.522 79.2869 145.592 79.401 145.64C79.5151 145.688 79.6377 145.713 79.7615 145.713C79.8852 145.713 80.0078 145.688 80.1219 145.64C80.236 145.592 80.3394 145.522 80.426 145.433C80.5866 145.227 80.6693 144.971 80.6594 144.71V144.698Z" fill="white"/>
<path d="M83.3401 144.073C83.3396 143.865 83.3766 143.658 83.4493 143.462C83.5192 143.277 83.6269 143.107 83.7655 142.965C83.9109 142.815 84.0869 142.698 84.2814 142.622C84.5083 142.535 84.75 142.493 84.993 142.498C85.2396 142.493 85.4849 142.535 85.7159 142.622C85.9104 142.698 86.0863 142.815 86.2317 142.965C86.3729 143.105 86.4809 143.275 86.5479 143.462C86.6206 143.658 86.6576 143.865 86.6571 144.073V144.48C86.6577 144.687 86.6207 144.893 86.5479 145.086C86.4827 145.275 86.3744 145.445 86.2317 145.584C86.0855 145.73 85.9113 145.845 85.7196 145.923C85.2571 146.089 84.7514 146.089 84.2889 145.923C84.0927 145.848 83.9144 145.732 83.7655 145.584C83.6253 145.443 83.5174 145.273 83.4493 145.086C83.3766 144.893 83.3396 144.687 83.3401 144.48V144.073ZM84.3454 144.48C84.3454 144.568 84.3594 144.656 84.3868 144.74C84.4254 144.871 84.5069 144.985 84.6182 145.065C84.7294 145.144 84.8641 145.183 85.0005 145.177C85.0977 145.18 85.1944 145.161 85.2829 145.12C85.3616 145.085 85.4312 145.032 85.4862 144.966C85.5404 144.9 85.5802 144.823 85.6029 144.74C85.6291 144.656 85.6418 144.568 85.6406 144.48V144.073C85.6407 143.984 85.628 143.895 85.6029 143.809C85.5801 143.728 85.5404 143.652 85.4862 143.587C85.4333 143.518 85.3631 143.465 85.2829 143.432C85.1924 143.39 85.093 143.369 84.993 143.372C84.8953 143.369 84.7984 143.39 84.7106 143.432C84.631 143.466 84.561 143.519 84.5073 143.587C84.4533 143.653 84.4124 143.728 84.3868 143.809C84.3605 143.895 84.3465 143.983 84.3454 144.073V144.48ZM85.3017 149.676L84.5487 149.273L88.2724 143.304L89.0254 143.704L85.3017 149.676ZM86.9922 148.372C86.9904 148.165 87.0261 147.96 87.0977 147.766C87.1656 147.576 87.2749 147.403 87.4177 147.261C87.5677 147.115 87.744 147 87.9373 146.921C88.1635 146.836 88.4035 146.794 88.6451 146.797C88.8904 146.794 89.1342 146.836 89.3642 146.921C89.5595 146.998 89.7375 147.114 89.8876 147.261C90.0292 147.403 90.1372 147.576 90.2039 147.766C90.2741 147.96 90.3085 148.165 90.3055 148.372V148.764C90.3089 148.973 90.2744 149.181 90.2039 149.378C90.1312 149.568 90.0196 149.74 89.8763 149.883C89.7329 150.027 89.561 150.138 89.3718 150.211C88.9105 150.377 88.4061 150.377 87.9448 150.211C87.7455 150.14 87.5652 150.024 87.4177 149.872C87.2776 149.732 87.1685 149.563 87.0977 149.378C87.0259 149.182 86.9902 148.973 86.9922 148.764V148.372ZM87.9975 148.779C87.9967 148.869 88.012 148.958 88.0427 149.043C88.0728 149.125 88.1189 149.201 88.1782 149.265C88.2334 149.333 88.3046 149.386 88.3853 149.42C88.4695 149.461 88.5625 149.482 88.6564 149.48C88.7638 149.484 88.8707 149.463 88.9689 149.42C89.0475 149.386 89.1162 149.333 89.1685 149.265C89.2159 149.199 89.2492 149.123 89.2663 149.043C89.2863 148.956 89.2964 148.868 89.2965 148.779V148.387C89.298 148.299 89.284 148.211 89.255 148.127C89.2307 148.045 89.1911 147.968 89.1383 147.901C89.0397 147.8 88.9128 147.731 88.7744 147.704C88.636 147.676 88.4925 147.691 88.3627 147.747C88.2836 147.783 88.2131 147.836 88.1556 147.901C88.1016 147.968 88.0608 148.045 88.0352 148.127C88.0092 148.211 87.9965 148.299 87.9975 148.387V148.779Z" fill="white"/>
<path d="M328.948 72.1611C328.949 80.0865 331.992 87.7085 337.45 93.4514C342.907 99.1943 350.361 102.619 358.27 103.017V96.8338C351.953 96.5023 346.004 93.7575 341.65 89.1654C337.296 84.5733 334.869 78.4842 334.869 72.1536C334.869 65.8231 337.296 59.7339 341.65 55.1418C346.004 50.5497 351.953 47.8049 358.27 47.4734V41.3127C350.363 41.7109 342.91 45.1344 337.452 50.8757C331.995 56.617 328.951 64.2371 328.948 72.1611Z" fill="#16A1E7"/>
<path d="M380.055 48.7808C374.737 44.1785 368.005 41.5353 360.978 41.2901V47.4394C366.368 47.6846 371.529 49.6986 375.662 53.1705L380.055 48.7808Z" fill="#CEECFA"/>
<path d="M382.028 50.646L377.702 54.9716C381.02 58.3977 383.277 62.7112 384.201 67.3921C385.124 72.0729 384.675 76.9211 382.907 81.3521C381.139 85.7832 378.128 89.6078 374.237 92.3648C370.346 95.1218 365.741 96.6935 360.978 96.8903V103.04C366.943 102.822 372.716 100.879 377.601 97.4452C382.485 94.0116 386.269 89.2347 388.497 83.6929C390.724 78.1511 391.299 72.0819 390.151 66.2201C389.003 60.3583 386.181 54.9552 382.028 50.6648V50.646Z" fill="#0C557A"/>
<path d="M10.8358 397.88L9.46533 403.905H14.8532L16.2914 397.56L10.8358 397.88Z" fill="#FFB38B"/>
<path d="M9.82305 401.874C9.35662 402.221 8.98253 402.677 8.73371 403.203C8.48488 403.729 8.36894 404.307 8.39608 404.888V409.252H30.034C30.034 409.252 30.4105 406.678 27.4587 406.678C24.5069 406.678 19.2734 404.609 18.2983 403.626C17.0558 402.36 16.1597 401.874 15.2109 401.874H9.82305Z" fill="#2A1D18"/>
<path d="M47.2217 395.909L47.6735 401.938H53.0651L52.5907 395.589L47.2217 395.909Z" fill="#FFB38B"/>
<path d="M47.0635 399.915C47.0635 399.915 45.629 400.785 45.629 402.929V407.292H67.2745C67.2745 407.292 67.651 404.711 64.6954 404.711C61.7398 404.711 56.5177 402.643 55.5463 401.659C54.2963 400.386 53.4039 399.911 52.4476 399.911L47.0635 399.915Z" fill="#2A1D18"/>
<path d="M57.6057 289.121L55.2224 396.384C55.2224 396.384 49.5748 397.477 45.8474 396.384C42.7111 380.038 42.3007 344.1 37.8052 320.403C33.3096 296.706 30.0491 291.811 30.0491 281.193C30.0491 270.575 57.6057 289.121 57.6057 289.121Z" fill="#0C557A"/>
<path d="M49.3527 286.596C49.3527 286.596 30.6139 354.703 26.2577 366.689C21.9015 378.674 17.6959 398.958 17.6959 398.958C17.6959 398.958 13.2004 399.899 8.90442 398.475C8.90442 398.475 16.1221 342.227 18.2945 329.144C20.467 316.062 21.3066 287.474 24.0137 282.045C26.7208 276.615 49.3527 286.596 49.3527 286.596Z" fill="#194866"/>
<path d="M49.3527 286.596C49.3527 286.596 30.6139 354.703 26.2577 366.689C21.9015 378.674 17.6959 398.958 17.6959 398.958C17.6959 398.958 13.2004 399.899 8.90442 398.475C8.90442 398.475 16.1221 342.227 18.2945 329.144C20.467 316.062 21.3066 287.474 24.0137 282.045C26.7208 276.615 49.3527 286.596 49.3527 286.596Z" fill="#3B3687"/>
<path d="M49.3527 286.596C49.3527 286.596 30.6139 354.703 26.2577 366.689C21.9015 378.674 17.6959 398.958 17.6959 398.958C17.6959 398.958 13.2004 399.899 8.90442 398.475C8.90442 398.475 16.1221 342.227 18.2945 329.144C20.467 316.062 21.3066 287.474 24.0137 282.045C26.7208 276.615 49.3527 286.596 49.3527 286.596Z" fill="#0D608A"/>
<path d="M51.0659 227.402C51.0659 227.402 60.264 223.69 64.8687 221.535C69.4734 219.38 78.1895 189.745 78.1895 189.745C78.1895 189.745 82.0789 189.142 84.6994 191.783C84.6994 191.783 78.0013 224.041 70.3243 232.959C62.6473 241.878 38.1554 254.934 34.1305 252.319C30.1056 249.704 51.0659 227.402 51.0659 227.402Z" fill="#108FE0"/>
<path d="M46.2051 224.877C46.2051 224.877 53.8934 232.534 56.7172 252.632C59.3716 271.528 59.7707 299.943 59.7707 299.943C59.7707 299.943 42.5266 311.951 20.3766 302.204C23.2155 273.567 20.5837 251.377 21.4158 238.525C22.2478 225.672 36.8978 224.463 46.2051 224.877Z" fill="#16A1E7"/>
<path d="M22.8465 218.973H22.967C22.3268 218.461 21.7748 217.847 21.3329 217.157C19.2923 214.104 21.6153 213.057 23.6598 214.786C24.6922 215.712 25.5805 216.786 26.2953 217.974C27.1801 219.602 27.0069 217.511 25.6515 214.997C24.2961 212.484 25.3503 208.739 27.3872 208.283C27.3872 208.283 26.2313 207.036 28.9836 205.502C31.7359 203.969 35.693 201.516 36.9355 202.823C36.9355 202.823 41.3481 210.144 41.4197 215.344C41.4912 220.544 42.4362 222.458 39.4694 223.713C38.2344 224.233 37.7035 229.662 33.1779 227.258C33.1779 227.258 31.2652 233.822 25.595 220.476L22.8465 218.973Z" fill="#FFB38B"/>
<g style="mix-blend-mode:multiply" opacity="0.4">
<g style="mix-blend-mode:multiply" opacity="0.4">
<path d="M29.3677 222.594C34.6124 225.529 37.8956 224.79 39.6125 224.063C39.6597 224.044 39.7025 224.016 39.7385 223.98C39.7745 223.944 39.8029 223.901 39.8219 223.854C39.8409 223.807 39.8501 223.757 39.8491 223.706C39.848 223.655 39.8367 223.605 39.8158 223.558C39.7961 223.513 39.7677 223.471 39.732 223.437C39.6964 223.402 39.6542 223.375 39.608 223.357C39.5618 223.339 39.5125 223.33 39.4629 223.331C39.4132 223.332 39.3643 223.342 39.3188 223.362C39.1569 223.438 37.2066 225.68 29.3677 222.594Z" fill="#FFAD97"/>
</g>
</g>
<path d="M27.3797 208.298C25.3428 208.754 24.2998 212.492 25.644 215.013C26.9881 217.533 27.1726 219.617 26.2878 217.989C25.573 216.801 24.6846 215.727 23.6522 214.802C22.357 213.701 20.1808 214.259 21.1221 216.848C20.7079 216.588 11.186 211.422 16.9428 204.59C16.9428 204.59 16.0091 199.357 20.787 197.213C25.5649 195.069 30.4859 196.116 33.9648 195.012C38.9046 193.445 41.2841 198.403 36.7999 202.714C34.1423 205.291 30.9148 207.204 27.3797 208.298Z" fill="#041F2D"/>
<path d="M75.7536 181.854C76.1301 183.26 74.0781 185.046 71.1602 185.845C68.2422 186.643 65.5615 186.154 65.1699 184.744C64.7784 183.335 66.8454 181.553 69.7633 180.754C72.6813 179.955 75.3733 180.445 75.7536 181.854Z" fill="#FFB38B"/>
<path d="M92.0187 183.196C92.4178 184.741 90.1625 186.681 86.9584 187.525C83.7543 188.369 80.8364 187.804 80.4297 186.27C80.0231 184.737 82.3123 182.789 85.475 181.941C88.6376 181.093 91.6158 181.666 92.0187 183.196Z" fill="#FFB38B"/>
<path d="M315.861 241.403C315.85 242.196 315.528 242.952 314.964 243.508C314.4 244.065 313.64 244.376 312.849 244.376H182.23C181.438 244.376 180.679 244.065 180.115 243.508C179.551 242.952 179.229 242.196 179.218 241.403V112.859C179.231 112.068 179.554 111.314 180.117 110.759C180.681 110.204 181.44 109.894 182.23 109.894H312.837C313.628 109.894 314.387 110.204 314.95 110.759C315.514 111.314 315.837 112.068 315.849 112.859L315.861 241.403Z" fill="#1281B8"/>
<path d="M247.434 126.981C245.604 126.994 243.776 127.138 241.967 127.415L247.434 165.848H286.252C286.254 160.745 285.251 155.692 283.301 150.976C281.352 146.261 278.493 141.977 274.888 138.367C271.283 134.758 267.003 131.895 262.293 129.941C257.582 127.988 252.533 126.982 247.434 126.981Z" fill="white"/>
<path d="M237.554 132.185C230.188 133.238 223.28 136.388 217.653 141.259C212.026 146.131 207.917 152.52 205.816 159.663C203.715 166.806 203.711 174.404 205.803 181.549C207.896 188.695 211.998 195.088 217.619 199.966C223.241 204.845 230.145 208.003 237.51 209.064C244.875 210.125 252.389 209.045 259.157 205.952C265.926 202.859 271.663 197.884 275.685 191.619C279.707 185.355 281.845 178.065 281.843 170.618H243.017L237.554 132.185Z" fill="#A8E8FF"/>
<path d="M244.539 225.393C244.538 225.86 244.352 226.307 244.023 226.637C243.693 226.966 243.246 227.152 242.78 227.153H198.251C197.784 227.153 197.336 226.968 197.005 226.638C196.674 226.308 196.487 225.861 196.485 225.393C196.487 224.926 196.674 224.478 197.005 224.149C197.336 223.819 197.784 223.634 198.251 223.634H242.78C243.246 223.635 243.693 223.82 244.023 224.15C244.352 224.48 244.538 224.927 244.539 225.393Z" fill="#A8E8FF"/>
<path d="M299.132 225.393C299.131 225.86 298.946 226.307 298.616 226.637C298.287 226.966 297.84 227.152 297.374 227.153H252.844C252.377 227.153 251.929 226.968 251.598 226.638C251.268 226.308 251.081 225.861 251.079 225.393C251.081 224.926 251.268 224.478 251.598 224.149C251.929 223.819 252.377 223.634 252.844 223.634H297.374C297.84 223.635 298.287 223.82 298.616 224.15C298.946 224.48 299.131 224.927 299.132 225.393Z" fill="#CEECFA"/>
<path d="M339.423 226.78L322.017 219.263C322.017 219.263 319.155 221.663 319.155 223.577C319.155 225.491 334.637 240.194 334.637 240.194L339.423 226.78Z" fill="#C2E7F9"/>
<path d="M318.455 215.608C319.837 217.164 320.044 219.252 318.907 220.258C317.77 221.264 315.733 220.838 314.351 219.278C312.969 217.718 312.751 215.646 313.884 214.624C315.017 213.603 317.062 214.052 318.455 215.608Z" fill="#FFB38B"/>
<path d="M342.367 399.542V405.604H336.941V399.214L342.367 399.542Z" fill="#FFB38B"/>
<path d="M342.367 403.573C342.839 403.917 343.219 404.372 343.472 404.898C343.726 405.424 343.845 406.004 343.82 406.588V411.015H322.024C322.024 411.015 321.648 408.419 324.622 408.419C327.596 408.419 332.86 406.339 333.831 405.34C335.089 404.071 335.989 403.588 336.941 403.588L342.367 403.573Z" fill="#2A1D18"/>
<path d="M375.903 394.421V400.491H370.481V394.101L375.903 394.421Z" fill="#FFB38B"/>
<path d="M375.902 398.453C375.902 398.453 377.341 399.327 377.341 401.467V405.868H355.56C355.56 405.868 355.157 403.268 358.146 403.268C361.136 403.268 366.399 401.181 367.36 400.193C368.625 398.916 369.528 398.438 370.481 398.438L375.902 398.453Z" fill="#2A1D18"/>
<path d="M365.101 284.411C365.101 284.411 361.607 317.042 367.36 338.448C373.113 359.853 377.262 394.345 377.262 394.345C377.262 394.345 375.338 395.819 370.195 394.722C370.195 394.722 347.811 342.487 347.811 321.88V285.006C347.811 285.006 361.23 280.53 365.101 284.411Z" fill="#0C557A"/>
<path d="M362.954 284.532C362.954 284.532 349.795 320.207 348.207 345.14C346.618 370.072 344.065 400.092 344.065 400.092H335.744C335.744 400.092 327.133 335.561 331.603 283.797C332.578 272.391 356.614 278.213 362.954 284.532Z" fill="#0D608A"/>
<path d="M350.006 213.747C350.006 213.747 357.936 216.87 361.301 229.647C364.667 242.425 366.719 295.715 366.719 295.715C366.719 295.715 348.929 299.98 331.098 292.961C331.098 292.961 329.215 239.391 336.226 229.493C343.237 219.594 342.393 215.175 345.496 214.025C348.598 212.876 350.006 213.747 350.006 213.747Z" fill="#D4EFFB"/>
<path d="M337.502 193.038C337.502 193.038 337.299 198.49 333.605 199.854C329.912 201.218 332.634 203.155 334.972 204.711C337.31 206.267 334.863 213.754 338.173 213C341.482 212.247 345.368 212.416 345.567 214.357L350.417 214.067C350.417 214.067 353.805 196.173 348.677 193.836C343.549 191.5 337.502 193.038 337.502 193.038Z" fill="#FFB38B"/>
<path d="M337.502 193.038C337.502 193.038 332.431 191.244 332.822 188.577C333.214 185.909 341.294 183.083 348.432 184.967C353.15 186.21 355.586 188.629 354.863 191.286C354.863 191.286 359.133 194.519 358.512 199.293C358.067 202.823 353.067 208.215 352.246 212.413C351.87 214.376 350.326 209.775 349.833 206.949C349.34 204.123 351.399 204.914 351.011 202.375C350.624 199.835 348.338 197.186 347.378 205.235C346.433 210.457 345.36 213.083 342.86 213.468C340.36 213.852 335.955 214.545 335.465 212.115C334.976 209.685 336.218 209.647 339.231 210.713C342.243 211.78 345.563 211.128 345.966 206.761C346.369 202.394 347.077 197.281 345.966 196.161C344.856 195.042 339.611 195.14 337.502 193.038Z" fill="#041F2D"/>
<g style="mix-blend-mode:multiply" opacity="0.6">
<path d="M351.99 241.761L338.334 234.565C336.557 235.16 334.818 237.605 332.807 240.386C331.561 248.193 331.218 258.273 331.207 266.762C344.174 264.818 351.99 241.761 351.99 241.761Z" fill="#C2E7F9"/>
</g>
<path d="M338.948 232.364C334.637 233.811 330.639 245.929 322.337 247.7C316.015 249.041 294.411 238.999 290.104 238.999C285.796 238.999 286.267 243.306 286.267 243.306C286.267 243.306 313.794 262.952 328.639 264.633C343.485 266.314 352.589 240.194 352.589 240.194L338.948 232.364Z" fill="#D4EFFB"/>
<path d="M284.934 235.02C286.316 236.569 286.527 238.653 285.386 239.666C284.245 240.68 282.205 240.239 280.823 238.687C279.441 237.134 279.23 235.051 280.36 234.037C281.489 233.023 283.545 233.46 284.934 235.02Z" fill="#FFB38B"/>
<g style="mix-blend-mode:multiply" opacity="0.6">
<path d="M29.1831 245.921C39.4844 242.816 47.2555 238.724 52.1275 234.971C49.251 227.997 46.3368 225.009 46.2201 224.896C35.9941 225.371 22.0821 228.163 21.4157 238.547C21.3178 240.054 21.2726 241.671 21.2576 243.412C21.3216 244.881 22.0482 248.073 29.1831 245.921Z" fill="#D2DBEA"/>
</g>
<path d="M21.3481 238.751C20.7983 233.231 25.4896 229.64 35.4182 225.635C45.3467 221.629 52.3837 219.146 55.151 212.654C57.9184 206.162 63.1556 187.25 63.1556 187.25C63.1556 187.25 66.0434 186.429 68.5321 188.075C68.5321 188.075 67.1541 208.517 61.755 222.051C56.3558 235.586 36.062 241.411 27.4061 244.143C21.8375 245.895 21.3481 238.751 21.3481 238.751Z" fill="#16A1E7"/>
<path d="M381.497 126.91L353.455 154.974L344.882 146.39C344.794 146.303 344.691 146.233 344.576 146.185C344.462 146.138 344.339 146.113 344.215 146.113C344.092 146.113 343.969 146.138 343.855 146.185C343.74 146.233 343.636 146.303 343.549 146.39L327.702 162.246C327.531 162.424 327.436 162.662 327.439 162.909C327.441 163.156 327.54 163.392 327.715 163.566C327.89 163.741 328.126 163.84 328.373 163.841C328.62 163.843 328.857 163.748 329.035 163.576L344.2 148.387L352.789 156.982C352.876 157.07 352.98 157.139 353.094 157.187C353.209 157.234 353.331 157.259 353.455 157.259C353.579 157.259 353.701 157.234 353.816 157.187C353.93 157.139 354.034 157.07 354.121 156.982L382.156 128.918L392.548 139.318C392.724 139.494 392.963 139.593 393.212 139.593C393.462 139.593 393.701 139.494 393.877 139.318L400.632 132.562L412.205 144.141C412.385 144.301 412.619 144.387 412.859 144.38C413.099 144.373 413.328 144.275 413.498 144.105C413.668 143.934 413.767 143.705 413.774 143.465C413.78 143.224 413.695 142.99 413.534 142.811L401.298 130.565C401.211 130.477 401.107 130.408 400.993 130.36C400.879 130.313 400.757 130.288 400.633 130.288C400.51 130.288 400.388 130.313 400.274 130.36C400.16 130.408 400.056 130.477 399.969 130.565L393.222 137.313L382.83 126.91C382.743 126.822 382.639 126.752 382.525 126.705C382.41 126.657 382.288 126.633 382.164 126.633C382.04 126.633 381.917 126.657 381.803 126.705C381.689 126.752 381.585 126.822 381.497 126.91Z" fill="#16A1E7"/>
<path d="M330.703 163.082C330.703 163.604 330.548 164.114 330.258 164.548C329.969 164.981 329.557 165.319 329.076 165.519C328.594 165.719 328.064 165.771 327.553 165.669C327.042 165.567 326.572 165.316 326.203 164.947C325.835 164.578 325.584 164.108 325.482 163.597C325.38 163.085 325.433 162.555 325.632 162.073C325.832 161.591 326.169 161.179 326.603 160.889C327.036 160.599 327.546 160.445 328.067 160.445C328.766 160.445 329.436 160.723 329.931 161.217C330.425 161.712 330.703 162.383 330.703 163.082Z" fill="#0C557A"/>
<path d="M346.704 147.521C346.704 148.042 346.55 148.552 346.26 148.986C345.97 149.42 345.559 149.758 345.077 149.957C344.596 150.157 344.066 150.209 343.554 150.108C343.043 150.006 342.574 149.755 342.205 149.386C341.836 149.017 341.585 148.547 341.484 148.035C341.382 147.524 341.434 146.993 341.634 146.511C341.833 146.029 342.171 145.617 342.604 145.328C343.038 145.038 343.547 144.883 344.069 144.883C344.768 144.883 345.438 145.161 345.932 145.656C346.427 146.15 346.704 146.821 346.704 147.521Z" fill="#0C557A"/>
<path d="M356.177 156.172C356.177 156.694 356.023 157.203 355.733 157.637C355.443 158.071 355.032 158.409 354.55 158.609C354.069 158.808 353.539 158.861 353.028 158.759C352.516 158.657 352.047 158.406 351.678 158.037C351.309 157.668 351.058 157.198 350.957 156.686C350.855 156.175 350.907 155.644 351.107 155.162C351.306 154.681 351.644 154.269 352.077 153.979C352.511 153.689 353.02 153.534 353.542 153.534C354.241 153.534 354.911 153.812 355.405 154.307C355.9 154.801 356.177 155.472 356.177 156.172Z" fill="#0C557A"/>
<path d="M384.845 128.014C384.845 128.535 384.69 129.045 384.4 129.479C384.111 129.913 383.699 130.251 383.218 130.451C382.736 130.65 382.206 130.702 381.695 130.601C381.184 130.499 380.714 130.248 380.345 129.879C379.977 129.51 379.726 129.04 379.624 128.528C379.522 128.017 379.575 127.486 379.774 127.004C379.974 126.522 380.311 126.111 380.745 125.821C381.178 125.531 381.688 125.376 382.209 125.376C382.908 125.376 383.578 125.654 384.073 126.149C384.567 126.643 384.845 127.314 384.845 128.014Z" fill="#0C557A"/>
<path d="M395.846 138.138C395.846 138.66 395.691 139.17 395.402 139.604C395.112 140.037 394.701 140.375 394.219 140.575C393.738 140.775 393.208 140.827 392.696 140.725C392.185 140.623 391.715 140.372 391.347 140.003C390.978 139.634 390.727 139.165 390.626 138.653C390.524 138.141 390.576 137.611 390.776 137.129C390.975 136.647 391.313 136.235 391.746 135.945C392.18 135.655 392.689 135.501 393.21 135.501C393.909 135.501 394.58 135.779 395.074 136.273C395.568 136.768 395.846 137.439 395.846 138.138Z" fill="#0C557A"/>
<path d="M403.139 131.665C403.139 132.187 402.984 132.697 402.695 133.13C402.405 133.564 401.994 133.902 401.512 134.102C401.03 134.301 400.501 134.354 399.989 134.252C399.478 134.15 399.008 133.899 398.64 133.53C398.271 133.161 398.02 132.691 397.919 132.18C397.817 131.668 397.869 131.138 398.069 130.656C398.268 130.174 398.606 129.762 399.039 129.472C399.473 129.182 399.982 129.027 400.503 129.027C401.202 129.027 401.873 129.305 402.367 129.8C402.861 130.295 403.139 130.965 403.139 131.665Z" fill="#0C557A"/>
<path d="M415.666 143.613C415.666 144.135 415.511 144.645 415.221 145.079C414.932 145.512 414.52 145.85 414.039 146.05C413.557 146.25 413.027 146.302 412.516 146.2C412.005 146.098 411.535 145.847 411.166 145.478C410.798 145.109 410.547 144.639 410.445 144.128C410.343 143.616 410.396 143.086 410.595 142.604C410.795 142.122 411.132 141.71 411.566 141.42C411.999 141.13 412.509 140.976 413.03 140.976C413.729 140.976 414.399 141.254 414.894 141.748C415.388 142.243 415.666 142.914 415.666 143.613Z" fill="#0C557A"/>
<path d="M92.862 274.724C91.7771 274.725 90.716 274.405 89.8131 273.803C88.9101 273.201 88.2058 272.344 87.7892 271.342C87.3727 270.339 87.2625 269.235 87.4727 268.17C87.6829 267.105 88.2041 266.126 88.9702 265.357C89.7363 264.588 90.7131 264.064 91.7769 263.851C92.8408 263.637 93.9439 263.745 94.9469 264.159C95.9498 264.573 96.8075 265.275 97.4116 266.177C98.0156 267.079 98.3388 268.14 98.3403 269.226C98.3383 270.681 97.761 272.076 96.7344 273.106C95.7079 274.136 94.3157 274.718 92.862 274.724ZM92.862 265.108C92.0462 265.107 91.2484 265.349 90.5697 265.802C89.8911 266.255 89.3621 266.9 89.0497 267.654C88.7373 268.408 88.6556 269.238 88.8148 270.039C88.9741 270.84 89.3672 271.575 89.9444 272.152C90.5216 272.73 91.2569 273.122 92.0572 273.281C92.8575 273.44 93.6869 273.357 94.4404 273.044C95.1938 272.73 95.8374 272.2 96.2896 271.521C96.7419 270.841 96.9825 270.043 96.9811 269.226C96.9741 268.135 96.5378 267.091 95.7668 266.32C94.9957 265.549 93.952 265.114 92.862 265.108Z" fill="#A8E8FF"/>
<path d="M95.7423 288.398H89.9855C89.8957 288.398 89.8067 288.381 89.7235 288.347C89.6404 288.313 89.5648 288.262 89.5012 288.199C89.4375 288.136 89.387 288.06 89.3525 287.977C89.318 287.894 89.3002 287.805 89.3002 287.716V282.836C88.0644 282.51 86.8797 282.014 85.7799 281.363L82.3198 284.829C82.1903 284.953 82.0184 285.021 81.8397 285.021C81.661 285.021 81.4892 284.953 81.3597 284.829L77.2821 280.752C77.2188 280.689 77.1686 280.614 77.1343 280.531C77.1001 280.448 77.0824 280.36 77.0824 280.27C77.0824 280.18 77.1001 280.092 77.1343 280.009C77.1686 279.926 77.2188 279.851 77.2821 279.788L80.7309 276.314C80.0875 275.213 79.5961 274.031 79.27 272.798H74.3943C74.3049 272.799 74.2164 272.781 74.1338 272.748C74.0511 272.714 73.9759 272.664 73.9126 272.601C73.8493 272.538 73.799 272.463 73.7647 272.38C73.7304 272.298 73.7128 272.209 73.7128 272.12V266.344C73.7123 266.254 73.7296 266.165 73.7637 266.083C73.7978 266 73.8481 265.925 73.9115 265.862C73.9749 265.798 74.0503 265.749 74.1332 265.715C74.216 265.681 74.3048 265.664 74.3943 265.665H79.2663C79.5943 264.428 80.0855 263.239 80.7271 262.131L77.2783 258.676C77.2146 258.613 77.164 258.538 77.1294 258.455C77.0949 258.372 77.0771 258.283 77.0771 258.193C77.0771 258.104 77.0949 258.015 77.1294 257.932C77.164 257.849 77.2146 257.774 77.2783 257.711L81.3521 253.649C81.414 253.584 81.4885 253.532 81.571 253.497C81.6535 253.462 81.7424 253.443 81.8322 253.443C81.922 253.443 82.0108 253.462 82.0933 253.497C82.1759 253.532 82.2503 253.584 82.3122 253.649L85.7723 257.108C86.873 256.457 88.0574 255.958 89.2927 255.627V250.755C89.2927 250.574 89.3649 250.399 89.4934 250.271C89.6219 250.142 89.7962 250.07 89.9779 250.07H95.7385C95.919 250.072 96.0913 250.145 96.2182 250.273C96.3451 250.402 96.4163 250.575 96.4162 250.755V255.627C97.6544 255.957 98.8415 256.455 99.9441 257.108L103.393 253.649C103.456 253.584 103.531 253.532 103.615 253.496C103.698 253.461 103.788 253.442 103.879 253.442C103.969 253.442 104.059 253.461 104.143 253.496C104.226 253.532 104.301 253.584 104.364 253.649L108.434 257.711C108.498 257.774 108.548 257.85 108.582 257.932C108.616 258.015 108.634 258.104 108.634 258.193C108.634 258.283 108.616 258.372 108.582 258.454C108.548 258.537 108.498 258.612 108.434 258.676L104.971 262.131C105.627 263.232 106.121 264.422 106.435 265.665H111.33C111.419 265.664 111.508 265.681 111.591 265.715C111.675 265.748 111.75 265.798 111.814 265.861C111.878 265.924 111.928 265.999 111.963 266.082C111.997 266.165 112.015 266.254 112.015 266.344V272.12C112.015 272.209 111.996 272.298 111.962 272.381C111.927 272.463 111.876 272.538 111.813 272.601C111.749 272.664 111.674 272.714 111.591 272.748C111.508 272.781 111.419 272.799 111.33 272.798H106.435C106.123 274.036 105.629 275.22 104.971 276.314L108.434 279.788C108.56 279.917 108.631 280.09 108.631 280.27C108.631 280.45 108.56 280.623 108.434 280.752L104.361 284.829C104.228 284.953 104.054 285.021 103.873 285.021C103.692 285.021 103.518 284.953 103.385 284.829L99.9366 281.363C98.8342 282.014 97.6469 282.51 96.4087 282.836V287.716C96.4097 287.894 96.3403 288.066 96.2156 288.194C96.0908 288.321 95.9207 288.395 95.7423 288.398ZM90.6632 287.049H95.0608V282.297C95.0597 282.141 95.1122 281.989 95.2096 281.867C95.3069 281.745 95.4431 281.66 95.5955 281.626C97.0483 281.307 98.4328 280.732 99.6843 279.927C99.8156 279.845 99.9711 279.809 100.125 279.827C100.279 279.845 100.422 279.915 100.531 280.025L103.886 283.379L106.992 280.266L103.634 276.875C103.525 276.764 103.456 276.619 103.441 276.465C103.425 276.31 103.462 276.154 103.547 276.024C104.355 274.781 104.93 273.402 105.245 271.954C105.278 271.802 105.361 271.666 105.482 271.568C105.602 271.47 105.753 271.416 105.908 271.415H110.645V267.007H105.908C105.753 267.007 105.603 266.954 105.482 266.856C105.362 266.759 105.278 266.623 105.245 266.472C104.926 265.025 104.348 263.648 103.54 262.406C103.455 262.275 103.418 262.119 103.434 261.963C103.449 261.808 103.517 261.662 103.626 261.551L106.985 258.19L103.879 255.089L100.528 258.453C100.417 258.563 100.273 258.632 100.119 258.649C99.9642 258.666 99.8085 258.63 99.6768 258.548C98.4273 257.739 97.0441 257.158 95.5917 256.833C95.4403 256.799 95.3049 256.715 95.2078 256.593C95.1107 256.472 95.0575 256.322 95.0571 256.166V251.441H90.6632V256.151C90.6634 256.307 90.6105 256.458 90.5133 256.579C90.416 256.7 90.2803 256.785 90.1286 256.818C88.6769 257.142 87.2947 257.722 86.0472 258.533C85.915 258.616 85.7586 258.651 85.6035 258.634C85.4484 258.617 85.3036 258.548 85.1925 258.438L81.8378 255.074L78.7279 258.175L82.075 261.536C82.1847 261.647 82.2534 261.792 82.2698 261.947C82.2862 262.103 82.2494 262.259 82.1654 262.391C81.3642 263.643 80.7882 265.025 80.4636 266.475C80.4309 266.627 80.3473 266.763 80.2267 266.86C80.1061 266.957 79.9558 267.011 79.8009 267.011H75.0833V271.419H79.8197C79.974 271.42 80.1235 271.472 80.2439 271.569C80.3642 271.665 80.4483 271.8 80.4824 271.95C80.8052 273.399 81.3814 274.779 82.1842 276.027C82.2686 276.158 82.3057 276.314 82.2892 276.469C82.2728 276.624 82.2038 276.769 82.0939 276.879L78.7467 280.27L81.8567 283.382L85.2114 280.029C85.3204 279.919 85.4637 279.849 85.6177 279.831C85.7717 279.813 85.9272 279.848 86.0585 279.931C87.31 280.735 88.6945 281.311 90.1474 281.63C90.3001 281.663 90.4367 281.748 90.5341 281.87C90.6316 281.992 90.6838 282.145 90.682 282.301L90.6632 287.049Z" fill="#A8E8FF"/>
<path d="M410.27 221.06C411.234 221.06 411.63 220.374 411.148 219.553L397.733 196.308C397.251 195.472 396.464 195.472 395.982 196.308L382.571 219.553C382.089 220.389 382.48 221.06 383.444 221.06H388.979C389.443 221.061 389.887 221.246 390.216 221.574C390.544 221.903 390.728 222.348 390.729 222.812V234.87C390.731 235.334 390.917 235.78 391.246 236.108C391.575 236.436 392.02 236.621 392.484 236.622H401.234C401.698 236.621 402.144 236.436 402.472 236.108C402.801 235.78 402.987 235.334 402.989 234.87V222.812C402.99 222.348 403.174 221.903 403.502 221.574C403.831 221.246 404.275 221.061 404.739 221.06H410.27Z" fill="#CEECFA"/>
<defs>
<linearGradient id="paint0_linear_245_2044" x1="203.194" y1="77.2102" x2="342.604" y2="77.2102" gradientUnits="userSpaceOnUse">
<stop stop-color="#205A78"/>
<stop offset="1" stop-color="#20304D"/>
</linearGradient>
</defs>
</svg>
