<svg width="573" height="461" viewBox="0 0 573 461" fill="none" xmlns="http://www.w3.org/2000/svg">
<path d="M70 157.403V323.594C70.0133 333.803 72.7049 343.829 77.8048 352.667C82.9048 361.505 90.234 368.845 99.0575 373.949L235.983 453.211C244.803 458.314 254.808 461 264.992 461C275.176 461 285.181 458.314 294.001 453.211L430.943 373.949C439.766 368.845 447.095 361.505 452.195 352.667C457.295 343.829 459.987 333.803 460 323.594V157.403C459.995 147.194 457.307 137.166 452.206 128.329C447.105 119.492 439.771 112.158 430.943 107.063L294.001 27.8013C285.184 22.6909 275.178 20 264.992 20C254.806 20 244.8 22.6909 235.983 27.8013L99.0575 107.063C90.2287 112.158 82.8948 119.492 77.7938 128.329C72.6928 137.166 70.0047 147.194 70 157.403H70Z" fill="#EDF8FD"/>
<path opacity="0.5" d="M0 109.673V242.324C0.01066 250.473 2.17082 258.476 6.26389 265.53C10.357 272.585 16.2391 278.443 23.3205 282.517L133.212 345.783C140.29 349.856 148.32 352 156.494 352C164.667 352 172.697 349.856 179.775 345.783L289.68 282.517C296.761 278.443 302.643 272.585 306.736 265.53C310.829 258.476 312.989 250.473 313 242.324V109.673C312.996 101.524 310.839 93.5206 306.745 86.467C302.651 79.4135 296.765 73.5589 289.68 69.4926L179.775 6.22689C172.699 2.14781 164.668 0 156.494 0C148.319 0 140.288 2.14781 133.212 6.22689L23.3205 69.4926C16.2348 73.5589 10.3489 79.4135 6.25499 86.467C2.16112 93.5206 0.00374941 101.524 0 109.673H0Z" fill="#EDF8FD"/>
<g opacity="0.39">
<path opacity="0.39" fill-rule="evenodd" clip-rule="evenodd" d="M232.593 226.676L255.894 249.988V221.932L222.846 188.888L189.797 221.932V249.988L213.099 226.677V440L232.593 451V226.676Z" fill="#B6DBED"/>
<path opacity="0.39" fill-rule="evenodd" clip-rule="evenodd" d="M275.828 343.597L289.735 354.356V341.226L269.737 325.762L249.739 341.226V354.356L263.644 343.599V461L275.828 460V343.597Z" fill="#B6DBED"/>
<path opacity="0.39" fill-rule="evenodd" clip-rule="evenodd" d="M323.67 359.846L332.783 368.965V357.088L318.795 343.102L304.805 357.088V368.965L313.922 359.844V441.5L323.67 436V359.846Z" fill="#B6DBED"/>
</g>
<path d="M307.749 80.9705L297.346 92.7151C293.694 90.8379 289.788 89.5031 285.751 88.753L284.822 73.0356C284.803 72.7483 284.725 72.4679 284.594 72.2114C284.463 71.9549 284.282 71.7277 284.06 71.5436C283.619 71.1746 283.057 70.9816 282.483 71.0014L264.032 72.1496C263.743 72.1659 263.459 72.2393 263.198 72.3658C262.937 72.4922 262.704 72.6692 262.512 72.8863C262.32 73.1035 262.172 73.3566 262.079 73.6311C261.985 73.9055 261.947 74.1958 261.966 74.4851L262.937 90.1316C259.02 91.3896 255.294 93.1782 251.863 95.4475L240.187 85.1063C239.746 84.7195 239.169 84.5229 238.584 84.5595C237.998 84.596 237.45 84.8626 237.061 85.3012L224.785 99.158C224.406 99.5972 224.215 100.169 224.256 100.748C224.296 101.327 224.564 101.866 225.001 102.248L236.681 112.586C234.843 116.266 233.518 120.181 232.743 124.221L217.054 125.181C216.767 125.196 216.485 125.268 216.226 125.393C215.967 125.518 215.735 125.693 215.544 125.908C215.353 126.124 215.207 126.375 215.115 126.648C215.022 126.92 214.985 127.208 215.005 127.495L216.09 145.952C216.129 146.53 216.394 147.07 216.826 147.456C217.259 147.841 217.826 148.042 218.405 148.015L234.083 147.086C235.363 150.98 237.163 154.684 239.432 158.097L229.053 169.792C228.668 170.231 228.473 170.804 228.511 171.386C228.549 171.968 228.817 172.512 229.255 172.897L243.115 185.169C243.329 185.363 243.58 185.512 243.852 185.608C244.125 185.704 244.414 185.745 244.702 185.728C244.99 185.711 245.272 185.637 245.532 185.51C245.791 185.383 246.023 185.206 246.213 184.989L256.592 173.272C260.248 175.126 264.141 176.469 268.162 177.263L269.154 192.955C269.194 193.531 269.458 194.067 269.89 194.449C270.321 194.831 270.886 195.028 271.462 194.997L289.962 193.87C290.533 193.814 291.062 193.545 291.442 193.116C291.822 192.686 292.025 192.129 292.011 191.556L291.057 175.863C294.962 174.584 298.678 172.789 302.106 170.526L313.843 180.917C314.275 181.299 314.84 181.495 315.416 181.462C315.992 181.428 316.531 181.169 316.916 180.74L329.191 166.883C329.582 166.449 329.784 165.878 329.754 165.296C329.724 164.713 329.464 164.166 329.032 163.775L317.292 153.38C319.123 149.703 320.457 145.799 321.258 141.77L336.93 140.86C337.504 140.799 338.035 140.526 338.419 140.094C338.802 139.662 339.009 139.102 339 138.524L337.89 120.018C337.85 119.443 337.586 118.908 337.155 118.526C336.725 118.145 336.161 117.947 335.586 117.976L319.844 118.933C318.625 115.016 316.834 111.301 314.527 107.908L324.931 96.1634C325.123 95.9485 325.271 95.6974 325.365 95.4248C325.459 95.1522 325.497 94.8636 325.479 94.5758C325.46 94.288 325.384 94.0069 325.255 93.7489C325.126 93.4909 324.947 93.2611 324.729 93.073L310.851 80.8004C310.636 80.6077 310.386 80.4592 310.114 80.3634C309.841 80.2676 309.553 80.2265 309.265 80.2423C308.977 80.2581 308.695 80.3305 308.435 80.4555C308.175 80.5804 307.942 80.7555 307.749 80.9705ZM290.203 144.676C287.896 147.29 284.866 149.162 281.496 150.054C278.126 150.946 274.566 150.819 271.268 149.689C267.97 148.558 265.081 146.476 262.967 143.704C260.853 140.932 259.608 137.596 259.391 134.117C259.173 130.638 259.992 127.173 261.744 124.159C263.497 121.146 266.103 118.719 269.235 117.187C272.367 115.655 275.882 115.085 279.338 115.551C282.793 116.016 286.033 117.495 288.647 119.801C292.138 122.903 294.26 127.259 294.551 131.918C294.843 136.578 293.28 141.164 290.203 144.676Z" fill="#CEECFA"/>
<g style="mix-blend-mode:multiply" opacity="0.1">
<path d="M530.684 327.596L248.87 324.621C244.905 324.578 241.984 320.688 242.684 316.719L273.086 146.166C273.79 142.169 277.596 138.893 281.592 138.851L564.382 134.923C568.644 134.878 572.662 139.114 571.91 143.246L539.697 320.247C538.951 324.351 534.912 327.642 530.684 327.596Z" fill="#7C97A3"/>
</g>
<path d="M523.897 315.59L247.182 312.671C243.279 312.628 240.688 309.447 241.374 305.564L270.958 138.099C271.651 134.189 275.389 130.984 279.312 130.943L558.134 128C562.32 127.956 565.116 131.199 564.378 135.244L532.747 308.401C532.014 312.415 528.05 315.629 523.897 315.59Z" fill="#16A1E7"/>
<path d="M514.241 308.704L258.592 306.204C254.69 306.165 252.082 302.98 252.769 299.092L280.087 144.613C280.779 140.7 284.526 137.488 288.457 137.456L545.917 134.937C550.091 134.896 552.874 138.136 552.143 142.176L523.074 301.516C522.332 305.527 518.384 308.745 514.241 308.704Z" fill="#EDF8FD"/>
<path d="M314.725 196.442C310.822 196.442 307.395 194.927 305.079 192.176C302.732 189.383 301.823 185.682 302.52 181.749C303.913 173.908 311.482 167.499 319.394 167.441H319.488C323.39 167.441 326.809 168.949 329.125 171.698C331.48 174.49 332.392 178.2 331.689 182.139C330.291 190.001 322.696 196.417 314.772 196.442H314.725ZM319.486 170.364H319.413C312.843 170.405 306.557 175.742 305.399 182.262C304.856 185.315 305.537 188.177 307.317 190.293C309.066 192.374 311.696 193.516 314.727 193.516H314.764C321.346 193.496 327.647 188.162 328.811 181.625C329.358 178.555 328.676 175.698 326.889 173.579C325.14 171.506 322.511 170.364 319.486 170.364Z" fill="#A0D9F6"/>
<path d="M324.98 181.909C324.21 186.233 320.051 189.75 315.695 189.767C311.34 189.784 308.438 186.297 309.205 181.982C309.972 177.666 314.126 174.144 318.476 174.12C322.827 174.096 325.749 177.583 324.98 181.909Z" fill="#1281B8"/>
<path d="M380.178 172.332C365.092 177.422 352.642 190.729 349.875 206.224C346.461 225.345 359.019 241.087 378.338 242.088L384.345 206.754L380.178 172.332Z" fill="#FFD145"/>
<path d="M422.749 173.515C417.215 165.892 407.909 161.19 396.636 161.388C392.33 161.479 388.064 162.239 383.99 163.639L388.173 198.064L422.749 173.515Z" fill="#FF7F50"/>
<path d="M423.759 206.087C425.4 196.968 423.419 188.656 418.838 182.321L384.34 206.75L378.333 242.084C378.842 242.11 379.351 242.128 379.877 242.135C400.367 242.361 420.131 226.226 423.759 206.087Z" fill="#FFD145"/>
<path d="M471.194 159.777L432.984 160.046C432.929 160.049 432.874 160.039 432.823 160.017C432.772 159.995 432.726 159.962 432.691 159.919C432.655 159.877 432.629 159.827 432.616 159.773C432.603 159.719 432.602 159.663 432.614 159.609L433.032 157.284C433.058 157.162 433.125 157.053 433.221 156.972C433.317 156.892 433.436 156.846 433.561 156.842L471.769 156.558C471.825 156.555 471.881 156.564 471.932 156.586C471.984 156.608 472.03 156.642 472.066 156.684C472.102 156.727 472.128 156.778 472.141 156.832C472.154 156.886 472.155 156.943 472.142 156.998L471.72 159.33C471.693 159.452 471.628 159.562 471.532 159.643C471.437 159.723 471.318 159.77 471.194 159.777Z" fill="#A0D9F6"/>
<path d="M516.394 160.912L478.434 161.173C478.338 161.179 478.243 161.162 478.155 161.125C478.067 161.087 477.989 161.03 477.928 160.957C477.866 160.884 477.822 160.798 477.799 160.706C477.776 160.613 477.775 160.516 477.796 160.423L478.629 155.814C478.675 155.603 478.789 155.414 478.955 155.276C479.12 155.138 479.327 155.059 479.542 155.052L517.51 154.765C517.606 154.759 517.702 154.775 517.791 154.812C517.88 154.849 517.958 154.906 518.021 154.979C518.084 155.052 518.128 155.139 518.152 155.232C518.175 155.325 518.176 155.423 518.155 155.517L517.306 160.148C517.26 160.358 517.145 160.547 516.98 160.685C516.815 160.824 516.609 160.903 516.394 160.912Z" fill="#A0D9F6"/>
<path d="M514.697 170.251L476.752 170.473C476.657 170.479 476.561 170.462 476.474 170.425C476.386 170.387 476.308 170.33 476.246 170.257C476.184 170.184 476.14 170.098 476.117 170.006C476.094 169.913 476.093 169.816 476.114 169.723L476.947 165.114C476.993 164.904 477.107 164.715 477.272 164.577C477.437 164.439 477.644 164.361 477.858 164.354L515.815 164.106C515.911 164.1 516.007 164.116 516.095 164.154C516.184 164.191 516.262 164.249 516.325 164.322C516.387 164.395 516.432 164.482 516.455 164.575C516.478 164.668 516.479 164.765 516.458 164.859L515.61 169.489C515.564 169.699 515.449 169.888 515.284 170.026C515.118 170.164 514.912 170.243 514.697 170.251Z" fill="#A0D9F6"/>
<path d="M494.115 204.896L456.345 204.969C456.25 204.974 456.155 204.957 456.068 204.919C455.98 204.881 455.903 204.823 455.841 204.75C455.78 204.678 455.736 204.592 455.714 204.499C455.691 204.407 455.69 204.31 455.711 204.217L456.54 199.623C456.585 199.414 456.699 199.226 456.864 199.089C457.029 198.952 457.234 198.875 457.448 198.868L495.227 198.768C495.322 198.763 495.418 198.78 495.506 198.818C495.594 198.856 495.672 198.914 495.734 198.987C495.796 199.06 495.841 199.146 495.864 199.239C495.887 199.332 495.889 199.429 495.868 199.523L495.03 204.138C494.984 204.348 494.869 204.537 494.703 204.674C494.537 204.811 494.33 204.889 494.115 204.896Z" fill="#80C2E0"/>
<path d="M491.979 216.659L454.228 216.683C454.133 216.688 454.038 216.671 453.95 216.633C453.863 216.595 453.785 216.537 453.724 216.464C453.662 216.392 453.619 216.306 453.596 216.213C453.573 216.121 453.572 216.024 453.593 215.931L454.423 211.339C454.468 211.13 454.582 210.942 454.746 210.806C454.911 210.669 455.117 210.592 455.331 210.586L493.09 210.537C493.186 210.531 493.282 210.549 493.37 210.586C493.458 210.624 493.536 210.682 493.598 210.755C493.66 210.828 493.705 210.915 493.728 211.008C493.751 211.101 493.752 211.198 493.732 211.291L492.894 215.904C492.848 216.114 492.733 216.303 492.567 216.44C492.401 216.577 492.194 216.654 491.979 216.659Z" fill="#80C2E0"/>
<path d="M501.374 235.047L438.997 234.956C437.732 234.956 436.887 233.95 437.109 232.711L445.897 184.002C446.031 183.378 446.37 182.817 446.86 182.408C447.35 182 447.963 181.766 448.601 181.746L511.113 181.461C512.401 181.461 513.262 182.463 513.034 183.712L504.111 232.793C503.885 234.029 502.658 235.047 501.374 235.047Z" fill="#CEECFA"/>
<path d="M499.572 193.114L455.173 193.26C455.078 193.265 454.983 193.247 454.896 193.21C454.809 193.172 454.731 193.115 454.67 193.042C454.608 192.969 454.565 192.884 454.542 192.791C454.519 192.699 454.518 192.603 454.538 192.51L455.368 187.914C455.413 187.705 455.526 187.517 455.69 187.38C455.855 187.242 456.06 187.164 456.274 187.158L500.685 186.988C500.781 186.982 500.877 186.999 500.965 187.036C501.053 187.074 501.131 187.132 501.194 187.205C501.256 187.278 501.3 187.364 501.323 187.457C501.346 187.55 501.347 187.648 501.326 187.741L500.488 192.361C500.441 192.57 500.325 192.758 500.159 192.894C499.993 193.031 499.787 193.108 499.572 193.114Z" fill="white"/>
<path d="M497.434 204.889L453.057 204.974C452.962 204.979 452.867 204.962 452.78 204.924C452.692 204.887 452.615 204.829 452.553 204.757C452.492 204.684 452.448 204.598 452.425 204.506C452.403 204.413 452.402 204.317 452.422 204.224L453.252 199.632C453.297 199.423 453.41 199.235 453.575 199.098C453.739 198.961 453.944 198.883 454.158 198.877L498.547 198.76C498.643 198.755 498.739 198.772 498.827 198.81C498.915 198.848 498.993 198.905 499.055 198.978C499.117 199.051 499.161 199.138 499.185 199.231C499.208 199.324 499.209 199.421 499.189 199.515L498.35 204.131C498.304 204.341 498.189 204.53 498.023 204.667C497.857 204.805 497.65 204.883 497.434 204.889Z" fill="white"/>
<path d="M495.298 216.657L450.941 216.685C450.846 216.69 450.751 216.672 450.663 216.634C450.576 216.597 450.499 216.539 450.437 216.466C450.376 216.393 450.332 216.307 450.309 216.215C450.287 216.123 450.286 216.026 450.306 215.933L451.136 211.342C451.181 211.134 451.295 210.946 451.459 210.809C451.623 210.673 451.829 210.595 452.042 210.589L496.409 210.532C496.505 210.526 496.601 210.543 496.689 210.581C496.777 210.619 496.856 210.676 496.918 210.749C496.98 210.823 497.024 210.909 497.047 211.002C497.07 211.096 497.071 211.193 497.051 211.286L496.212 215.901C496.167 216.111 496.052 216.3 495.886 216.437C495.72 216.575 495.513 216.652 495.298 216.657Z" fill="white"/>
<path d="M493.162 228.421L448.827 228.389C448.732 228.393 448.637 228.376 448.549 228.338C448.462 228.301 448.385 228.243 448.323 228.17C448.262 228.097 448.218 228.011 448.195 227.919C448.173 227.826 448.172 227.73 448.192 227.637L449.022 223.048C449.067 222.839 449.18 222.652 449.344 222.516C449.508 222.379 449.713 222.302 449.926 222.297H494.273C494.369 222.291 494.464 222.309 494.553 222.346C494.641 222.384 494.719 222.442 494.781 222.515C494.843 222.588 494.887 222.675 494.91 222.768C494.934 222.861 494.935 222.958 494.914 223.051L494.076 227.664C494.031 227.875 493.916 228.064 493.75 228.201C493.584 228.338 493.377 228.416 493.162 228.421Z" fill="white"/>
<path d="M301.8 280.976L287.588 280.879L295.414 236.715L309.651 236.74L301.8 280.976Z" fill="#1281B8"/>
<path d="M320.814 281.106L306.54 281.008L313.099 244.071L327.395 244.108L320.814 281.106Z" fill="#A0D9F6"/>
<path d="M339.976 281.237L325.638 281.138L330.88 251.693L345.234 251.742L339.976 281.237Z" fill="#FFD145"/>
<path d="M443.224 292.016L352.508 291.292C352.359 291.297 352.211 291.267 352.075 291.206C351.94 291.145 351.819 291.054 351.724 290.939C351.629 290.825 351.561 290.69 351.526 290.545C351.491 290.401 351.489 290.25 351.521 290.104L357.789 254.999C357.855 254.671 358.032 254.375 358.288 254.159C358.545 253.944 358.867 253.821 359.202 253.812L450.057 254.151C450.209 254.143 450.362 254.171 450.502 254.231C450.642 254.292 450.766 254.384 450.865 254.501C450.963 254.618 451.033 254.755 451.07 254.904C451.106 255.052 451.108 255.207 451.075 255.356L444.671 290.837C444.599 291.168 444.416 291.465 444.154 291.679C443.891 291.893 443.563 292.012 443.224 292.016Z" fill="#A0D9F6"/>
<path d="M338.332 291.891L285.464 291.463C285.395 291.465 285.326 291.451 285.263 291.423C285.201 291.394 285.145 291.351 285.101 291.298C285.057 291.245 285.026 291.182 285.01 291.115C284.994 291.047 284.994 290.978 285.009 290.91L285.518 288.009C285.549 287.858 285.63 287.722 285.748 287.623C285.866 287.524 286.014 287.468 286.168 287.465L339.048 287.867C339.117 287.864 339.187 287.878 339.25 287.907C339.314 287.936 339.37 287.978 339.414 288.032C339.459 288.086 339.49 288.149 339.506 288.217C339.522 288.285 339.523 288.355 339.508 288.423L338.987 291.343C338.957 291.495 338.875 291.633 338.756 291.733C338.637 291.832 338.487 291.888 338.332 291.891Z" fill="#A0D9F6"/>
<path opacity="0.27" d="M304.52 203.391C303.134 204.317 302.087 205.522 301.161 206.937C300.845 207.42 300.414 208.083 300.265 208.625C300.115 209.166 300.311 209.442 300.531 209.882C300.599 209.8 300.971 209.564 300.952 209.39C303.044 209.263 306.327 207.34 306.872 205.688C307.417 204.036 307.42 204.4 307.846 203.126C307.705 203.126 307.608 202.987 307.473 202.938C306.38 202.544 305.494 202.74 304.52 203.391Z" fill="#EA4D15"/>
<path d="M317.507 179.513C314.686 179.238 311.443 180.787 309.49 182.356C307.537 183.926 306.811 184.279 304.33 185.994C301.849 187.709 293.067 193.74 290.13 195.764C284.7 202.889 281.235 209.432 276.461 216.091C271.686 222.749 270.033 227.038 265.827 233.251C270.086 235.286 274.311 237.527 278.609 239.536C281.154 234.258 284.259 229.271 286.891 224.044C291.392 220.753 297.173 217.409 300.821 213.214C303.578 212.433 306.875 211.632 308.016 208.65C309.156 205.668 312.227 203.125 313.24 200.017C313.708 198.32 312.627 194.393 310.842 194.138C309.057 193.884 306.97 194.712 305.165 194.52C306.75 192.893 307.014 192.493 308.648 190.903C310.282 189.314 312.166 187.958 313.873 186.44C314.277 186.048 320.283 180.214 317.507 179.513Z" fill="#FFAD97"/>
<path opacity="0.27" d="M300.867 204.631C295.412 209.624 290.008 214.874 285.141 220.254C290.666 219.877 298.055 215.127 301.544 212.498C305.033 209.868 305.139 210.336 308.094 208.462C308.961 206.256 311.877 203.245 312.788 200.948C312.388 201.082 310.014 201.929 309.588 201.976C306.875 202.928 303.799 204.377 300.867 204.631Z" fill="#EA4D15"/>
<path d="M308.698 202.826C305.123 204.246 300.916 205.649 297.25 203.715C292.629 209.505 288.14 215.478 284.04 221.528C289.906 220.926 296.574 216.528 300.638 213.434C304.702 210.34 307.143 209.171 311.362 207.369C313.038 206.691 316.06 205.544 315.827 203.248C314.321 200.482 311.17 201.929 308.698 202.826Z" fill="#FFAD97"/>
<path d="M272.229 218.695C276.778 221.352 284.532 225.895 289.081 228.534C290.32 226.716 291.76 224.644 293.086 222.889C288.767 219.893 280.509 214.164 275.975 211.424C274.409 213.444 273.712 216.605 272.229 218.695Z" fill="#C6D6DE"/>
<path d="M221.508 308.643C217.726 308.672 205.706 307.719 203.013 307.21C195.389 305.776 188.438 304.743 182.966 304.326C178.676 303.995 166.588 310.218 168.959 306.928C177.273 295.392 173.84 300.619 167.659 304.411C167.559 295.633 172.273 282.017 167.549 275.489C159.404 264.24 157.104 259.296 150.135 249.382C150.943 248.704 148.309 248.025 148.991 246.997C149.351 245.392 148.43 244.335 148.759 242.734C150.61 243.355 152.215 243.17 154.2 243.784C155.687 244.244 159.291 244.581 160.56 245.007C163.953 246.142 172.98 245.575 175.863 246.668C183.074 249.404 184.576 254.075 190.44 258.073C196.304 262.072 198.216 266.847 203.408 271.236C205.354 272.882 208.768 274.767 210.95 276.195C213.047 277.579 215.287 278.734 217.631 279.64C219.791 280.455 222.551 281.099 224.358 280.441C229.169 278.684 230.058 277.42 233.429 273.282C236.801 269.144 239.084 266.128 243.231 260.576C247.378 255.023 253.885 245.204 258.134 238.379C260.257 234.969 262.985 231.607 265.137 228.076C265.539 227.418 266.295 226.003 266.791 225.287C267.286 224.571 267.857 223.889 268.318 223.224C268.927 222.342 269.723 221.397 270.269 220.605C270.816 219.813 270.975 219.248 271.457 218.5C277.464 221.511 283.214 224.946 288.991 228.382C288.482 229.193 287.86 230.195 287.376 230.97C286.747 231.976 286.288 232.667 285.652 233.661C285.177 234.402 284.653 235.337 284.183 236.14C283.713 236.942 283.165 237.853 282.698 238.615C280.207 242.661 278.522 246.451 276.25 250.677C271.71 259.123 268.252 266.552 262.125 274.68C255.998 282.808 249.085 291.814 242.373 300.521C239.855 303.785 233.071 308.711 229.065 308.653C225.059 308.596 225.29 308.613 221.508 308.643Z" fill="#0D608A"/>
<path d="M187.391 304.324L199.667 420.257L179.705 380.06L176.667 298.152L187.391 304.324Z" fill="#0C557A"/>
<g style="mix-blend-mode:multiply" opacity="0.26">
<path d="M138.524 448.834C138.524 448.834 138.546 448.987 138.585 449.287C138.616 449.213 138.626 449.132 138.616 449.053C138.605 448.973 138.573 448.898 138.524 448.834Z" fill="#3E1762"/>
</g>
<path d="M124.729 234.976L149.967 244.066L146.377 212.807L124.729 207.495V234.976Z" fill="#FFAD97"/>
<path opacity="0.3" d="M148.913 234.886L146.368 212.806L144.895 212.445L130.733 212.806C130.118 214.387 129.893 216.092 130.075 217.778C130.258 219.464 130.843 221.081 131.781 222.493C134.949 227.252 140.313 233.086 148.913 234.886Z" fill="#E87D6E"/>
<path d="M115.806 242.115L100.26 250.427V271.582L122.159 317.185L131.08 329.622L153.91 380.06L164.994 373.15L173.885 363.424L146.478 326.804L135.356 299.91C135.356 299.91 128.581 281.125 129.456 276.293C130.332 271.462 127.273 254.672 125.515 253.108C123.757 251.544 115.806 242.115 115.806 242.115Z" fill="white"/>
<path d="M178.517 415.551C177.159 415.356 177.849 418.714 176.5 418.5C175.579 418.349 173.421 416.656 172.5 416.5C159.5 409 149.5 403 139.5 397.5C136.58 396.556 130.887 393.056 128 392C121.072 386.871 121.348 388.167 116.5 385C114.644 383.785 113.247 381.008 114.106 378.831C118.462 367.726 119.218 354.911 116.069 343.314C113.88 335.259 109.952 327.93 106.932 320.211C100.24 303.143 98.0224 283.988 100.605 265.624C102.672 250.957 112.453 242.722 124.74 236.615L149.453 243.597C161.057 253.121 166.125 267.935 168.896 283.58C171.667 299.224 174.755 316.349 174.73 332.284C174.706 351.822 180.964 371.338 182.625 390.79C182.889 393.903 181.474 403.167 178.517 415.551Z" fill="white"/>
<path d="M182.5 422.5L199.637 420.235L179.586 286.45C179.143 282.577 177.787 274.77 181.939 274.653L190.17 283.498C188.412 280.105 180.251 252.689 175.5 246.5C170 245.5 169.478 245.095 163.903 244.249C161.071 243.799 158.23 243.362 155.404 242.892L151.153 242.172C150.247 242.003 149.321 242.479 148.391 242.763L149.453 243.039C161.062 251.861 163.343 266.488 166.11 280.935C166.925 285.164 168.094 288.555 168.869 292.956C170.057 299.655 170.697 306.528 171.306 313.254L172.402 391.826L173 417L182.5 422.5Z" fill="#0D608A"/>
<path d="M148.98 254.375C148.991 254.375 148.98 254.355 148.98 254.324C148.968 254.355 148.969 254.377 148.98 254.375Z" fill="#021F42"/>
<path d="M211.146 369.146L181.905 361.721C181.808 361.696 181.724 361.633 181.672 361.547C181.621 361.46 181.606 361.357 181.63 361.259L194.439 310.844C194.464 310.746 194.527 310.662 194.613 310.611C194.7 310.559 194.803 310.544 194.901 310.569L224.143 318.004C224.191 318.017 224.237 318.038 224.276 318.068C224.316 318.097 224.35 318.135 224.375 318.177C224.401 318.22 224.417 318.268 224.424 318.317C224.431 318.366 224.429 318.416 224.416 318.464L211.607 368.882C211.581 368.978 211.517 369.059 211.431 369.109C211.344 369.158 211.242 369.172 211.146 369.146Z" fill="#FFD145"/>
<path d="M202.323 336.935L190.727 335.802L190.352 335.926C190.255 336.655 190.182 337.388 190.136 338.131C190.001 340.444 193.7 341.524 193.7 341.524L202.704 341.312C202.704 341.312 209.201 340.939 209.3 340.949C217.873 339.97 216.28 337.695 216.18 337.685C215.635 336.017 208.081 336.895 208.081 336.895L202.323 336.935Z" fill="#FFAD97"/>
<path d="M201.338 345.743L189.741 344.61L189.368 344.734C189.271 345.463 189.198 346.196 189.152 346.939C189.016 349.252 192.715 350.332 192.715 350.332L201.722 350.12C201.722 350.12 208.217 349.747 208.317 349.756C216.891 348.778 215.296 346.503 215.196 346.493C214.653 344.826 207.099 345.701 207.099 345.701L201.338 345.743Z" fill="#FFAD97"/>
<path d="M197.482 349.337L185.774 346.868L185.378 346.951C185.197 347.686 185.039 348.426 184.908 349.172C184.508 351.518 186.232 353.084 186.232 353.084L197.376 353.849C197.376 353.849 204.051 354.202 204.153 354.222C213.017 354.194 211.646 351.691 211.546 351.678C211.179 349.913 203.368 349.954 203.368 349.954L197.482 349.337Z" fill="#FFAD97"/>
<path d="M190.499 335.556C189.402 335.344 188.173 334.878 187.785 333.805C187.754 333.678 187.696 333.559 187.615 333.456C187.445 333.286 187.179 333.329 186.977 333.43C186.364 333.741 186.093 334.46 185.83 335.105C184.12 339.287 180.558 342.135 177.465 345.228L180.46 349.535L186.843 353.281L191.394 353.306C193.06 353.315 192.569 347.16 195.389 342.714C197.684 339.098 203.919 336.993 201.131 337.154C199.838 337.227 191.679 335.783 190.499 335.556Z" fill="#FFAD97"/>
<g opacity="0.45">
<path opacity="0.45" d="M198.125 347.075H198.135C198.126 347.072 198.121 347.072 198.125 347.075Z" fill="#EA4D15"/>
</g>
<path opacity="0.27" d="M201.338 345.743L192.656 344.895C197.251 348.458 210.872 345.633 214.534 345.913C212.573 345.065 207.095 345.706 207.095 345.706L201.338 345.743Z" fill="#EA4D15"/>
<path d="M202.48 341.808L190.883 340.674L190.51 340.798C190.413 341.528 190.34 342.261 190.294 343.004C190.158 345.316 193.857 346.396 193.857 346.396L202.862 346.186C202.862 346.186 209.357 345.811 209.457 345.821C218.031 344.843 216.436 342.568 216.338 342.557C215.793 340.89 208.239 341.767 208.239 341.767L202.48 341.808Z" fill="#FFAD97"/>
<path d="M186.247 343.1C185.507 348.079 186.833 353.279 186.833 353.279C186.833 353.279 185.937 353.211 183.85 352.534C182.925 352.236 181.764 351.817 180.341 351.228C178.279 350.38 174.078 348.889 171.983 347.389C171.93 347.403 167.724 348.04 164.483 348.534C162.666 348.889 160.54 349.298 158.171 349.722C159.093 347.321 159.873 344.867 160.506 342.374C161.242 339.321 161.344 336.191 161.836 333.112L165.833 333.817L172.685 333.413L181.238 329.476C182.935 328.526 185.76 327.746 189.337 328.438L189.943 328.541L187.052 339.972C186.668 340.982 186.399 342.031 186.247 343.1Z" fill="#FFAD97"/>
<g opacity="0.31">
<path opacity="0.31" d="M211.543 351.669C211.482 351.45 211.342 351.261 211.151 351.138C210.363 351.756 208.48 352.361 204.15 352.375C204.048 352.353 197.373 352 197.373 352L189.308 351.447L186.831 351.433C186.831 351.433 184.965 351.289 180.339 349.379C178.278 348.531 174.08 347.043 171.984 345.541C171.932 345.553 167.724 346.191 164.485 346.683C162.851 347.005 160.967 347.362 158.885 347.748C158.654 348.41 158.415 349.07 158.173 349.728C160.538 349.297 162.664 348.89 164.483 348.531C167.722 348.04 171.93 347.401 171.983 347.391C174.078 348.89 178.276 350.375 180.337 351.226C184.959 353.138 186.828 353.281 186.829 353.281L189.307 353.294L197.371 353.849C197.371 353.849 204.046 354.202 204.148 354.222C213.012 354.193 211.643 351.691 211.543 351.669Z" fill="#E87D6E"/>
</g>
<path d="M172.66 330.753L164.789 330.799L164.911 351.311L172.782 351.264L172.66 330.753Z" fill="#C6D6DE"/>
<path d="M146.669 340.727C146.429 348.917 144.081 366.099 141 387.5C139.928 394.964 140.216 392.658 139.5 397.5C131.5 393 128 391 121 387C120.62 386.783 109.413 380.144 109 380C99 374 105 377.5 96 372.5C96.164 370.888 96.3246 371.256 96.5 369.5C97.7623 356.894 98.8571 361.113 98.9165 344.744C99.0522 308.906 89.9542 264.993 95.2854 253.786C103.469 236.57 123.162 237.356 123.162 237.356C123.162 237.356 133.139 246.944 138.183 261.006C147.659 287.42 146.669 340.727 146.669 340.727Z" fill="#0D608A"/>
<g style="mix-blend-mode:multiply" opacity="0.1">
<path d="M146.046 349.728C139.491 346.827 126.672 346.452 119.532 345.691L99.2441 343.518C99.1321 343.504 99.0201 343.494 98.9047 343.484C98.9047 343.901 98.9047 344.318 98.9047 344.734C98.8793 351.572 97.3776 357.977 97.0654 364.338C97.3216 364.459 98.9064 364.837 99.2135 364.925C103.321 366.113 108.41 365.753 112.684 366.452C114.776 366.791 140.253 369.104 143.365 370.753C143.942 362.282 145.651 356.345 146.046 349.728Z" fill="#0C557A"/>
</g>
<g style="mix-blend-mode:multiply" opacity="0.1">
<path d="M97.6831 317.453C98.2362 324.397 98.6706 331.405 98.8352 338.221C99.2509 340.427 99.7243 341.986 100.26 341.523C100.841 341.014 103.411 340.135 103.654 339.407C107.409 327.796 108.904 315.064 108.771 302.862C108.658 292.61 106.549 269.102 97.6882 262.878C96.2663 265.774 100.108 272.039 100.927 275.301C102.239 280.518 102.838 285.897 102.911 291.271C103.057 302.046 100.898 307.195 97.6899 317.451L97.6831 317.453Z" fill="#0C557A"/>
</g>
<path d="M64.6877 355.469L66.661 357.817L66.6848 357.841C67.8383 359.201 69.2933 360.274 70.9343 360.974C72.5753 361.674 74.3569 361.981 76.1375 361.872L167.97 356.129L167.725 352.867H167.717L165.99 330.219L94.2267 332.362L97.8577 320.656C101.699 308.276 103.828 295.429 104.185 282.472L105.291 242.369L85.4663 253.693C83.6365 254.762 82.0511 256.202 80.812 257.921C79.5729 259.64 78.7076 261.6 78.272 263.673L68.7582 308.908L64.496 329.167L62.1086 346.541C61.8889 348.127 62.0049 349.741 62.4492 351.279C62.8935 352.817 63.6561 354.245 64.6877 355.469Z" fill="#0D608A"/>
<g style="mix-blend-mode:multiply" opacity="0.1">
<path d="M64.6877 355.469L66.661 357.817L66.6848 357.841C67.8383 359.202 69.2933 360.274 70.9343 360.974C72.5753 361.674 74.3569 361.981 76.1375 361.872L167.97 356.129L167.725 352.867H167.717C164.478 352.482 161.183 352.56 157.911 352.636C141.088 353.028 124.249 353.427 107.458 354.594C103.442 354.87 99.4256 355.193 95.411 355.507C90.2076 355.93 85.0042 356.347 79.8008 356.759C77.6052 356.928 74.7325 356.966 72.9594 355.415C71.8989 354.494 72.1297 352.651 71.0624 351.745C70.472 351.237 69.6422 351.162 68.8736 351.008C67.4924 350.733 66.0485 349.979 65.5955 348.644C65.5038 348.383 65.587 347.66 65.5496 347.323C65.4716 346.724 65.3257 346.149 65.2883 345.541C65.2505 344.476 65.2856 343.409 65.3935 342.349C66.0926 333.995 65.8924 324.936 67.5586 316.732C67.881 315.158 70.4228 311.327 69.6321 309.846C69.4424 309.455 69.1406 309.129 68.765 308.91L64.496 329.167L62.1086 346.541C61.8889 348.127 62.0049 349.741 62.4492 351.279C62.8935 352.817 63.6561 354.245 64.6877 355.469Z" fill="#0C557A"/>
</g>
<path d="M170.819 173.755C170.194 175.64 169.273 177.488 167.812 178.828C165.691 180.782 162.661 181.464 159.779 181.435C156.856 181.405 154.034 180.908 151.246 180.207C149.719 179.827 148.214 179.388 146.709 178.94C145.059 179.014 143.429 179.329 141.87 179.875C139.447 180.738 136.865 182.575 137.226 185.436C137.492 187.502 138.638 189.436 139.53 191.278C141.436 195.224 143.151 199.878 138.512 202.626C135.636 204.331 135.651 200.214 133.78 198.363L128.108 196.062L126.996 197.564C127.127 199.63 127.264 201.695 127.395 203.761C127.473 204.931 127.541 206.144 127.093 207.225C126.764 207.952 126.292 208.605 125.705 209.145H125.629C123.688 209.052 116.841 213.424 116.127 213.882L115.09 214.549C115.089 214.513 115.085 214.477 115.08 214.442C115.08 214.369 115.065 214.272 115.046 214.135C115.048 214.124 115.048 214.112 115.046 214.101C115.046 214.043 115.031 213.979 115.022 213.911C115.025 213.9 115.025 213.888 115.022 213.877C115.012 213.794 115.002 213.707 114.988 213.614C114.986 213.604 114.986 213.595 114.988 213.585C114.973 213.502 114.958 213.415 114.944 213.326L114.929 213.239C114.915 213.156 114.9 213.069 114.885 212.979C114.885 212.951 114.876 212.927 114.871 212.898C114.851 212.786 114.827 212.664 114.803 212.542C114.797 212.504 114.788 212.467 114.778 212.43C114.764 212.336 114.744 212.245 114.725 212.152C114.71 212.099 114.7 212.05 114.69 211.995C114.666 211.899 114.647 211.8 114.622 211.699C114.613 211.651 114.602 211.604 114.588 211.558C114.559 211.425 114.525 211.285 114.486 211.139C114.471 211.074 114.452 211.006 114.437 210.939C114.422 210.871 114.388 210.759 114.364 210.665C114.34 210.572 114.32 210.509 114.301 210.431C114.282 210.353 114.247 210.241 114.218 210.145C114.184 210.017 114.145 209.887 114.106 209.754C114.077 209.658 114.047 209.559 114.013 209.458C113.979 209.356 113.955 209.268 113.921 209.169C113.887 209.071 113.867 209 113.843 208.922C113.819 208.843 113.794 208.784 113.77 208.716C112.805 206.933 111.542 205.306 110.222 203.781C109.034 202.407 107.76 201.077 106.566 199.71C105.205 198.142 104.324 196.216 104.027 194.162L101.414 176.09C101.337 175.559 101.383 175.018 101.547 174.508C101.712 173.997 101.992 173.532 102.364 173.146C107.658 167.64 109.569 166.685 112.351 164.623C114.331 163.169 116.492 161.978 118.779 161.081C119.353 160.847 119.935 160.633 120.523 160.438C120.817 160.34 121.108 160.243 121.405 160.15C125.148 158.981 129.11 158.362 133.025 158.021C133.031 158.033 133.039 158.045 133.049 158.055C133.049 158.055 149.214 156.188 154.088 154.809C158.373 153.591 165.747 154.366 168.511 155.488C168.811 155.623 169.1 155.783 169.375 155.965L169.57 156.11C169.652 156.174 169.73 156.242 169.804 156.316C169.877 156.381 169.947 156.451 170.013 156.524C170.155 156.682 170.287 156.848 170.408 157.021C170.466 157.11 170.525 157.191 170.578 157.289C170.63 157.388 170.685 157.471 170.734 157.568C170.783 157.664 170.827 157.753 170.875 157.851C170.919 157.953 170.963 158.05 171.002 158.153C171.681 159.861 171.804 161.987 171.923 163.582C172.164 167.019 171.901 170.495 170.819 173.755Z" fill="#041F2D"/>
<path d="M118.002 198.179C120.822 218.149 137.14 229.819 150.071 227.992C157.893 226.889 162.143 223.301 163.243 209.402C163.663 204.078 163.521 194.194 162.734 188.662C159.913 168.693 147.943 161.235 135.007 163.061C122.071 164.886 115.183 178.215 118.002 198.179Z" fill="#FFAD97"/>
<path d="M129.701 180.082C129.701 180.082 132.702 195.859 118.416 200.656C118.132 200.444 112.138 196.471 112.138 196.471C112.138 196.471 117.442 183.379 117.749 181.771C118.056 180.163 123.698 174.804 123.698 174.804L129.701 180.082Z" fill="#041F2D"/>
<path d="M110.867 197.996C110.053 198.423 109.332 199.007 108.743 199.713C108.155 200.419 107.712 201.234 107.439 202.112C107.166 202.99 107.069 203.912 107.153 204.827C107.237 205.743 107.5 206.632 107.928 207.446C109.728 210.855 115.93 218.464 123.749 214.337C127.972 212.106 124.365 205.495 122.561 202.083C120.757 198.671 114.294 196.188 110.867 197.996Z" fill="#FFB47F"/>
<path d="M110.867 197.996C110.053 198.423 109.332 199.007 108.743 199.713C108.155 200.419 107.712 201.234 107.439 202.112C107.166 202.99 107.069 203.912 107.153 204.827C107.237 205.743 107.5 206.632 107.928 207.446C109.728 210.855 115.93 218.464 123.747 214.337C127.972 212.106 124.365 205.495 122.559 202.083C120.754 198.671 114.294 196.188 110.867 197.996Z" fill="#FFAD97"/>
<path opacity="0.2" d="M119.385 204.404C118.665 203.121 115.328 201.645 113.395 202.068C113.295 202.088 113.197 202.12 113.105 202.165C112.765 202.354 112.465 202.609 112.224 202.914C111.983 203.219 111.804 203.57 111.698 203.944C111.592 204.314 111.56 204.7 111.604 205.082C111.649 205.464 111.769 205.833 111.958 206.168C112.935 207.909 116.634 212.679 120.696 211.789C121.241 211.662 121.766 211.464 122.257 211.198C122.308 210.18 121.383 207.965 119.502 204.613L119.385 204.404Z" fill="#E87D6E"/>
<path d="M164.315 171.046L147.607 164.245C140.661 161.419 133.091 160.482 125.666 161.531C122.821 161.933 120.071 162.841 117.545 164.211L110.249 168.169C106.691 172.497 104.972 178.048 105.463 183.629L105.824 187.716C105.824 187.716 115.823 189.346 115.994 188.957C116.166 188.569 133.132 178.728 134.352 178.366C135.572 178.005 155.514 179.573 155.514 179.573C155.514 179.573 166.213 179.774 167.221 178.68C168.229 177.586 164.315 171.046 164.315 171.046Z" fill="#041F2D"/>
<g style="mix-blend-mode:multiply" opacity="0.13">
<path d="M170.998 158.168C170.307 158.708 169.585 159.206 168.835 159.659C163.697 162.845 157.994 165.014 152.037 166.047C146.268 167.02 140.357 166.827 134.742 165.185C131.277 164.167 127.933 162.627 124.458 161.734C123.252 161.413 122.021 161.195 120.778 161.081C120.112 161.032 119.444 161.032 118.779 161.081C119.353 160.855 119.935 160.641 120.523 160.438C120.817 160.34 121.108 160.243 121.405 160.15C125.148 158.981 129.11 158.362 133.025 158.021C133.031 158.033 133.039 158.045 133.049 158.055C133.049 158.055 149.214 156.188 154.088 154.809C158.373 153.591 165.747 154.366 168.511 155.488C168.811 155.623 169.1 155.783 169.375 155.965L169.57 156.11C169.652 156.174 169.73 156.242 169.804 156.316C169.877 156.381 169.947 156.451 170.013 156.524C170.155 156.682 170.287 156.848 170.408 157.021C170.466 157.11 170.525 157.191 170.578 157.289C170.63 157.388 170.685 157.471 170.734 157.568C170.783 157.664 170.827 157.753 170.875 157.851C170.915 157.968 170.959 158.065 170.998 158.168Z" fill="#041F2D"/>
</g>
<path d="M124.684 233.264C124.684 233.264 125.193 236.318 123.156 237.349C121.12 238.381 148.732 254.134 153.686 253.805C158.641 253.476 149.746 243.918 149.746 242.211C149.746 240.505 124.684 233.264 124.684 233.264Z" fill="#FFAD97"/>
<path d="M288.896 382.336C291.755 380.203 294.016 378.272 295.68 376.544C297.344 374.795 298.176 373.163 298.176 371.648C298.176 371.136 298.059 370.741 297.824 370.464C297.611 370.187 297.323 370.048 296.96 370.048C296.533 370.048 296.192 370.272 295.936 370.72C295.701 371.147 295.616 371.808 295.68 372.704H288.8C288.864 370.72 289.291 369.088 290.08 367.808C290.891 366.528 291.936 365.589 293.216 364.992C294.496 364.395 295.904 364.096 297.44 364.096C300.171 364.096 302.165 364.757 303.424 366.08C304.704 367.381 305.344 369.056 305.344 371.104C305.344 373.259 304.651 375.285 303.264 377.184C301.899 379.061 300.181 380.651 298.112 381.952H305.44V387.68H288.896V382.336ZM307.149 375.968C307.149 372.277 307.928 369.376 309.485 367.264C311.064 365.152 313.485 364.096 316.749 364.096C319.992 364.096 322.402 365.163 323.981 367.296C325.56 369.408 326.349 372.299 326.349 375.968C326.349 379.659 325.56 382.571 323.981 384.704C322.402 386.816 319.992 387.872 316.749 387.872C313.485 387.872 311.064 386.816 309.485 384.704C307.928 382.571 307.149 379.659 307.149 375.968ZM319.341 375.968C319.341 374.261 319.17 372.981 318.829 372.128C318.488 371.253 317.794 370.816 316.749 370.816C315.682 370.816 314.978 371.253 314.637 372.128C314.296 372.981 314.125 374.261 314.125 375.968C314.125 377.696 314.296 378.997 314.637 379.872C314.978 380.725 315.682 381.152 316.749 381.152C317.794 381.152 318.488 380.725 318.829 379.872C319.17 378.997 319.341 377.696 319.341 375.968ZM328.209 382.336C331.067 380.203 333.329 378.272 334.993 376.544C336.657 374.795 337.489 373.163 337.489 371.648C337.489 371.136 337.371 370.741 337.137 370.464C336.923 370.187 336.635 370.048 336.273 370.048C335.846 370.048 335.505 370.272 335.249 370.72C335.014 371.147 334.929 371.808 334.993 372.704H328.113C328.177 370.72 328.603 369.088 329.393 367.808C330.203 366.528 331.249 365.589 332.529 364.992C333.809 364.395 335.217 364.096 336.753 364.096C339.483 364.096 341.478 364.757 342.737 366.08C344.017 367.381 344.657 369.056 344.657 371.104C344.657 373.259 343.963 375.285 342.577 377.184C341.211 379.061 339.494 380.651 337.425 381.952H344.753V387.68H328.209V382.336ZM346.334 382.336C349.192 380.203 351.454 378.272 353.118 376.544C354.782 374.795 355.614 373.163 355.614 371.648C355.614 371.136 355.496 370.741 355.262 370.464C355.048 370.187 354.76 370.048 354.398 370.048C353.971 370.048 353.63 370.272 353.374 370.72C353.139 371.147 353.054 371.808 353.118 372.704H346.238C346.302 370.72 346.728 369.088 347.518 367.808C348.328 366.528 349.374 365.589 350.654 364.992C351.934 364.395 353.342 364.096 354.878 364.096C357.608 364.096 359.603 364.757 360.862 366.08C362.142 367.381 362.782 369.056 362.782 371.104C362.782 373.259 362.088 375.285 360.702 377.184C359.336 379.061 357.619 380.651 355.55 381.952H362.878V387.68H346.334V382.336ZM368.683 388.256C367.445 388.256 366.453 387.925 365.707 387.264C364.96 386.603 364.587 385.771 364.587 384.768C364.587 383.744 364.96 382.901 365.707 382.24C366.453 381.557 367.445 381.216 368.683 381.216C369.899 381.216 370.88 381.557 371.627 382.24C372.373 382.901 372.747 383.744 372.747 384.768C372.747 385.771 372.373 386.603 371.627 387.264C370.88 387.925 369.899 388.256 368.683 388.256ZM368.683 375.584C367.445 375.584 366.453 375.253 365.707 374.592C364.96 373.931 364.587 373.099 364.587 372.096C364.587 371.072 364.96 370.229 365.707 369.568C366.453 368.885 367.445 368.544 368.683 368.544C369.899 368.544 370.88 368.885 371.627 369.568C372.373 370.229 372.747 371.072 372.747 372.096C372.747 373.099 372.373 373.931 371.627 374.592C370.88 375.253 369.899 375.584 368.683 375.584ZM379.539 371.264V364.608H390.387V388H382.931V371.264H379.539ZM393.024 375.968C393.024 372.277 393.803 369.376 395.36 367.264C396.939 365.152 399.36 364.096 402.624 364.096C405.867 364.096 408.277 365.163 409.856 367.296C411.435 369.408 412.224 372.299 412.224 375.968C412.224 379.659 411.435 382.571 409.856 384.704C408.277 386.816 405.867 387.872 402.624 387.872C399.36 387.872 396.939 386.816 395.36 384.704C393.803 382.571 393.024 379.659 393.024 375.968ZM405.216 375.968C405.216 374.261 405.045 372.981 404.704 372.128C404.363 371.253 403.669 370.816 402.624 370.816C401.557 370.816 400.853 371.253 400.512 372.128C400.171 372.981 400 374.261 400 375.968C400 377.696 400.171 378.997 400.512 379.872C400.853 380.725 401.557 381.152 402.624 381.152C403.669 381.152 404.363 380.725 404.704 379.872C405.045 378.997 405.216 377.696 405.216 375.968ZM434.753 384.576H427.201L426.081 388H418.625L426.913 365.344H435.105L443.361 388H435.873L434.753 384.576ZM433.025 379.232L430.977 372.928L428.929 379.232H433.025ZM466.703 388H459.599L452.079 376.608V388H444.975V365.344H452.079L459.599 376.928V365.344H466.703V388ZM491.641 388H484.537L477.017 376.608V388H469.913V365.344H477.017L484.537 376.928V365.344H491.641V388ZM503.714 388.224C501.005 388.224 498.765 387.595 496.994 386.336C495.245 385.056 494.295 383.189 494.146 380.736H501.698C501.805 382.037 502.381 382.688 503.426 382.688C503.81 382.688 504.13 382.603 504.386 382.432C504.663 382.24 504.802 381.952 504.802 381.568C504.802 381.035 504.514 380.608 503.938 380.288C503.362 379.947 502.466 379.563 501.25 379.136C499.799 378.624 498.594 378.123 497.634 377.632C496.695 377.141 495.885 376.427 495.202 375.488C494.519 374.549 494.189 373.344 494.21 371.872C494.21 370.4 494.583 369.152 495.33 368.128C496.098 367.083 497.133 366.293 498.434 365.76C499.757 365.227 501.239 364.96 502.882 364.96C505.655 364.96 507.853 365.6 509.474 366.88C511.117 368.16 511.981 369.963 512.066 372.288H504.418C504.397 371.648 504.237 371.189 503.938 370.912C503.639 370.635 503.277 370.496 502.85 370.496C502.551 370.496 502.306 370.603 502.114 370.816C501.922 371.008 501.826 371.285 501.826 371.648C501.826 372.16 502.103 372.587 502.658 372.928C503.234 373.248 504.141 373.643 505.378 374.112C506.807 374.645 507.981 375.157 508.898 375.648C509.837 376.139 510.647 376.821 511.33 377.696C512.013 378.571 512.354 379.669 512.354 380.992C512.354 382.379 512.013 383.627 511.33 384.736C510.647 385.824 509.655 386.677 508.354 387.296C507.053 387.915 505.506 388.224 503.714 388.224ZM299.04 397.344C301.408 397.344 303.477 397.824 305.248 398.784C307.04 399.744 308.416 401.077 309.376 402.784C310.336 404.491 310.816 406.432 310.816 408.608C310.816 410.763 310.336 412.704 309.376 414.432C308.416 416.16 307.04 417.525 305.248 418.528C303.477 419.509 301.408 420 299.04 420H289.6V397.344H299.04ZM298.4 413.664C300 413.664 301.269 413.227 302.208 412.352C303.147 411.477 303.616 410.229 303.616 408.608C303.616 406.987 303.147 405.739 302.208 404.864C301.269 403.989 300 403.552 298.4 403.552H296.704V413.664H298.4ZM318.821 394.304L318.405 401.824H313.669L313.221 394.304H318.821ZM328.954 403.008V405.792H335.994V411.136H328.954V414.336H336.954V420H321.85V397.344H336.954V403.008H328.954ZM354.063 420L349.903 414.112L346.447 420H338.351L345.807 408.32L338.031 397.344H346.447L350.447 403.008L353.775 397.344H361.871L354.543 408.8L362.479 420H354.063ZM371.173 397.344V420H364.069V397.344H371.173ZM383.245 420.224C380.536 420.224 378.296 419.595 376.525 418.336C374.776 417.056 373.827 415.189 373.677 412.736H381.229C381.336 414.037 381.912 414.688 382.957 414.688C383.341 414.688 383.661 414.603 383.917 414.432C384.195 414.24 384.333 413.952 384.333 413.568C384.333 413.035 384.045 412.608 383.469 412.288C382.893 411.947 381.997 411.563 380.781 411.136C379.331 410.624 378.125 410.123 377.165 409.632C376.227 409.141 375.416 408.427 374.733 407.488C374.051 406.549 373.72 405.344 373.741 403.872C373.741 402.4 374.115 401.152 374.861 400.128C375.629 399.083 376.664 398.293 377.965 397.76C379.288 397.227 380.771 396.96 382.413 396.96C385.187 396.96 387.384 397.6 389.005 398.88C390.648 400.16 391.512 401.963 391.597 404.288H383.949C383.928 403.648 383.768 403.189 383.469 402.912C383.171 402.635 382.808 402.496 382.381 402.496C382.083 402.496 381.837 402.603 381.645 402.816C381.453 403.008 381.357 403.285 381.357 403.648C381.357 404.16 381.635 404.587 382.189 404.928C382.765 405.248 383.672 405.643 384.909 406.112C386.339 406.645 387.512 407.157 388.429 407.648C389.368 408.139 390.179 408.821 390.861 409.696C391.544 410.571 391.885 411.669 391.885 412.992C391.885 414.379 391.544 415.627 390.861 416.736C390.179 417.824 389.187 418.677 387.885 419.296C386.584 419.915 385.037 420.224 383.245 420.224ZM412.173 397.344V402.976H406.157V420H399.053V402.976H393.101V397.344H412.173ZM421.204 403.008V405.792H428.244V411.136H421.204V414.336H429.204V420H414.1V397.344H429.204V403.008H421.204ZM453.609 420H446.505L438.985 408.608V420H431.881V397.344H438.985L446.505 408.928V397.344H453.609V420ZM456.179 408.64C456.179 406.4 456.627 404.405 457.523 402.656C458.44 400.907 459.741 399.552 461.427 398.592C463.112 397.611 465.096 397.12 467.379 397.12C469.341 397.12 471.091 397.493 472.627 398.24C474.184 398.965 475.443 400 476.403 401.344C477.384 402.688 478.035 404.256 478.355 406.048H470.867C470.525 405.301 470.035 404.725 469.395 404.32C468.776 403.893 468.061 403.68 467.251 403.68C466.056 403.68 465.107 404.128 464.403 405.024C463.72 405.92 463.379 407.125 463.379 408.64C463.379 410.155 463.72 411.36 464.403 412.256C465.107 413.152 466.056 413.6 467.251 413.6C468.061 413.6 468.776 413.397 469.395 412.992C470.035 412.565 470.525 411.979 470.867 411.232H478.355C478.035 413.024 477.384 414.592 476.403 415.936C475.443 417.28 474.184 418.325 472.627 419.072C471.091 419.797 469.341 420.16 467.379 420.16C465.096 420.16 463.112 419.68 461.427 418.72C459.741 417.739 458.44 416.373 457.523 414.624C456.627 412.875 456.179 410.88 456.179 408.64ZM488.017 403.008V405.792H495.057V411.136H488.017V414.336H496.017V420H480.913V397.344H496.017V403.008H488.017ZM508.262 395.84L507.43 411.008H501.35L500.518 395.84H508.262ZM504.39 420.256C503.152 420.256 502.16 419.925 501.414 419.264C500.667 418.603 500.294 417.771 500.294 416.768C500.294 415.744 500.667 414.901 501.414 414.24C502.16 413.557 503.152 413.216 504.39 413.216C505.606 413.216 506.587 413.557 507.334 414.24C508.08 414.901 508.454 415.744 508.454 416.768C508.454 417.771 508.08 418.603 507.334 419.264C506.587 419.925 505.606 420.256 504.39 420.256Z" fill="#FF7F50"/>
</svg>
