<svg width="495" height="461" viewBox="0 0 495 461" fill="none" xmlns="http://www.w3.org/2000/svg">
<path d="M70 157.403V323.594C70.0133 333.803 72.7049 343.829 77.8048 352.667C82.9048 361.505 90.234 368.845 99.0575 373.949L235.983 453.211C244.803 458.314 254.808 461 264.992 461C275.176 461 285.181 458.314 294.001 453.211L430.943 373.949C439.766 368.845 447.095 361.505 452.195 352.667C457.295 343.829 459.987 333.803 460 323.594V157.403C459.995 147.194 457.307 137.166 452.206 128.329C447.105 119.492 439.771 112.158 430.943 107.063L294.001 27.8013C285.184 22.6909 275.178 20 264.992 20C254.806 20 244.8 22.6909 235.983 27.8013L99.0575 107.063C90.2287 112.158 82.8948 119.492 77.7938 128.329C72.6928 137.166 70.0047 147.194 70 157.403H70Z" fill="#EDF8FD"/>
<path opacity="0.5" d="M0 109.673V242.324C0.01066 250.473 2.17082 258.476 6.26389 265.53C10.357 272.585 16.2391 278.443 23.3205 282.517L133.212 345.783C140.29 349.856 148.32 352 156.494 352C164.667 352 172.697 349.856 179.775 345.783L289.68 282.517C296.761 278.443 302.643 272.585 306.736 265.53C310.829 258.476 312.989 250.473 313 242.324V109.673C312.996 101.524 310.839 93.5206 306.745 86.467C302.651 79.4135 296.765 73.5589 289.68 69.4926L179.775 6.22689C172.699 2.14781 164.668 0 156.494 0C148.319 0 140.288 2.14781 133.212 6.22689L23.3205 69.4926C16.2348 73.5589 10.3489 79.4135 6.25499 86.467C2.16112 93.5206 0.00374941 101.524 0 109.673H0Z" fill="#EDF8FD"/>
<path d="M241.189 224.383L228.268 238.969C223.733 236.637 218.882 234.98 213.868 234.048L212.715 214.528C212.691 214.171 212.594 213.823 212.432 213.504C212.269 213.186 212.043 212.904 211.768 212.675C211.22 212.217 210.523 211.977 209.809 212.002L186.895 213.428C186.535 213.448 186.183 213.539 185.859 213.696C185.535 213.853 185.245 214.073 185.007 214.343C184.768 214.612 184.585 214.927 184.469 215.268C184.352 215.608 184.305 215.969 184.328 216.328L185.535 235.76C180.67 237.323 176.043 239.544 171.782 242.362L157.281 229.519C156.733 229.039 156.017 228.795 155.289 228.84C154.562 228.885 153.882 229.216 153.398 229.761L138.153 246.97C137.681 247.516 137.445 248.226 137.495 248.945C137.546 249.664 137.878 250.334 138.421 250.808L152.927 263.647C150.644 268.218 148.998 273.079 148.036 278.097L128.551 279.29C128.194 279.308 127.844 279.397 127.522 279.552C127.2 279.707 126.913 279.925 126.676 280.193C126.439 280.46 126.258 280.772 126.143 281.111C126.028 281.449 125.982 281.807 126.007 282.164L127.354 305.086C127.402 305.804 127.731 306.474 128.268 306.953C128.806 307.432 129.509 307.681 130.228 307.647L149.7 306.494C151.29 311.33 153.525 315.93 156.343 320.169L143.453 334.694C142.975 335.238 142.733 335.95 142.78 336.673C142.827 337.396 143.16 338.071 143.704 338.549L160.917 353.791C161.183 354.032 161.494 354.217 161.833 354.336C162.171 354.455 162.53 354.506 162.888 354.485C163.246 354.464 163.596 354.372 163.919 354.214C164.241 354.057 164.528 353.837 164.765 353.567L177.655 339.016C182.195 341.318 187.03 342.985 192.024 343.972L193.256 363.461C193.305 364.175 193.633 364.842 194.169 365.316C194.706 365.79 195.407 366.035 196.122 365.996L219.098 364.596C219.807 364.528 220.464 364.193 220.936 363.66C221.408 363.126 221.66 362.434 221.643 361.722L220.458 342.233C225.307 340.645 229.922 338.416 234.18 335.605L248.756 348.509C249.293 348.984 249.995 349.228 250.71 349.186C251.425 349.145 252.095 348.823 252.573 348.289L267.818 331.08C268.303 330.541 268.554 329.833 268.517 329.109C268.48 328.386 268.157 327.706 267.62 327.22L253.04 314.311C255.314 309.744 256.971 304.896 257.966 299.892L277.429 298.761C278.142 298.686 278.802 298.347 279.278 297.81C279.754 297.273 280.011 296.578 280 295.861L278.622 272.877C278.572 272.164 278.244 271.499 277.709 271.025C277.174 270.55 276.474 270.305 275.76 270.342L256.209 271.53C254.696 266.665 252.471 262.051 249.606 257.837L262.527 243.251C262.766 242.984 262.949 242.673 263.066 242.334C263.183 241.995 263.231 241.637 263.207 241.28C263.184 240.922 263.09 240.573 262.93 240.253C262.77 239.932 262.547 239.647 262.276 239.413L245.041 224.171C244.774 223.932 244.463 223.748 244.125 223.629C243.787 223.51 243.429 223.459 243.071 223.478C242.713 223.498 242.363 223.588 242.04 223.743C241.717 223.898 241.428 224.116 241.189 224.383V224.383ZM219.397 303.501C216.533 306.748 212.77 309.072 208.584 310.18C204.398 311.288 199.978 311.13 195.882 309.726C191.785 308.322 188.198 305.736 185.572 302.294C182.946 298.851 181.401 294.708 181.13 290.387C180.86 286.067 181.877 281.763 184.054 278.02C186.23 274.278 189.467 271.264 193.356 269.361C197.246 267.458 201.612 266.751 205.903 267.329C210.194 267.907 214.218 269.744 217.465 272.608C221.8 276.46 224.436 281.87 224.798 287.657C225.16 293.444 223.219 299.139 219.397 303.501Z" fill="#CEECFA"/>
<g style="mix-blend-mode:multiply" opacity="0.6">
<path style="mix-blend-mode:multiply" opacity="0.6" d="M402.672 317.417C401.328 317.422 400.014 317.028 398.895 316.285C397.775 315.543 396.901 314.485 396.384 313.245C395.866 312.006 395.728 310.641 395.987 309.323C396.246 308.005 396.891 306.794 397.839 305.842C398.787 304.891 399.996 304.242 401.314 303.978C402.631 303.714 403.997 303.847 405.238 304.36C406.48 304.873 407.541 305.743 408.288 306.859C409.035 307.975 409.434 309.288 409.434 310.631C409.434 312.427 408.722 314.149 407.455 315.421C406.187 316.692 404.467 317.41 402.672 317.417V317.417ZM402.672 305.546C401.663 305.541 400.676 305.836 399.834 306.392C398.993 306.949 398.337 307.743 397.947 308.674C397.558 309.604 397.454 310.63 397.649 311.619C397.843 312.609 398.327 313.519 399.039 314.233C399.751 314.948 400.659 315.435 401.648 315.632C402.637 315.83 403.663 315.73 404.595 315.344C405.527 314.958 406.324 314.304 406.884 313.465C407.444 312.626 407.742 311.64 407.741 310.631C407.74 309.285 407.206 307.994 406.256 307.04C405.307 306.086 404.018 305.546 402.672 305.539V305.546Z" fill="#16A1E7"/>
<path style="mix-blend-mode:multiply" opacity="0.6" d="M406.212 334.277H399.1C398.989 334.277 398.879 334.255 398.777 334.212C398.675 334.17 398.582 334.107 398.504 334.029C398.426 333.95 398.364 333.857 398.322 333.754C398.28 333.651 398.259 333.541 398.26 333.43V327.416C396.735 327.012 395.273 326.402 393.913 325.602L389.627 329.888C389.467 330.041 389.254 330.126 389.032 330.126C388.81 330.126 388.598 330.041 388.437 329.888L383.404 324.856C383.326 324.778 383.263 324.685 383.22 324.583C383.178 324.481 383.156 324.372 383.156 324.261C383.156 324.151 383.178 324.041 383.22 323.939C383.263 323.837 383.326 323.744 383.404 323.667L387.659 319.381C386.864 318.022 386.256 316.563 385.851 315.042H379.839C379.729 315.042 379.619 315.02 379.517 314.977C379.414 314.935 379.321 314.872 379.243 314.794C379.165 314.715 379.104 314.621 379.062 314.519C379.02 314.416 378.999 314.306 379 314.195V307.06C379 306.949 379.021 306.84 379.063 306.738C379.105 306.636 379.167 306.543 379.245 306.464C379.323 306.386 379.415 306.324 379.517 306.281C379.619 306.239 379.729 306.217 379.839 306.217H385.883C386.29 304.692 386.897 303.228 387.691 301.864L383.436 297.578C383.358 297.5 383.295 297.408 383.253 297.306C383.21 297.204 383.188 297.094 383.188 296.984C383.188 296.873 383.21 296.763 383.253 296.661C383.295 296.559 383.358 296.467 383.436 296.389L388.466 291.389C388.544 291.311 388.637 291.249 388.739 291.206C388.841 291.164 388.95 291.142 389.061 291.142C389.171 291.142 389.281 291.164 389.383 291.206C389.485 291.249 389.577 291.311 389.655 291.389L393.942 295.657C395.3 294.852 396.763 294.238 398.289 293.832V287.843C398.288 287.732 398.31 287.623 398.352 287.521C398.394 287.418 398.456 287.325 398.534 287.247C398.612 287.169 398.704 287.107 398.806 287.064C398.908 287.022 399.018 287 399.128 287H406.244C406.355 287 406.465 287.021 406.567 287.063C406.669 287.105 406.763 287.167 406.841 287.246C406.919 287.324 406.981 287.417 407.024 287.52C407.066 287.622 407.087 287.732 407.087 287.843V293.846C408.616 294.253 410.082 294.867 411.445 295.671L415.695 291.403C415.856 291.245 416.072 291.157 416.297 291.157C416.523 291.157 416.739 291.245 416.899 291.403L421.921 296.403C422.078 296.562 422.169 296.773 422.175 296.996C422.176 297.107 422.155 297.216 422.114 297.319C422.072 297.421 422.01 297.514 421.932 297.592L417.646 301.878C418.458 303.233 419.068 304.7 419.457 306.231H425.483C425.594 306.231 425.704 306.252 425.806 306.295C425.909 306.337 426.003 306.399 426.081 306.477C426.16 306.555 426.222 306.648 426.265 306.751C426.307 306.853 426.329 306.963 426.329 307.074V314.203C426.33 314.314 426.308 314.424 426.266 314.527C426.223 314.63 426.161 314.723 426.082 314.802C426.004 314.881 425.91 314.943 425.807 314.986C425.704 315.028 425.594 315.049 425.483 315.049H419.457C419.069 316.576 418.459 318.038 417.646 319.388L421.932 323.674C422.088 323.833 422.175 324.046 422.175 324.268C422.175 324.491 422.088 324.704 421.932 324.863L416.903 329.895C416.739 330.048 416.523 330.134 416.299 330.134C416.075 330.134 415.859 330.048 415.695 329.895L411.445 325.609C410.08 326.407 408.615 327.018 407.087 327.424V333.441C407.086 333.554 407.063 333.666 407.019 333.77C406.974 333.874 406.909 333.967 406.827 334.045C406.746 334.123 406.649 334.184 406.543 334.224C406.437 334.264 406.325 334.282 406.212 334.277V334.277ZM399.946 332.595H405.376V326.749C405.374 326.557 405.438 326.371 405.558 326.221C405.678 326.071 405.846 325.967 406.033 325.927C407.828 325.531 409.538 324.818 411.084 323.824C411.247 323.722 411.439 323.678 411.63 323.7C411.821 323.722 411.999 323.809 412.134 323.945L416.271 328.081L420.11 324.245L415.96 320.085C415.826 319.948 415.742 319.769 415.722 319.578C415.703 319.388 415.749 319.196 415.853 319.035C416.851 317.501 417.561 315.798 417.949 314.01C417.99 313.823 418.093 313.656 418.242 313.536C418.391 313.416 418.576 313.352 418.767 313.353H424.618V307.914H418.767C418.575 307.914 418.389 307.848 418.24 307.727C418.092 307.606 417.989 307.437 417.949 307.249C417.559 305.458 416.849 303.752 415.853 302.214C415.749 302.052 415.703 301.86 415.722 301.668C415.741 301.477 415.825 301.298 415.96 301.16L420.11 297.01L416.271 293.189L412.134 297.335C411.997 297.476 411.814 297.564 411.619 297.585C411.423 297.606 411.227 297.558 411.063 297.45C409.519 296.453 407.811 295.738 406.019 295.335C405.832 295.295 405.664 295.191 405.545 295.041C405.425 294.892 405.36 294.706 405.362 294.514V288.682H399.932V294.514C399.932 294.706 399.866 294.893 399.745 295.042C399.624 295.192 399.456 295.295 399.268 295.335C397.476 295.738 395.77 296.453 394.228 297.45C394.064 297.559 393.867 297.608 393.671 297.587C393.475 297.566 393.293 297.477 393.156 297.335L389.012 293.189L385.176 297.01L389.309 301.16C389.445 301.295 389.531 301.473 389.551 301.664C389.571 301.854 389.525 302.046 389.42 302.207C388.432 303.753 387.72 305.459 387.316 307.249C387.277 307.437 387.175 307.605 387.027 307.726C386.878 307.847 386.693 307.913 386.501 307.914H380.704V313.353H386.533C386.724 313.352 386.909 313.418 387.057 313.537C387.205 313.657 387.308 313.824 387.348 314.01C387.75 315.795 388.462 317.495 389.452 319.035C389.557 319.196 389.603 319.388 389.583 319.579C389.563 319.771 389.478 319.949 389.341 320.085L385.208 324.242L389.045 328.081L393.188 323.945C393.322 323.808 393.5 323.722 393.69 323.7C393.88 323.678 394.073 323.721 394.235 323.824C395.779 324.818 397.488 325.531 399.282 325.927C399.47 325.967 399.639 326.07 399.76 326.22C399.882 326.369 399.947 326.556 399.946 326.749V332.595Z" fill="#16A1E7"/>
</g>
<path d="M467.496 257.862C364.934 246.551 261.438 246.551 158.875 257.862V60.3206C261.438 71.6321 364.934 71.6321 467.496 60.3206V257.862Z" fill="white"/>
<g style="mix-blend-mode:multiply" opacity="0.3">
<g style="mix-blend-mode:multiply" opacity="0.3">
<path d="M483.427 405.294H392V408.318H483.427V405.294Z" fill="#473F66"/>
</g>
</g>
<g style="mix-blend-mode:multiply" opacity="0.3">
<g style="mix-blend-mode:multiply" opacity="0.3">
<path d="M173.427 405.294H82V408.318H173.427V405.294Z" fill="#473F66"/>
</g>
</g>
<g style="mix-blend-mode:multiply" opacity="0.1">
<path d="M224.049 410.857C224.049 413.155 198.088 415 166.016 415C133.943 415 107.983 413.155 107.983 410.857C107.983 408.558 133.974 406.714 166.016 406.714C198.058 406.714 224.049 408.558 224.049 410.857Z" fill="#473F66"/>
</g>
<path d="M119.813 405.413H125.078C125.078 405.413 134.7 382.943 118.664 363.074C102.627 343.205 93.8528 344.929 88.4066 321.673C82.9603 298.417 71.1298 293.124 62.0528 299.233C52.9757 305.342 51.6746 319.314 75.4566 338.276C84.2311 345.262 87.5594 359.445 89.7681 377.046C91.7954 392.439 104.413 405.413 119.813 405.413Z" fill="#78C7C7"/>
<g style="mix-blend-mode:screen">
<g style="mix-blend-mode:screen">
<path d="M121.659 405.474C120.177 398.8 117.402 392.482 113.49 386.875C111.553 383.851 109.828 381.34 108.134 378.951C102.927 371.909 98.712 364.186 95.6077 355.998L93.6108 350.887C89.3143 339.758 87.8922 336.008 79.9649 328.114C74.2132 322.196 70.6216 314.516 69.7683 306.31C69.7683 305.826 69.7683 305.342 69.5565 304.919C69.5417 304.844 69.4993 304.777 69.4375 304.732C69.3758 304.688 69.2994 304.668 69.2236 304.677C69.1835 304.684 69.1453 304.699 69.1112 304.721C69.0771 304.744 69.0479 304.773 69.0253 304.807C69.0027 304.841 68.9871 304.879 68.9796 304.919C68.9721 304.959 68.9728 305 68.9816 305.04V305.04C68.9816 305.433 68.9816 305.886 69.1934 306.401C70.0513 314.731 73.7099 322.524 79.5715 328.507C87.3778 336.31 88.8302 340.06 93.0661 351.098L95.0631 356.209C98.1811 364.441 102.416 372.205 107.65 379.284C109.344 381.673 111.069 384.183 113.005 387.207C116.879 392.74 119.633 398.976 121.114 405.564V405.564C121.134 405.625 121.173 405.678 121.224 405.715C121.276 405.752 121.338 405.772 121.402 405.772C121.466 405.772 121.528 405.752 121.579 405.715C121.631 405.678 121.669 405.625 121.689 405.564L121.659 405.474Z" fill="#008489"/>
</g>
<g style="mix-blend-mode:screen">
<path d="M75.7894 323.155C72.6584 322.23 69.7469 320.681 67.2302 318.602C64.7135 316.523 62.6436 313.957 61.145 311.058V311.058C61.0902 311.011 61.0205 310.985 60.9484 310.985C60.8762 310.985 60.8065 311.011 60.7517 311.058C60.6803 311.091 60.6246 311.15 60.5963 311.224C60.5681 311.297 60.5695 311.379 60.6004 311.451V311.451C62.1458 314.46 64.2817 317.128 66.8809 319.295C69.4801 321.461 72.4893 323.083 75.7289 324.062V324.062C75.8051 324.08 75.8855 324.069 75.9532 324.029C76.021 323.99 76.0707 323.926 76.092 323.85C76.1843 323.81 76.2568 323.735 76.2937 323.641C76.3306 323.548 76.3288 323.443 76.2887 323.351C76.2485 323.259 76.1734 323.186 76.0798 323.149C75.9861 323.113 75.8817 323.114 75.7894 323.155V323.155Z" fill="#008489"/>
</g>
<g style="mix-blend-mode:screen">
<path d="M113.278 386.663C112.785 383.318 112.856 379.914 113.49 376.592C114.518 370.544 115.033 366.098 112.279 363.346C112.254 363.32 112.223 363.299 112.19 363.284C112.156 363.27 112.119 363.262 112.083 363.262C112.046 363.262 112.01 363.27 111.976 363.284C111.942 363.299 111.911 363.32 111.886 363.346C111.831 363.403 111.799 363.479 111.799 363.558C111.799 363.637 111.831 363.713 111.886 363.77C114.428 366.31 113.913 370.635 112.915 376.502C112.492 378.968 112.319 381.471 112.4 383.972C112.4 384.486 112.4 384.607 112.703 386.754C112.71 386.794 112.725 386.832 112.748 386.866C112.77 386.9 112.799 386.929 112.833 386.952C112.867 386.975 112.905 386.99 112.945 386.998C112.985 387.005 113.026 387.005 113.066 386.996C113.102 386.989 113.137 386.974 113.167 386.953C113.198 386.933 113.223 386.906 113.243 386.875C113.263 386.844 113.276 386.809 113.282 386.772C113.288 386.736 113.287 386.699 113.278 386.663V386.663Z" fill="#008489"/>
</g>
<g style="mix-blend-mode:screen">
<path d="M108.346 379.466C108.346 379.466 97.2114 378.619 93.2174 369.576C93.192 369.55 93.1615 369.529 93.1277 369.514C93.0939 369.5 93.0575 369.492 93.0208 369.492C92.984 369.492 92.9477 369.5 92.9139 369.514C92.8801 369.529 92.8495 369.55 92.8241 369.576C92.7794 369.626 92.7548 369.691 92.7548 369.758C92.7548 369.825 92.7794 369.889 92.8241 369.939V369.939C96.9391 379.345 108.316 380.191 108.437 380.222C108.517 380.222 108.594 380.19 108.651 380.133C108.707 380.076 108.739 379.999 108.739 379.919C108.739 379.839 108.707 379.762 108.651 379.705C108.594 379.649 108.517 379.617 108.437 379.617L108.346 379.466Z" fill="#008489"/>
</g>
</g>
<path d="M456.18 338.276C464.84 335.322 473.671 332.899 482.625 331.018C494.213 328.78 495.212 341.361 484.107 348.256C473.003 355.151 473.759 359.838 484.834 364.526C495.908 369.213 492.004 374.627 480.416 374.627C468.828 374.627 457.269 379.103 468.313 385.484C479.357 391.865 477.239 395.978 466.619 394.919C455.999 393.861 444.925 391.623 437.784 401.24H425.681C425.681 401.24 427.012 390.504 416.18 379.647C405.348 368.79 398.026 353.427 415.031 359.082C432.035 364.738 434.698 361.653 423.745 345.473C412.792 329.294 410.311 311.058 429.433 323.911C448.555 336.764 450.613 311.3 466.528 309.818C482.443 308.336 456.18 331.502 456.18 338.276Z" fill="#78C7C7"/>
<path d="M400.538 406.744C404.184 404.461 407.118 401.202 409.005 397.338C410.893 393.473 411.66 389.157 411.218 384.879C409.584 370.09 401.869 359.082 406.801 351.613C411.733 344.143 419.297 351.613 420.447 354.637C421.596 357.661 425.863 359.748 425.197 346.774C424.531 333.8 419.599 328.84 425.379 323.76C431.158 318.679 437.028 327.389 441.475 323.941C445.923 320.493 454.304 296.148 465.681 300.927C477.058 305.705 464.864 311.753 462.655 316.713C460.446 321.673 470.522 319.737 466.589 325.574C462.655 331.411 454.092 333.286 459.024 334.647C463.956 336.008 481.566 335.282 473.154 346.139C464.743 356.996 458.389 350.735 457.239 355C456.089 359.264 457.723 363.558 449.826 363.709C441.929 363.861 439.146 366.734 443.775 370.121C448.404 373.508 461.536 385.242 447.073 388.024C432.61 390.806 433.578 386.209 432.913 391.623C432.247 397.036 416.997 404.445 404.168 406.744H400.538Z" fill="#52C7A3"/>
<g style="mix-blend-mode:multiply">
<g style="mix-blend-mode:multiply">
<path d="M403.593 407.107C413.419 397.649 421.096 386.19 426.105 373.508C436.12 348.225 451.944 315.352 463.744 305.826C463.77 305.803 463.791 305.775 463.805 305.744C463.819 305.713 463.826 305.679 463.826 305.644C463.826 305.61 463.819 305.576 463.805 305.545C463.791 305.514 463.77 305.486 463.744 305.463C463.719 305.436 463.688 305.415 463.655 305.401C463.621 305.386 463.584 305.379 463.548 305.379C463.511 305.379 463.475 305.386 463.441 305.401C463.407 305.415 463.376 305.436 463.351 305.463V305.463C451.46 315.05 435.545 348.044 425.53 373.357C420.534 385.912 412.91 397.254 403.17 406.623V406.623C403.143 406.648 403.122 406.679 403.108 406.713C403.093 406.746 403.086 406.783 403.086 406.819C403.086 406.856 403.093 406.893 403.108 406.926C403.122 406.96 403.143 406.991 403.17 407.016C403.193 407.042 403.221 407.062 403.252 407.076C403.283 407.091 403.317 407.098 403.351 407.098C403.386 407.098 403.42 407.091 403.451 407.076C403.482 407.062 403.51 407.042 403.533 407.016L403.593 407.107Z" fill="#7FBE8E"/>
</g>
<g style="mix-blend-mode:multiply">
<path d="M437.542 346.925L427.254 327.268C427.205 327.223 427.14 327.198 427.073 327.198C427.006 327.198 426.941 327.223 426.891 327.268C426.866 327.29 426.845 327.318 426.831 327.349C426.817 327.381 426.809 327.415 426.809 327.449C426.809 327.483 426.817 327.517 426.831 327.549C426.845 327.58 426.866 327.608 426.891 327.63L437.179 347.318C437.229 347.363 437.293 347.387 437.36 347.387C437.427 347.387 437.492 347.363 437.542 347.318C437.584 347.261 437.606 347.192 437.606 347.122C437.606 347.051 437.584 346.982 437.542 346.925Z" fill="#7FBE8E"/>
</g>
<g style="mix-blend-mode:multiply">
<path d="M436.241 349.556C437.209 349.556 459.569 349.768 467.254 344.717C467.281 344.692 467.302 344.661 467.316 344.627C467.331 344.594 467.338 344.557 467.338 344.521C467.338 344.484 467.331 344.448 467.316 344.414C467.302 344.38 467.281 344.349 467.254 344.324C467.229 344.297 467.198 344.276 467.164 344.262C467.131 344.248 467.094 344.24 467.057 344.24C467.021 344.24 466.984 344.248 466.951 344.262C466.917 344.276 466.886 344.297 466.861 344.324C459.297 349.284 436.392 349.072 436.18 349.042C436.142 349.038 436.103 349.041 436.067 349.053C436.03 349.065 435.996 349.084 435.968 349.11C435.939 349.136 435.916 349.167 435.901 349.202C435.885 349.237 435.877 349.276 435.878 349.314C435.877 349.389 435.905 349.462 435.955 349.518C436.006 349.574 436.075 349.609 436.15 349.616L436.241 349.556Z" fill="#7FBE8E"/>
</g>
<g style="mix-blend-mode:multiply">
<path d="M424.35 377.288C424.35 377.137 411.339 360.715 411.339 353.85C411.339 353.778 411.311 353.709 411.26 353.658C411.208 353.607 411.139 353.578 411.067 353.578C410.995 353.578 410.926 353.607 410.874 353.658C410.823 353.709 410.795 353.778 410.795 353.85V353.85C410.795 360.927 423.382 376.955 423.926 377.651C423.981 377.698 424.051 377.723 424.123 377.723C424.195 377.723 424.265 377.698 424.32 377.651C424.346 377.625 424.367 377.595 424.382 377.561C424.396 377.527 424.404 377.491 424.404 377.454C424.404 377.418 424.396 377.381 424.382 377.347C424.367 377.314 424.346 377.283 424.32 377.258L424.35 377.288Z" fill="#7FBE8E"/>
</g>
<g style="mix-blend-mode:multiply">
<path d="M420.537 384.455C420.537 384.455 424.108 387.963 433.215 383.155C435.548 381.775 438.185 380.993 440.893 380.877C443.6 380.761 446.295 381.315 448.737 382.49V382.49C448.787 382.534 448.852 382.559 448.918 382.559C448.985 382.559 449.05 382.534 449.1 382.49C449.126 382.467 449.146 382.439 449.161 382.408C449.175 382.376 449.182 382.343 449.182 382.308C449.182 382.274 449.175 382.24 449.161 382.209C449.146 382.177 449.126 382.149 449.1 382.127V382.127C446.586 380.889 443.802 380.299 441.001 380.41C438.201 380.521 435.472 381.329 433.064 382.762C424.35 387.359 420.961 384.183 420.961 384.153C420.936 384.126 420.905 384.105 420.871 384.091C420.837 384.076 420.801 384.069 420.764 384.069C420.728 384.069 420.691 384.076 420.657 384.091C420.624 384.105 420.593 384.126 420.568 384.153C420.521 384.208 420.495 384.277 420.495 384.35C420.495 384.422 420.521 384.491 420.568 384.546L420.537 384.455Z" fill="#7FBE8E"/>
</g>
</g>
<path d="M479.599 400.151C481.808 399.183 481.263 404.143 476.997 406.744H403.563C406.044 405.716 409.252 403.72 409.1 400.242C408.858 394.587 413.851 402.631 416.15 396.734C418.45 390.837 416.665 403.296 421.596 402.782C426.528 402.268 430.31 398.669 426.014 392.742C421.717 386.814 430.462 391.593 429.796 388.478C429.13 385.363 441.142 396.704 439.993 384.032C439.993 384.032 456.271 391.925 450.855 370.574C450.855 370.574 460.204 372.056 459.055 380.585C457.905 389.113 465.106 383.397 467.769 381.401C470.431 379.405 466.286 386.331 469.402 388.145C472.519 389.96 477.481 389.778 478.48 380.917C479.478 372.056 482.776 388.962 477.511 394.889C472.247 400.817 476.573 401.482 479.599 400.151Z" fill="#A1D9B0"/>
<g style="mix-blend-mode:multiply" opacity="0.8">
<path d="M494.001 54H391.128V118.264H494.001V54Z" fill="#A0D9F6"/>
</g>
<g style="mix-blend-mode:multiply" opacity="0.4">
<path d="M382.293 214.495H302.354V264.424H382.293V214.495Z" fill="#B3E1F8"/>
</g>
<path style="mix-blend-mode:screen" opacity="0.6" d="M255.728 77.6191H190.675V118.265H255.728V77.6191Z" fill="url(#paint0_linear_250_98)"/>
<g style="mix-blend-mode:multiply" opacity="0.6">
<path style="mix-blend-mode:multiply" opacity="0.6" d="M222.415 102.387C221.538 102.393 220.68 102.138 219.949 101.656C219.218 101.173 218.647 100.483 218.309 99.6755C217.971 98.8674 217.881 97.9772 218.05 97.1179C218.22 96.2586 218.641 95.4691 219.261 94.8497C219.881 94.2304 220.67 93.8093 221.53 93.6399C222.39 93.4705 223.281 93.5605 224.089 93.8984C224.897 94.2363 225.587 94.8069 226.07 95.5377C226.553 96.2684 226.808 97.1262 226.802 98.002C226.802 99.165 226.34 100.28 225.517 101.103C224.694 101.925 223.578 102.387 222.415 102.387V102.387ZM222.415 94.6754C221.755 94.6694 221.109 94.8594 220.557 95.2213C220.006 95.5831 219.575 96.1006 219.318 96.7079C219.062 97.3152 218.992 97.985 219.116 98.6323C219.241 99.2795 219.556 99.8751 220.02 100.343C220.485 100.812 221.077 101.132 221.724 101.262C222.37 101.393 223.041 101.329 223.651 101.078C224.261 100.827 224.783 100.401 225.15 99.8533C225.517 99.3056 225.713 98.6612 225.713 98.002C225.697 97.1355 225.344 96.3093 224.728 95.6993C224.112 95.0893 223.282 94.7436 222.415 94.7359V94.6754Z" fill="url(#paint1_linear_250_98)"/>
<path style="mix-blend-mode:multiply" opacity="0.6" d="M224.835 113.426H220.206C220.062 113.426 219.923 113.368 219.821 113.266C219.719 113.164 219.661 113.026 219.661 112.881V108.98C218.679 108.702 217.734 108.306 216.847 107.801L214.064 110.583C213.952 110.671 213.813 110.719 213.67 110.719C213.528 110.719 213.389 110.671 213.277 110.583L210.009 107.287C209.911 107.185 209.857 107.05 209.857 106.908C209.857 106.767 209.911 106.632 210.009 106.53L212.763 103.748C212.238 102.864 211.851 101.906 211.613 100.905H207.68C207.535 100.905 207.397 100.848 207.294 100.746C207.192 100.644 207.135 100.505 207.135 100.361V95.734C207.135 95.5897 207.192 95.4512 207.294 95.3491C207.397 95.247 207.535 95.1897 207.68 95.1897H211.613C211.856 94.1913 212.243 93.2337 212.763 92.3469L210.009 89.5949C209.909 89.4884 209.854 89.3478 209.854 89.2017C209.854 89.0557 209.909 88.9151 210.009 88.8086L213.338 85.5424C213.444 85.4425 213.585 85.3869 213.731 85.3869C213.877 85.3869 214.018 85.4425 214.124 85.5424L216.908 88.3247C217.779 87.7889 218.729 87.3911 219.722 87.1453V83.2138C219.722 83.0694 219.779 82.931 219.881 82.8289C219.983 82.7268 220.122 82.6694 220.266 82.6694H224.835C224.98 82.6694 225.118 82.7268 225.22 82.8289C225.323 82.931 225.38 83.0694 225.38 83.2138V87.2662C226.383 87.5119 227.342 87.9096 228.224 88.4457L231.008 85.6634C231.109 85.5655 231.245 85.5107 231.386 85.5107C231.527 85.5107 231.663 85.5655 231.764 85.6634L235.032 88.9296C235.091 88.9765 235.138 89.0365 235.169 89.1047C235.201 89.1729 235.216 89.2476 235.213 89.3227C235.255 89.4504 235.255 89.5881 235.213 89.7158L232.43 92.4679C232.949 93.3547 233.336 94.3123 233.58 95.3106H237.513C237.657 95.3106 237.796 95.368 237.898 95.4701C238 95.5722 238.058 95.7106 238.058 95.855V100.482C238.058 100.626 238 100.765 237.898 100.867C237.796 100.969 237.657 101.026 237.513 101.026H233.58C233.342 102.027 232.954 102.985 232.43 103.869L235.213 106.651C235.311 106.753 235.366 106.888 235.366 107.029C235.366 107.17 235.311 107.306 235.213 107.407L231.915 110.704C231.808 110.79 231.675 110.837 231.537 110.837C231.4 110.837 231.266 110.79 231.159 110.704L228.375 107.922C227.475 108.422 226.521 108.818 225.531 109.101V113.002C225.517 113.078 225.488 113.15 225.444 113.213C225.401 113.277 225.344 113.33 225.278 113.37C225.213 113.41 225.139 113.436 225.063 113.445C224.986 113.455 224.909 113.448 224.835 113.426ZM220.751 112.337H224.291V108.436C224.289 108.314 224.33 108.195 224.408 108.101C224.485 108.007 224.594 107.943 224.714 107.922C225.884 107.663 227 107.202 228.012 106.561C228.105 106.482 228.223 106.439 228.345 106.439C228.467 106.439 228.585 106.482 228.678 106.561L231.401 109.252L233.882 106.772L231.189 104.051C231.108 103.953 231.064 103.83 231.064 103.703C231.064 103.576 231.108 103.453 231.189 103.355C231.837 102.358 232.298 101.251 232.551 100.089C232.572 99.9688 232.636 99.8603 232.73 99.7827C232.824 99.7051 232.943 99.6636 233.065 99.6655H236.878V96.3389H233.005C232.883 96.3408 232.764 96.2992 232.67 96.2217C232.575 96.1441 232.512 96.0356 232.49 95.9155C232.232 94.7552 231.771 93.6495 231.129 92.6493C231.048 92.5516 231.003 92.4286 231.003 92.3015C231.003 92.1745 231.048 92.0515 231.129 91.9538L233.822 89.2622L231.492 86.6916L228.769 89.4134C228.676 89.4923 228.558 89.5356 228.436 89.5356C228.314 89.5356 228.196 89.4923 228.103 89.4134C227.097 88.7614 225.979 88.3 224.805 88.0525C224.685 88.0198 224.579 87.9491 224.502 87.8509C224.426 87.7528 224.384 87.6325 224.381 87.5082V83.7582H220.751V87.5687C220.748 87.693 220.706 87.8133 220.63 87.9114C220.553 88.0096 220.447 88.0803 220.327 88.113C219.163 88.3607 218.055 88.8222 217.059 89.4739C216.961 89.5551 216.838 89.5995 216.711 89.5995C216.584 89.5995 216.461 89.5551 216.363 89.4739L213.67 86.7521L211.159 89.2622L213.852 91.9538C213.926 92.0491 213.966 92.166 213.966 92.2864C213.966 92.4068 213.926 92.5238 213.852 92.6191C213.193 93.6248 212.721 94.7416 212.46 95.9155C212.439 96.0356 212.375 96.1441 212.281 96.2217C212.187 96.2992 212.068 96.3408 211.946 96.3389H208.224V99.8772H212.037C212.159 99.8753 212.277 99.9168 212.372 99.9944C212.466 100.072 212.529 100.18 212.551 100.301C212.82 101.462 213.291 102.568 213.943 103.567C214.014 103.669 214.053 103.79 214.053 103.915C214.053 104.039 214.014 104.16 213.943 104.262L211.25 106.984L213.761 109.464L216.454 106.772C216.547 106.694 216.665 106.65 216.787 106.65C216.909 106.65 217.027 106.694 217.12 106.772C218.134 107.409 219.249 107.869 220.418 108.133C220.538 108.155 220.647 108.218 220.724 108.313C220.802 108.407 220.843 108.525 220.841 108.647L220.751 112.337Z" fill="url(#paint2_linear_250_98)"/>
</g>
<g style="mix-blend-mode:lighten" opacity="0.7">
<path d="M458.207 77.8005L442.323 84.6957L454.425 97.0043C456.858 94.5183 458.504 91.372 459.161 87.9574C459.817 84.5427 459.454 81.0104 458.117 77.8005H458.207Z" fill="white"/>
</g>
<g style="mix-blend-mode:screen">
<path d="M441.021 84.4236L441.506 84.2119L457.905 77.105C456.318 73.6959 453.692 70.8771 450.402 69.0535C447.113 67.2299 443.329 66.4954 439.596 66.9554C435.863 67.4155 432.371 69.0465 429.623 71.6141C426.875 74.1818 425.013 77.5538 424.302 81.246C423.592 84.9382 424.071 88.7604 425.67 92.1635C427.269 95.5667 429.906 98.3757 433.202 100.187C436.499 101.998 440.285 102.719 444.016 102.245C447.748 101.771 451.233 100.127 453.971 97.5487L441.415 84.8168L441.021 84.4236Z" fill="#16A1E7"/>
</g>
<g opacity="0.6">
<path d="M271.34 172.186H262.778V193.87H271.34V172.186Z" fill="#CEECFA"/>
<path d="M282.445 144.485H273.882V193.87H282.445V144.485Z" fill="#CEECFA"/>
<path d="M293.519 160.603H284.956V193.87H293.519V160.603Z" fill="#CEECFA"/>
<path d="M304.623 151.531H296.06V193.87H304.623V151.531Z" fill="#CEECFA"/>
<path d="M315.697 142.972H307.134V193.87H315.697V142.972Z" fill="#CEECFA"/>
<path d="M326.801 156.067H318.239V193.87H326.801V156.067Z" fill="#CEECFA"/>
<path d="M337.906 120.775H329.343V193.87H337.906V120.775Z" fill="#CEECFA"/>
<path d="M348.98 111.702H340.417V193.87H348.98V111.702Z" fill="#CEECFA"/>
<path d="M360.084 97.0951H351.521V193.87H360.084V97.0951Z" fill="#CEECFA"/>
<path d="M371.158 103.143H362.595V193.87H371.158V103.143Z" fill="#CEECFA"/>
<path d="M382.262 91.0466H373.7V193.87H382.262V91.0466Z" fill="#CEECFA"/>
</g>
<path style="mix-blend-mode:screen" d="M324.804 239.989C324.807 244.413 326.51 248.666 329.563 251.869C332.616 255.072 336.783 256.979 341.204 257.197V253.749C337.71 253.518 334.435 251.967 332.043 249.412C329.651 246.857 328.32 243.488 328.32 239.989C328.32 236.49 329.651 233.121 332.043 230.566C334.435 228.011 337.71 226.46 341.204 226.229V222.781C336.783 222.999 332.616 224.906 329.563 228.109C326.51 231.312 324.807 235.565 324.804 239.989Z" fill="url(#paint3_linear_250_98)"/>
<path style="mix-blend-mode:screen" d="M353.367 226.924C350.394 224.365 346.638 222.893 342.717 222.751V226.199C345.732 226.318 348.62 227.447 350.916 229.404L353.367 226.924Z" fill="url(#paint4_linear_250_98)"/>
<path style="mix-blend-mode:screen" d="M354.456 227.983L352.066 230.402C353.919 232.314 355.18 234.72 355.695 237.331C356.211 239.943 355.959 242.648 354.97 245.119C353.982 247.591 352.299 249.723 350.125 251.26C347.95 252.797 345.377 253.672 342.717 253.779V257.227C346.058 257.119 349.296 256.041 352.034 254.125C354.773 252.209 356.894 249.537 358.139 246.436C359.384 243.335 359.699 239.939 359.045 236.662C358.391 233.385 356.796 230.369 354.456 227.983V227.983Z" fill="url(#paint5_linear_250_98)"/>
<path d="M142.022 342.419C150.659 339.427 159.47 336.963 168.406 335.04C179.994 332.832 180.963 345.383 169.889 352.278C158.815 359.173 159.51 363.861 170.615 368.548C181.719 373.236 177.755 378.649 166.167 378.649C154.579 378.649 143.051 383.155 154.064 389.506C165.078 395.857 163.141 400.03 152.4 398.941C141.659 397.853 130.706 395.675 123.565 405.262H111.462C111.462 405.262 112.824 394.526 101.962 383.699C91.0995 372.873 83.8075 357.479 100.842 363.135C117.877 368.79 120.479 365.675 109.556 349.496C98.6335 333.316 96.1221 314.959 115.245 327.963C134.367 340.967 136.606 315.322 152.37 313.84C168.134 312.358 142.022 335.524 142.022 342.419Z" fill="#52C7A3"/>
<path d="M234.51 189.371C234.51 189.371 238.434 188.494 239.18 187.178C239.926 185.862 241.495 179.921 242.123 180.001C242.751 180.081 243.811 183.35 242.83 184.785C242.83 184.785 250.678 186.739 254.602 181.795C255.348 180.798 254.916 184.347 254.131 184.865C252.473 186.107 250.632 187.076 248.677 187.736C246.126 188.414 253.15 187.736 254.72 186.62C256.29 185.503 256.329 186.899 255.309 188.055C253.699 189.479 251.7 190.369 249.579 190.607C251.208 191.019 252.899 191.114 254.563 190.886C255.74 190.368 254.249 192.64 253.19 192.76C246.877 194.685 240.107 194.361 234 191.843L234.51 189.371Z" fill="#FFB38B"/>
<path d="M132.582 261.068C130.29 281.994 129.764 303.077 131.008 324.092C133.157 357.358 134.427 390.957 134.427 390.957L134.851 402.54H145.199C145.199 402.54 149.495 289.646 155.668 280.271C163.262 272.65 163.595 295.392 164.987 312.691C166.258 328.719 166.258 402.086 166.258 402.086H175.607C175.607 402.086 186.318 291.521 176.878 252.932C167.438 214.344 132.582 261.068 132.582 261.068Z" fill="#0D608A"/>
<path d="M148.255 259.646C148.255 259.646 164.352 261.158 176.243 253.81C176.243 253.81 174.004 191.45 169.798 179.777C167.101 172.373 163.844 165.185 160.055 158.275L157.029 155.613L155.849 154.615H146.197L146.772 159.363L148.255 259.646Z" fill="#A0D9F6"/>
<path d="M134.851 149.202L125.592 156.339C125.592 156.339 133.974 230.432 128.86 251.209C123.747 271.985 151.795 272.862 151.795 272.862C151.795 272.862 158.875 212.378 147.287 155.13L134.851 149.202Z" fill="#1281B8"/>
<path d="M238.33 187.912L237.271 192.721L235.213 192.751L236 187.579L238.33 187.912Z" fill="#E7E4DA"/>
<path d="M162.839 158.487C164.031 158.652 165.115 159.269 165.864 160.21C168.725 164.031 171.871 167.63 175.274 170.977C189.132 182.438 210.312 184.465 221.356 185.916C226.686 186.773 232.088 187.097 237.483 186.884L235.879 193.749C235.879 193.749 217.725 193.93 204.533 193.204C193.015 192.288 181.703 189.637 170.978 185.342L162.839 158.487Z" fill="#1281B8"/>
<path d="M167.468 401.361H172.218C175.432 401.596 178.559 402.507 181.395 404.034C184.232 405.561 186.714 407.67 188.678 410.222H174.004C174.004 410.222 173.059 409 172 409C170.941 409 170.1 410.222 170.1 410.222H167.075L167.468 401.361Z" fill="#291D18"/>
<path d="M135.577 401.119H140.328C143.54 401.345 146.667 402.248 149.505 403.771C152.342 405.293 154.824 407.399 156.787 409.95H142.082C142.082 409.95 141.059 409 140 409C138.941 409 138.179 409.95 138.179 409.95H135.154L135.577 401.119Z" fill="#291D18"/>
<path d="M138.119 221.39C135.277 230.439 133.57 239.805 133.036 249.273C132.311 259.035 132.463 268.843 133.489 278.578C133.489 278.578 144.321 256.955 138.119 221.39Z" fill="#CC3336"/>
<path d="M104.11 210.321C101.289 217.565 99.5654 225.19 98.9965 232.942C98.2731 240.829 98.4355 248.772 99.4806 256.622L133.489 278.517C132.463 268.782 132.311 258.975 133.036 249.213C133.57 239.744 135.277 230.378 138.119 221.329L104.11 210.321Z" fill="#F06151"/>
<path d="M114.996 254.246C114.996 254.246 115.305 257.764 116.778 258.573C118.252 259.383 124.387 259.664 124.387 260.368C124.387 261.071 121.371 262.654 119.794 261.916C119.794 261.916 119.212 270.324 124.764 273.525C125.93 274.158 122.434 274.158 121.68 273.525C119.955 272.249 118.642 270.472 117.909 268.424C116.778 265.891 117.909 269.726 119.178 271.133C120.446 272.54 119.178 272.821 117.841 271.977C116.285 270.9 115.192 269.25 114.79 267.369C115.151 268.339 115.371 269.358 115.442 270.394C115.27 271.766 113.042 269.866 111.706 267.369C109.829 263.176 109.488 258.43 110.746 254L114.996 254.246Z" fill="#FFB38B"/>
<path d="M116.092 256.985L110.918 256.652L110.585 254.536H116.092V256.985Z" fill="#E7E4DA"/>
<path d="M135.275 169.797C130.262 174.078 125.8 178.964 121.992 184.344C112.219 200.493 115.305 227.378 115.517 239.052C115.458 244.723 115.965 250.386 117.03 255.957L109.617 255.382C109.617 255.382 106.591 236.662 105.26 222.691C104.371 207.614 106.07 192.497 110.282 177.993C112.461 169.858 122.083 154.162 132.703 154.374C139.843 154.041 134.821 167.106 135.275 169.797Z" fill="#1281B8"/>
<path d="M170.978 136.319C171.189 126.64 168.995 117.06 164.594 108.436C160.96 109.645 157.263 110.654 153.52 111.46C149.858 112.639 151.069 117.962 151.402 120.533C151.734 123.103 151.099 129.121 149.858 129.847C148.557 127.125 146.47 117.962 143.02 122.166C139.571 126.369 141.296 127.458 142.748 132.781C144.2 138.103 137.695 138.678 137.695 138.678C138.209 141.502 137.806 144.416 136.545 146.994C138.724 149.414 138.784 150.23 146.016 152.861C153.247 155.492 156.182 153.406 156.182 153.406C156.418 151.184 157.302 149.081 158.724 147.357C168.678 150.775 170.524 144.394 170.978 136.319Z" fill="#FFB38B"/>
<path d="M164.594 108.436C164.594 108.436 171.462 105.412 171.432 101.208C171.401 97.0043 161.447 99.2724 152.612 97.8208C143.777 96.3692 130.736 94.7966 127.438 106.893C125.84 108.379 124.693 110.285 124.131 112.393C123.569 114.501 123.614 116.725 124.261 118.809C126.712 125.553 133.126 129.605 137.695 138.678C137.695 138.678 144.2 138.194 142.748 132.902C141.296 127.609 139.722 126.46 143.02 122.287C146.318 118.113 148.557 127.246 149.858 129.968C151.099 129.242 151.734 123.224 151.402 120.654C151.069 118.083 149.858 112.73 153.52 111.581C157.266 110.735 160.962 109.685 164.594 108.436Z" fill="#041F2D"/>
<path d="M135.728 146.42C135.728 146.42 144.806 154.343 154.79 153.073L156.939 152.408V155.644C156.939 155.644 140.237 156.702 134.851 149.202L135.728 146.42Z" fill="#A0D9F6"/>
<path d="M156.939 155.644C156.939 155.644 175.91 185.099 170.464 268.719C174.787 266.282 178.888 263.468 182.718 260.312C182.718 260.312 184.17 206.118 165.955 160.906C164.231 156.823 156.939 155.644 156.939 155.644Z" fill="#1281B8"/>
<defs>
<linearGradient id="paint0_linear_250_98" x1="4445.11" y1="1088.06" x2="3430.14" y2="-565.397" gradientUnits="userSpaceOnUse">
<stop stop-color="#A8E8FF"/>
<stop offset="1" stop-color="#00C7FF"/>
</linearGradient>
<linearGradient id="paint1_linear_250_98" x1="769.273" y1="286.331" x2="596.985" y2="116.255" gradientUnits="userSpaceOnUse">
<stop stop-color="#A8E8FF"/>
<stop offset="1" stop-color="#00C7FF"/>
</linearGradient>
<linearGradient id="paint2_linear_250_98" x1="2136.71" y1="754.602" x2="1536.46" y2="159.313" gradientUnits="userSpaceOnUse">
<stop stop-color="#A8E8FF"/>
<stop offset="1" stop-color="#00C7FF"/>
</linearGradient>
<linearGradient id="paint3_linear_250_98" x1="1774.67" y1="2216.47" x2="1991.99" y2="2289.18" gradientUnits="userSpaceOnUse">
<stop stop-color="#A8E8FF"/>
<stop offset="1" stop-color="#00C7FF"/>
</linearGradient>
<linearGradient id="paint4_linear_250_98" x1="1456.01" y1="661.468" x2="1390.21" y2="544.699" gradientUnits="userSpaceOnUse">
<stop stop-color="#A8E8FF"/>
<stop offset="1" stop-color="#00C7FF"/>
</linearGradient>
<linearGradient id="paint5_linear_250_98" x1="2041.97" y1="2223.31" x2="1736.66" y2="2030.46" gradientUnits="userSpaceOnUse">
<stop stop-color="#A8E8FF"/>
<stop offset="1" stop-color="#00C7FF"/>
</linearGradient>
</defs>
</svg>
