<svg width="496" height="461" viewBox="0 0 496 461" fill="none" xmlns="http://www.w3.org/2000/svg">
<path d="M70 157.403V323.594C70.0133 333.803 72.7049 343.829 77.8048 352.667C82.9048 361.505 90.234 368.845 99.0575 373.949L235.983 453.211C244.803 458.314 254.808 461 264.992 461C275.176 461 285.181 458.314 294.001 453.211L430.943 373.949C439.766 368.845 447.095 361.505 452.195 352.667C457.295 343.829 459.987 333.803 460 323.594V157.403C459.995 147.194 457.307 137.166 452.206 128.329C447.105 119.492 439.771 112.158 430.943 107.063L294.001 27.8013C285.184 22.6909 275.178 20 264.992 20C254.806 20 244.8 22.6909 235.983 27.8013L99.0575 107.063C90.2287 112.158 82.8948 119.492 77.7938 128.329C72.6928 137.166 70.0047 147.194 70 157.403H70Z" fill="#EDF8FD"/>
<path opacity="0.5" d="M0 109.673V242.324C0.01066 250.473 2.17082 258.476 6.26389 265.53C10.357 272.585 16.2391 278.443 23.3205 282.517L133.212 345.783C140.29 349.856 148.32 352 156.494 352C164.667 352 172.697 349.856 179.775 345.783L289.68 282.517C296.761 278.443 302.643 272.585 306.736 265.53C310.829 258.476 312.989 250.473 313 242.324V109.673C312.996 101.524 310.839 93.5206 306.745 86.467C302.651 79.4135 296.765 73.5589 289.68 69.4926L179.775 6.22689C172.699 2.14781 164.668 0 156.494 0C148.319 0 140.288 2.14781 133.212 6.22689L23.3205 69.4926C16.2348 73.5589 10.3489 79.4135 6.25499 86.467C2.16112 93.5206 0.00374941 101.524 0 109.673H0Z" fill="#EDF8FD"/>
<path d="M124.832 130.297L113.871 142.681C110.024 140.702 105.909 139.294 101.655 138.503L100.677 121.93C100.656 121.627 100.575 121.331 100.437 121.061C100.299 120.79 100.107 120.551 99.8738 120.357C99.4092 119.968 98.8174 119.764 98.2119 119.785L78.7731 120.996C78.468 121.013 78.1693 121.09 77.8944 121.224C77.6194 121.357 77.3735 121.544 77.1711 121.773C76.9686 122.002 76.8135 122.268 76.7148 122.558C76.616 122.847 76.5756 123.153 76.5958 123.458L77.6191 139.957C73.4925 141.284 69.567 143.17 65.9521 145.562L53.6502 134.658C53.1852 134.25 52.578 134.043 51.9609 134.081C51.3438 134.12 50.7669 134.401 50.3562 134.864L37.4232 149.475C37.0233 149.938 36.8228 150.541 36.8655 151.151C36.9082 151.762 37.1906 152.331 37.651 152.734L49.9566 163.634C48.0198 167.515 46.6237 171.643 45.8074 175.903L29.2779 176.916C28.9751 176.931 28.6784 177.007 28.4052 177.139C28.1321 177.27 27.8879 177.455 27.6869 177.682C27.4859 177.91 27.3322 178.175 27.2347 178.462C27.1373 178.749 27.098 179.053 27.1193 179.356L28.2621 198.818C28.3034 199.428 28.5819 199.997 29.0378 200.403C29.4938 200.81 30.0908 201.022 30.7008 200.993L47.2191 200.014C48.5682 204.12 50.4637 208.025 52.8547 211.624L41.9197 223.956C41.5143 224.419 41.309 225.023 41.349 225.637C41.3889 226.251 41.6707 226.824 42.1325 227.23L56.735 240.171C56.9607 240.375 57.2247 240.533 57.5118 240.634C57.7988 240.735 58.1031 240.778 58.4069 240.76C58.7108 240.742 59.008 240.664 59.2813 240.53C59.5547 240.397 59.7987 240.21 59.9991 239.98L70.9341 227.626C74.7856 229.581 78.8873 230.997 83.124 231.834L84.1697 248.381C84.211 248.988 84.4892 249.553 84.9442 249.956C85.3992 250.359 85.9943 250.566 86.6009 250.534L106.092 249.345C106.693 249.287 107.25 249.003 107.651 248.55C108.051 248.097 108.266 247.509 108.251 246.905L107.246 230.358C111.36 229.009 115.275 227.116 118.887 224.73L131.252 235.687C131.707 236.09 132.303 236.296 132.91 236.261C133.516 236.226 134.085 235.953 134.49 235.5L147.423 220.888C147.834 220.431 148.048 219.829 148.016 219.215C147.985 218.601 147.711 218.024 147.255 217.611L134.886 206.651C136.815 202.773 138.221 198.656 139.065 194.408L155.576 193.448C156.181 193.384 156.741 193.096 157.145 192.641C157.548 192.185 157.767 191.594 157.757 190.985L156.588 171.471C156.546 170.865 156.268 170.301 155.814 169.898C155.36 169.496 154.766 169.287 154.161 169.318L137.575 170.327C136.291 166.197 134.403 162.279 131.973 158.702L142.934 146.317C143.137 146.091 143.292 145.826 143.391 145.539C143.491 145.251 143.531 144.947 143.512 144.643C143.492 144.34 143.412 144.043 143.276 143.771C143.14 143.499 142.952 143.257 142.721 143.059L128.1 130.118C127.874 129.914 127.61 129.758 127.323 129.657C127.037 129.556 126.733 129.512 126.429 129.529C126.126 129.546 125.828 129.622 125.554 129.754C125.28 129.886 125.035 130.07 124.832 130.297V130.297ZM106.346 197.473C103.916 200.229 100.723 202.202 97.1725 203.143C93.6215 204.084 89.8715 203.95 86.3967 202.758C82.9219 201.566 79.8783 199.37 77.6508 196.447C75.4233 193.524 74.112 190.006 73.8827 186.338C73.6534 182.67 74.5164 179.016 76.3626 175.838C78.2088 172.66 80.9552 170.102 84.2545 168.486C87.5538 166.87 91.258 166.27 94.8984 166.76C98.5388 167.251 101.952 168.811 104.706 171.243C108.384 174.513 110.62 179.106 110.927 184.02C111.235 188.933 109.588 193.769 106.346 197.473Z" fill="#CEECFA"/>
<path d="M54.0509 344.032L39.5199 343.674C32.4509 333.878 26.3392 321.475 22.9172 306.083L34.3083 305.294L21.9634 300.969C20.6115 293.394 19.9551 285.711 20.0024 278.016C20.0024 278.016 40.2736 279.68 61.0021 290.351L62.0022 300.037L63.9383 291.969C76.4082 298.905 88.5602 309.319 96.3794 324.697L92.7074 340.321L99.062 330.35C101.834 337.248 103.626 344.5 104.384 351.896C104.934 367.338 104.384 376.705 104.384 376.705H80.6554C80.6554 376.705 59.8948 369.106 42.6597 347.696L54.0509 344.032Z" fill="#52C7A3"/>
<path d="M99.7228 359.085C100.68 349.985 103.434 342.46 107.224 336.228L110.732 343.571L109.589 332.907C116.894 322.907 126.97 316.593 136.218 312.747L136.904 319.343L138.69 311.776C150.103 307.462 159.59 306.662 159.59 306.662C159.676 318.308 157.679 328.089 154.589 336.386L148.595 338.307L153.718 338.818C149.679 348.692 143.442 357.516 135.482 364.62L123.591 365.256L131.292 368.067C123.216 374.263 116.54 376.706 116.54 376.706H99.7157C99.7157 376.706 99.3263 370.052 99.7228 359.085Z" fill="#78C7C7"/>
<g style="mix-blend-mode:screen" opacity="0.25">
<path d="M141.901 324.593C145.602 321.079 153.332 312.918 153.332 312.918C153.332 312.918 144.166 318.961 140.53 322.4C109.85 351.385 103.431 375.288 103.145 376.384L104.363 376.705H105.67C106.535 373.813 113.9 351.267 141.901 324.593Z" fill="white"/>
</g>
<g style="mix-blend-mode:screen" opacity="0.21">
<path d="M95.7543 376.705H98.444C96.1437 368.963 81.977 326.614 38.7591 292.337C35.1335 289.48 26.6142 284.905 26.6142 284.905C26.6142 284.905 33.3082 291.333 36.7623 294.055C78.4586 326.943 92.8717 367.463 95.7543 376.705Z" fill="white"/>
</g>
<path d="M126.963 377.852C126.963 378.157 126.842 378.449 126.626 378.665C126.41 378.881 126.118 379.002 125.813 379.002H72.1539C71.8486 379.002 71.5556 378.881 71.3394 378.665C71.1231 378.45 71.0011 378.157 71.0002 377.852V377.852C71.0011 377.546 71.1229 377.253 71.3389 377.036C71.555 376.819 71.8479 376.697 72.1539 376.695H125.813C126.119 376.697 126.411 376.819 126.627 377.036C126.842 377.253 126.963 377.546 126.963 377.852V377.852Z" fill="#E8DBE0"/>
<path d="M424.459 370.156C422.709 367.431 426.006 365.181 422.041 360.87C419.515 358.117 414.515 358.502 412.396 354.878C408.446 348.146 402.598 348.903 402.598 348.903C402.598 348.903 396.719 348.146 392.775 354.878C390.65 358.502 387.71 357.924 385.178 360.688C381.227 364.974 384.72 367.788 382.988 370.556C381.256 373.323 377.444 372.341 377.444 377.309H427.756C427.753 372.345 426.213 372.906 424.459 370.156Z" fill="#52C7A3"/>
<path d="M465.68 289.802C458.733 299.801 453.357 301.23 447.82 309.226C439.422 321.954 445.32 326.2 441.341 334.671C437.64 343.353 432.589 340.953 429.589 358.006C427.227 374.098 447.045 374.859 449.738 374.931C453.286 340.198 464.457 306.675 482.455 276.756C481.576 276.116 477 274.384 465.68 289.802ZM472.021 342.76C472.735 334.386 479.483 334.546 480.447 321.533C481.294 313.154 478.282 308.54 481.433 297.605C486.791 280.67 484.319 277.652 483.04 277.098C465.107 306.94 453.972 340.366 450.428 374.998C453.285 375.548 472.239 378.091 474.121 365.134C476.607 351.117 471.621 351.074 472.021 342.75V342.76Z" fill="#52C7A3"/>
<path d="M408.196 310.483C421.365 332.392 429.536 356.937 432.128 382.366C434.104 382.287 448.624 381.73 446.891 369.963C444.688 357.463 440.991 359.249 438.29 352.885C435.365 346.674 439.687 343.571 433.536 334.25C429.489 328.418 425.549 327.364 420.455 320.04C412.182 308.761 408.832 310.033 408.196 310.483ZM414.268 375.184C415.661 384.673 429.517 382.812 431.61 382.412C429.029 357.059 420.878 332.588 407.739 310.751C406.821 311.169 405.013 313.358 408.925 325.75C411.239 333.743 409.035 337.139 409.657 343.267C410.35 352.803 415.283 352.656 415.808 358.795C416.119 364.902 412.472 364.917 414.283 375.184H414.268Z" fill="#78C7C7"/>
<g style="mix-blend-mode:screen">
<g style="mix-blend-mode:screen">
<path d="M223.965 93.5406H215.474V109.219H223.965V93.5406Z" fill="#A0D9F6"/>
</g>
<g style="mix-blend-mode:screen">
<path d="M235.403 81.7766H226.908V109.215H235.403V81.7766Z" fill="#A0D9F6"/>
</g>
<g style="mix-blend-mode:screen">
<path d="M246.833 85.698H238.342V109.215H246.833V85.698Z" fill="#A0D9F6"/>
</g>
<g style="mix-blend-mode:screen">
<path d="M258.274 89.6157H249.784V109.215H258.274V89.6157Z" fill="#A0D9F6"/>
</g>
<g style="mix-blend-mode:screen">
<path d="M269.708 89.6157H261.218V109.215H269.708V89.6157Z" fill="#A0D9F6"/>
</g>
</g>
<g style="mix-blend-mode:multiply" opacity="0.1">
<path d="M333.269 384.402C333.269 388.116 354.919 391.119 381.641 391.119C408.364 391.119 429.999 388.116 429.999 384.402C429.999 380.687 408.346 377.702 381.641 377.702C354.937 377.702 333.269 380.712 333.269 384.402Z" fill="#473F66"/>
</g>
<path d="M345.164 207.154C379.455 218.047 403.431 213.833 403.431 213.833C403.431 213.833 405.217 242.846 405.217 265.695C405.217 288.544 404.356 374.238 404.356 374.238L391.218 373.073C391.218 361.577 379.544 246.478 375.744 246.478C373.401 246.478 372.929 261.949 372.929 277.191C372.929 292.433 377.158 373.306 377.158 373.306L363.32 374.477C361.213 354.321 348.632 286.887 345.817 242.814C345.235 233.514 345.164 212.247 345.164 207.154Z" fill="#0D608A"/>
<path d="M374.626 372.777L369.346 373.37C369.346 373.37 357.587 375.156 352.133 385.252L368.5 383.441C368.5 383.441 369.624 383.087 370.824 382.959C372.025 382.83 372.833 382.959 372.833 382.959L376.208 382.602L374.626 372.777Z" fill="url(#paint0_linear_242_1819)"/>
<path d="M393.475 372.945L398.783 373.259C398.783 373.259 410.621 374.441 416.59 384.237L400.159 383.266C400.159 383.266 398.896 383.08 397.689 383.012C396.482 382.945 395.808 383.012 395.808 383.012L392.418 382.812L393.475 372.945Z" fill="url(#paint1_linear_242_1819)"/>
<path d="M358.763 97.2655C358.763 97.2655 359.477 105.233 360.402 110.158C361.327 115.083 364.86 120.704 367.903 120.472C370.947 120.24 379.745 117.89 382.792 106.522C383.731 106.054 389.121 102.89 387.482 97.2655C385.842 91.6407 381.266 103.358 381.266 104.408C381.266 105.458 380.688 101.48 380.909 99.4833C381.131 97.4869 381.138 88.2301 376.219 88.3479C371.3 88.4658 363.903 89.5479 360.145 88.3479C357.244 87.4158 358.63 95.5013 358.763 97.2655Z" fill="#FFB38B"/>
<path d="M365.21 75.3413C369.557 72.7664 380.57 72.7664 381.859 79.3304C381.859 79.3304 388.071 80.2661 388.542 86.0123C388.946 90.905 388.489 94.0121 387.392 97.0013C385.688 92.0514 381.27 103.376 381.27 104.415C381.27 105.455 380.691 101.487 380.913 99.4904C381.134 97.4941 381.141 88.2373 376.223 88.3551C371.304 88.473 363.906 89.5551 360.148 88.3551C357.862 87.6409 358.216 92.3764 358.537 95.3406L358.395 95.2727C358.395 95.2727 357.455 92.2228 356.634 88.3551C355.812 84.4874 359.848 78.5376 365.21 75.3413Z" fill="#041F2D"/>
<path d="M360.913 112.154C362.277 116.479 365.271 120.675 367.907 120.472C370.436 120.279 376.901 118.611 380.766 111.572C381.759 107.762 381.745 105.619 380.023 109.101C377.68 113.851 374.929 114.901 373.815 115.079C373.401 110.158 369.654 109.629 368.478 109.569C367.303 109.508 366.424 109.926 365.131 109.744C361.906 108.797 361.088 111.372 360.913 112.154ZM362.92 112.154C363.449 110.858 365.117 111.204 366.089 111.329C367.968 111.565 368.435 110.972 369.661 111.211C370.886 111.451 372.122 113.558 371.475 115.197C370.829 116.836 368.843 116.547 367.839 116.015C366.835 115.483 367.125 116.49 365.731 116.308C364.338 116.126 362.395 113.436 362.917 112.154H362.92Z" fill="#041F2D"/>
<path d="M363.763 117.793C365.053 119.479 366.532 120.575 367.907 120.472C370.954 120.24 379.748 117.89 382.795 106.522C383.07 106.384 383.336 106.227 383.592 106.054C383.596 106.093 383.605 106.132 383.617 106.169L384.67 121.882C384.67 121.882 380.566 132.55 371.779 132.2C362.992 131.85 363.803 122.182 363.803 122.182L363.763 117.793Z" fill="#FFB38B"/>
<g style="mix-blend-mode:multiply" opacity="0.35">
<path d="M367.917 120.472C370.964 120.24 379.759 117.89 382.806 106.522C383.081 106.384 383.347 106.227 383.602 106.054C383.607 106.093 383.615 106.132 383.627 106.169L384.049 112.397C382.409 115.136 377.53 121.836 369.021 121.55C367.206 121.543 365.418 121.112 363.799 120.293L363.774 117.793C365.06 119.479 366.532 120.575 367.917 120.472Z" fill="#FFB38B"/>
</g>
<path d="M346.221 193.787C346.221 191.326 348.796 161.852 348.796 153.406C348.796 144.96 349.268 131.621 349.268 131.621C349.268 131.621 360.648 124.218 363.803 122.09V122.186C363.803 122.186 362.985 131.854 371.779 132.204C380.573 132.554 384.67 121.886 384.67 121.886L384.595 120.729C384.595 120.729 399.094 126.343 402.027 129.271C402.027 137.946 403.431 203.758 403.431 213.843C403.431 213.843 379.698 226.472 345.403 215.565C342.946 213.097 346.221 196.251 346.221 193.787Z" fill="#CEECFA"/>
<g style="mix-blend-mode:screen" opacity="0.15">
<path d="M387.089 206.794C376.983 211.704 369.228 206.976 379.298 191.151C389.368 175.327 373.815 157.042 366.796 145.796C362.966 139.58 360.077 132.832 358.223 125.772C360.423 124.343 362.463 122.993 363.613 122.2L363.806 122.168C363.806 122.207 363.006 131.836 371.782 132.186C380.559 132.536 384.674 121.868 384.674 121.868L384.599 120.711C384.599 120.711 399.098 126.325 402.03 129.254C402.03 137.928 403.434 203.74 403.434 213.826C403.434 213.826 399.112 215.886 391.647 217.55C395.361 210.269 392.418 204.204 387.089 206.794Z" fill="#CEECFA"/>
</g>
<path d="M366.614 167.752C366.282 168.534 366.31 169.234 366.782 169.702C367.75 170.666 370.297 169.406 373.465 166.245C374.311 165.392 376.515 166.363 376.515 166.363C376.515 166.363 374.829 167.791 374.404 168.995C374.183 169.627 374.215 171.581 374.294 172.866C374.294 172.866 372.19 172.645 370.875 171.766C369.561 170.888 368.107 170.752 366.782 170.538C365.456 170.324 364.721 168.584 366.614 167.752Z" fill="#EBA614"/>
<path d="M382.881 170.877C383.238 170.741 383.238 174.17 384.731 175.934C385.263 176.585 385.908 177.134 386.635 177.556C383.902 177.913 382.47 176.452 382.091 175.17C381.769 174.209 381.188 173.355 380.412 172.702C381.176 172.018 382.003 171.407 382.881 170.877V170.877Z" fill="#EBA614"/>
<path d="M349.268 131.611C346.771 133.146 344.451 134.953 342.353 137C339.181 140.164 338.652 150.71 336.723 158.62C334.794 166.531 329.515 175.163 329.515 180.602C329.515 186.041 331.451 191.851 335.669 194.137C339.888 196.423 349.036 192.38 349.036 192.38C349.036 192.38 336.37 190.626 343.056 181.391C341.735 180.866 341.913 179.37 341.913 177.784C341.913 176.198 348.861 165.642 348.861 163.72L349.268 131.611Z" fill="#C6C7FF"/>
<g style="mix-blend-mode:multiply" opacity="0.45">
<path d="M389.45 175.52L402.955 183.327C403.016 186.505 403.07 189.594 403.123 192.519L387.471 182.712C386.803 182.041 386.124 179.545 385.07 179.545C384.017 179.545 380.902 179.545 380.902 177.441C380.902 175.338 378.916 172.923 378.916 172.923L381.727 172.048L389.45 175.52Z" fill="#CEECFA"/>
</g>
<path style="mix-blend-mode:screen" opacity="0.3" d="M345.414 215.554C347.843 216.333 350.218 216.983 352.558 217.522C353.012 231.025 354.651 266.12 360.123 309.304C363.956 339.528 366.764 364.209 368.543 374.034L363.36 374.47C361.252 354.313 348.672 286.88 345.857 242.807C345.442 236.289 345.282 223.879 345.224 215.308C345.277 215.397 345.341 215.48 345.414 215.554V215.554Z" fill="url(#paint2_linear_242_1819)"/>
<path d="M389.45 175.52C389.31 177.058 388.964 178.57 388.421 180.016C388.421 180.016 387.267 178.491 387.267 176.905C387.267 176.116 388.364 175.72 389.45 175.52Z" fill="#94B0C7"/>
<g style="mix-blend-mode:multiply" opacity="0.45">
<path d="M402.127 134.889C402.127 134.889 400.987 139.81 400.63 147.807C400.434 152.31 400.895 168.995 400.895 168.995L382.963 165.306L392.275 173.573L405.813 175.677L408.285 170.581L402.127 134.889Z" fill="#CEECFA"/>
</g>
<path d="M402.027 129.261C402.027 129.261 409.171 132.603 410.957 136.818C412.743 141.032 420.626 170.224 422.387 179.72C424.148 189.216 421.505 193.787 408.846 189.212C396.187 184.637 388.442 180.016 388.442 180.016C388.442 180.016 391.368 172.981 387.728 167.356C387.728 167.356 398.233 170.763 402.827 171.581C402.827 171.581 401.27 158.095 401.27 147.721L402.027 129.261Z" fill="#CEECFA"/>
<path d="M364.599 164.252C365.053 163.788 366.624 162.96 369.311 161.731C371.997 160.503 374.119 161.206 375.937 162.256C380.509 161.495 380.452 162.899 381.209 163.663C381.677 163.195 382.534 163.638 383.67 164.781C384.806 165.924 387.882 167.809 388.028 167.902C390.039 171.474 389.628 175.466 389.071 177.863C387.464 178.398 385.949 177.377 384.731 175.945C383.234 174.181 383.234 170.752 382.881 170.888C382.527 171.024 379.895 172.909 379.369 173.834C378.844 174.759 378.619 175.977 377.744 175.898C376.869 175.82 376.462 174.62 376.462 174.62C376.244 175.37 374.444 174.713 374.358 173.698C374.272 172.684 374.136 169.77 374.415 168.995C374.84 167.788 376.526 166.363 376.526 166.363C376.526 166.363 374.322 165.392 373.476 166.245C370.307 169.406 367.76 170.666 366.792 169.702C365.824 168.738 366.678 166.845 368.85 165.131C366.446 166.42 364.135 164.71 364.599 164.252Z" fill="#FFB38B"/>
<g style="mix-blend-mode:multiply" opacity="0.6">
<path d="M377.144 171.616C376.476 172.866 376.301 174.727 376.29 174.802C376.29 174.82 376.29 174.831 376.29 174.841C376.368 174.79 376.424 174.711 376.448 174.62C376.448 174.62 376.498 174.752 376.58 174.923C376.598 174.891 376.626 174.873 376.626 174.834C376.626 174.795 376.805 172.966 377.444 171.781C378.084 170.595 380.952 167.599 380.884 167.531C380.816 167.463 377.809 170.377 377.144 171.616ZM368.482 165.256C368.593 165.206 368.714 165.185 368.839 165.124C368.753 165.185 371.779 163.456 371.74 163.367C371.7 163.277 368.578 164.952 368.525 165.002C368.504 165.015 368.486 165.032 368.473 165.052C368.459 165.073 368.45 165.096 368.446 165.12C368.442 165.143 368.443 165.168 368.449 165.192C368.456 165.215 368.467 165.237 368.482 165.256ZM376.526 166.363C376.526 166.363 379.344 164.667 379.298 164.577C379.252 164.488 376.562 166.006 376.233 166.238L376.526 166.363Z" fill="#FFB38B"/>
</g>
<g style="mix-blend-mode:multiply" opacity="0.45">
<path d="M346.221 193.787C346.221 193.18 346.375 190.93 346.61 187.755L357.559 183.241L366.703 182.527L373.947 186.273C373.947 186.273 368.946 185.687 366.853 186.687C365.088 187.516 351.997 195.533 345.5 199.794C345.937 197.82 346.179 195.808 346.221 193.787V193.787Z" fill="#CEECFA"/>
</g>
<g style="mix-blend-mode:multiply" opacity="0.45">
<path d="M349.079 136.528C349.079 136.528 350.011 151.171 350.011 154.581C350.011 157.992 350.154 162.649 352.008 164.017C354.24 165.656 359.098 167.284 363.11 169.666C365.196 170.909 345.675 169.816 345.675 169.816L344.503 159.502L349.079 136.528Z" fill="#CEECFA"/>
</g>
<path d="M349.268 131.611C346.771 133.146 344.451 134.953 342.353 137C339.181 140.164 338.652 150.71 336.723 158.62C334.794 166.531 329.515 175.163 329.515 180.602C329.515 186.041 331.451 191.851 335.669 194.137C339.888 196.423 349.036 192.38 349.036 192.38C349.036 192.38 336.37 190.626 343.056 181.391C342.842 179.755 342.567 179.37 342.567 177.784C342.567 176.198 348.861 165.642 348.861 163.72L349.268 131.611Z" fill="#CEECFA"/>
<path style="mix-blend-mode:screen" opacity="0.3" d="M403.431 213.833C403.431 213.833 405.217 242.846 405.217 265.695C405.217 288.544 404.356 374.238 404.356 374.238L399.773 373.827C399.094 355.903 397.723 309.901 397.723 290.076C397.723 267.624 394.118 228.411 393.079 217.522C399.709 215.808 403.431 213.833 403.431 213.833Z" fill="url(#paint3_linear_242_1819)"/>
<g style="mix-blend-mode:multiply" opacity="0.45">
<path d="M340.802 169.448C340.802 169.448 341.281 173.338 341.281 174.57C341.281 175.802 340.985 180.02 341.638 180.662C342.292 181.305 338.474 187.401 342.231 188.576C345.989 189.751 346.682 183.302 346.682 183.302L344.285 177.263L343.339 170.756L340.802 169.448Z" fill="#C6C7FF"/>
</g>
<path d="M347.843 192.141C347.843 192.141 355.455 188.951 358.445 188.073C361.434 187.194 369.664 183.941 371.19 183.241C372.715 182.541 371.654 180.952 369.018 181.423C366.382 181.895 360.931 183.88 360.931 183.88C360.931 183.88 366.678 180.073 367.968 179.595C369.257 179.116 367.968 176.963 363.921 178.484C359.873 180.005 357.469 180.887 356.594 180.887C355.719 180.887 355.065 180.127 355.951 179.252C356.837 178.377 358.584 176.613 359.23 175.966C359.877 175.32 360.402 174.441 359.734 173.766C359.066 173.091 357.705 172.623 355.626 174.645C353.547 176.666 350.468 179.391 349.086 178.02C347.704 176.648 346.696 177.355 345.982 176.638C345.267 175.92 344.457 171.688 342.17 171.334C341.231 171.334 342.285 175.591 342.285 176.627C342.285 177.663 342.174 180.009 343.056 181.384C341.295 182.416 339.245 187.676 343.056 190.133C344.518 191.085 346.14 191.765 347.843 192.141V192.141Z" fill="#FFB38B"/>
<path d="M371.19 183.241C372.715 182.527 371.654 180.952 369.018 181.423C367.046 181.78 363.492 182.984 361.834 183.566L361.534 183.498C363.024 182.509 366.932 179.98 367.964 179.602C369.25 179.13 367.964 176.97 363.917 178.491C359.87 180.012 357.466 180.895 356.591 180.895C355.716 180.895 355.062 180.134 355.948 179.259C356.834 178.384 358.58 176.62 359.227 175.973C359.873 175.327 360.398 174.448 359.731 173.773C359.063 173.098 357.702 172.631 355.623 174.652C353.544 176.673 350.465 179.398 349.082 178.027C347.7 176.655 346.693 177.363 345.978 176.645C345.264 175.927 344.453 171.695 342.167 171.341L337.245 164.513L364.153 169.87L375.226 186.573L367.367 184.787C369.161 184.091 370.632 183.502 371.19 183.241Z" fill="#BABABA"/>
<path d="M337.248 164.513L337.659 163.431L364.567 168.938L375.969 185.845L375.233 186.58L364.156 169.877L337.248 164.513Z" fill="url(#paint4_linear_242_1819)"/>
<path d="M199.193 229.289C199.193 229.289 201.818 241.535 201.265 280.516C200.711 319.497 197.871 362.556 197.871 362.556H185.726C185.726 362.556 183.748 285.416 177.722 264.324C171.696 243.232 173.578 230.039 173.578 230.039L199.193 229.289Z" fill="#0C557A"/>
<path d="M186.998 362.299H192.306C192.306 362.299 204.14 362.785 210.656 372.177H194.246C194.246 372.177 192.659 372.177 191.463 372.177C190.266 372.177 189.891 372.177 189.891 372.177H186.516L186.998 362.299Z" fill="url(#paint5_linear_242_1819)"/>
<path style="mix-blend-mode:multiply" opacity="0.2" d="M178.489 267.52L184.623 260.681C184.623 260.681 192.749 277.859 191.499 287.859C190.249 297.858 187.748 302.544 190.559 309.104C193.371 315.665 196.185 321.907 192.435 330.35C188.684 338.793 188.688 343.471 190.559 349.721C192.013 354.553 192.517 357.153 191.088 362.577H185.73C185.73 362.577 183.905 292.205 178.489 267.52Z" fill="url(#paint6_linear_242_1819)"/>
<path d="M152.935 225.714L146.431 287.302C146.431 287.302 141.912 334.304 143.044 368.206H156.618C156.618 368.206 164.151 293.701 187.516 260.174L186.005 231.168L152.935 225.714Z" fill="#0C557A"/>
<path d="M144.148 368.045H149.453C149.453 368.045 161.294 368.531 167.809 377.92H151.399C151.399 377.92 149.988 377.92 148.795 377.92C147.602 377.92 147.049 377.92 147.049 377.92H143.673L144.148 368.045Z" fill="url(#paint7_linear_242_1819)"/>
<path style="mix-blend-mode:screen" opacity="0.2" d="M152.935 225.714L170.306 228.572C169.567 241.071 167.506 265.788 162.333 277.648C155.246 293.891 154.832 306.39 155.246 317.222C155.661 328.054 153.167 333.053 151.096 342.635C149.631 349.378 148.788 359.203 149.574 368.213H143.044C141.912 334.311 146.431 287.302 146.431 287.302L152.935 225.714Z" fill="url(#paint8_linear_242_1819)"/>
<path d="M195.971 198.937C195.971 198.937 182.976 207.404 163.248 197.565L153.3 215.308L156.786 245.664L199.836 240.375V213.772L195.971 198.937Z" fill="#0C557A"/>
<path d="M196.85 202.33L195.971 198.937C195.971 198.937 182.976 207.404 163.248 197.565L161.172 201.262C164.869 203.904 179.765 212.986 196.85 202.33Z" fill="#484D53"/>
<path d="M169.238 119.558C169.238 119.558 180.029 124.457 182.097 124.832C184.165 125.207 186.102 128.697 186.102 128.697L188.48 133.714L195.964 198.937C195.964 198.937 182.719 207.583 162.669 197.283C164.326 177.052 161.201 134.207 161.201 134.207L165.084 121.708C165.084 121.708 167.623 119.165 169.238 119.558Z" fill="#A0D9F6"/>
<path d="M169.238 119.558C169.238 119.558 165.441 119.679 165.441 125.15C165.441 129.239 165.259 136.657 166.727 155.296C168.195 173.934 168.199 183.509 165.995 192.316C163.791 201.123 157.422 224.5 157.422 224.5L122.337 185.452L112.461 188.869C112.461 188.869 108.381 195.298 106.538 198.794C105.66 200.469 103.82 202.122 101.92 202.68C101.92 202.68 104.924 195.562 100.202 194.034C95.4793 192.505 93.8826 193.973 93.8826 193.973C93.8826 193.973 101.487 183.259 108.481 174.295C115.475 165.331 124.177 155.785 129.081 150.267C133.986 144.75 138.401 134.939 139.869 132.243C141.337 129.547 145.881 128.689 150.906 127.461C155.932 126.232 165.62 118.272 169.238 119.558Z" fill="#0D608A"/>
<path d="M208.105 324.704C207.012 326.657 205.883 328.632 204.719 330.604C196.503 344.639 192.985 357.149 191.792 362.213L207.509 361.224C205.037 354.342 208.102 324.704 208.102 324.704H208.105Z" fill="#0C557A"/>
<path d="M381.931 393.623C381.345 393.873 380.709 393.984 380.073 393.948C379.388 393.967 378.706 393.857 378.062 393.623V254.663H381.931V393.623Z" fill="#B2B2B2"/>
<path d="M378.062 257.42H188.245V261.831H378.062V257.42Z" fill="#B2B2B2"/>
<path d="M159.979 176.259C163.416 176.277 164.576 174.663 164.216 172.688C163.855 170.713 163.533 168.641 164.026 167.906C164.519 167.17 164.887 164.474 165.559 163.859C168.931 161.227 167.091 160.002 165.316 157.363C163.541 154.724 164.394 154.417 164.641 152.46C165.091 148.889 160.222 144.124 160.222 144.124C159.004 142.928 156.425 143.017 155.507 148.256C153.85 148.814 149.988 155.524 150.078 162.97C150.078 162.97 147.963 148.992 142.444 150.192C136.925 151.392 140.422 160.677 144.741 162.142C144.741 162.156 149.188 176.195 159.979 176.259Z" fill="#FFB38B"/>
<path d="M142.444 150.206C147.963 149.006 148.188 162.802 150.078 162.984C150.721 155.703 153.85 148.828 155.507 148.271C156.425 143.032 159.004 142.942 160.222 144.139C160.83 144.751 161.402 145.397 161.937 146.074V146.074C161.937 146.074 164.512 145.889 167.27 143.317C170.027 140.746 162.762 135.964 156.879 134.946C150.996 133.928 140.051 131.457 131.314 138.628C129.471 139.271 121.008 144.235 125.599 154.624C130.189 165.013 129.374 166.577 129.374 166.577C129.374 166.577 135.625 166.577 137.558 169.613L141.094 158.806C139.108 155.52 138.719 151.01 142.444 150.206Z" fill="#041F2D"/>
<path d="M144.741 162.156C143.234 161.645 141.83 160.17 140.869 158.428C140.944 158.556 141.008 158.685 141.08 158.806L137.697 169.234C139.362 170.888 145.913 177.42 149.485 181.463C151.017 178.402 153.903 174.677 153.903 174.677C153.903 174.677 153.882 174.609 153.878 174.573C147.484 170.809 144.741 162.156 144.741 162.156Z" fill="#FFB38B"/>
<g style="mix-blend-mode:multiply" opacity="0.3">
<path d="M140.512 160.556C141.533 162.085 142.855 163.324 144.266 163.806C144.266 163.806 146.806 171.824 152.664 176.359C153.378 175.345 153.914 174.663 153.914 174.663C153.914 174.663 153.893 174.595 153.889 174.559C147.484 170.809 144.741 162.156 144.741 162.156C143.234 161.645 141.83 160.17 140.869 158.428C140.944 158.556 141.008 158.685 141.08 158.806L140.512 160.556Z" fill="#FFB38B"/>
</g>
<path d="M127.602 172.888C127.602 172.888 146.059 177.852 152.014 190.969C152.014 190.969 153.482 189.616 153.053 187.844C152.624 186.073 149.803 180.548 145.881 175.766C141.958 170.984 136.618 166.949 129.51 166.327C128.774 166.695 127.485 169.638 127.602 172.888Z" fill="#16A1E7"/>
<path d="M127.602 172.888C127.602 172.888 119.087 175.766 111.914 189.926C104.742 204.087 101.244 219.35 104.002 234.068C106.76 248.785 113.932 266.249 110.253 281.323C112.193 283.255 114.3 278.748 124.052 274.895C133.804 271.041 154.214 261.838 167.823 261.838C163.687 257.695 157.883 241.232 157.883 230.75C157.883 220.268 151.096 191.948 151.096 191.948C151.096 191.948 151.999 191.073 152.21 190.291C152.421 189.509 146.999 180.962 145.113 179.091C143.227 177.22 133.557 171.666 127.602 172.888Z" fill="#16A1E7"/>
<path d="M111.007 281.759C111.007 281.759 109.892 293.094 131.596 291.809C153.3 290.523 185.491 288.866 192.11 297.137C194.314 299.348 169.12 356.91 169.12 366.284L190.452 368.674C190.452 368.674 196.067 351.489 204.001 334.032C212.774 314.747 230.434 285.519 213.181 277.741C195.928 269.963 167.816 261.817 167.816 261.817C167.816 261.817 159.354 258.406 139.597 265.97C119.84 273.534 112.875 276.102 111.007 281.759Z" fill="#1281B8"/>
<path d="M195.914 267.591C185.362 263.299 166.027 259.445 166.027 259.445C166.529 260.311 167.128 261.116 167.813 261.845C167.813 261.845 195.928 269.991 213.177 277.77L213.385 277.873C212.281 273.288 205.53 271.513 195.914 267.591Z" fill="#1072A3"/>
<path d="M110.253 281.323C113.932 266.249 106.763 248.771 104.002 234.068C102.92 228.099 102.78 221.998 103.588 215.986V215.947C103.588 215.947 101.012 207.765 99.5442 204.701C98.0761 201.637 96.1115 201.13 92.4323 200.415C88.7531 199.701 82.6235 197.105 84.9525 205.687C87.2815 214.268 96.0865 238.846 98.6726 249.139C101.259 259.431 103.588 272.866 97.9332 285.373C96.3401 289.419 98.5476 290.398 100.752 290.398C102.598 290.398 107.242 289.094 110.525 281.548C110.426 281.483 110.335 281.407 110.253 281.323Z" fill="#3F3F3F"/>
<path d="M97.4903 288.544C97.2902 287.787 97.3903 286.759 97.9332 285.373C103.573 272.873 101.244 259.438 98.6726 249.139C96.1008 238.839 87.2671 214.261 84.9346 205.683C84.0702 202.505 84.3702 200.858 85.2739 200.076C85.2739 200.097 81.9984 202.576 81.5412 203.819C81.084 205.062 83.1593 209.058 84.5667 213.279C85.9741 217.5 92.7823 235.996 95.5399 246.574C98.2976 257.153 100.598 271.12 96.4651 279.67C94.3469 284.634 94.5648 285.612 97.4903 288.544Z" fill="#666666"/>
<path d="M96.4652 279.67C100.598 271.12 98.2976 257.146 95.54 246.575C92.7824 236.003 85.9777 217.515 84.5668 213.279C84.056 211.736 83.4451 210.222 82.9093 208.862C82.9093 208.862 81.4805 210.433 81.4805 211.811C81.4805 213.19 84.9775 225.879 86.7278 232.5C88.4781 239.121 91.2357 250.246 91.2357 255.217C91.2357 260.188 90.8785 261.095 91.5929 264.502C92.3073 267.909 92.3323 273.052 92.3323 276.088C92.3323 278.856 93.1753 283.23 95.0649 284.455C95.0435 283.302 95.5222 281.88 96.4652 279.67Z" fill="#B2B2B2"/>
<path d="M189.584 295.062C179.511 289.173 151.253 290.644 131.596 291.808C116.493 292.705 112.439 287.494 111.371 284.237C111.371 284.237 102.47 291.987 104.309 296.283C106.149 300.58 116.454 301.926 129.814 300.451C143.173 298.976 159.736 298.733 167.948 298.487C176.161 298.24 188.648 301.797 189.584 295.062Z" fill="#3F3F3F"/>
<path d="M167.948 298.487C159.733 298.733 143.18 298.98 129.814 300.451C118.147 301.733 108.821 300.872 105.417 297.78C105.417 297.78 94.079 299.533 92.5145 291.898C90.9499 284.262 90.8571 271.395 90.8571 268.084C90.8571 266.856 91.0321 264.745 91.2607 262.57C91.0035 260.513 91.2285 259.099 91.2285 255.217C91.2285 253.431 90.8713 250.813 90.3212 247.914H87.6387C86.7206 247.914 85.9027 247.439 85.9027 249.342C85.9027 251.246 82.7664 297.058 82.7664 300.465C82.7664 303.872 82.7664 304.419 86.5349 304.972C90.3034 305.526 133.371 306.944 139.504 306.944C144.938 306.944 166.455 300.49 173.321 298.68C171.535 298.523 169.741 298.459 167.948 298.487V298.487Z" fill="#8C8C8C"/>
<path d="M85.2597 259.949H81.7984V262.66H85.0954C85.1454 261.724 85.199 260.82 85.2597 259.949Z" fill="#B2B2B2"/>
<path d="M81.7984 265.277C81.7985 265.469 81.724 265.653 81.5907 265.791C81.4574 265.929 81.2757 266.01 81.084 266.017H79.0122C78.817 266.015 78.6304 265.936 78.4927 265.798C78.355 265.659 78.2773 265.472 78.2764 265.277V257.66C78.2782 257.465 78.3565 257.28 78.4942 257.143C78.6319 257.006 78.818 256.928 79.0122 256.928H81.084C81.2748 256.933 81.456 257.013 81.5893 257.149C81.7226 257.286 81.7975 257.469 81.7984 257.66V265.277Z" fill="#B2B2B2"/>
<path d="M139.504 306.944V376.788C140.405 377.02 141.332 377.14 142.262 377.145C143.153 377.147 144.04 377.027 144.898 376.788V306.169C142.562 306.654 140.665 306.944 139.504 306.944Z" fill="#B2B2B2"/>
<path d="M192.106 231.393C192.371 230.888 192.539 230.338 192.603 229.772C191.632 229.774 190.663 229.707 189.702 229.572C182.726 228.697 173.271 225.118 172.978 225.018C178.054 228.204 184.337 230.557 192.106 231.393Z" fill="#16A1E7"/>
<path d="M261.771 206.072C260.824 206.06 259.889 205.855 259.024 205.469C257.667 204.83 260.125 203.122 261.168 203.19C262.211 203.258 261.971 202.815 260.81 201.048L259.628 199.29L262.754 198.605L264.793 199.676L265.626 201.248C265.626 201.248 265.904 203.197 265.665 203.422C265.426 203.647 264.315 205.258 264.065 205.48C263.815 205.701 261.803 206.09 261.803 206.09" fill="#FFB38B"/>
<path d="M276.17 201.058C275.227 198.808 264.875 193.676 261.611 191.13C258.346 188.584 256.61 189.08 252.813 187.784C249.016 186.487 244.09 184.266 244.09 184.266L243.49 184.219L240.253 192.873C240.253 192.873 246.422 194.265 247.933 194.808C249.444 195.351 249.78 197.908 252.406 200.28C255.031 202.651 258.149 200.683 258.799 200.926C259.45 201.169 258.907 201.551 257.503 202.512C256.099 203.472 258.803 204.133 258.803 204.133L263.693 200.433C264.675 203.187 265.386 203.122 263.439 204.276C261.493 205.429 260.66 208.308 262.271 207.765C264.808 206.59 267.412 205.297 267.504 203.897C267.597 202.497 266.722 198.794 266.722 198.794C268.215 199.63 270.769 200.222 270.769 200.222C275.159 203.404 277.117 203.301 276.17 201.058ZM268.187 197.612C267.676 198.53 265.147 198.551 263.625 197.89L263.5 197.833C261.557 196.998 261.557 196.998 257.885 196.762C253.956 196.501 251.973 192.666 252.13 192.576C252.288 192.487 254.352 195.869 257.928 196.105C261.678 196.351 261.728 196.362 263.765 197.237L263.886 197.294C265.386 197.944 267.383 197.708 267.601 197.294C267.651 197.219 267.54 197.001 267.087 196.687C265.115 195.362 260.114 192.758 260.185 192.58C260.257 192.401 265.454 194.79 267.451 196.151C268.376 196.762 268.362 197.283 268.187 197.612Z" fill="#FFB38B"/>
<path d="M100.201 194.034C95.4793 192.505 93.8826 193.973 93.8826 193.973C93.8826 193.973 92.6502 194.687 91.8858 195.151C91.1214 195.616 88.946 196.837 87.2672 197.833C85.5883 198.83 85.7884 199.751 85.7884 199.751C86.1456 199.751 86.5278 199.394 88.0352 199.515C89.5426 199.637 93.979 200.74 93.979 200.74C94.3137 200.581 94.66 200.448 95.0149 200.34C96.1937 199.515 98.6762 198.458 98.6762 198.458C97.4939 198.976 95.3578 200.48 94.4362 201.773C93.5146 203.065 94.0362 204.862 95.6543 205.19C97.2724 205.519 98.2369 204.08 98.8298 203.487C99.4228 202.894 101.923 202.68 101.923 202.68C101.923 202.68 104.924 195.562 100.201 194.034Z" fill="#FFB38B"/>
<path d="M186.101 128.186C186.101 128.186 185.966 140.457 187.441 149.774C188.916 159.092 190.752 176.627 192.228 185.577C193.703 194.526 199.089 217.086 200.193 222.232C200.193 222.232 201.054 198.94 199.836 192.805C198.618 186.669 199.589 180.791 201.304 171.963C203.019 163.134 204.733 141.071 204.126 135.307C203.519 129.543 200.325 130.286 196.153 128.2C191.981 126.114 186.101 126.425 186.101 128.186Z" fill="#0D608A"/>
<path d="M223.751 170.877C208.416 160.213 204.251 138.878 204.251 138.878C204.226 147.356 202.769 164.463 201.304 171.977C201.275 172.145 201.243 172.302 201.215 172.463C212.327 187.873 242.872 193.926 242.872 193.926C246.247 191.537 246.554 184.727 246.554 184.727C246.554 184.727 239.075 181.53 223.751 170.877Z" fill="#0D608A"/>
<path d="M195.914 92.6299C195.914 92.6299 201.272 97.3475 203.362 99.0582C205.451 100.769 202.794 104.244 198.55 104.244C194.306 104.244 196.007 107.64 196.007 108.861C196.007 110.083 192.042 111.786 189.877 114.426C187.713 117.065 186.198 120.275 186.098 116.5C185.998 112.726 184.119 110.465 181.39 111.218C178.661 111.972 177.614 115.368 179.118 117.647C177.518 119.718 174.407 122.075 173.278 122.265C172.149 122.454 170.26 120.479 169.413 116.986C168.566 113.493 165.637 107.372 167.902 98.8868C170.167 90.4014 176.457 89.0943 181.194 88.2014C185.251 87.4479 190.345 88.0229 195.914 92.6299Z" fill="#3D2217"/>
<path d="M169.806 118.265C170.749 120.929 172.306 122.4 173.278 122.236C174.407 122.047 177.518 119.69 179.118 117.618C177.614 115.354 178.65 111.958 181.39 111.19C184.13 110.422 186.005 112.701 186.098 116.472C186.191 120.243 187.702 117.04 189.877 114.397C192.052 111.754 196.007 110.058 196.007 108.833C196.007 107.608 194.306 104.215 198.55 104.215C199.059 104.219 199.567 104.166 200.065 104.058C200.45 105.34 201.4 109.04 200.482 111.808C199.347 115.201 199.489 117.879 200.2 120.147C200.911 122.415 199.486 121.575 198.218 122.411C196.95 123.247 196.76 126.747 195.625 129.293C194.489 131.839 190.624 131.361 186.948 129.011C185.351 127.5 184.119 131.464 183.376 132.971C182.633 134.478 176.293 155.281 167.105 124.679C167.792 122.744 168.593 120.853 169.506 119.015L169.806 118.265Z" fill="#FFB38B"/>
<g style="mix-blend-mode:multiply" opacity="0.3">
<path d="M157.883 230.75C157.883 229.846 157.829 228.796 157.736 227.654L122.569 198.205C122.569 198.205 119.626 201.88 128.938 216.104C137.329 228.9 147.313 244.085 162.28 251.46C159.851 244.928 157.883 236.835 157.883 230.75Z" fill="#16A1E7"/>
</g>
<path d="M188.245 393.623C188.245 393.623 187.695 393.98 186.344 393.98C185.672 394.013 185.001 393.891 184.383 393.623V254.663H188.245V393.623Z" fill="#B2B2B2"/>
<path d="M417.569 247.849H136.236V254.663H417.569V247.849Z" fill="#CEECFA"/>
<path d="M417.565 247.849L319.759 230.568H231.473L136.232 247.849" fill="#EDF8FD"/>
<path d="M222.272 227.661C221.582 227.661 216.017 227.568 214.224 227.568C212.431 227.568 209.938 229.354 206.591 230.068C203.244 230.782 192.474 230.425 192.474 230.425C192.385 230.756 192.265 231.077 192.117 231.386C192.424 231.414 192.728 231.457 193.042 231.479C193.042 231.479 192.995 231.836 192.867 232.407C192.867 232.407 206.198 232.693 211.613 232.407C216.256 232.157 222.279 231.418 224.976 230.375L225.454 230.2C224.883 229.257 222.893 227.661 222.272 227.661Z" fill="#FFB38B"/>
<path style="mix-blend-mode:multiply" opacity="0.4" d="M194.674 244.546C199.336 244.3 209.88 244.057 213.317 244.903C216.753 245.75 226.312 245.753 229.627 245.021C232.941 244.289 241.772 244.778 244.711 244.903C247.651 245.028 247.04 241.464 247.04 241.464L241.4 239.382C241.4 239.382 205.712 236.318 204.73 236.318C204.43 236.318 200.218 236.675 194.449 237.271L161.508 243.25C176.664 246.871 190.281 244.782 194.674 244.546Z" fill="#CEECFA"/>
<path d="M230.366 233.143C230.366 233.143 244.622 233.603 247.562 240.867C247.919 242.064 246.554 245.099 236.253 243.257C225.951 241.414 224.844 242.246 224.844 242.246C224.844 242.246 218.782 234.618 230.366 233.143Z" fill="#8C8C8C"/>
<path d="M238.335 235.593C239.05 235.778 243.15 238.753 244.743 239.735C246.337 240.717 247.412 240.56 247.412 238.846C247.402 238.334 247.273 237.831 247.034 237.378C246.795 236.925 246.453 236.533 246.036 236.236C246.122 235.289 244.465 234.221 242.94 233.114C241.414 232.007 240.361 230.693 238.767 230.446C237.174 230.2 231.405 228.975 230.552 228.854C229.698 228.732 227.669 229.343 224.969 230.382C222.268 231.421 216.264 232.168 211.606 232.414C206.191 232.7 192.86 232.414 192.86 232.414C192.017 236.312 190.126 239.905 187.391 242.807C192.885 242.739 210.181 242.521 211.059 242.521C212.099 242.521 216.146 243.878 221.775 243.878C227.405 243.878 226.833 243.75 228.362 243.11C229.648 243.257 231.088 243.039 232.838 242.925C234.306 243.475 236.213 243.439 237.124 243.75C238.035 244.06 240.736 244.667 241.504 243.775C242.272 242.882 239.228 241.389 238.717 241.3C237.682 241.145 236.671 240.855 235.71 240.439C234.667 239.918 233.131 239.368 233.131 239.368C233.131 239.368 235.249 239.55 236.571 240.16C237.892 240.771 241.35 242.339 242.114 242.953C242.879 243.567 244.29 244.024 245.086 243.932C245.459 243.889 245.8 243.702 246.036 243.411C246.271 243.12 246.383 242.748 246.347 242.375C246.226 241.692 245.704 241.389 244.383 240.56C243.061 239.732 238.592 237.071 237.399 236.393C236.206 235.714 234.185 235.503 234.185 235.503C234.185 235.503 237.632 235.414 238.335 235.593Z" fill="#FFB38B"/>
<g style="mix-blend-mode:multiply" opacity="0.5">
<g style="mix-blend-mode:multiply" opacity="0.5">
<path d="M246.09 236.168C246.061 236.143 243.34 234.025 241.761 233.064L241.046 232.622C239.928 231.925 239.367 231.568 238.649 231.518C237.753 231.457 235.731 231.411 231.148 231.543H230.92C230.907 231.542 230.895 231.545 230.884 231.549C230.873 231.554 230.862 231.56 230.854 231.569C230.846 231.578 230.839 231.589 230.835 231.6C230.831 231.612 230.829 231.624 230.83 231.636C230.83 231.648 230.832 231.66 230.836 231.671C230.84 231.682 230.847 231.692 230.855 231.7C230.864 231.709 230.874 231.715 230.885 231.719C230.896 231.724 230.908 231.726 230.92 231.725H231.155C235.728 231.589 237.746 231.643 238.635 231.725C239.307 231.764 239.853 232.111 240.95 232.797L241.664 233.243C243.243 234.211 245.951 236.314 245.983 236.336C246.003 236.348 246.026 236.352 246.049 236.348C246.072 236.345 246.093 236.332 246.108 236.314C246.124 236.298 246.133 236.275 246.133 236.252C246.133 236.228 246.124 236.206 246.108 236.189L246.09 236.168Z" fill="#FFB38B"/>
</g>
<g style="mix-blend-mode:multiply" opacity="0.5">
<path d="M234.202 235.414H231.702C231.69 235.414 231.678 235.416 231.667 235.42C231.656 235.424 231.646 235.431 231.638 235.439C231.629 235.448 231.623 235.458 231.618 235.469C231.614 235.48 231.612 235.492 231.613 235.504C231.612 235.515 231.614 235.527 231.618 235.538C231.623 235.549 231.629 235.559 231.638 235.568C231.646 235.576 231.656 235.583 231.667 235.587C231.678 235.591 231.69 235.593 231.702 235.593H234.202C234.226 235.592 234.248 235.582 234.264 235.566C234.281 235.549 234.291 235.527 234.292 235.504C234.292 235.48 234.282 235.457 234.265 235.44C234.249 235.424 234.226 235.414 234.202 235.414Z" fill="#FFB38B"/>
</g>
<g style="mix-blend-mode:multiply" opacity="0.5">
<path d="M233.177 239.275C232.364 239.105 231.539 238.999 230.709 238.957C230.684 238.959 230.661 238.97 230.644 238.989C230.627 239.008 230.619 239.032 230.62 239.057C230.62 239.08 230.63 239.103 230.647 239.119C230.663 239.136 230.685 239.145 230.709 239.146V239.146C231.524 239.189 232.335 239.293 233.134 239.457C233.158 239.463 233.184 239.459 233.205 239.445C233.226 239.432 233.241 239.411 233.247 239.387C233.252 239.363 233.248 239.338 233.235 239.317C233.222 239.296 233.201 239.281 233.177 239.275V239.275Z" fill="#FFB38B"/>
</g>
</g>
<path d="M152.014 190.969C152.014 190.969 156.239 228.179 193.031 231.486C192.294 235.856 190.239 239.897 187.141 243.068C187.141 243.068 161.758 247.492 146.677 232.411C137.305 222.944 128.867 212.597 121.48 201.512C121.48 201.512 118.658 186.802 132.146 183.495C145.634 180.188 152.014 190.969 152.014 190.969Z" fill="#16A1E7"/>
<g style="mix-blend-mode:screen" opacity="0.3">
<path d="M130.632 166.459C130.274 166.406 129.889 166.359 129.51 166.327C128.774 166.684 127.485 169.638 127.602 172.888C127.602 172.888 128.256 173.063 129.346 173.427C129.031 170.97 130.221 167.538 130.632 166.459Z" fill="#6F5BE5"/>
</g>
<g style="mix-blend-mode:screen" opacity="0.3">
<path d="M111.007 281.759C112.404 277.552 116.622 275.056 126.834 270.941C124.834 269.266 122.059 268.388 126.995 264.777C135.272 258.706 118.719 249.878 113.932 243.807C109.146 237.735 107.681 233.143 112.461 233.511C117.24 233.878 112.646 224.314 109.892 215.297C107.138 206.279 112.153 205.062 115.711 202.976C119.269 200.89 117.308 192.426 120.616 184.219C123.923 176.013 129.388 173.734 129.388 173.734C129.33 173.393 129.298 173.048 129.292 172.702C128.725 172.708 128.159 172.767 127.602 172.877C127.602 172.877 119.087 175.755 111.914 189.916C104.742 204.076 101.244 219.34 104.002 234.057C106.76 248.774 113.932 266.238 110.253 281.312C110.451 281.536 110.715 281.693 111.007 281.759Z" fill="#6F5BE5"/>
</g>
<g style="mix-blend-mode:screen" opacity="0.3">
<path d="M189.845 95.1656C194.131 98.5762 201.236 99.6262 203.947 99.9047C203.834 99.5729 203.631 99.2789 203.362 99.0548C201.283 97.3584 195.914 92.6264 195.914 92.6264C190.345 88.0159 185.251 87.4445 181.194 88.198C176.468 89.0765 170.167 90.3658 167.902 98.8548C165.637 107.344 168.566 113.465 169.413 116.954C169.513 117.358 169.624 117.733 169.749 118.1C168.581 110.165 172.306 100.558 174.782 101.648C178.236 103.169 178.375 99.9904 179.343 96.5334C180.311 93.0764 184.458 90.8801 189.845 95.1656Z" fill="#041F2D"/>
</g>
<g style="mix-blend-mode:multiply" opacity="0.4">
<path d="M180.518 122.111C180.518 122.111 181.419 125.018 185.351 129.186C185.466 129.022 185.621 128.891 185.803 128.807C185.984 128.723 186.185 128.688 186.384 128.707C186.384 128.707 182.24 125.357 180.518 122.111Z" fill="#FFB38B"/>
</g>
<g style="mix-blend-mode:multiply" opacity="0.4">
<path d="M174.921 140.56C173.664 138.06 173.285 134.539 171.874 130.543C170.413 126.397 171.138 123.325 171.874 121.615C170.924 120.678 170.217 119.523 169.817 118.25L169.509 119.015C168.597 120.853 167.795 122.745 167.109 124.679C170.027 134.45 172.663 138.957 174.921 140.56Z" fill="#FFB38B"/>
</g>
<g style="mix-blend-mode:screen" opacity="0.3">
<path d="M166.623 139.675C164.609 137.596 160.497 135.561 156.886 134.939C150.999 133.932 140.058 131.45 131.321 138.621C129.478 139.264 121.016 144.228 125.606 154.617C130.196 165.006 129.381 166.57 129.381 166.57C130.505 166.594 131.624 166.721 132.725 166.949C133.4 160.77 132.053 156.056 130.114 151.831C127.76 146.717 133.568 149.332 133.846 145.475C134.125 141.618 134.125 141.05 146.152 138.285C152.964 136.732 160.083 137.215 166.623 139.675Z" fill="#51341D"/>
</g>
<g style="mix-blend-mode:screen">
<path d="M119.283 32.9999H96.7616V42.3889H119.283V32.9999Z" fill="#EDF8FD"/>
</g>
<g style="mix-blend-mode:screen">
<path d="M175.221 49.6099H96.7616V53.2276H175.221V49.6099Z" fill="#EDF8FD"/>
</g>
<g style="mix-blend-mode:screen">
<path d="M162.598 55.7526H96.7616V59.3667H162.598V55.7526Z" fill="#EDF8FD"/>
</g>
<g style="mix-blend-mode:screen">
<path d="M166.062 61.8987H96.7616V65.5093H166.062V61.8987Z" fill="#EDF8FD"/>
</g>
<g style="mix-blend-mode:screen">
<path d="M154.921 68.0378H96.7616V71.6483H154.921V68.0378Z" fill="#EDF8FD"/>
</g>
<g style="mix-blend-mode:screen">
<path d="M177.204 74.1805H96.7616V77.791H177.204V74.1805Z" fill="#EDF8FD"/>
</g>
<g style="mix-blend-mode:multiply" opacity="0.6">
<path style="mix-blend-mode:multiply" opacity="0.6" d="M454.414 147.449H431.885V156.835H454.414V147.449Z" fill="url(#paint9_linear_242_1819)"/>
<path style="mix-blend-mode:multiply" opacity="0.6" d="M493.021 164.063H431.885V167.677H493.021V164.063Z" fill="url(#paint10_linear_242_1819)"/>
<path style="mix-blend-mode:multiply" opacity="0.6" d="M480.397 170.202H431.885V173.816H480.397V170.202Z" fill="url(#paint11_linear_242_1819)"/>
<path style="mix-blend-mode:multiply" opacity="0.6" d="M483.869 176.345H431.885V179.955H483.869V176.345Z" fill="url(#paint12_linear_242_1819)"/>
<path style="mix-blend-mode:multiply" opacity="0.6" d="M472.731 182.484H431.885V186.102H472.731V182.484Z" fill="url(#paint13_linear_242_1819)"/>
<path style="mix-blend-mode:multiply" opacity="0.6" d="M495.003 188.63H431.885V192.241H495.003V188.63Z" fill="url(#paint14_linear_242_1819)"/>
</g>
<g style="mix-blend-mode:multiply" opacity="0.6">
<path style="mix-blend-mode:multiply" opacity="0.6" d="M450.431 121.95C449.088 121.955 447.773 121.561 446.654 120.819C445.535 120.076 444.661 119.018 444.143 117.779C443.626 116.539 443.488 115.174 443.747 113.856C444.006 112.539 444.65 111.327 445.598 110.376C446.547 109.424 447.756 108.775 449.073 108.512C450.39 108.248 451.756 108.381 452.998 108.894C454.239 109.406 455.301 110.276 456.048 111.392C456.794 112.509 457.193 113.822 457.193 115.165C457.193 116.96 456.481 118.682 455.214 119.954C453.947 121.226 452.227 121.944 450.431 121.95V121.95ZM450.431 110.079C449.422 110.074 448.435 110.369 447.594 110.926C446.753 111.483 446.096 112.277 445.707 113.207C445.318 114.138 445.214 115.163 445.408 116.153C445.602 117.142 446.086 118.052 446.798 118.767C447.51 119.481 448.418 119.968 449.408 120.166C450.397 120.363 451.423 120.263 452.355 119.877C453.287 119.491 454.083 118.838 454.643 117.999C455.203 117.16 455.501 116.173 455.5 115.165C455.499 113.819 454.965 112.528 454.016 111.574C453.066 110.619 451.778 110.08 450.431 110.072V110.079Z" fill="#16A1E7"/>
<path style="mix-blend-mode:multiply" opacity="0.6" d="M453.971 138.81H446.859C446.748 138.81 446.639 138.788 446.536 138.746C446.434 138.703 446.341 138.641 446.263 138.562C446.185 138.483 446.123 138.39 446.082 138.287C446.04 138.185 446.019 138.075 446.02 137.964V131.95C444.495 131.546 443.032 130.936 441.673 130.136L437.386 134.421C437.226 134.574 437.013 134.66 436.791 134.66C436.57 134.66 436.357 134.574 436.197 134.421L431.164 129.389C431.085 129.312 431.023 129.219 430.98 129.117C430.937 129.015 430.915 128.905 430.915 128.795C430.915 128.684 430.937 128.575 430.98 128.472C431.023 128.37 431.085 128.278 431.164 128.2L435.418 123.915C434.624 122.556 434.016 121.096 433.611 119.575H427.599C427.488 119.575 427.378 119.553 427.276 119.511C427.174 119.468 427.081 119.406 427.003 119.327C426.925 119.248 426.863 119.155 426.821 119.052C426.779 118.95 426.758 118.84 426.759 118.729V111.594C426.759 111.483 426.78 111.373 426.822 111.271C426.864 111.169 426.926 111.076 427.004 110.998C427.082 110.919 427.175 110.857 427.277 110.815C427.379 110.773 427.488 110.751 427.599 110.751H433.643C434.049 109.226 434.657 107.762 435.45 106.397L431.196 102.112C431.117 102.034 431.055 101.941 431.012 101.839C430.969 101.737 430.947 101.628 430.947 101.517C430.947 101.406 430.969 101.297 431.012 101.195C431.055 101.093 431.117 101 431.196 100.922L436.225 95.9226C436.303 95.8444 436.396 95.7822 436.498 95.7399C436.6 95.6975 436.71 95.6757 436.82 95.6757C436.931 95.6757 437.04 95.6975 437.142 95.7399C437.244 95.7822 437.337 95.8444 437.415 95.9226L441.701 100.19C443.06 99.3854 444.522 98.7713 446.048 98.3654V92.3763C446.048 92.2658 446.069 92.1563 446.111 92.0541C446.153 91.9518 446.215 91.8589 446.293 91.7806C446.371 91.7023 446.464 91.6401 446.566 91.5977C446.668 91.5553 446.777 91.5335 446.888 91.5335H454.003C454.114 91.533 454.224 91.5545 454.326 91.5967C454.429 91.6389 454.522 91.701 454.6 91.7793C454.679 91.8577 454.741 91.9508 454.783 92.0533C454.825 92.1557 454.847 92.2655 454.846 92.3763V98.3797C456.375 98.7861 457.842 99.4002 459.204 100.205L463.455 95.9369C463.615 95.7788 463.831 95.6902 464.057 95.6902C464.282 95.6902 464.498 95.7788 464.659 95.9369L469.681 100.937C469.838 101.095 469.928 101.307 469.934 101.53C469.936 101.64 469.915 101.75 469.873 101.852C469.831 101.955 469.77 102.048 469.692 102.126L465.405 106.412C466.217 107.767 466.827 109.234 467.216 110.765H473.242C473.353 110.765 473.463 110.786 473.566 110.828C473.669 110.87 473.762 110.932 473.841 111.011C473.919 111.089 473.982 111.182 474.024 111.284C474.067 111.387 474.089 111.497 474.089 111.608V118.736C474.089 118.847 474.068 118.958 474.025 119.061C473.983 119.163 473.921 119.257 473.842 119.336C473.763 119.414 473.67 119.477 473.567 119.519C473.464 119.561 473.353 119.583 473.242 119.583H467.216C466.829 121.11 466.218 122.572 465.405 123.922L469.692 128.207C469.847 128.366 469.934 128.58 469.934 128.802C469.934 129.024 469.847 129.238 469.692 129.396L464.662 134.428C464.499 134.582 464.283 134.667 464.059 134.667C463.834 134.667 463.618 134.582 463.455 134.428L459.204 130.143C457.84 130.941 456.374 131.551 454.846 131.957V137.975C454.846 138.088 454.823 138.199 454.778 138.303C454.733 138.407 454.668 138.501 454.587 138.579C454.505 138.657 454.408 138.718 454.303 138.757C454.197 138.797 454.084 138.815 453.971 138.81V138.81ZM447.706 137.128H453.135V131.282C453.133 131.09 453.198 130.904 453.318 130.754C453.437 130.605 453.605 130.501 453.793 130.461C455.587 130.064 457.298 129.352 458.843 128.357C459.006 128.255 459.199 128.212 459.39 128.234C459.581 128.256 459.758 128.342 459.894 128.479L464.03 132.614L467.87 128.779L463.719 124.618C463.585 124.481 463.501 124.303 463.482 124.112C463.462 123.921 463.508 123.729 463.612 123.568C464.61 122.034 465.321 120.332 465.709 118.543C465.749 118.356 465.852 118.189 466.001 118.07C466.15 117.95 466.336 117.885 466.527 117.886H472.378V112.447H466.527C466.335 112.447 466.149 112.381 466 112.26C465.851 112.139 465.748 111.971 465.709 111.783C465.319 109.992 464.608 108.286 463.612 106.747C463.508 106.585 463.462 106.393 463.481 106.202C463.501 106.01 463.585 105.831 463.719 105.694L467.87 101.544L464.03 97.7226L459.894 101.869C459.756 102.009 459.574 102.098 459.378 102.119C459.183 102.139 458.986 102.091 458.822 101.983C457.278 100.987 455.571 100.271 453.778 99.8689C453.591 99.828 453.424 99.7241 453.304 99.5746C453.184 99.4251 453.12 99.239 453.121 99.0475V93.2156H447.691V99.0475C447.692 99.2398 447.626 99.4263 447.505 99.5759C447.384 99.7254 447.215 99.8288 447.027 99.8689C445.236 100.271 443.529 100.987 441.987 101.983C441.823 102.093 441.626 102.142 441.43 102.121C441.234 102.1 441.052 102.011 440.915 101.869L436.772 97.7226L432.935 101.544L437.068 105.694C437.204 105.829 437.29 106.007 437.31 106.197C437.33 106.388 437.284 106.58 437.179 106.74C436.191 108.287 435.479 109.993 435.075 111.783C435.036 111.97 434.934 112.139 434.786 112.26C434.638 112.381 434.452 112.447 434.261 112.447H428.463V117.886H434.293C434.483 117.886 434.668 117.951 434.816 118.071C434.964 118.19 435.067 118.357 435.107 118.543C435.509 120.328 436.221 122.029 437.211 123.568C437.316 123.729 437.363 123.921 437.343 124.113C437.322 124.304 437.237 124.483 437.1 124.618L432.968 128.775L436.804 132.614L440.947 128.479C441.082 128.342 441.259 128.255 441.449 128.233C441.64 128.211 441.832 128.255 441.994 128.357C443.539 129.352 445.248 130.064 447.041 130.461C447.23 130.5 447.399 130.603 447.52 130.753C447.641 130.903 447.707 131.09 447.706 131.282V137.128Z" fill="#16A1E7"/>
</g>
<path d="M294.38 196.705L299.292 197.448L299.688 194.798L294.777 194.055L294.38 196.705Z" fill="url(#paint15_linear_242_1819)"/>
<path d="M280.403 241.396C279.653 242.028 279.842 242.55 280.824 242.55H304.6C305.586 242.55 305.914 241.9 305.314 241.103L304.082 239.418C303.733 238.996 303.301 238.652 302.812 238.406C302.323 238.16 301.789 238.018 301.242 237.989H286.24C285.097 238.048 283.999 238.45 283.089 239.143L280.403 241.396Z" fill="url(#paint16_linear_242_1819)"/>
<path d="M284.99 227.354C284.978 227.448 284.931 227.535 284.858 227.597C284.785 227.658 284.692 227.69 284.597 227.686L283.943 227.568C283.897 227.556 283.854 227.535 283.816 227.506C283.778 227.477 283.747 227.441 283.723 227.4C283.699 227.359 283.684 227.313 283.678 227.266C283.673 227.219 283.676 227.171 283.689 227.125L294.784 163.02C294.788 162.972 294.801 162.926 294.823 162.883C294.845 162.84 294.875 162.802 294.912 162.772C294.949 162.741 294.992 162.718 295.038 162.704C295.084 162.691 295.133 162.686 295.18 162.692L295.831 162.806C295.877 162.818 295.921 162.838 295.96 162.867C295.998 162.896 296.03 162.933 296.054 162.974C296.078 163.016 296.094 163.062 296.099 163.11C296.105 163.158 296.101 163.206 296.088 163.252L284.99 227.354Z" fill="url(#paint17_linear_242_1819)"/>
<path d="M295.995 163.781L285.079 226.836C287.694 224.696 289.656 221.865 290.74 218.665C292.508 213.372 296.863 186.837 298.445 176.48C299.449 169.895 297.216 165.542 295.995 163.781Z" fill="url(#paint18_linear_242_1819)"/>
<path d="M296.959 238.61C296.959 238.61 297.216 239.368 298.331 239.368C299.445 239.368 299.631 238.75 299.631 238.75L302.239 187.859L299.567 187.719L296.959 238.61Z" fill="url(#paint19_linear_242_1819)"/>
<defs>
<linearGradient id="paint0_linear_242_1819" x1="63108.7" y1="13065.4" x2="63071.8" y2="12732.3" gradientUnits="userSpaceOnUse">
<stop stop-color="#3D342B"/>
<stop offset="1" stop-color="#291C17"/>
</linearGradient>
<linearGradient id="paint1_linear_242_1819" x1="151915" y1="18865.8" x2="151933" y2="18562.6" gradientUnits="userSpaceOnUse">
<stop stop-color="#3D342B"/>
<stop offset="1" stop-color="#291C17"/>
</linearGradient>
<linearGradient id="paint2_linear_242_1819" x1="-146766" y1="136724" x2="-138440" y2="117040" gradientUnits="userSpaceOnUse">
<stop stop-color="#3D342B"/>
<stop offset="1" stop-color="#291C17"/>
</linearGradient>
<linearGradient id="paint3_linear_242_1819" x1="-77721.6" y1="137532" x2="-66245.7" y2="123519" gradientUnits="userSpaceOnUse">
<stop stop-color="#3D342B"/>
<stop offset="1" stop-color="#291C17"/>
</linearGradient>
<linearGradient id="paint4_linear_242_1819" x1="358.684" y1="170.527" x2="349.775" y2="190.106" gradientUnits="userSpaceOnUse">
<stop stop-color="#EDEDED"/>
<stop offset="1" stop-color="#363636"/>
</linearGradient>
<linearGradient id="paint5_linear_242_1819" x1="104883" y1="10762.9" x2="104878" y2="10508.2" gradientUnits="userSpaceOnUse">
<stop stop-color="#3D342B"/>
<stop offset="1" stop-color="#291C17"/>
</linearGradient>
<linearGradient id="paint6_linear_242_1819" x1="67232.8" y1="93087.2" x2="74415.1" y2="87872.7" gradientUnits="userSpaceOnUse">
<stop stop-color="#3D342B"/>
<stop offset="1" stop-color="#291C17"/>
</linearGradient>
<linearGradient id="paint7_linear_242_1819" x1="102012" y1="10929.5" x2="102012" y2="10665.5" gradientUnits="userSpaceOnUse">
<stop stop-color="#3D342B"/>
<stop offset="1" stop-color="#291C17"/>
</linearGradient>
<linearGradient id="paint8_linear_242_1819" x1="115778" y1="121607" x2="129677" y2="109038" gradientUnits="userSpaceOnUse">
<stop stop-color="#3D342B"/>
<stop offset="1" stop-color="#291C17"/>
</linearGradient>
<linearGradient id="paint9_linear_242_1819" x1="419.115" y1="132.889" x2="527.506" y2="219.768" gradientUnits="userSpaceOnUse">
<stop stop-color="#A8E8FF"/>
<stop offset="1" stop-color="#00C7FF"/>
</linearGradient>
<linearGradient id="paint10_linear_242_1819" x1="68885.6" y1="1525.37" x2="69050.5" y2="3761.01" gradientUnits="userSpaceOnUse">
<stop stop-color="#A8E8FF"/>
<stop offset="1" stop-color="#00C7FF"/>
</linearGradient>
<linearGradient id="paint11_linear_242_1819" x1="54008.2" y1="1600.47" x2="54215.4" y2="3829" gradientUnits="userSpaceOnUse">
<stop stop-color="#A8E8FF"/>
<stop offset="1" stop-color="#00C7FF"/>
</linearGradient>
<linearGradient id="paint12_linear_242_1819" x1="57505.8" y1="1634.49" x2="57699" y2="3863.26" gradientUnits="userSpaceOnUse">
<stop stop-color="#A8E8FF"/>
<stop offset="1" stop-color="#00C7FF"/>
</linearGradient>
<linearGradient id="paint13_linear_242_1819" x1="44685.4" y1="1708.91" x2="44931.1" y2="3931.86" gradientUnits="userSpaceOnUse">
<stop stop-color="#A8E8FF"/>
<stop offset="1" stop-color="#00C7FF"/>
</linearGradient>
<linearGradient id="paint14_linear_242_1819" x1="69056" y1="1694.96" x2="69215.4" y2="3928.85" gradientUnits="userSpaceOnUse">
<stop stop-color="#A8E8FF"/>
<stop offset="1" stop-color="#00C7FF"/>
</linearGradient>
<linearGradient id="paint15_linear_242_1819" x1="4480.03" y1="2083.98" x2="4374.04" y2="2066.09" gradientUnits="userSpaceOnUse">
<stop stop-color="#BABABA"/>
<stop offset="1" stop-color="#363636"/>
</linearGradient>
<linearGradient id="paint16_linear_242_1819" x1="19882.6" y1="3368.55" x2="19882.6" y2="3222.61" gradientUnits="userSpaceOnUse">
<stop stop-color="#BABABA"/>
<stop offset="1" stop-color="#363636"/>
</linearGradient>
<linearGradient id="paint17_linear_242_1819" x1="9456.45" y1="36174.2" x2="9888.26" y2="36174.2" gradientUnits="userSpaceOnUse">
<stop stop-color="#3D342B"/>
<stop offset="1" stop-color="#291C17"/>
</linearGradient>
<linearGradient id="paint18_linear_242_1819" x1="10329.2" y1="34512.9" x2="11251.9" y2="34609.9" gradientUnits="userSpaceOnUse">
<stop stop-color="#BABABA"/>
<stop offset="1" stop-color="#363636"/>
</linearGradient>
<linearGradient id="paint19_linear_242_1819" x1="4411.96" y1="31456" x2="4453.84" y2="31456.2" gradientUnits="userSpaceOnUse">
<stop stop-color="#BABABA"/>
<stop offset="1" stop-color="#363636"/>
</linearGradient>
</defs>
</svg>
