<svg width="539" height="461" viewBox="0 0 539 461" fill="none" xmlns="http://www.w3.org/2000/svg">
<path d="M149 157.403V323.594C149.013 333.803 151.705 343.829 156.805 352.667C161.905 361.505 169.234 368.845 178.057 373.949L314.983 453.211C323.803 458.314 333.808 461 343.992 461C354.176 461 364.181 458.314 373.001 453.211L509.943 373.949C518.766 368.845 526.095 361.505 531.195 352.667C536.295 343.829 538.987 333.803 539 323.594V157.403C538.995 147.194 536.307 137.166 531.206 128.329C526.105 119.492 518.771 112.158 509.943 107.063L373.001 27.8013C364.184 22.6909 354.178 20 343.992 20C333.806 20 323.8 22.6909 314.983 27.8013L178.057 107.063C169.229 112.158 161.895 119.492 156.794 128.329C151.693 137.166 149.005 147.194 149 157.403V157.403Z" fill="#EDF8FD"/>
<path opacity="0.5" d="M79 109.673V242.324C79.0107 250.473 81.1708 258.476 85.2639 265.53C89.357 272.585 95.2391 278.443 102.321 282.517L212.212 345.783C219.29 349.856 227.32 352 235.494 352C243.667 352 251.697 349.856 258.775 345.783L368.68 282.517C375.761 278.443 381.643 272.585 385.736 265.53C389.829 258.476 391.989 250.473 392 242.324V109.673C391.996 101.524 389.839 93.5206 385.745 86.467C381.651 79.4135 375.765 73.5589 368.68 69.4926L258.775 6.22689C251.699 2.14781 243.668 0 235.494 0C227.319 0 219.288 2.14781 212.212 6.22689L102.321 69.4926C95.2348 73.5589 89.3489 79.4135 85.255 86.467C81.1611 93.5206 79.0037 101.524 79 109.673H79Z" fill="#EDF8FD"/>
<g clip-path="url(#clip0_80_290)">
<path d="M109.225 94.0585L96.9689 107.843C92.6675 105.644 88.0684 104.081 83.3158 103.201L82.2216 84.7532C82.1992 84.4158 82.1081 84.0866 81.954 83.7854C81.8 83.4842 81.5861 83.2174 81.3254 83.0012C80.804 82.5683 80.1413 82.3412 79.4631 82.363L57.7321 83.6973C57.0464 83.7421 56.4063 84.0549 55.9507 84.5677C55.4952 85.0804 55.2611 85.7517 55.2994 86.4356L56.4634 104.814C51.8489 106.292 47.4589 108.392 43.4154 111.056L29.6575 98.9085C29.1355 98.4556 28.4555 98.2259 27.7649 98.2694C27.0742 98.3128 26.4285 98.6258 25.9678 99.1405L11.5231 115.407C11.2919 115.664 11.1148 115.964 11.0022 116.291C10.8896 116.617 10.8439 116.962 10.8678 117.306C10.8917 117.65 10.9847 117.986 11.1412 118.294C11.2978 118.602 11.5147 118.875 11.7792 119.097L25.5255 131.176C23.3542 135.494 21.7877 140.089 20.8697 144.832L2.39773 145.992C2.06278 146.011 1.73494 146.096 1.433 146.242C1.13106 146.388 0.860963 146.592 0.638201 146.842C0.41544 147.092 0.244395 147.383 0.134876 147.7C0.0253565 148.016 -0.020482 148.35 -1.12988e-05 148.684L1.28034 170.346C1.32237 171.027 1.63201 171.663 2.142 172.117C2.65198 172.571 3.3211 172.806 4.00399 172.771L22.4643 171.681C23.9728 176.251 26.0907 180.598 28.7613 184.606L16.5514 198.367C16.326 198.621 16.1532 198.917 16.0429 199.238C15.9326 199.559 15.8869 199.898 15.9085 200.237C15.9302 200.575 16.0187 200.906 16.1689 201.21C16.3192 201.515 16.5283 201.786 16.7842 202.01L33.0795 216.421C33.333 216.647 33.6292 216.822 33.9508 216.934C34.2725 217.045 34.6132 217.092 34.9532 217.072C35.2932 217.051 35.6257 216.964 35.9315 216.814C36.2372 216.664 36.5101 216.456 36.7344 216.2L48.9442 202.451C53.257 204.613 57.847 206.174 62.5858 207.092L63.7497 225.517C63.7976 226.193 64.1098 226.824 64.6191 227.273C65.1284 227.722 65.7943 227.954 66.4734 227.919L88.2509 226.596C88.9248 226.529 89.5484 226.211 89.9973 225.706C90.4461 225.2 90.687 224.544 90.672 223.869L89.508 205.444C94.1295 203.945 98.5264 201.83 102.579 199.156L116.395 211.408C116.903 211.853 117.567 212.081 118.242 212.042C118.918 212.003 119.551 211.7 120.004 211.199L134.46 194.956C134.919 194.445 135.156 193.774 135.121 193.09C135.087 192.405 134.782 191.762 134.274 191.301L120.446 179.095C122.595 174.779 124.16 170.199 125.102 165.473L143.55 164.394C144.227 164.325 144.854 164.005 145.306 163.498C145.758 162.991 146.004 162.334 145.995 161.656L144.679 139.924C144.64 139.252 144.338 138.622 143.837 138.171C143.336 137.719 142.677 137.482 142.002 137.511L123.472 138.671C122.029 134.073 119.91 129.714 117.187 125.734L129.432 111.892C129.659 111.639 129.833 111.344 129.944 111.023C130.055 110.703 130.101 110.363 130.078 110.025C130.055 109.686 129.964 109.356 129.811 109.053C129.659 108.75 129.446 108.48 129.187 108.26L112.903 93.8613C112.652 93.6334 112.358 93.4576 112.039 93.344C111.719 93.2304 111.379 93.1814 111.04 93.1997C110.701 93.2181 110.369 93.3035 110.064 93.4509C109.758 93.5983 109.485 93.8049 109.26 94.0585H109.225ZM88.5652 168.849C85.8496 171.922 82.2809 174.122 78.3107 175.172C74.3404 176.222 70.1469 176.075 66.2607 174.748C62.3745 173.422 58.9701 170.977 56.4782 167.722C53.9863 164.467 52.5189 160.548 52.2615 156.462C52.0042 152.375 52.9685 148.304 55.0325 144.764C57.0964 141.224 60.1673 138.373 63.8567 136.573C67.5461 134.773 71.6881 134.104 75.759 134.651C79.8298 135.198 83.6464 136.936 86.7262 139.646C90.8367 143.286 93.3367 148.399 93.6811 153.87C94.0256 159.34 92.1867 164.725 88.5652 168.849Z" fill="#CEECFA"/>
<path d="M155.725 150.796C154.892 150.425 154.221 149.766 153.838 148.94C153.455 148.115 153.385 147.178 153.642 146.305L157.029 134.784C154.753 133.292 152.628 131.582 150.685 129.679L140.07 135.48C139.195 135.943 138.174 136.047 137.224 135.769C136.273 135.492 135.469 134.855 134.984 133.995L127.371 120.072C127.132 119.625 126.985 119.136 126.937 118.632C126.889 118.128 126.942 117.62 127.092 117.136C127.233 116.673 127.467 116.243 127.779 115.873C128.091 115.502 128.475 115.198 128.908 114.978L139.476 109.177C138.887 106.509 138.575 103.787 138.545 101.055L127.034 97.6901C126.543 97.558 126.084 97.3286 125.684 97.0156C125.284 96.7026 124.951 96.3125 124.706 95.8684C124.471 95.4418 124.323 94.9729 124.271 94.489C124.219 94.005 124.264 93.5155 124.403 93.049L128.884 77.8378C129.021 77.3646 129.25 76.9229 129.558 76.5379C129.866 76.1528 130.247 75.8321 130.679 75.594C131.112 75.3558 131.587 75.205 132.078 75.15C132.569 75.095 133.066 75.1371 133.54 75.2737L145.063 78.6384C146.565 76.3605 148.297 74.2417 150.231 72.315L144.412 61.7797C144.171 61.338 144.021 60.8534 143.969 60.3537C143.917 59.8539 143.965 59.3488 144.109 58.8674C144.252 58.3975 144.487 57.9606 144.8 57.5821C145.114 57.2037 145.5 56.8912 145.936 56.6629L159.904 49.0516C160.779 48.5999 161.793 48.4923 162.744 48.7499C163.224 48.8832 163.672 49.111 164.062 49.4199C164.451 49.7288 164.775 50.1125 165.014 50.5483L170.833 61.1184C173.509 60.5247 176.24 60.2213 178.981 60.2134L182.38 48.6919C182.632 47.7598 183.237 46.9614 184.068 46.4642C184.504 46.225 184.984 46.0742 185.479 46.0204C185.975 45.9667 186.476 46.011 186.954 46.1509L202.225 50.6411C202.701 50.7758 203.144 51.0032 203.531 51.31C203.918 51.6169 204.239 51.9972 204.477 52.4288C204.716 52.8604 204.866 53.3349 204.918 53.8247C204.971 54.3145 204.926 54.8099 204.786 55.2822L201.399 66.8849C203.692 68.3621 205.819 70.0815 207.742 72.0133L218.369 66.2119C219.235 65.734 220.254 65.6121 221.208 65.8722C222.163 66.1323 222.978 66.7538 223.479 67.6043L231.115 81.5275C231.568 82.4034 231.666 83.4194 231.388 84.3653C231.111 85.3113 230.48 86.1147 229.625 86.6095L218.986 92.4108C219.557 95.0816 219.861 97.8022 219.894 100.533L231.534 103.909C232.005 104.043 232.445 104.27 232.827 104.577C233.209 104.884 233.525 105.265 233.757 105.696C233.997 106.133 234.148 106.614 234.2 107.11C234.252 107.606 234.204 108.108 234.059 108.585L229.532 123.738C229.393 124.209 229.162 124.648 228.853 125.029C228.543 125.411 228.161 125.728 227.729 125.962C227.296 126.195 226.821 126.342 226.332 126.392C225.842 126.443 225.347 126.397 224.876 126.256L213.306 122.88C211.804 125.151 210.081 127.269 208.161 129.203L213.981 139.796C214.436 140.673 214.534 141.691 214.254 142.638C213.975 143.585 213.339 144.387 212.48 144.878L198.512 152.49C197.641 152.953 196.622 153.058 195.674 152.783C194.725 152.508 193.923 151.873 193.437 151.016L187.618 140.446C184.938 141.007 182.208 141.303 179.47 141.328L176.071 152.838C175.942 153.31 175.717 153.751 175.411 154.134C175.104 154.517 174.723 154.834 174.29 155.065C173.858 155.304 173.382 155.455 172.89 155.509C172.399 155.563 171.901 155.519 171.427 155.379L156.156 150.923L155.725 150.796ZM151.71 125.641C151.947 125.744 152.16 125.894 152.338 126.082C154.644 128.513 157.267 130.624 160.137 132.359C160.491 132.571 160.765 132.895 160.915 133.279C161.064 133.664 161.081 134.087 160.963 134.482L157.134 147.35L172.44 151.828L176.246 138.949C176.368 138.563 176.614 138.228 176.947 137.995C177.279 137.762 177.679 137.645 178.085 137.661C181.44 137.748 184.792 137.381 188.048 136.571C188.45 136.469 188.874 136.504 189.254 136.67C189.633 136.836 189.946 137.124 190.143 137.487L196.708 149.264L210.675 141.653L204.192 129.818C203.993 129.457 203.92 129.04 203.983 128.633C204.046 128.226 204.242 127.851 204.541 127.567C206.994 125.268 209.124 122.649 210.873 119.782C211.088 119.429 211.413 119.158 211.798 119.009C212.183 118.86 212.607 118.842 213.003 118.958L225.935 122.729L230.463 107.494L217.531 103.689C217.131 103.578 216.78 103.336 216.537 103C216.294 102.665 216.172 102.257 216.193 101.844C216.248 98.4849 215.857 95.1335 215.029 91.8771C214.931 91.477 214.969 91.0558 215.138 90.6798C215.306 90.3039 215.596 89.9944 215.96 89.8002L227.809 83.3723L220.173 69.4491L208.278 75.9466C207.904 76.1584 207.47 76.2359 207.046 76.1662C206.622 76.0965 206.235 75.8838 205.95 75.5637C203.692 73.1039 201.079 70.9923 198.198 69.2983C197.841 69.0878 197.565 68.7647 197.413 68.3801C197.261 67.9955 197.243 67.5714 197.36 67.175L201.154 54.2612L185.907 49.7361L182.112 62.6383C181.994 63.0349 181.747 63.3811 181.41 63.6226C181.073 63.8641 180.665 63.9872 180.25 63.9726C176.901 63.875 173.556 64.2659 170.321 65.1329C169.916 65.2379 169.487 65.2046 169.104 65.0385C168.72 64.8724 168.403 64.5829 168.203 64.2163L161.696 52.3119L147.729 59.9465L154.2 71.758C154.403 72.121 154.477 72.5412 154.412 72.9514C154.347 73.3616 154.145 73.738 153.84 74.0206C151.38 76.3117 149.246 78.9272 147.496 81.7944C147.28 82.1451 146.955 82.4157 146.57 82.5645C146.186 82.7133 145.763 82.7321 145.366 82.6182L132.493 78.8589L128.035 94.1048L140.943 97.8641C141.344 97.9724 141.696 98.2147 141.94 98.5504C142.183 98.8862 142.304 99.2952 142.282 99.7089C142.216 103.064 142.608 106.413 143.446 109.664C143.545 110.065 143.509 110.487 143.343 110.864C143.176 111.242 142.889 111.555 142.526 111.753L130.677 118.227L138.278 132.15L150.15 125.722C150.389 125.598 150.652 125.526 150.921 125.512C151.19 125.498 151.459 125.542 151.71 125.641ZM172.463 116.359C169.966 115.293 167.761 113.648 166.033 111.56C164.304 109.472 163.101 107.002 162.525 104.357C161.948 101.711 162.015 98.9662 162.719 96.3516C163.424 93.7369 164.745 91.3282 166.574 89.3263C168.402 87.3245 170.685 85.7876 173.23 84.844C175.776 83.9003 178.511 83.5774 181.207 83.9019C183.903 84.2265 186.483 85.1893 188.73 86.7099C190.977 88.2304 192.826 90.2647 194.124 92.6429C195.21 94.5912 195.895 96.7359 196.138 98.9513C196.382 101.167 196.18 103.408 195.544 105.545C194.267 109.868 191.322 113.51 187.356 115.672C183.389 117.834 178.724 118.34 174.383 117.078C173.728 116.894 173.087 116.665 172.463 116.394V116.359ZM184.428 88.5935C183.932 88.3845 183.422 88.2063 182.904 88.0598C180.381 87.3307 177.698 87.3636 175.194 88.1543C172.69 88.9449 170.478 90.4579 168.837 92.5019C167.195 94.546 166.199 97.0292 165.973 99.6377C165.748 102.246 166.303 104.863 167.569 107.157C168.835 109.451 170.756 111.319 173.087 112.525C175.418 113.731 178.055 114.221 180.666 113.933C183.276 113.645 185.743 112.592 187.753 110.907C189.763 109.222 191.227 106.98 191.959 104.466C192.446 102.796 192.594 101.047 192.394 99.3194C192.194 97.5921 191.65 95.9219 190.795 94.4065C189.377 91.828 187.136 89.7946 184.428 88.6284V88.5935Z" fill="#CEECFA"/>
<path opacity="0.4" d="M264.02 221.468H237.994V363.856H264.02V221.468Z" fill="#CEECFA"/>
<path opacity="0.4" d="M295.691 169.151H269.665V363.856H295.691V169.151Z" fill="#CEECFA"/>
<path opacity="0.4" d="M359.01 201.43H332.984V363.856H359.01V201.43Z" fill="#CEECFA"/>
<path opacity="0.4" d="M422.329 230.39H396.303V363.856H422.329V230.39Z" fill="#CEECFA"/>
<path opacity="0.4" d="M327.35 152.176H301.324V363.856H327.35V152.176Z" fill="#CEECFA"/>
<path opacity="0.4" d="M390.669 173.467H364.643V363.868H390.669V173.467Z" fill="#CEECFA"/>
<path opacity="0.4" d="M454 248.606H427.974V363.867H454V248.606Z" fill="#CEECFA"/>
<path d="M167.062 256.566C167.947 251.403 165.898 246.355 162.581 245.311C159.264 244.267 155.76 247.632 154.876 252.783C153.991 257.935 155.958 262.994 159.345 264.038C162.732 265.082 166.178 261.717 167.062 256.566Z" fill="#FFAD97"/>
<path d="M140.315 422.821V432.985H150.825V422.31L140.315 422.821Z" fill="#FFAD97"/>
<path d="M140.303 429.562C139.436 430.1 138.725 430.853 138.239 431.749C137.753 432.644 137.51 433.65 137.533 434.667V442H179.703C179.703 442 180.471 437.661 174.674 437.661C168.878 437.661 158.74 434.18 156.831 432.521C154.398 430.397 152.676 429.562 150.825 429.562H140.303Z" fill="url(#paint0_linear_80_290)"/>
<path d="M158.926 215.4L154.887 429.701C154.887 429.701 143.934 431.535 136.648 429.701C130.561 402.203 129.199 307.757 120.434 267.96C111.67 228.162 105.303 219.913 105.303 202.068C105.303 184.223 158.926 215.4 158.926 215.4Z" fill="#0C557A"/>
<path d="M284.133 422.821V432.985H273.622V422.31L284.133 422.821Z" fill="#FFAD97"/>
<path d="M284.133 429.562C284.999 430.1 285.711 430.853 286.196 431.749C286.682 432.644 286.926 433.65 286.903 434.667V442H244.744C244.744 442 243.988 437.661 249.784 437.661C255.581 437.661 265.719 434.18 267.616 432.521C270.049 430.397 271.783 429.562 273.622 429.562H284.133Z" fill="url(#paint1_linear_80_290)"/>
<path d="M346.66 422.821V432.985H336.15V422.31L346.66 422.821Z" fill="#FFAD97"/>
<path d="M346.66 429.562C347.529 430.098 348.243 430.851 348.731 431.747C349.218 432.642 349.464 433.649 349.442 434.667V442H307.284C307.284 442 306.527 437.661 312.335 437.661C318.143 437.661 328.293 434.18 330.179 432.521C332.611 430.397 334.369 429.562 336.208 429.562H346.66Z" fill="url(#paint2_linear_80_290)"/>
<path d="M265.533 215.399L269.548 429.724C269.548 429.724 280.513 431.558 287.799 429.724C293.887 402.261 295.283 307.78 304.013 267.983C312.743 228.186 319.144 219.936 319.144 202.091C319.144 184.246 265.533 215.399 265.533 215.399Z" fill="#0C557A"/>
<path d="M333.263 430.142C333.263 430.142 298.787 292.36 284.656 233.801C297.776 233.751 310.85 232.249 323.637 229.323C323.637 229.323 343.517 361.593 350.164 430.339C350.164 430.305 338.373 432.173 333.263 430.142Z" fill="#0D608A"/>
<path d="M77.624 422.821V432.985H88.1229V422.31L77.624 422.821Z" fill="#FFAD97"/>
<path d="M77.624 429.562C76.7489 430.093 76.0297 430.844 75.5392 431.741C75.0487 432.637 74.8043 433.646 74.8305 434.667V442H117.047C117.047 442 117.804 437.661 111.996 437.661C106.187 437.661 96.0494 434.18 94.1638 432.521C91.7311 430.397 89.9736 429.562 88.1229 429.562H77.624Z" fill="url(#paint3_linear_80_290)"/>
<path d="M91.0095 430.142C91.0095 430.142 125.497 292.36 139.674 233.801C126.535 233.755 113.442 232.252 100.635 229.323C100.635 229.323 80.755 361.593 74.1205 430.305C74.1205 430.305 85.8997 432.173 91.0095 430.142Z" fill="#0D608A"/>
<g style="mix-blend-mode:multiply" opacity="0.3">
<path d="M324.359 234.138C315.734 234.88 296.319 236.853 292.094 239.939C292.486 246.853 293.432 253.724 294.922 260.487C315.257 260.58 324.498 256.206 327.385 254.686C326.058 245.566 325.011 238.477 324.359 234.138Z" fill="#666666"/>
</g>
<g style="mix-blend-mode:multiply" opacity="0.3">
<path d="M266.301 256.078C273.738 257.413 281.13 258.016 281.13 258.016C281.13 258.016 283.388 242.805 283.108 238.582C282.934 236.122 265.87 233.209 265.87 233.209L266.301 256.078Z" fill="#666666"/>
</g>
<path d="M326.92 231.11C325.162 220.957 324.103 212.835 324.196 212.046C330.481 157.514 348.162 139.843 343.075 130.352C337.989 120.861 319.505 114.456 319.505 114.456C313.447 113.103 307.193 112.852 301.045 113.714C285.692 119.817 282.072 126.163 276.8 146.63C271.096 168.838 266.569 204.075 263.088 235.542C270.642 235.472 311.648 235.217 326.92 231.11Z" fill="#A0D9F6"/>
<path d="M134.402 119.979C134.402 119.979 146.39 125.78 151.419 145.969C156.447 166.157 158.949 192.507 160.672 204.516C162.79 219.333 166.271 243.965 166.271 243.965L156.04 242.631L134.402 119.979Z" fill="#CEECFA"/>
<path d="M201.515 174.709C207.056 175.045 211.06 179.976 210.431 183.248C209.803 186.52 205.554 190.744 200.014 190.419C194.473 190.094 189.736 185.337 190.388 182.053C191.04 178.77 196.01 174.372 201.515 174.709Z" fill="#FF8261"/>
<path d="M319.482 114.352C315.909 117.31 306.923 124.26 303.268 124.411C299.613 124.562 299.881 117.449 300.137 114.027L301.045 113.655C307.185 112.831 313.422 113.067 319.482 114.352Z" fill="#F0B096"/>
<path d="M302.744 116.278C302.744 116.278 302.744 117.716 307.505 117.809C312.265 117.902 314.267 116.022 314.267 116.022L314.069 106.624L302.593 106.88L302.744 116.278Z" fill="#F0B096"/>
<g style="mix-blend-mode:multiply" opacity="0.4">
<path d="M302.628 108.33V107.169L303 106.833L314.093 106.589L314.174 110.964C308.692 112.449 304.094 109.49 302.628 108.33Z" fill="#F0B896"/>
</g>
<path d="M290.558 82.6066C290.104 82.2023 289.57 81.8974 288.99 81.7115C288.411 81.5257 287.799 81.463 287.194 81.5276C285.483 81.9337 284.47 84.7879 285.04 88.0367C285.199 89.3733 285.818 90.6135 286.793 91.5448C287.767 92.4762 289.037 93.0408 290.383 93.1419C292.513 93.1187 290.558 82.6066 290.558 82.6066Z" fill="#F0B096"/>
<g style="mix-blend-mode:multiply" opacity="0.3">
<path d="M290.383 93.1418C292.513 93.1418 290.558 82.6065 290.558 82.6065C289.97 82.1171 289.283 81.7608 288.544 81.5623C288.544 82.212 288.451 82.7225 288.439 83.1286C288.159 86.3448 288.234 89.5819 288.66 92.7821C289.204 93.0164 289.79 93.1387 290.383 93.1418Z" fill="#F0B896"/>
</g>
<path d="M289.463 83.2794C289.463 83.2794 286.903 106.798 302.116 109.223C314.465 111.196 321.903 100.718 321.903 100.718C321.903 100.718 329.061 101.971 330.586 95.9844C332.111 89.9974 326.419 86.5862 322.624 92.5036C324.165 90.218 325.142 87.6022 325.476 84.869C326.035 80.2279 328.665 67.0009 310.601 64.1234C289.882 60.8514 289.731 79.5318 289.463 83.2794Z" fill="#F0B096"/>
<g style="mix-blend-mode:multiply" opacity="0.4">
<path d="M290.627 75.3898C291.286 72.8803 292.499 70.5494 294.178 68.5674L297.914 68.6254L321.484 71.909L325.779 77.6059C325.889 78.9573 325.889 80.3154 325.779 81.6668L323.719 89.3362C324.045 84.2194 321.274 82.2238 319.819 80.1585C318.961 78.7043 318.675 76.9843 319.016 75.3318C307.703 80.0308 293.898 76.3876 290.627 75.3898Z" fill="#F0B896"/>
</g>
<path d="M322.019 93.4203C322.019 93.4203 323.8 86.8995 323.183 84.5442C322.566 82.1889 319.412 78.1975 321.286 74.1018C316.037 73.9857 301.871 77.9307 286.484 70.621C280.501 67.7087 279 59.5752 282.34 52.4743C284.878 56.3961 289.417 57.7536 294.201 54.644C300.021 50.8732 309.053 46.5222 318.202 50.8616C326.547 54.7833 332.553 62.0582 331.436 67.5811C336.476 71.0619 339.223 79.7523 330.621 92.3412C330.621 92.3412 329.457 89.0228 326.524 89.5914C325.546 89.8798 324.64 90.3697 323.864 91.0293C323.088 91.6888 322.46 92.5034 322.019 93.4203Z" fill="#041F2D"/>
<path d="M105.99 239.011C105.99 239.011 99.4947 240.403 99.9138 233.859C97.097 211.652 96.4219 202.694 96.3404 201.824C90.0551 147.361 91.0677 136.014 96.1425 126.511C101.217 117.009 114.94 111.428 123.402 113.655C134.204 116.51 142.375 126.105 147.647 146.572C153.328 168.687 159.287 201.511 158.123 237.073C158.798 243.141 153.886 242.422 153.886 242.422L105.99 239.011Z" fill="#EDF8FD"/>
<path d="M194.38 174.523C188.828 174.86 184.847 179.779 185.464 183.051C186.081 186.323 190.353 190.558 195.94 190.222C201.527 189.885 206.218 185.14 205.577 181.868C204.937 178.596 199.851 174.175 194.38 174.523Z" fill="#FFAD97"/>
<path d="M148.532 100.231C152.815 85.925 147.578 71.1548 147.578 71.1548C144.947 71.6885 138.732 71.3172 134.297 71.5145C129.862 71.7117 130.014 77.3158 129.816 79.88C129.618 82.4442 127.488 88.234 125.905 88.6284C128.628 84.0918 124.741 76.1323 119.899 79.3463C115.057 82.5602 116.721 84.115 117.198 89.6843C117.676 95.2536 110.098 94.0701 110.098 94.0701C114.451 107.564 113.59 112.124 115.767 115.21C120.714 122.172 132.528 129.783 132.679 122.044C131.498 116.603 130.743 111.079 130.421 105.522C140.931 111.451 146.076 107.993 148.532 100.231Z" fill="#FFAD97"/>
<path d="M153.642 73.4752C163.093 70.4934 145.494 52.4163 133.994 50.177C124.764 48.3786 110.995 49.0168 105.862 63.1488C105.862 63.1488 99.1223 67.4302 100.251 77.9423C101.52 89.7886 107.805 100.382 112.193 103.549C112.193 103.549 121.878 95.3463 121.505 89.7654C118.572 87.7466 116.698 82.1193 120.015 79.323C123.891 76.1323 127.243 84.0453 126.021 88.6052C127.593 88.2107 129.711 82.4673 129.932 79.8567C130.153 77.2461 129.932 71.7348 134.413 71.4912C138.895 71.2475 145.296 76.0975 153.642 73.4752Z" fill="#041F2D"/>
<path d="M265.754 227.153L265.94 236.98C273.436 239.371 293.246 243.606 326.303 236.586C325.988 233.349 325.674 230.146 325.348 227.049C292.571 233.836 273.028 229.52 265.754 227.153Z" fill="#CF6E45"/>
<path d="M343.075 130.352C339.164 123.054 326.559 116.753 319.121 114.259C304.898 122.856 300.766 131.663 298.17 141.444C294.876 153.998 285.995 194.178 296.447 256.868C307.598 256.763 319.726 255.15 330.679 250.405C326.815 233.407 324.01 213.276 324.149 212.046C330.481 157.572 348.162 139.843 343.075 130.352Z" fill="#0D608A"/>
<g style="mix-blend-mode:multiply" opacity="0.3">
<path d="M324.44 142.859L335.8 160.263C334.764 163.303 333.682 166.622 332.6 170.23C328.551 161.554 325.802 152.332 324.44 142.859Z" fill="#3F3F3F"/>
</g>
<g style="mix-blend-mode:multiply" opacity="0.3">
<path d="M325.907 199.492C325.418 202.555 324.953 205.781 324.522 209.088L317.224 217.302L325.907 199.492Z" fill="#3F3F3F"/>
</g>
<path d="M343.075 130.352C350.129 138.845 356.647 169.163 357.38 182.019C358.113 194.874 329.631 223.208 323.986 227.002C323.986 227.002 316.944 223.869 316.7 218.231C316.7 218.231 337.011 190.071 338.652 181.392C340.293 172.713 325.721 151.585 324.44 142.859C323.463 136.385 333.857 119.271 343.075 130.352Z" fill="#0D608A"/>
<path d="M307.807 229.938C310.973 225.795 316.072 223.823 319.121 225.552C322.171 227.281 322.066 232.107 318.865 236.249C315.664 240.392 310.636 242.434 307.575 240.658C304.513 238.883 304.618 234.115 307.807 229.938Z" fill="#FFAD97"/>
<path d="M279.756 239.765C282.957 240.113 286.623 240.368 290.732 240.415L289.778 230.657C286.041 230.576 282.713 230.332 279.756 229.996V239.765Z" fill="#FFD145"/>
<path d="M257.408 175.66C237.621 177.343 216.67 175.66 212.177 176.229L212.258 190.372C213.422 190.488 238.715 194.712 260.272 190.767C282.096 186.776 290.406 143.811 294.55 125.502L289.207 120.385C273.843 128.252 261.889 175.289 257.408 175.66Z" fill="#0D608A"/>
<path d="M276.8 146.572C270.014 172.968 264.904 217.801 261.238 252.806C267.255 254.238 273.354 255.308 279.5 256.009C280.594 249.488 281.746 238.512 282.398 219.948C283.9 177.145 291.431 145.98 294.259 136.408C296.342 129.342 300.393 119.004 299.823 114.247C285.087 119.898 281.607 127.927 276.8 146.572Z" fill="#0D608A"/>
<g style="mix-blend-mode:multiply" opacity="0.3">
<path d="M269.292 186.393C271.527 171.309 274.018 157.386 276.8 146.584C279.221 137.209 281.293 130.804 284.307 126.024C281.979 127.904 276.858 134.9 270.34 160.971C267.418 174.477 265.765 183.585 264.834 189.247C266.431 188.48 267.928 187.521 269.292 186.393Z" fill="#3F3F3F"/>
</g>
<path d="M99.0641 239.928C101.823 240.705 134.902 249.639 158.426 243.234L158.542 236.853C136.555 242.933 106.094 235.461 99.9836 233.836C99.7159 235.461 99.4133 237.503 99.0641 239.928Z" fill="#CF6E45"/>
<path d="M137.894 245.567C141.333 245.599 144.772 245.444 148.195 245.102C148.392 242.921 148.462 240.345 148.486 238.744C145.006 239.103 141.508 239.266 138.01 239.231C138.134 241.343 138.095 243.461 137.894 245.567Z" fill="#FFD145"/>
<path d="M128.535 126.14L133.715 124.817L134.937 125.745L135.368 129.539L134.378 130.027L128.442 127.927L128.535 126.14Z" fill="#16A1E7"/>
<path d="M135.368 129.54C135.368 129.54 152.35 164.348 154.317 204.04L150.755 217.72L142.282 201.674C142.282 201.674 145.389 171.507 134.378 130.004L135.368 129.54Z" fill="#16A1E7"/>
<g style="mix-blend-mode:multiply" opacity="0.2">
<path d="M156.389 194.99C156.051 192.507 155.69 190.047 155.33 187.611C147.24 187.147 134.972 185.453 130.887 179.489C124.508 170.392 116.104 143.091 116.104 143.091L102.137 129.655L96.9108 126.059C96.9108 126.059 93.5819 130.978 97.7954 145.783C102.009 160.588 110.576 174.79 116.628 181.752C122.681 188.713 126.196 192.879 139.092 194.027C145.727 194.572 151.919 194.851 156.389 194.99Z" fill="#CEECFA"/>
</g>
<g style="mix-blend-mode:multiply" opacity="0.2">
<path d="M154.538 182.297C154.166 179.976 153.805 177.575 153.374 175.266C147.892 174.662 138.173 173.026 138.173 173.026L135.414 166.378C132.691 159.706 127.208 141.827 120.248 131.419C113.287 121.011 105.605 120.884 105.605 120.884L104.302 129.539L114.3 158.871L123.728 176.496C123.728 176.496 144.598 184.443 145.308 184.733C145.785 184.907 150.976 183.388 154.538 182.297Z" fill="#CEECFA"/>
</g>
<path d="M138.441 175.475C169.367 179.965 179.179 176.762 183.683 177.354L183.59 190.175C182.485 190.303 157.134 194.526 135.577 190.57C113.765 186.59 93.2908 135.619 96.6081 127.091C97.1913 124.811 98.5537 122.805 100.461 121.418C103.662 119.097 108.504 121.278 108.504 121.278C123.868 129.11 133.994 174.79 138.441 175.475Z" fill="#EDF8FD"/>
<g style="mix-blend-mode:screen" opacity="0.4">
<path d="M310.263 129.041L326.081 122.474L319.819 114.526L319.121 114.259C304.898 122.856 300.766 131.663 298.17 141.444C297.402 144.345 296.354 148.788 295.295 154.578C295.295 154.578 300.998 136.374 312.3 132.986C311.777 131.86 310.263 129.041 310.263 129.041Z" fill="#1D3A71"/>
</g>
<g style="mix-blend-mode:screen" opacity="0.4">
<path d="M297.646 115.117C296.153 116.793 294.787 118.577 293.561 120.455C294.725 123.692 293.98 129.18 293.98 129.18L292.001 130.595C292.149 136.222 291.955 141.851 291.419 147.454C292.583 142.5 293.561 138.764 294.259 136.374C296.342 129.308 300.393 118.97 299.823 114.212C299.054 114.514 298.344 114.816 297.646 115.117Z" fill="#0C557A"/>
</g>
</g>
<defs>
<linearGradient id="paint0_linear_80_290" x1="179.738" y1="435.781" x2="137.533" y2="435.781" gradientUnits="userSpaceOnUse">
<stop stop-color="#3D342B"/>
<stop offset="1" stop-color="#291C17"/>
</linearGradient>
<linearGradient id="paint1_linear_80_290" x1="-21207.2" y1="4608.02" x2="-19677.7" y2="4608.02" gradientUnits="userSpaceOnUse">
<stop stop-color="#3D342B"/>
<stop offset="1" stop-color="#291C17"/>
</linearGradient>
<linearGradient id="paint2_linear_80_290" x1="-18879.6" y1="4608.02" x2="-17348.5" y2="4608.02" gradientUnits="userSpaceOnUse">
<stop stop-color="#3D342B"/>
<stop offset="1" stop-color="#291C17"/>
</linearGradient>
<linearGradient id="paint3_linear_80_290" x1="243092" y1="4608.02" x2="241558" y2="4608.02" gradientUnits="userSpaceOnUse">
<stop stop-color="#3D342B"/>
<stop offset="1" stop-color="#291C17"/>
</linearGradient>
<clipPath id="clip0_80_290">
<rect width="454" height="396" fill="white" transform="translate(0 46)"/>
</clipPath>
</defs>
</svg>
