<svg width="175" height="40" viewBox="0 0 175 40" fill="none" xmlns="http://www.w3.org/2000/svg">
<g clip-path="url(#clip0_82_321)">
<path d="M54 23.9299C50.7819 23.9779 47.595 23.2941 44.68 21.9299L46.68 17.4599C48.8714 18.6287 51.3069 19.2659 53.79 19.3199C55.85 19.3199 56.88 18.6799 56.88 17.3999C56.8841 17.1065 56.8032 16.8182 56.647 16.5698C56.4909 16.3213 56.2662 16.1234 56 15.9999C55.0912 15.5595 54.1197 15.2626 53.12 15.1199C50.9405 14.7998 48.8542 14.0192 47 12.8299C46.3162 12.2984 45.7753 11.6052 45.4262 10.8127C45.077 10.0201 44.9306 9.15315 45 8.28989C44.9572 7.34722 45.1294 6.40716 45.5036 5.54089C45.8778 4.67463 46.4443 3.90486 47.16 3.28989C48.59 2.07989 50.69 1.46989 53.44 1.46989C56.2836 1.40124 59.1064 1.97195 61.7 3.13989L59.49 7.50989C57.5741 6.69523 55.5213 6.25073 53.44 6.19989C51.5 6.19989 50.53 6.75989 50.53 7.86989C50.5351 8.18675 50.6404 8.49387 50.8308 8.74717C51.0213 9.00048 51.287 9.18697 51.59 9.27989C52.8106 9.7485 54.0729 10.1001 55.36 10.3299C56.3467 10.5133 57.3166 10.7775 58.26 11.1199C59.0465 11.4135 59.7873 11.8176 60.46 12.3199C61.1234 12.8051 61.642 13.462 61.96 14.2199C62.3148 15.0852 62.4851 16.015 62.46 16.9499C62.46 21.6099 59.64 23.9366 54 23.9299Z" fill="white"/>
<path d="M79 1.89014H85L75.55 23.5401H72.45L63.07 1.89014H69.14L72.85 11.4201L74.06 15.0701L75.31 11.4501L79 1.89014Z" fill="white"/>
<path d="M98.84 23.4799L97.26 19.9999H88.64L87.06 23.5199H81.23L91.16 1.85986H94.74L104.67 23.4799H98.84ZM91.49 12.7599L90.28 15.6699H95.65L94.44 12.7599L93 8.53986L91.49 12.7599Z" fill="white"/>
<path d="M125.56 23.4801H119.1L115.21 17.8001H111.9V23.4801H106.58V1.89014H115.51C118.49 1.89014 120.77 2.57347 122.35 3.94014C123.157 4.68613 123.788 5.60285 124.197 6.62352C124.605 7.64419 124.78 8.74309 124.71 9.84014C124.71 13.2001 123.36 15.5101 120.64 16.7701L125.56 23.4801ZM111.9 6.50014V13.3701H115C116.111 13.4569 117.217 13.1371 118.11 12.4701C118.435 12.1794 118.693 11.8212 118.866 11.4205C119.039 11.0198 119.122 10.5863 119.11 10.1501C119.149 9.65186 119.086 9.1508 118.925 8.67784C118.763 8.20488 118.506 7.77004 118.17 7.40014C117.319 6.73366 116.248 6.41232 115.17 6.50014H111.9Z" fill="white"/>
<path d="M138.65 23.9298C137.111 23.9934 135.574 23.7513 134.129 23.2175C132.684 22.6837 131.358 21.8688 130.23 20.8198C129.15 19.7703 128.304 18.5043 127.747 17.105C127.191 15.7056 126.936 14.2045 127 12.6998C126.946 11.1949 127.205 9.6951 127.761 8.29557C128.317 6.89604 129.158 5.62732 130.23 4.56985C132.586 2.55043 135.587 1.44043 138.69 1.44043C141.793 1.44043 144.794 2.55043 147.15 4.56985C148.233 5.62252 149.083 6.89112 149.645 8.29341C150.207 9.6957 150.467 11.2004 150.41 12.7098C150.468 14.2122 150.21 15.71 149.654 17.1068C149.097 18.5035 148.255 19.7684 147.18 20.8198C146.036 21.879 144.693 22.6996 143.228 23.2336C141.763 23.7676 140.207 24.0043 138.65 23.9298ZM134.22 17.2198C134.791 17.8119 135.481 18.2765 136.245 18.5832C137.008 18.89 137.828 19.0319 138.65 18.9998C139.469 19.034 140.287 18.8999 141.052 18.6058C141.817 18.3117 142.514 17.8638 143.1 17.2898C143.671 16.6843 144.114 15.9706 144.404 15.1908C144.695 14.4111 144.826 13.5811 144.79 12.7498C144.826 11.9172 144.697 11.0856 144.41 10.303C144.124 9.52045 143.685 8.80227 143.12 8.18985C141.907 7.07815 140.321 6.46148 138.675 6.46148C137.029 6.46148 135.443 7.07815 134.23 8.18985C133.662 8.80052 133.22 9.51819 132.932 10.3011C132.643 11.0839 132.514 11.9163 132.55 12.7498C132.519 13.5683 132.651 14.3847 132.938 15.1519C133.224 15.9192 133.66 16.622 134.22 17.2198Z" fill="white"/>
<path d="M163.64 11.1801H174.64V20.7101C172.393 22.8568 169.193 23.9301 165.04 23.9301C161.28 23.9301 158.28 22.9301 156.04 20.9301C154.923 19.8861 154.047 18.6123 153.47 17.1967C152.893 15.781 152.631 14.2571 152.7 12.7301C152.629 11.199 152.887 9.67052 153.456 8.24745C154.025 6.82437 154.893 5.53976 156 4.48009C158.371 2.38009 161.466 1.28609 164.63 1.43009C168.47 1.43009 171.537 2.47342 173.83 4.56009L170.46 8.29009C168.841 6.98266 166.799 6.31383 164.72 6.41009C163.869 6.36853 163.019 6.49751 162.218 6.78946C161.418 7.0814 160.684 7.53041 160.06 8.11009C159.466 8.71207 159.004 9.43097 158.703 10.2211C158.401 11.0113 158.268 11.8555 158.31 12.7001C158.258 13.5757 158.398 14.4521 158.721 15.2676C159.044 16.0831 159.542 16.8179 160.18 17.4201C161.619 18.6121 163.455 19.2158 165.32 19.1101C166.874 19.1831 168.414 18.797 169.75 18.0001V15.7001H163.64V11.1801Z" fill="white"/>
<path d="M47.9 36.4998H44.67V29.3398H47.9V30.4898H46V32.1898H47.76V33.3498H46V35.3498H47.9V36.4998Z" fill="white"/>
<path d="M54 36.4998H52.33L50.12 31.3098H50.05C50.1354 31.7278 50.1789 32.1532 50.18 32.5798V36.4998H48.94V29.3398H50.58L52.77 34.4698H52.83C52.7564 34.0675 52.7229 33.6588 52.73 33.2498V29.3398H54V36.4998Z" fill="white"/>
<path d="M59.65 36.4998H58.31V33.3598H56.56V36.4998H55.22V29.3398H56.56V32.1798H58.31V29.3398H59.65V36.4998Z" fill="white"/>
<path d="M64.3 36.5001L63.89 34.6901H62L61.59 36.5001H60.28L62.05 29.3101H63.86L65.64 36.5001H64.3ZM63.64 33.5001L63.26 31.8301C63.26 31.7301 63.18 31.4801 63.1 31.0701C63.02 30.6601 63 30.4001 63 30.2701C63 30.5501 62.9 30.8601 62.84 31.2001C62.78 31.5401 62.6 32.3101 62.33 33.5101L63.64 33.5001Z" fill="white"/>
<path d="M71.29 36.4998H69.66L67.45 31.3098H67.39C67.4719 31.7282 67.5121 32.1536 67.51 32.5798V36.4998H66.27V29.3398H67.91L70.1 34.4698H70.16C70.0952 34.0665 70.0651 33.6583 70.07 33.2498V29.3398H71.29V36.4998Z" fill="white"/>
<path d="M74.93 30.3999C74.7302 30.4088 74.5376 30.4774 74.3772 30.5968C74.2167 30.7162 74.0958 30.881 74.03 31.0699C73.7827 31.661 73.6699 32.2998 73.7 32.9399C73.7 34.5999 74.13 35.4299 75 35.4299C75.4228 35.4164 75.8341 35.2885 76.19 35.0599V36.2499C75.7841 36.4965 75.3146 36.6182 74.84 36.5999C74.4698 36.6093 74.1035 36.522 73.7773 36.3466C73.4512 36.1713 73.1763 35.9139 72.98 35.5999C72.504 34.7792 72.2781 33.8373 72.33 32.8899C72.2853 31.9502 72.5183 31.0181 73 30.2099C73.1978 29.8973 73.4729 29.641 73.7988 29.4658C74.1246 29.2906 74.4901 29.2025 74.86 29.2099C75.1172 29.2107 75.3731 29.2477 75.62 29.3199C75.8936 29.409 76.1529 29.537 76.39 29.6999L76 30.7999C75.85 30.6999 75.69 30.6099 75.53 30.5199C75.3429 30.4312 75.1368 30.39 74.93 30.3999Z" fill="white"/>
<path d="M80.43 36.4998H77.2V29.3398H80.43V30.4898H78.53V32.1898H80.29V33.3498H78.53V35.3498H80.43V36.4998Z" fill="white"/>
<path d="M87.86 31.5398C87.9051 32.1769 87.6967 32.8059 87.28 33.2898C87.062 33.5029 86.8014 33.6674 86.5153 33.7725C86.2292 33.8777 85.9241 33.9211 85.62 33.8998H85.29V36.4998H84V29.3398H85.82C87.16 29.3398 87.86 30.0698 87.86 31.5398ZM85.29 32.7498H85.54C85.674 32.7609 85.8088 32.7425 85.935 32.6958C86.0611 32.6492 86.1754 32.5755 86.27 32.4798C86.4535 32.2213 86.5387 31.9056 86.51 31.5898C86.5336 31.2962 86.456 31.0033 86.29 30.7598C86.2048 30.6659 86.0992 30.5927 85.9814 30.5459C85.8635 30.4991 85.7364 30.4799 85.61 30.4898H85.29V32.7498Z" fill="white"/>
<path d="M90.09 33.71V36.5H88.76V29.34H90.5C90.7942 29.3143 91.0905 29.3471 91.3719 29.4363C91.6534 29.5255 91.9144 29.6696 92.14 29.86C92.3306 30.0779 92.4757 30.3317 92.5667 30.6065C92.6577 30.8813 92.6928 31.1715 92.67 31.46C92.7091 31.831 92.6437 32.2056 92.4811 32.5413C92.3185 32.8771 92.0653 33.1607 91.75 33.36L93.13 36.5H91.7L90.57 33.71H90.09ZM90.09 32.57H90.44C90.5652 32.5824 90.6915 32.5643 90.8081 32.5173C90.9248 32.4703 91.0284 32.3957 91.11 32.3C91.2659 32.0636 91.3397 31.7825 91.32 31.5C91.3466 31.2217 91.2681 30.9435 91.1 30.72C91.0107 30.6369 90.9049 30.5734 90.7895 30.5338C90.674 30.4941 90.5516 30.4792 90.43 30.49H90.09V32.57Z" fill="white"/>
<path d="M98.71 32.9098C98.7591 33.8711 98.5112 34.8242 98 35.6398C97.7972 35.957 97.5154 36.2159 97.1823 36.3912C96.8492 36.5666 96.4762 36.6522 96.1 36.6398C95.7211 36.6518 95.3454 36.5661 95.0092 36.391C94.6729 36.2158 94.3874 35.9572 94.18 35.6398C93.6896 34.8135 93.4596 33.8587 93.52 32.8998C93.4591 31.944 93.6892 30.9922 94.18 30.1698C94.3881 29.8531 94.6738 29.5949 95.0098 29.4199C95.3459 29.2449 95.7212 29.1588 96.1 29.1698C96.4777 29.1566 96.8524 29.2418 97.1873 29.4171C97.5221 29.5925 97.8056 29.8518 98.01 30.1698C98.5167 30.9906 98.7609 31.9465 98.71 32.9098ZM94.92 32.9098C94.8859 33.5483 94.9917 34.1865 95.23 34.7798C95.3012 34.9646 95.4258 35.1241 95.5878 35.238C95.7498 35.352 95.942 35.4152 96.14 35.4198C96.94 35.4198 97.34 34.5798 97.34 32.9098C97.34 31.2398 96.94 30.3998 96.14 30.3998C95.942 30.4044 95.7498 30.4676 95.5878 30.5816C95.4258 30.6955 95.3012 30.855 95.23 31.0398C94.9908 31.6328 94.8849 32.2713 94.92 32.9098Z" fill="white"/>
<path d="M99.19 38.5701C98.9084 38.5802 98.6272 38.5395 98.36 38.4501V37.2801C98.5569 37.3448 98.7627 37.3786 98.97 37.3801C99.0824 37.3918 99.196 37.374 99.2995 37.3284C99.403 37.2828 99.4927 37.211 99.56 37.1201C99.7039 36.8903 99.7705 36.6205 99.75 36.3501V29.3501H101.08V36.2901C101.094 36.7087 101.015 37.1252 100.85 37.5101C100.706 37.8341 100.474 38.1112 100.18 38.3101C99.8812 38.4887 99.5379 38.5788 99.19 38.5701Z" fill="white"/>
<path d="M105.58 36.4998H102.35V29.3398H105.58V30.4898H103.68V32.1898H105.44V33.3498H103.68V35.3498H105.58V36.4998Z" fill="white"/>
<path d="M109 30.3999C108.798 30.4068 108.604 30.4744 108.441 30.594C108.279 30.7136 108.156 30.8795 108.09 31.0699C107.843 31.661 107.73 32.2998 107.76 32.9399C107.76 34.5999 108.2 35.4299 109.06 35.4299C109.483 35.4189 109.895 35.2908 110.25 35.0599V36.2499C109.848 36.4968 109.382 36.6186 108.91 36.5999C108.539 36.6123 108.172 36.5263 107.845 36.3507C107.518 36.175 107.244 35.916 107.05 35.5999C106.574 34.7791 106.348 33.8372 106.4 32.8899C106.342 31.9362 106.576 30.9876 107.07 30.1699C107.268 29.8572 107.543 29.6009 107.869 29.4258C108.195 29.2506 108.56 29.1624 108.93 29.1699C109.184 29.1707 109.437 29.2077 109.68 29.2799C109.954 29.3673 110.214 29.4954 110.45 29.6599L110 30.7999C109.85 30.6963 109.693 30.6028 109.53 30.5199C109.365 30.4405 109.183 30.3995 109 30.3999Z" fill="white"/>
<path d="M113.47 36.4998H112.14V30.4998H110.77V29.3398H114.84V30.5098H113.47V36.4998Z" fill="white"/>
<path d="M122 31.5398C122.045 32.1769 121.837 32.8059 121.42 33.2898C121.202 33.5029 120.941 33.6674 120.655 33.7725C120.369 33.8777 120.064 33.9211 119.76 33.8998H119.43V36.4998H118.09V29.3398H119.91C121.29 29.3398 122 30.0698 122 31.5398ZM119.43 32.7498H119.68C119.814 32.7609 119.949 32.7425 120.075 32.6958C120.201 32.6492 120.315 32.5755 120.41 32.4798C120.594 32.2213 120.679 31.9056 120.65 31.5898C120.674 31.2962 120.596 31.0033 120.43 30.7598C120.345 30.6659 120.239 30.5927 120.121 30.5459C120.003 30.4991 119.876 30.4799 119.75 30.4898H119.43V32.7498Z" fill="white"/>
<path d="M126.12 36.4998H122.89V29.3398H126.12V30.4898H124.22V32.1898H126V33.3498H124.24V35.3498H126.14L126.12 36.4998Z" fill="white"/>
<path d="M128.5 33.7099V36.4999H127.16V29.3399H128.91C129.203 29.3144 129.497 29.3473 129.777 29.4366C130.057 29.5258 130.316 29.6697 130.54 29.8599C130.731 30.0778 130.876 30.3316 130.967 30.6063C131.058 30.8811 131.093 31.1713 131.07 31.4599C131.109 31.8309 131.044 32.2054 130.881 32.5412C130.719 32.8769 130.465 33.1605 130.15 33.3599L131.53 36.4999H130.1L129 33.7099H128.5ZM128.5 32.5699H128.84C128.967 32.5814 129.094 32.563 129.212 32.516C129.33 32.4691 129.436 32.3951 129.52 32.2999C129.667 32.0601 129.737 31.7808 129.72 31.4999C129.747 31.2215 129.668 30.9433 129.5 30.7199C129.411 30.6356 129.306 30.5715 129.19 30.5318C129.074 30.4921 128.952 30.4778 128.83 30.4899H128.5V32.5699Z" fill="white"/>
<path d="M133.5 36.4998H132.18V29.3398H135.39V30.4898H133.5V32.4898H135.26V33.6398H133.5V36.4998Z" fill="white"/>
<path d="M141.22 32.9101C141.281 33.8672 141.047 34.82 140.55 35.6401C140.347 35.9573 140.065 36.2163 139.732 36.3916C139.399 36.5669 139.026 36.6526 138.65 36.6401C138.271 36.6521 137.895 36.5664 137.559 36.3913C137.223 36.2162 136.937 35.9575 136.73 35.6401C136.24 34.8139 136.01 33.859 136.07 32.9001C136.009 31.9444 136.239 30.9926 136.73 30.1701C136.94 29.8526 137.227 29.5941 137.565 29.4191C137.903 29.244 138.28 29.1583 138.66 29.1701C139.036 29.1577 139.409 29.2433 139.742 29.4187C140.075 29.594 140.357 29.853 140.56 30.1701C141.053 30.9954 141.283 31.951 141.22 32.9101ZM137.43 32.9101C137.396 33.5486 137.502 34.1868 137.74 34.7801C137.811 34.9649 137.936 35.1244 138.098 35.2384C138.26 35.3523 138.452 35.4156 138.65 35.4201C139.45 35.4201 139.85 34.5801 139.85 32.9101C139.85 31.2401 139.45 30.4001 138.66 30.4001C138.46 30.4027 138.266 30.4651 138.102 30.5791C137.938 30.6932 137.812 30.8538 137.74 31.0401C137.501 31.6332 137.395 32.2716 137.43 32.9101Z" fill="white"/>
<path d="M143.59 33.7101V36.5001H142.26V29.3401H144C144.293 29.3152 144.587 29.3483 144.867 29.4375C145.147 29.5268 145.406 29.6704 145.63 29.8601C145.821 30.0779 145.966 30.3317 146.057 30.6065C146.148 30.8813 146.183 31.1715 146.16 31.4601C146.199 31.831 146.134 32.2056 145.971 32.5413C145.809 32.8771 145.555 33.1607 145.24 33.3601L146.62 36.5001H145.2L144.07 33.7101H143.59ZM143.59 32.5701H143.94C144.065 32.5824 144.191 32.5643 144.308 32.5173C144.425 32.4703 144.528 32.3958 144.61 32.3001C144.766 32.0637 144.84 31.7826 144.82 31.5001C144.847 31.2217 144.768 30.9435 144.6 30.7201C144.511 30.6358 144.406 30.5716 144.29 30.5319C144.174 30.4923 144.052 30.478 143.93 30.4901H143.59V32.5701Z" fill="white"/>
<path d="M149.84 36.4998L148.48 30.3998H148.42C148.477 30.8275 148.507 31.2584 148.51 31.6898V36.4998H147.28V29.3398H149.33L150.55 34.9998L151.77 29.3698H153.85V36.4998H152.58V31.6398C152.579 31.2288 152.602 30.8181 152.65 30.4098L151.29 36.4998H149.84Z" fill="white"/>
<path d="M158.54 36.5001L158.13 34.6901H156.26L155.85 36.5001H154.52L156.29 29.3101H158.1L159.88 36.5001H158.54ZM157.88 33.5001L157.5 31.8301C157.5 31.7301 157.42 31.4801 157.34 31.0701C157.26 30.6601 157.21 30.3901 157.2 30.2601C157.2 30.5401 157.1 30.8501 157.04 31.1901C156.98 31.5301 156.8 32.3001 156.53 33.5001H157.88Z" fill="white"/>
<path d="M165.53 36.4998H163.9L161.69 31.3098H161.62C161.705 31.7278 161.749 32.1532 161.75 32.5798V36.4998H160.51V29.3398H162.15L164.34 34.4698H164.4C164.326 34.0675 164.293 33.6588 164.3 33.2498V29.3398H165.53V36.4998Z" fill="white"/>
<path d="M169.17 30.3999C168.97 30.4087 168.778 30.4773 168.617 30.5968C168.457 30.7162 168.336 30.881 168.27 31.0699C168.014 31.6586 167.897 32.2986 167.93 32.9399C167.93 34.5999 168.37 35.4299 169.23 35.4299C169.653 35.4189 170.065 35.2908 170.42 35.0599V36.2499C170.018 36.4968 169.551 36.6186 169.08 36.5999C168.709 36.6123 168.342 36.5263 168.015 36.3507C167.688 36.175 167.414 35.916 167.22 35.5999C166.744 34.7791 166.518 33.8372 166.57 32.8899C166.512 31.9362 166.746 30.9876 167.24 30.1699C167.438 29.8572 167.713 29.6009 168.039 29.4258C168.365 29.2506 168.73 29.1624 169.1 29.1699C169.354 29.1707 169.607 29.2077 169.85 29.2799C170.124 29.3673 170.384 29.4954 170.62 29.6599L170.18 30.7399C170.03 30.6363 169.873 30.5428 169.71 30.4599C169.537 30.3985 169.352 30.378 169.17 30.3999Z" fill="white"/>
<path d="M174.67 36.4998H171.44V29.3398H174.67V30.4898H172.77V32.1898H174.53V33.3498H172.77V35.3498H174.67V36.4998Z" fill="white"/>
<path d="M17.33 0L13.33 2.31V6.82L34.67 19.14V10L17.33 0Z" fill="#16A1E7"/>
<path d="M0 29.9999L17.33 39.9999L21.33 37.6899V33.1799L0 20.8599V29.9999Z" fill="#16A1E7"/>
<path d="M8 8.11988V5.37988L0 9.99988V14.8599L26.67 30.2599V31.8799V34.6199L34.67 29.9999V25.1399L8 9.73988V8.11988Z" fill="#16A1E7"/>
</g>
<defs>
<clipPath id="clip0_82_321">
<rect width="174.67" height="40" fill="white"/>
</clipPath>
</defs>
</svg>
