<svg width="175" height="40" viewBox="0 0 175 40" fill="none" xmlns="http://www.w3.org/2000/svg">
<g clip-path="url(#clip0_237_366)">
<path d="M54 23.93C50.7819 23.9781 47.595 23.2942 44.68 21.93L46.68 17.46C48.8714 18.6288 51.3069 19.266 53.79 19.32C55.85 19.32 56.88 18.68 56.88 17.4C56.8841 17.1066 56.8032 16.8183 56.647 16.5699C56.4909 16.3214 56.2662 16.1235 56 16C55.0912 15.5596 54.1197 15.2627 53.12 15.12C50.9405 14.7999 48.8542 14.0193 47 12.83C46.3162 12.2986 45.7753 11.6053 45.4262 10.8128C45.077 10.0202 44.9306 9.15326 45 8.29C44.9572 7.34733 45.1294 6.40727 45.5036 5.541C45.8778 4.67474 46.4443 3.90498 47.16 3.29C48.59 2.08 50.69 1.47 53.44 1.47C56.2836 1.40135 59.1064 1.97206 61.7 3.14L59.49 7.51C57.5741 6.69534 55.5213 6.25084 53.44 6.2C51.5 6.2 50.53 6.76 50.53 7.87C50.5351 8.18686 50.6404 8.49398 50.8308 8.74729C51.0213 9.00059 51.287 9.18708 51.59 9.28C52.8106 9.74862 54.0729 10.1002 55.36 10.33C56.3467 10.5134 57.3166 10.7776 58.26 11.12C59.0465 11.4136 59.7873 11.8177 60.46 12.32C61.1234 12.8052 61.642 13.4621 61.96 14.22C62.3148 15.0853 62.4851 16.0151 62.46 16.95C62.46 21.61 59.64 23.9367 54 23.93Z" fill="#333333"/>
<path d="M79 1.89H85L75.55 23.54H72.45L63.07 1.89H69.14L72.85 11.42L74.06 15.07L75.31 11.45L79 1.89Z" fill="#333333"/>
<path d="M98.84 23.48L97.26 20H88.64L87.06 23.52H81.23L91.16 1.86H94.74L104.67 23.48H98.84ZM91.49 12.76L90.28 15.67H95.65L94.44 12.76L93 8.54L91.49 12.76Z" fill="#333333"/>
<path d="M125.56 23.48H119.1L115.21 17.8H111.9V23.48H106.58V1.89H115.51C118.49 1.89 120.77 2.57333 122.35 3.94C123.157 4.68599 123.788 5.60272 124.197 6.62339C124.605 7.64405 124.78 8.74295 124.71 9.84C124.71 13.2 123.36 15.51 120.64 16.77L125.56 23.48ZM111.9 6.5V13.37H115C116.111 13.4568 117.217 13.137 118.11 12.47C118.435 12.1793 118.693 11.8211 118.866 11.4204C119.039 11.0197 119.122 10.5862 119.11 10.15C119.149 9.65172 119.086 9.15066 118.925 8.6777C118.763 8.20474 118.506 7.7699 118.17 7.4C117.319 6.73352 116.248 6.41218 115.17 6.5H111.9Z" fill="#333333"/>
<path d="M138.65 23.93C137.111 23.9936 135.574 23.7515 134.129 23.2177C132.684 22.6839 131.358 21.869 130.23 20.82C129.15 19.7704 128.304 18.5045 127.747 17.1051C127.191 15.7058 126.936 14.2046 127 12.7C126.946 11.195 127.205 9.69525 127.761 8.29572C128.317 6.8962 129.158 5.62747 130.23 4.57C132.586 2.55059 135.587 1.44058 138.69 1.44058C141.793 1.44058 144.794 2.55059 147.15 4.57C148.233 5.62267 149.083 6.89127 149.645 8.29356C150.207 9.69585 150.467 11.2005 150.41 12.71C150.468 14.2124 150.21 15.7102 149.654 17.1069C149.097 18.5037 148.255 19.7685 147.18 20.82C146.036 21.8792 144.693 22.6998 143.228 23.2338C141.763 23.7677 140.207 24.0044 138.65 23.93ZM134.22 17.22C134.791 17.812 135.481 18.2766 136.245 18.5834C137.008 18.8901 137.828 19.0321 138.65 19C139.469 19.0342 140.287 18.9 141.052 18.6059C141.817 18.3118 142.514 17.864 143.1 17.29C143.671 16.6844 144.114 15.9707 144.404 15.191C144.695 14.4112 144.826 13.5813 144.79 12.75C144.826 11.9174 144.697 11.0858 144.41 10.3032C144.124 9.5206 143.685 8.80242 143.12 8.19C141.907 7.0783 140.321 6.46164 138.675 6.46164C137.029 6.46164 135.443 7.0783 134.23 8.19C133.662 8.80068 133.22 9.51834 132.932 10.3012C132.643 11.0841 132.514 11.9165 132.55 12.75C132.519 13.5684 132.651 14.3849 132.938 15.1521C133.224 15.9193 133.66 16.6222 134.22 17.22Z" fill="#333333"/>
<path d="M163.64 11.18H174.64V20.71C172.393 22.8567 169.193 23.93 165.04 23.93C161.28 23.93 158.28 22.93 156.04 20.93C154.923 19.886 154.047 18.6122 153.47 17.1966C152.893 15.7809 152.631 14.257 152.7 12.73C152.629 11.1989 152.887 9.67044 153.456 8.24736C154.025 6.82428 154.893 5.53967 156 4.48C158.371 2.38 161.466 1.28601 164.63 1.43C168.47 1.43 171.537 2.47333 173.83 4.56L170.46 8.29C168.841 6.98257 166.799 6.31375 164.72 6.41C163.869 6.36844 163.019 6.49743 162.218 6.78937C161.418 7.08132 160.684 7.53033 160.06 8.11C159.466 8.71198 159.004 9.43089 158.703 10.2211C158.401 11.0112 158.268 11.8554 158.31 12.7C158.258 13.5756 158.398 14.452 158.721 15.2675C159.044 16.083 159.542 16.8178 160.18 17.42C161.619 18.612 163.455 19.2157 165.32 19.11C166.874 19.183 168.414 18.797 169.75 18V15.7H163.64V11.18Z" fill="#333333"/>
<path d="M47.9 36.5H44.67V29.34H47.9V30.49H46V32.19H47.76V33.35H46V35.35H47.9V36.5Z" fill="#333333"/>
<path d="M54 36.5H52.33L50.12 31.31H50.05C50.1354 31.728 50.1789 32.1534 50.18 32.58V36.5H48.94V29.34H50.58L52.77 34.47H52.83C52.7564 34.0676 52.7229 33.659 52.73 33.25V29.34H54V36.5Z" fill="#333333"/>
<path d="M59.65 36.5H58.31V33.36H56.56V36.5H55.22V29.34H56.56V32.18H58.31V29.34H59.65V36.5Z" fill="#333333"/>
<path d="M64.3 36.5L63.89 34.69H62L61.59 36.5H60.28L62.05 29.31H63.86L65.64 36.5H64.3ZM63.64 33.5L63.26 31.83C63.26 31.73 63.18 31.48 63.1 31.07C63.02 30.66 63 30.4 63 30.27C63 30.55 62.9 30.86 62.84 31.2C62.78 31.54 62.6 32.31 62.33 33.51L63.64 33.5Z" fill="#333333"/>
<path d="M71.29 36.5H69.66L67.45 31.31H67.39C67.4719 31.7283 67.5121 32.1537 67.51 32.58V36.5H66.27V29.34H67.91L70.1 34.47H70.16C70.0952 34.0666 70.0651 33.6585 70.07 33.25V29.34H71.29V36.5Z" fill="#333333"/>
<path d="M74.93 30.4C74.7302 30.4089 74.5376 30.4774 74.3772 30.5969C74.2167 30.7163 74.0958 30.8811 74.03 31.07C73.7827 31.6611 73.6699 32.2999 73.7 32.94C73.7 34.6 74.13 35.43 75 35.43C75.4228 35.4165 75.8341 35.2886 76.19 35.06V36.25C75.7841 36.4966 75.3146 36.6183 74.84 36.6C74.4698 36.6094 74.1035 36.5221 73.7773 36.3467C73.4512 36.1714 73.1763 35.914 72.98 35.6C72.504 34.7793 72.2781 33.8374 72.33 32.89C72.2853 31.9503 72.5183 31.0181 73 30.21C73.1978 29.8974 73.4729 29.6411 73.7988 29.4659C74.1246 29.2907 74.4901 29.2026 74.86 29.21C75.1172 29.2108 75.3731 29.2478 75.62 29.32C75.8936 29.4091 76.1529 29.5371 76.39 29.7L76 30.8C75.85 30.7 75.69 30.61 75.53 30.52C75.3429 30.4313 75.1368 30.3901 74.93 30.4Z" fill="#333333"/>
<path d="M80.43 36.5H77.2V29.34H80.43V30.49H78.53V32.19H80.29V33.35H78.53V35.35H80.43V36.5Z" fill="#333333"/>
<path d="M87.86 31.54C87.9051 32.177 87.6967 32.806 87.28 33.29C87.062 33.503 86.8014 33.6675 86.5153 33.7727C86.2292 33.8778 85.9241 33.9212 85.62 33.9H85.29V36.5H84V29.34H85.82C87.16 29.34 87.86 30.07 87.86 31.54ZM85.29 32.75H85.54C85.674 32.7611 85.8088 32.7426 85.935 32.696C86.0611 32.6493 86.1754 32.5756 86.27 32.48C86.4535 32.2214 86.5387 31.9058 86.51 31.59C86.5336 31.2963 86.456 31.0034 86.29 30.76C86.2048 30.666 86.0992 30.5928 85.9814 30.546C85.8635 30.4992 85.7364 30.4801 85.61 30.49H85.29V32.75Z" fill="#333333"/>
<path d="M90.09 33.71V36.5H88.76V29.34H90.5C90.7942 29.3143 91.0905 29.347 91.3719 29.4363C91.6534 29.5255 91.9144 29.6695 92.14 29.86C92.3306 30.0779 92.4757 30.3317 92.5667 30.6064C92.6577 30.8812 92.6928 31.1714 92.67 31.46C92.7091 31.831 92.6437 32.2055 92.4811 32.5413C92.3185 32.877 92.0653 33.1606 91.75 33.36L93.13 36.5H91.7L90.57 33.71H90.09ZM90.09 32.57H90.44C90.5652 32.5823 90.6915 32.5642 90.8081 32.5172C90.9248 32.4702 91.0284 32.3957 91.11 32.3C91.2659 32.0636 91.3397 31.7825 91.32 31.5C91.3466 31.2217 91.2681 30.9434 91.1 30.72C91.0107 30.6368 90.9049 30.5733 90.7895 30.5337C90.674 30.4941 90.5516 30.4792 90.43 30.49H90.09V32.57Z" fill="#333333"/>
<path d="M98.71 32.91C98.7591 33.8713 98.5112 34.8244 98 35.64C97.7972 35.9572 97.5154 36.2161 97.1823 36.3915C96.8492 36.5668 96.4762 36.6524 96.1 36.64C95.7211 36.652 95.3454 36.5663 95.0092 36.3912C94.6729 36.2161 94.3874 35.9574 94.18 35.64C93.6896 34.8138 93.4596 33.8589 93.52 32.9C93.4591 31.9442 93.6892 30.9924 94.18 30.17C94.3881 29.8533 94.6738 29.5952 95.0098 29.4201C95.3459 29.2451 95.7212 29.159 96.1 29.17C96.4777 29.1568 96.8524 29.242 97.1873 29.4174C97.5221 29.5927 97.8056 29.852 98.01 30.17C98.5167 30.9908 98.7609 31.9467 98.71 32.91ZM94.92 32.91C94.8859 33.5485 94.9917 34.1867 95.23 34.78C95.3012 34.9648 95.4258 35.1243 95.5878 35.2382C95.7498 35.3522 95.942 35.4154 96.14 35.42C96.94 35.42 97.34 34.58 97.34 32.91C97.34 31.24 96.94 30.4 96.14 30.4C95.942 30.4046 95.7498 30.4678 95.5878 30.5818C95.4258 30.6957 95.3012 30.8552 95.23 31.04C94.9908 31.6331 94.8849 32.2715 94.92 32.91Z" fill="#333333"/>
<path d="M99.19 38.57C98.9084 38.5801 98.6272 38.5394 98.36 38.45V37.28C98.5569 37.3447 98.7627 37.3785 98.97 37.38C99.0824 37.3917 99.196 37.3739 99.2995 37.3283C99.403 37.2827 99.4927 37.2109 99.56 37.12C99.7039 36.8902 99.7705 36.6204 99.75 36.35V29.35H101.08V36.29C101.094 36.7086 101.015 37.1251 100.85 37.51C100.706 37.834 100.474 38.1111 100.18 38.31C99.8812 38.4886 99.5379 38.5787 99.19 38.57Z" fill="#333333"/>
<path d="M105.58 36.5H102.35V29.34H105.58V30.49H103.68V32.19H105.44V33.35H103.68V35.35H105.58V36.5Z" fill="#333333"/>
<path d="M109 30.4C108.798 30.4069 108.604 30.4746 108.441 30.5941C108.279 30.7137 108.156 30.8796 108.09 31.07C107.843 31.6611 107.73 32.2999 107.76 32.94C107.76 34.6 108.2 35.43 109.06 35.43C109.483 35.419 109.895 35.291 110.25 35.06V36.25C109.848 36.4969 109.382 36.6187 108.91 36.6C108.539 36.6124 108.172 36.5265 107.845 36.3508C107.518 36.1752 107.244 35.9161 107.05 35.6C106.574 34.7793 106.348 33.8374 106.4 32.89C106.342 31.9364 106.576 30.9877 107.07 30.17C107.268 29.8574 107.543 29.6011 107.869 29.4259C108.195 29.2507 108.56 29.1626 108.93 29.17C109.184 29.1708 109.437 29.2079 109.68 29.28C109.954 29.3675 110.214 29.4956 110.45 29.66L110 30.8C109.85 30.6965 109.693 30.6029 109.53 30.52C109.365 30.4407 109.183 30.3996 109 30.4Z" fill="#333333"/>
<path d="M113.47 36.5H112.14V30.5H110.77V29.34H114.84V30.51H113.47V36.5Z" fill="#333333"/>
<path d="M122 31.54C122.045 32.177 121.837 32.806 121.42 33.29C121.202 33.503 120.941 33.6675 120.655 33.7727C120.369 33.8778 120.064 33.9212 119.76 33.9H119.43V36.5H118.09V29.34H119.91C121.29 29.34 122 30.07 122 31.54ZM119.43 32.75H119.68C119.814 32.7611 119.949 32.7426 120.075 32.696C120.201 32.6493 120.315 32.5756 120.41 32.48C120.594 32.2214 120.679 31.9058 120.65 31.59C120.674 31.2963 120.596 31.0034 120.43 30.76C120.345 30.666 120.239 30.5928 120.121 30.546C120.003 30.4992 119.876 30.4801 119.75 30.49H119.43V32.75Z" fill="#333333"/>
<path d="M126.12 36.5H122.89V29.34H126.12V30.49H124.22V32.19H126V33.35H124.24V35.35H126.14L126.12 36.5Z" fill="#333333"/>
<path d="M128.5 33.71V36.5H127.16V29.34H128.91C129.203 29.3146 129.497 29.3474 129.777 29.4367C130.057 29.5259 130.316 29.6698 130.54 29.86C130.731 30.0779 130.876 30.3317 130.967 30.6064C131.058 30.8812 131.093 31.1714 131.07 31.46C131.109 31.831 131.044 32.2055 130.881 32.5413C130.719 32.877 130.465 33.1606 130.15 33.36L131.53 36.5H130.1L129 33.71H128.5ZM128.5 32.57H128.84C128.967 32.5815 129.094 32.5631 129.212 32.5162C129.33 32.4692 129.436 32.3952 129.52 32.3C129.667 32.0602 129.737 31.7809 129.72 31.5C129.747 31.2217 129.668 30.9434 129.5 30.72C129.411 30.6357 129.306 30.5716 129.19 30.5319C129.074 30.4922 128.952 30.4779 128.83 30.49H128.5V32.57Z" fill="#333333"/>
<path d="M133.5 36.5H132.18V29.34H135.39V30.49H133.5V32.49H135.26V33.64H133.5V36.5Z" fill="#333333"/>
<path d="M141.22 32.91C141.281 33.8671 141.047 34.8199 140.55 35.64C140.347 35.9572 140.065 36.2161 139.732 36.3915C139.399 36.5668 139.026 36.6524 138.65 36.64C138.271 36.652 137.895 36.5663 137.559 36.3912C137.223 36.2161 136.937 35.9574 136.73 35.64C136.24 34.8138 136.01 33.8589 136.07 32.9C136.009 31.9442 136.239 30.9924 136.73 30.17C136.94 29.8525 137.227 29.594 137.565 29.4189C137.903 29.2439 138.28 29.1582 138.66 29.17C139.036 29.1576 139.409 29.2432 139.742 29.4185C140.075 29.5939 140.357 29.8528 140.56 30.17C141.053 30.9953 141.283 31.9509 141.22 32.91ZM137.43 32.91C137.396 33.5485 137.502 34.1867 137.74 34.78C137.811 34.9648 137.936 35.1243 138.098 35.2382C138.26 35.3522 138.452 35.4154 138.65 35.42C139.45 35.42 139.85 34.58 139.85 32.91C139.85 31.24 139.45 30.4 138.66 30.4C138.46 30.4026 138.266 30.4649 138.102 30.579C137.938 30.6931 137.812 30.8536 137.74 31.04C137.501 31.6331 137.395 32.2715 137.43 32.91Z" fill="#333333"/>
<path d="M143.59 33.71V36.5H142.26V29.34H144C144.293 29.3151 144.587 29.3482 144.867 29.4375C145.147 29.5267 145.406 29.6703 145.63 29.86C145.821 30.0779 145.966 30.3317 146.057 30.6064C146.148 30.8812 146.183 31.1714 146.16 31.46C146.199 31.831 146.134 32.2055 145.971 32.5413C145.809 32.877 145.555 33.1606 145.24 33.36L146.62 36.5H145.2L144.07 33.71H143.59ZM143.59 32.57H143.94C144.065 32.5824 144.191 32.5643 144.308 32.5172C144.425 32.4702 144.528 32.3957 144.61 32.3C144.766 32.0636 144.84 31.7825 144.82 31.5C144.847 31.2217 144.768 30.9434 144.6 30.72C144.511 30.6357 144.406 30.5716 144.29 30.5319C144.174 30.4922 144.052 30.4779 143.93 30.49H143.59V32.57Z" fill="#333333"/>
<path d="M149.84 36.5L148.48 30.4H148.42C148.477 30.8277 148.507 31.2585 148.51 31.69V36.5H147.28V29.34H149.33L150.55 35L151.77 29.37H153.85V36.5H152.58V31.64C152.579 31.229 152.602 30.8182 152.65 30.41L151.29 36.5H149.84Z" fill="#333333"/>
<path d="M158.54 36.5L158.13 34.69H156.26L155.85 36.5H154.52L156.29 29.31H158.1L159.88 36.5H158.54ZM157.88 33.5L157.5 31.83C157.5 31.73 157.42 31.48 157.34 31.07C157.26 30.66 157.21 30.39 157.2 30.26C157.2 30.54 157.1 30.85 157.04 31.19C156.98 31.53 156.8 32.3 156.53 33.5H157.88Z" fill="#333333"/>
<path d="M165.53 36.5H163.9L161.69 31.31H161.62C161.705 31.728 161.749 32.1534 161.75 32.58V36.5H160.51V29.34H162.15L164.34 34.47H164.4C164.326 34.0676 164.293 33.659 164.3 33.25V29.34H165.53V36.5Z" fill="#333333"/>
<path d="M169.17 30.4C168.97 30.4089 168.778 30.4775 168.617 30.5969C168.457 30.7163 168.336 30.8811 168.27 31.07C168.014 31.6587 167.897 32.2988 167.93 32.94C167.93 34.6 168.37 35.43 169.23 35.43C169.653 35.419 170.065 35.291 170.42 35.06V36.25C170.018 36.4969 169.551 36.6187 169.08 36.6C168.709 36.6124 168.342 36.5265 168.015 36.3508C167.688 36.1752 167.414 35.9161 167.22 35.6C166.744 34.7793 166.518 33.8374 166.57 32.89C166.512 31.9364 166.746 30.9877 167.24 30.17C167.438 29.8574 167.713 29.6011 168.039 29.4259C168.365 29.2507 168.73 29.1626 169.1 29.17C169.354 29.1708 169.607 29.2079 169.85 29.28C170.124 29.3675 170.384 29.4956 170.62 29.66L170.18 30.74C170.03 30.6365 169.873 30.5429 169.71 30.46C169.537 30.3986 169.352 30.3781 169.17 30.4Z" fill="#333333"/>
<path d="M174.67 36.5H171.44V29.34H174.67V30.49H172.77V32.19H174.53V33.35H172.77V35.35H174.67V36.5Z" fill="#333333"/>
<path d="M17.33 0L13.33 2.31V6.82L34.67 19.14V10L17.33 0Z" fill="#16A1E7"/>
<path d="M0 30L17.33 40L21.33 37.69V33.18L0 20.86V30Z" fill="#16A1E7"/>
<path d="M8 8.12V5.38L0 10V14.86L26.67 30.26V31.88V34.62L34.67 30V25.14L8 9.74V8.12Z" fill="#16A1E7"/>
</g>
<defs>
<clipPath id="clip0_237_366">
<rect width="174.67" height="40" fill="white"/>
</clipPath>
</defs>
</svg>
