<svg width="60" height="60" viewBox="0 0 60 60" fill="none" xmlns="http://www.w3.org/2000/svg">
<path d="M1.51444 39.4345C1.29844 38.7945 1.10564 38.1369 0.936035 37.4617L3.17043 36.8881C3.33043 37.5025 3.50804 38.1089 3.70324 38.7073L1.51444 39.4345Z" fill="#16A1E7"/>
<path d="M0.3624 34.6824C0.121289 33.1333 0.000129278 31.5678 0 30C0.00149727 24.3339 1.60759 18.7841 4.63237 13.9929C7.65715 9.20166 11.9769 5.36502 17.0917 2.92703C22.2065 0.489035 27.9072 -0.450625 33.5338 0.216812C39.1605 0.884248 44.4831 3.13149 48.8856 6.69843L52.5984 2.98322C52.9213 2.66056 53.3326 2.44085 53.7803 2.35186C54.228 2.26287 54.692 2.30859 55.1138 2.48324C55.5355 2.6579 55.896 2.95365 56.1497 3.33312C56.4034 3.71259 56.539 4.15875 56.5392 4.61522V17.3088C56.5379 17.9189 56.2955 18.5037 55.8648 18.9358C55.4341 19.3678 54.8501 19.6121 54.24 19.6152H41.5392C41.0824 19.6157 40.6358 19.4805 40.2559 19.2268C39.8761 18.9731 39.5801 18.6123 39.4056 18.1902C39.231 17.7681 39.1857 17.3036 39.2755 16.8558C39.3652 16.4079 39.5859 15.9967 39.9096 15.6744L43.9536 11.628C40.5324 9.02727 36.4528 7.43386 32.1746 7.02742C27.8963 6.62098 23.5896 7.41767 19.7399 9.32768C15.8902 11.2377 12.6506 14.1851 10.3862 17.8376C8.12177 21.4901 6.92266 25.7025 6.924 30C6.924 30.7392 6.9576 31.4784 7.0248 32.1984L4.728 32.4168C4.6536 31.6248 4.6152 30.8112 4.6152 30C4.6132 25.155 5.99831 20.4107 8.60683 16.3278C11.2153 12.2449 14.9382 8.99414 19.3354 6.95973C23.7326 4.92532 28.6204 4.19229 33.4209 4.8473C38.2215 5.50231 42.7341 7.51796 46.4256 10.656L47.3856 11.4672L41.5392 17.3088H54.24V4.61522L49.008 9.84002L48.1944 9.12003C44.1878 5.62522 39.2596 3.35793 33.9989 2.5891C28.7381 1.82027 23.3672 2.58241 18.5281 4.78446C13.6889 6.9865 9.58605 10.5353 6.70988 15.0068C3.8337 19.4783 2.30582 24.6834 2.3088 30C2.30746 31.4464 2.41819 32.8907 2.64 34.32L0.3624 34.6824Z" fill="#16A1E7"/>
<path d="M56.8297 23.112C56.6697 22.4976 56.4921 21.8912 56.2969 21.2928L58.4857 20.5728C58.7017 21.2208 58.8945 21.8776 59.0641 22.5432L56.8297 23.112Z" fill="#16A1E7"/>
<path d="M30.0001 60C23.1229 60.0001 16.4548 57.6351 11.1145 53.3016L7.40174 57.0168C7.07885 57.3395 6.66756 57.5592 6.21985 57.6482C5.77214 57.7372 5.30809 57.6915 4.88635 57.5168C4.46461 57.3422 4.10411 57.0464 3.8504 56.6669C3.59669 56.2875 3.46116 55.8413 3.46094 55.3848V42.6912C3.4622 42.0812 3.70461 41.4964 4.13531 41.0643C4.56602 40.6323 5.15008 40.388 5.76014 40.3848H18.4609C18.9177 40.3844 19.3643 40.5196 19.7442 40.7733C20.124 41.027 20.42 41.3878 20.5946 41.8099C20.7691 42.232 20.8144 42.6964 20.7247 43.1443C20.6349 43.5922 20.4142 44.0034 20.0905 44.3256L16.0465 48.372C19.4677 50.9728 23.5474 52.5662 27.8256 52.9726C32.1038 53.3791 36.4105 52.5824 40.2602 50.6724C44.1099 48.7624 47.3496 45.815 49.614 42.1625C51.8784 38.51 53.0775 34.2975 53.0761 30C53.0801 29.3029 53.0488 28.606 52.9825 27.912L55.2817 27.696C55.3537 28.4688 55.3849 29.1576 55.3849 30C55.3869 34.8451 54.0018 39.5894 51.3933 43.6723C48.7848 47.7552 45.0619 51.0059 40.6647 53.0403C36.2675 55.0748 31.3798 55.8078 26.5792 55.1528C21.7787 54.4978 17.266 52.4821 13.5745 49.344L12.6145 48.5328L18.4561 42.6912H5.76014V55.3848L10.9921 50.16L11.8057 50.88C16.0925 54.6145 21.4245 56.9394 27.078 57.5392C32.7316 58.1389 38.4327 56.9844 43.4076 54.2324C48.3824 51.4804 52.3898 47.2643 54.8859 42.1563C57.3821 37.0483 58.2459 31.2959 57.3601 25.68L59.6425 25.3224C59.8815 26.8702 60.0011 28.434 60.0001 30C59.9912 37.9538 56.8277 45.5793 51.2035 51.2034C45.5794 56.8276 37.9539 59.9911 30.0001 60Z" fill="#16A1E7"/>
<path d="M15.0937 21.1968L13.1089 20.0208C14.8512 17.0915 17.3232 14.664 20.2836 12.9751C23.2441 11.2863 26.5918 10.3938 30.0001 10.3848V12.6912C26.9922 12.6996 24.0378 13.4876 21.4253 14.9783C18.8127 16.4691 16.6312 18.6116 15.0937 21.1968Z" fill="#16A1E7"/>
<path d="M13.5554 24.5905L11.3618 23.8705C11.5826 23.2032 11.9138 22.3536 12.2066 21.7104L14.309 22.6704C14.0498 23.2272 13.7474 24.0001 13.5554 24.5905Z" fill="#16A1E7"/>
<path d="M30 49.6152C28.8144 49.6152 27.6313 49.5084 26.4648 49.296L26.88 47.04C29.6882 47.5449 32.5772 47.3579 35.2968 46.4952L36.0024 48.6912C34.0619 49.3095 32.0367 49.6213 30 49.6152Z" fill="#16A1E7"/>
<path d="M38.7478 47.5632L37.7158 45.4992C38.3343 45.1882 38.9345 44.842 39.5134 44.4624L40.783 46.3824C40.129 46.8166 39.4494 47.2109 38.7478 47.5632Z" fill="#16A1E7"/>
<path d="M36.9239 39.2305H23.0759C22.4644 39.2298 21.8782 38.9866 21.4458 38.5542C21.0134 38.1218 20.7702 37.5356 20.7695 36.9241V26.5393C20.7727 25.9292 21.0169 25.3451 21.449 24.9144C21.881 24.4837 22.4659 24.2413 23.0759 24.2401H36.9239C37.5356 24.2413 38.1219 24.4851 38.5542 24.9178C38.9866 25.3506 39.2297 25.9371 39.2303 26.5489V36.9337C39.2272 37.5435 38.9828 38.1273 38.5507 38.5576C38.1186 38.9879 37.5338 39.2298 36.9239 39.2305ZM23.0759 26.5393V36.9241H36.9239V26.5393H23.0759Z" fill="#16A1E7"/>
<path d="M38.0782 28.8456H21.9238V31.1544H38.0782V28.8456Z" fill="#16A1E7"/>
<path d="M27.6936 30H25.3848V33.4608H27.6936V30Z" fill="#16A1E7"/>
<path d="M34.6174 30H32.3086V33.4608H34.6174V30Z" fill="#16A1E7"/>
<path d="M34.6152 25.3848H32.3088V24.24C32.3088 23.6277 32.0655 23.0404 31.6325 22.6075C31.1995 22.1745 30.6123 21.9312 30 21.9312C29.3876 21.9312 28.8004 22.1745 28.3674 22.6075C27.9344 23.0404 27.6912 23.6277 27.6912 24.24V25.3944H25.3848V24.24C25.3848 23.016 25.871 21.8421 26.7365 20.9766C27.602 20.1111 28.7759 19.6248 30 19.6248C31.224 19.6248 32.3979 20.1111 33.2634 20.9766C34.1289 21.8421 34.6152 23.016 34.6152 24.24V25.3848Z" fill="#16A1E7"/>
</svg>
