<svg width="60" height="58" viewBox="0 0 60 58" fill="none" xmlns="http://www.w3.org/2000/svg">
<path d="M26.2913 32.8342C25.0501 32.8344 23.8298 32.5143 22.7484 31.9048C21.6671 31.2954 20.7613 30.4172 20.1187 29.3553C19.4761 28.2933 19.1183 27.0835 19.0801 25.8429C19.0418 24.6022 19.3244 23.3727 19.9003 22.2732C20.4763 21.1737 21.3263 20.2414 22.368 19.5665C23.4097 18.8916 24.608 18.4969 25.8469 18.4206C27.0858 18.3443 28.3234 18.589 29.4401 19.131C30.5568 19.6729 31.5147 20.4939 32.2212 21.5144L30.5282 22.691C29.8281 21.6802 28.7892 20.9537 27.5996 20.643C26.4099 20.3323 25.1484 20.458 24.0435 20.9974C22.9386 21.5368 22.0635 22.4541 21.5767 23.5832C21.09 24.7122 21.0237 25.9783 21.3901 27.152C21.7564 28.3257 22.5311 29.3293 23.5737 29.981C24.6163 30.6326 25.8578 30.8893 27.0734 30.7044C28.2889 30.5195 29.398 29.9053 30.1997 28.973C31.0013 28.0408 31.4425 26.8522 31.4433 25.6227H33.5028C33.5005 27.5346 32.74 29.3676 31.3881 30.7195C30.0362 32.0714 28.2032 32.8319 26.2913 32.8342Z" fill="#16A1E7"/>
<path d="M26.2914 41.0766C23.6322 41.0757 21.0182 40.3888 18.7021 39.0822C16.386 37.7756 14.4462 35.8936 13.0702 33.618C11.6943 31.3424 10.9287 28.7503 10.8475 26.0923C10.7664 23.4344 11.3724 20.8004 12.6069 18.4451C13.8415 16.0898 15.6628 14.0929 17.8949 12.6474C20.127 11.202 22.6942 10.3568 25.3484 10.1938C28.0027 10.0307 30.6541 10.5552 33.0463 11.7165C35.4385 12.8779 37.4906 14.6368 39.0042 16.8232L37.3069 18.0019C35.3969 15.2466 32.5195 13.3115 29.2473 12.5815C25.9751 11.8516 22.5481 12.3805 19.6482 14.0629C16.7483 15.7454 14.5882 18.4579 13.5977 21.6609C12.6072 24.8638 12.859 28.3223 14.3029 31.348C15.7468 34.3737 18.2771 36.7448 21.3901 37.9895C24.5031 39.2342 27.9706 39.2611 31.1025 38.065C34.2345 36.8689 36.8013 34.5374 38.2921 31.5345C39.7829 28.5316 40.0884 25.0775 39.1478 21.8595L41.1259 21.2787C41.7996 23.5833 41.9275 26.013 41.4995 28.3756C41.0715 30.7381 40.0993 32.9686 38.66 34.8903C37.2207 36.8121 35.3537 38.3723 33.2069 39.4476C31.0601 40.5228 28.6924 41.0834 26.2914 41.0851V41.0766Z" fill="#16A1E7"/>
<path d="M26.2915 49.321C22.3841 49.3223 18.537 48.3574 15.0928 46.5122C11.6485 44.6671 8.71391 41.9989 6.55028 38.7452C4.38664 35.4916 3.06109 31.7534 2.69163 27.8635C2.32217 23.9736 2.92027 20.0528 4.43268 16.45C5.9451 12.8472 8.32489 9.67423 11.3602 7.21363C14.3955 4.75304 17.9921 3.08114 21.8299 2.34679C25.6676 1.61244 29.6274 1.83842 33.3567 3.00462C37.086 4.17081 40.469 6.24104 43.2047 9.03098L41.7346 10.4733C37.9279 6.60392 32.8033 4.31074 27.3816 4.05064C21.9599 3.79054 16.6393 5.58261 12.4798 9.06979C8.32023 12.557 5.62719 17.4833 4.9372 22.8671C4.24722 28.251 5.61094 33.6972 8.75667 38.1206C11.9024 42.544 16.5992 45.6199 21.9112 46.7354C27.2233 47.8509 32.7606 46.9242 37.4199 44.1398C42.0793 41.3554 45.5185 36.9178 47.0525 31.7112C48.5865 26.5045 48.1026 20.9111 45.6971 16.0453L47.5445 15.1302C49.1634 18.3934 50.0006 21.9886 49.9897 25.6313C49.9801 31.9127 47.4799 37.934 43.0375 42.3748C38.5951 46.8157 32.5729 49.3136 26.2915 49.321Z" fill="#16A1E7"/>
<path d="M11.6925 3.15679L10.5674 1.44232C11.1139 1.08657 11.5875 0.799392 12.1576 0.480072L13.1627 2.28026C12.644 2.57172 12.1961 2.82889 11.6925 3.15679Z" fill="#16A1E7"/>
<path d="M1.87734 14.573L0 13.7286C1.95832 9.32849 5.01325 5.50466 8.87238 2.62314L10.1047 4.28617C6.52704 6.95449 3.69422 10.4964 1.87734 14.573Z" fill="#16A1E7"/>
<path d="M52.3837 6.15365L24.9482 25.2246L26.1234 26.9152L53.5588 7.8442L52.3837 6.15365Z" fill="#16A1E7"/>
<path d="M18.1746 46.7529L14.3862 56.1483L16.2983 56.9193L20.0866 47.5239L18.1746 46.7529Z" fill="#16A1E7"/>
<path d="M34.4146 46.7567L32.4966 47.5127L36.2 56.9096L38.1181 56.1537L34.4146 46.7567Z" fill="#16A1E7"/>
<path d="M53.08 55.5017H1.56445V57.5633H53.08V55.5017Z" fill="#16A1E7"/>
<path d="M57.2033 55.5017H55.1416V57.5633H57.2033V55.5017Z" fill="#16A1E7"/>
<path d="M57.2008 27.6822H52.0488V29.7439H57.2008V27.6822Z" fill="#16A1E7"/>
<path d="M50.8041 37.7207L49.6836 39.4487L54.3228 42.4569L55.4433 40.7289L50.8041 37.7207Z" fill="#16A1E7"/>
<path d="M44.9236 45.8885L43.4673 47.3448L46.733 50.6105L48.1893 49.1542L44.9236 45.8885Z" fill="#16A1E7"/>
<path d="M51.8153 14.2772L45.8618 12.0742V5.49487L54.1106 0V6.37354L60.0062 8.69236L51.8153 14.2772ZM47.9278 10.634L51.5346 11.9691L55.6214 9.18313L52.0489 7.77941V3.85756L47.9278 6.59856V10.634Z" fill="#16A1E7"/>
</svg>
