<svg width="60" height="60" viewBox="0 0 60 60" fill="none" xmlns="http://www.w3.org/2000/svg">
<path d="M35.4839 59.2244H24.5159V55.3464C21.3684 54.6838 18.3716 53.4415 15.6785 51.6828L12.9411 54.4202L5.18505 46.6641L7.92248 43.9267C6.16415 41.2326 4.92185 38.2351 4.25888 35.0871H0.387695V24.1282H4.26573C4.92565 20.9789 6.16566 17.9798 7.92248 15.284L5.18505 12.5466L12.9411 4.79051L15.6785 7.52794C18.3726 5.77407 21.3694 4.5364 24.5159 3.87803V0H35.4839V3.87803C38.6311 4.53639 41.6286 5.77405 44.3235 7.52794L47.061 4.79051L54.817 12.5466L52.0796 15.284C53.8383 17.9779 55.0806 20.9754 55.7432 24.1236H59.6212V35.0916H55.7432C55.0807 38.2413 53.8384 41.2403 52.0796 43.9358L54.817 46.6733L47.061 54.4293L44.3235 51.6919C41.6296 53.4506 38.6321 54.6929 35.4839 55.3555V59.2244ZM26.7104 57.0299H33.2917V53.5282L34.2041 53.3686C37.6702 52.7663 40.9596 51.4028 43.8353 49.3765L44.5904 48.8472L47.061 51.3269L51.7146 46.6755L49.2372 44.1982L49.7664 43.4431C51.7904 40.5662 53.1529 37.2772 53.7563 33.8119L53.9159 32.8994H57.4176V26.3204H53.9159L53.7563 25.408C53.1534 21.9418 51.7908 18.6519 49.7664 15.7745L49.2372 15.0217L51.7146 12.5466L47.061 7.89294L44.5836 10.3749L43.8285 9.84564C40.9521 7.82088 37.6629 6.45832 34.1973 5.85583L33.2848 5.69614V2.19451H26.7104V5.70299L25.7979 5.86267C22.3347 6.46462 19.0474 7.82473 16.1713 9.84564L15.4162 10.3749L12.9388 7.8975L8.28747 12.5466L10.7626 15.0285L10.2356 15.7813C8.20961 18.6581 6.84623 21.9482 6.24352 25.4148L6.08384 26.3273H2.58221V32.9085H6.08384L6.24352 33.821C6.84663 37.2868 8.20998 40.576 10.2356 43.4522L10.7626 44.2073L8.28747 46.6733L12.9388 51.3269L15.4162 48.8495L16.1713 49.3788C19.0467 51.4076 22.3359 52.7741 25.8025 53.38L26.715 53.5397L26.7104 57.0299Z" fill="#16A1E7"/>
<path d="M4.03342 11.2851L2.23584 10.0373C4.4342 6.8188 7.19628 4.02426 10.3888 1.78845L11.6344 3.58832C8.65753 5.67481 6.08247 8.28234 4.03342 11.2851Z" fill="#16A1E7"/>
<path d="M1.93445 14.6361L0 13.6005C0.333055 12.9785 0.684359 12.3701 1.05391 11.7755L2.91993 12.9298C2.57547 13.4818 2.24698 14.0544 1.93445 14.6361Z" fill="#16A1E7"/>
<path d="M49.5499 57.3994L48.293 55.6041C51.2873 53.5363 53.8832 50.9443 55.9555 47.953L57.7508 49.2099C55.5337 52.4122 52.7552 55.1867 49.5499 57.3994Z" fill="#16A1E7"/>
<path d="M58.9461 47.4489L57.0801 46.3083C57.4268 45.7471 57.7553 45.176 58.0656 44.5951L59.9955 45.6239C59.6654 46.2444 59.3157 46.8527 58.9461 47.4489Z" fill="#16A1E7"/>
<path d="M31.0858 34.3594L29.2426 33.3602L31.5603 29.0875H26.2861L29.1103 21.7854L31.0652 22.5405L29.3452 26.9911H35.0824L31.0858 34.3594Z" fill="#16A1E7"/>
<path d="M31.8772 43.767H28.1223C27.7468 43.7677 27.3748 43.6937 27.0282 43.5492C26.6816 43.4046 26.3672 43.1925 26.1035 42.9252C25.5799 42.3906 25.2853 41.6729 25.2822 40.9246V37.4755H34.7195V40.9246C34.7195 41.6785 34.4201 42.4014 33.887 42.9345C33.354 43.4675 32.631 43.767 31.8772 43.767ZM27.3741 39.5719V40.9246C27.3773 41.1276 27.4591 41.3213 27.6022 41.4653C27.6692 41.5321 27.7489 41.5848 27.8367 41.6201C27.9246 41.6554 28.0186 41.6725 28.1132 41.6706H31.868C31.9667 41.6718 32.0645 41.6534 32.156 41.6164C32.2474 41.5794 32.3306 41.5246 32.4006 41.4552C32.4707 41.3858 32.5262 41.3031 32.564 41.2121C32.6018 41.121 32.6211 41.0233 32.6208 40.9246V39.5719H27.3741Z" fill="#16A1E7"/>
<path d="M34.6219 38.9651L32.7194 38.096C32.8471 37.8199 35.856 31.3094 36.9556 29.1035C37.5419 27.9663 37.8543 26.7078 37.8681 25.4285C37.8329 23.3659 36.9889 21.3997 35.5179 19.9535C34.0468 18.5073 32.0665 17.6969 30.0036 17.6969C27.9408 17.6969 25.9605 18.5073 24.4894 19.9535C23.0184 21.3997 22.1744 23.3659 22.1392 25.4285C22.153 26.7078 22.4654 27.9663 23.0517 29.1035C24.1512 31.3094 27.1578 37.8199 27.2879 38.096L25.3854 38.9765C25.3557 38.9081 22.2601 32.2173 21.1743 30.0388C20.4448 28.6107 20.0589 27.032 20.0474 25.4285C20.0869 22.8128 21.1538 20.3177 23.0175 18.4819C24.8812 16.6462 27.3922 15.6172 30.0082 15.6172C32.6242 15.6172 35.1352 16.6462 36.9989 18.4819C38.8626 20.3177 39.9295 22.8128 39.969 25.4285C39.9534 27.0332 39.5628 28.6119 38.8284 30.0388C37.7472 32.2059 34.6539 38.8967 34.6219 38.9651Z" fill="#16A1E7"/>
</svg>
