<svg width="80" height="74" viewBox="0 0 80 74" fill="none" xmlns="http://www.w3.org/2000/svg">
<g clip-path="url(#clip0_71_663)">
<path d="M4.52833 7.54712H1.50946V10.566H4.52833V7.54712Z" fill="#16A1E7"/>
<path d="M62.3396 35.1697L57.1924 26.3395C56.2165 24.6544 54.9899 23.1275 53.5547 21.8112L55.5924 19.6226C57.2514 21.1412 58.6713 22.902 59.8037 24.8452L64.9056 33.6452L62.3396 35.1697Z" fill="#16A1E7"/>
<path d="M51.6226 20.2566C50.9427 19.7682 50.2318 19.3245 49.4943 18.9283L50.9132 16.2717C51.7641 16.7228 52.5859 17.227 53.3736 17.7812L51.6226 20.2566Z" fill="#16A1E7"/>
<path d="M62.717 64.9056H6.03772V61.8867H62.717C64.9591 61.8858 67.1615 61.2939 69.1019 60.1705C71.0424 59.0472 72.6525 57.4322 73.7699 55.4883C74.8873 53.5443 75.4724 51.3402 75.4665 49.098C75.4605 46.8559 74.8635 44.6549 73.7358 42.7169L62.4 23.2905C60.1399 19.4187 56.9049 16.2066 53.0172 13.974C49.1295 11.7415 44.7247 10.5665 40.2415 10.566H7.54715V7.54712H40.2415C45.2508 7.55565 50.171 8.87196 54.5154 11.3658C58.8598 13.8597 62.4778 17.4446 65.0113 21.766L76.3472 41.1924C77.7416 43.5861 78.481 46.3048 78.491 49.075C78.501 51.8453 77.7813 54.5693 76.4042 56.973C75.0272 59.3767 73.0413 61.3754 70.6466 62.7679C68.2518 64.1605 65.5325 64.8978 62.7622 64.9056H62.717Z" fill="#16A1E7"/>
<path d="M73.4642 40.7547H57.3585C56.6439 40.7515 55.943 40.5583 55.3276 40.1949C54.7122 39.8315 54.2046 39.311 53.8566 38.6868L37.917 9.78116L40.5736 8.27173L56.4679 37.2227C56.553 37.3834 56.6818 37.5168 56.8393 37.6075C56.9968 37.6983 57.1768 37.7428 57.3585 37.7359H73.5095L73.4642 40.7547Z" fill="#16A1E7"/>
<path d="M25.6603 0H22.6415V3.01887H25.6603V0Z" fill="#16A1E7"/>
<path d="M69.434 0H28.6793V3.01887H69.434V0Z" fill="#16A1E7"/>
<path d="M13.5849 19.6226H10.566V22.6414H13.5849V19.6226Z" fill="#16A1E7"/>
<path d="M27.1698 19.6226H16.6038V22.6414H27.1698V19.6226Z" fill="#16A1E7"/>
<path d="M12.0754 31.698H9.05658V34.7169H12.0754V31.698Z" fill="#16A1E7"/>
<path d="M37.7359 31.698H15.0944V34.7169H37.7359V31.698Z" fill="#16A1E7"/>
<path d="M7.54719 46.7925H4.52832V49.8113H7.54719V46.7925Z" fill="#16A1E7"/>
<path d="M24.1509 46.7925H10.566V49.8113H24.1509V46.7925Z" fill="#16A1E7"/>
<path d="M74.3698 58.868H31.6981C30.8975 58.868 30.1296 58.55 29.5635 57.9838C28.9973 57.4177 28.6793 56.6498 28.6793 55.8492V46.7925C28.6793 45.9919 28.9973 45.224 29.5635 44.6579C30.1296 44.0917 30.8975 43.7737 31.6981 43.7737H76.4529V46.7925H31.6981V55.8492H74.3698V58.868Z" fill="#16A1E7"/>
<path d="M80 61.8867H58.8679V64.9056H80V61.8867Z" fill="#16A1E7"/>
<path d="M80 70.9434H6.03772V73.9622H80V70.9434Z" fill="#16A1E7"/>
<path d="M3.01887 70.9434H0V73.9622H3.01887V70.9434Z" fill="#16A1E7"/>
</g>
<defs>
<clipPath id="clip0_71_663">
<rect width="80" height="73.9623" fill="white"/>
</clipPath>
</defs>
</svg>
