<svg width="60" height="60" viewBox="0 0 60 60" fill="none" xmlns="http://www.w3.org/2000/svg">
<path d="M35.4839 59.2244H24.5159V55.3464C21.3684 54.6838 18.3716 53.4415 15.6785 51.6828L12.9411 54.4202L5.18505 46.6641L7.92248 43.9267C6.16415 41.2326 4.92185 38.2351 4.25888 35.0871H0.387695V24.1282H4.26573C4.92565 20.9789 6.16566 17.9798 7.92248 15.284L5.18505 12.5466L12.9411 4.79051L15.6785 7.52794C18.3726 5.77407 21.3694 4.5364 24.5159 3.87803V0H35.4839V3.87803C38.6311 4.53639 41.6286 5.77405 44.3235 7.52794L47.061 4.79051L54.817 12.5466L52.0796 15.284C53.8383 17.9779 55.0806 20.9754 55.7432 24.1236H59.6212V35.0916H55.7432C55.0807 38.2413 53.8384 41.2403 52.0796 43.9358L54.817 46.6733L47.061 54.4293L44.3235 51.6919C41.6296 53.4506 38.6321 54.6929 35.4839 55.3555V59.2244ZM26.7104 57.0299H33.2917V53.5282L34.2041 53.3686C37.6702 52.7663 40.9596 51.4028 43.8353 49.3765L44.5904 48.8472L47.061 51.3269L51.7146 46.6755L49.2372 44.1982L49.7664 43.4431C51.7904 40.5662 53.1529 37.2772 53.7563 33.8119L53.9159 32.8994H57.4176V26.3204H53.9159L53.7563 25.408C53.1534 21.9418 51.7908 18.6519 49.7664 15.7745L49.2372 15.0217L51.7146 12.5466L47.061 7.89294L44.5836 10.3749L43.8285 9.84564C40.9521 7.82088 37.6629 6.45832 34.1973 5.85583L33.2848 5.69614V2.19451H26.7104V5.70299L25.7979 5.86267C22.3347 6.46462 19.0474 7.82473 16.1713 9.84564L15.4162 10.3749L12.9388 7.8975L8.28747 12.5466L10.7626 15.0285L10.2356 15.7813C8.20961 18.6581 6.84623 21.9482 6.24352 25.4148L6.08384 26.3273H2.58221V32.9085H6.08384L6.24352 33.821C6.84663 37.2868 8.20998 40.576 10.2356 43.4522L10.7626 44.2073L8.28747 46.6733L12.9388 51.3269L15.4162 48.8495L16.1713 49.3788C19.0467 51.4076 22.3359 52.7741 25.8025 53.38L26.715 53.5397L26.7104 57.0299Z" fill="#16A1E7"/>
</svg>
