<svg width="80" height="80" viewBox="0 0 80 80" fill="none" xmlns="http://www.w3.org/2000/svg">
<g clip-path="url(#clip0_71_711)">
<path d="M42.2641 60.3772C41.827 60.3775 41.3914 60.3268 40.966 60.2263L13.7962 54.1885C12.4542 53.8931 11.2532 53.1488 10.3914 52.0784C9.52968 51.0081 9.05881 49.6759 9.05659 48.3018C9.04103 48.121 9.04103 47.9392 9.05659 47.7584L12.0755 21.9168C12.178 21.0837 12.4532 20.281 12.8834 19.5602C13.3136 18.8393 13.8894 18.2161 14.5741 17.7303C15.2587 17.2445 16.0371 16.9068 16.8596 16.7388C17.6821 16.5708 18.5306 16.5762 19.3509 16.7546L28.6792 18.7923L28.0302 21.8112L18.8377 19.7735C18.6027 19.6961 18.3596 19.6454 18.1132 19.6225C17.3715 19.6171 16.6538 19.885 16.097 20.375C15.5402 20.865 15.1833 21.5428 15.0943 22.2791L12.0755 48.1508V48.3018C12.0584 48.9996 12.2837 49.6818 12.713 50.2322C13.1424 50.7826 13.7492 51.1673 14.4302 51.3206L41.6 57.3584C41.8208 57.3799 42.0433 57.3799 42.2641 57.3584C43.0058 57.3637 43.7235 57.0959 44.2803 56.6059C44.8371 56.1159 45.194 55.4381 45.283 54.7018L48.3019 28.8301C48.3019 28.8301 48.3019 28.7244 48.3019 28.6791C48.3015 27.9941 48.0682 27.3296 47.6403 26.7947C47.2124 26.2599 46.6154 25.8864 45.9472 25.7357L37.7358 23.9093L38.3849 20.8904L46.6717 22.7319C48.0071 23.0474 49.1951 23.8084 50.0402 24.8894C50.8853 25.9704 51.3369 27.3071 51.3207 28.6791C51.3363 28.8599 51.3363 29.0417 51.3207 29.2225L48.3019 55.064C48.1239 56.5367 47.41 57.8923 46.2964 58.8723C45.1828 59.8522 43.7475 60.3879 42.2641 60.3772Z" fill="#16A1E7"/>
<path d="M32.0319 19.5521L31.377 22.499L34.044 23.0917L34.6989 20.1448L32.0319 19.5521Z" fill="#16A1E7"/>
<path d="M42.249 54.3245L15.1245 48.3019L15.9849 40.8905L18.9887 41.2377L18.4302 45.9471L39.6377 50.6566L41.9472 31.0188L20.7849 25.9622L20.1358 31.5019L17.1321 31.1396L18.1887 22.249L45.2528 28.7094L42.249 54.3245Z" fill="#16A1E7"/>
<path d="M16.7285 34.6887L16.4357 37.1924L19.4341 37.543L19.7269 35.0393L16.7285 34.6887Z" fill="#16A1E7"/>
<path d="M29.8415 42.2037L24.9661 35.864L27.3661 34.0225L30.5359 38.1735L37.6302 33.615L39.2604 36.1508L29.8415 42.2037Z" fill="#16A1E7"/>
<path d="M58.6264 48.3018L55.6075 47.8037C55.7736 46.7924 55.8491 46.4 56.0453 45.3735L59.0642 45.932C58.8679 46.7924 58.8679 47.2301 58.6264 48.3018Z" fill="#16A1E7"/>
<path d="M60.3774 75.4718C59.107 75.5398 57.8555 75.1418 56.8577 74.3525C55.86 73.5632 55.1847 72.4369 54.9585 71.185C54.3838 68.2026 54.176 65.1612 54.3397 62.1284V61.8868C54.3471 58.4429 54.5892 55.0035 55.0642 51.5925L58.0831 52.0001C57.6083 55.2744 57.3662 58.5783 57.3585 61.8868V62.1736C57.2184 64.9163 57.3905 67.6661 57.8717 70.3699C58.2944 71.9246 58.868 72.4529 60.3774 72.4529C61.2175 72.3867 62.036 72.1538 62.785 71.7676C63.534 71.3814 64.1985 70.8498 64.7397 70.2038C71.7585 63.1397 77.0868 41.268 76.9812 27.1699C76.9812 17.8718 74.7623 16.6038 72.4529 16.6038C68.3472 16.6038 63.0189 27.3359 59.8038 42.1133L56.8604 41.4642C59.7887 27.985 65.4189 13.585 72.4529 13.585C79.9095 13.585 80 23.0944 80 27.1699C80.0906 40.4227 75.1548 64.0302 66.8831 72.3472C66.0644 73.2786 65.0664 74.0354 63.9485 74.5723C62.8307 75.1091 61.6161 75.4151 60.3774 75.4718Z" fill="#16A1E7"/>
<path d="M4.28681 37.7359L1.26794 37.2378C1.50945 36.2265 1.50945 35.7586 1.73587 34.717L4.75474 35.2755C4.52832 36.2265 4.43776 36.6642 4.28681 37.7359Z" fill="#16A1E7"/>
<path d="M52.9748 9.64841L52.3988 12.6118L73.3649 16.6872L73.9409 13.7238L52.9748 9.64841Z" fill="#16A1E7"/>
<path d="M5.46415 31.5472L2.52075 30.8981C5.44905 17.4189 11.0792 3.01889 18.1132 3.01889C18.5332 3.01468 18.9527 3.05006 19.366 3.12455L28.9208 4.98115L28.3472 8.00002L18.8377 6.03776C18.5965 6.02084 18.3544 6.02084 18.1132 6.03776C13.9924 6.03776 8.67924 16.7698 5.46415 31.5472Z" fill="#16A1E7"/>
<path d="M15.8038 66.9433L4.5283 64.7547C0 63.7283 0 58.7169 0 51.6679V51.3207C0.00794208 47.8768 0.25001 44.4374 0.724528 41.0264L3.7434 41.4339C3.27682 44.7091 3.03475 48.0124 3.01887 51.3207V51.6679C3.01887 58.0075 3.10943 61.3283 5.20755 61.8113L16.3774 63.9698L15.8038 66.9433Z" fill="#16A1E7"/>
<path d="M40.5578 68.6682L39.9818 71.6316L59.2143 75.37L59.7903 72.4066L40.5578 68.6682Z" fill="#16A1E7"/>
<path d="M45.283 79.9999C37.9472 79.9999 37.7358 61.0263 37.7358 58.8678V58.3093H40.7547V58.8678C40.7547 68.5131 42.8679 76.981 45.283 76.981C46.3396 76.981 47.849 74.1735 48.483 71.6678L51.4113 72.4074C51.0943 73.6754 49.2679 79.9999 45.283 79.9999Z" fill="#16A1E7"/>
<path d="M47.3056 24.6642L44.4679 23.6378C45.6151 20.4528 51.8188 4.52832 60.3773 4.52832C65.0868 4.52832 66.5962 10.1585 66.7471 13.4944L63.7283 13.6302C63.7283 13.6302 63.3962 7.54719 60.3773 7.54719C55.6226 7.54719 50.3849 16.151 47.3056 24.6642Z" fill="#16A1E7"/>
<path d="M44.5585 80.0001L20.4076 75.4718C13.7812 74.1284 13.585 56.3624 13.585 54.3398V52.9209H16.6038V54.3398C16.6038 63.6983 18.5963 71.985 20.951 72.453L45.1019 76.9813L44.5585 80.0001Z" fill="#16A1E7"/>
<path d="M23.4264 19.4113L20.6038 18.3396C22.2189 14.0377 28.1358 0 36.2264 0C36.5248 0.00132566 36.8226 0.0265637 37.117 0.0754717L61.4189 4.60377L60.8604 7.62264L36.5736 3.01887H36.2264C31.6981 3.01887 26.4906 11.2453 23.4264 19.4113Z" fill="#16A1E7"/>
</g>
<defs>
<clipPath id="clip0_71_711">
<rect width="80" height="80" fill="white"/>
</clipPath>
</defs>
</svg>
